<svg width="240" height="240" viewBox="0 0 240 240" fill="none" xmlns="http://www.w3.org/2000/svg">
<path d="M195.67 57.5773C180.669 43.3413 157.133 43.3413 142.144 57.6012L122.9 76.8454C119.888 79.6902 115.19 79.6902 112.178 76.8454L92.9341 57.6012C85.6667 50.3218 75.7936 46.2339 65.5021 46.2339C44.0585 46.1981 26.6431 63.5657 26.6192 85.0093C26.6072 95.3247 30.6951 105.234 37.9984 112.525L117.557 192.084L197.116 112.525C211.89 96.9503 211.244 72.3511 195.682 57.5773H195.67Z" fill="#E26E8C"/>
<path d="M68.3107 76.4989C62.0354 76.4989 56.9434 81.5908 56.9434 87.8661C56.9434 92.0496 53.5488 95.4443 49.3653 95.4443C45.1817 95.4443 41.7871 92.0496 41.7871 87.8661C41.7871 73.2238 53.6564 61.3425 68.3107 61.3425C72.4942 61.3425 75.8889 64.7372 75.8889 68.9207C75.8889 73.1042 72.4942 76.4989 68.3107 76.4989Z" fill="#E26E8C"/>
<path d="M207.79 46.8676C186.693 25.8065 152.519 25.8065 131.423 46.8676L117.557 60.733L103.692 46.8676C82.8458 27.0616 50.1425 27.0616 29.2846 46.8676C7.64982 67.4147 6.77726 101.6 27.3124 123.235L112.202 208.125C113.613 209.547 115.537 210.348 117.545 210.36C119.553 210.36 121.478 209.547 122.888 208.125L207.778 123.235C228.839 102.138 228.839 67.9645 207.778 46.8676H207.79Z" fill="#8A033E"/>
<path d="M117.557 192.072L37.9984 112.525C30.6951 105.234 26.6072 95.3246 26.6192 85.0093C26.655 63.5657 44.0585 46.21 65.5021 46.2339C75.7936 46.2339 85.6547 50.3218 92.9341 57.6012L112.178 76.8454C115.19 79.6902 119.888 79.6902 122.9 76.8454L142.144 57.6012C157.145 43.3533 180.669 43.3413 195.67 57.5773C211.244 72.3511 211.878 96.9502 197.104 112.525L117.545 192.084L117.557 192.072Z" fill="#E26E8C"/>
<path d="M68.3107 61.3425C53.6683 61.3425 41.7871 73.2118 41.7871 87.8661C41.7871 92.0496 45.1817 95.4443 49.3653 95.4443C53.5488 95.4443 56.9434 92.0496 56.9434 87.8661C56.9434 81.5908 62.0354 76.4989 68.3107 76.4989C72.4942 76.4989 75.8889 73.1042 75.8889 68.9207C75.8889 64.7372 72.4942 61.3425 68.3107 61.3425Z" fill="white"/>
</svg>
