<svg width="240" height="240" viewBox="0 0 240 240" fill="none" xmlns="http://www.w3.org/2000/svg">
<path d="M199.912 70.9707H66.1143L77.4695 127H187.922L199.912 70.9707Z" fill="#70BF75"/>
<path d="M201.445 136.04L216.647 65.069C216.759 64.5087 216.834 63.9111 216.797 63.3134C216.722 59.2046 213.286 55.9175 209.177 56.0296H63.0895L59.765 39.5943C59.0553 36.0458 55.9177 33.5431 52.2945 33.6178H29.8827C25.7739 33.6178 22.4121 36.9796 22.4121 41.0884C22.4121 45.1973 25.7739 48.559 29.8827 48.559H46.2059L69.29 162.598C61.4833 166.109 56.0298 173.915 56.0298 183.03C56.0298 195.393 66.0777 205.441 78.4415 205.441C90.8053 205.441 100.853 195.393 100.853 183.03C100.853 180.415 100.368 177.912 99.5459 175.559H154.455C153.633 177.912 153.147 180.415 153.147 183.03C153.147 195.393 163.195 205.441 175.559 205.441C187.923 205.441 197.971 195.393 197.971 183.03C197.971 180.415 197.485 177.912 196.664 175.559H201.445C205.554 175.559 208.915 172.197 208.915 168.088C208.915 163.98 205.554 160.618 201.445 160.618H84.2686L80.4959 141.941H193.974C197.56 142.016 200.698 139.551 201.445 136.04ZM183.03 183.03C183.03 187.138 179.668 190.5 175.559 190.5C171.45 190.5 168.089 187.138 168.089 183.03C168.089 178.921 171.45 175.559 175.559 175.559C179.668 175.559 183.03 178.921 183.03 183.03ZM66.1151 70.9708H199.913L187.923 127H77.4703L66.1151 70.9708ZM85.9121 183.03C85.9121 187.138 82.5503 190.5 78.4415 190.5C74.3327 190.5 70.9709 187.138 70.9709 183.03C70.9709 178.921 74.3327 175.559 78.4415 175.559C82.5503 175.559 85.9121 178.921 85.9121 183.03Z" fill="#396547"/>
<path d="M78.4413 190.5C82.5672 190.5 85.9119 187.155 85.9119 183.029C85.9119 178.903 82.5672 175.559 78.4413 175.559C74.3154 175.559 70.9707 178.903 70.9707 183.029C70.9707 187.155 74.3154 190.5 78.4413 190.5Z" fill="white"/>
<path d="M175.558 190.5C179.684 190.5 183.029 187.155 183.029 183.029C183.029 178.903 179.684 175.559 175.558 175.559C171.433 175.559 168.088 178.903 168.088 183.029C168.088 187.155 171.433 190.5 175.558 190.5Z" fill="white"/>
</svg>
