<svg width="240" height="240" viewBox="0 0 240 240" fill="none" xmlns="http://www.w3.org/2000/svg">
<g clip-path="url(#clip0_353_197)">
<path d="M48.5586 110.079V197.971H141.941V110.079" fill="#00A1E0"/>
<path d="M141.941 205.441H48.5585C46.5772 205.441 44.677 204.654 43.276 203.253C41.875 201.852 41.0879 199.952 41.0879 197.97V110.079C41.0879 108.098 41.875 106.197 43.276 104.796C44.677 103.395 46.5772 102.608 48.5585 102.608C50.5398 102.608 52.44 103.395 53.841 104.796C55.242 106.197 56.0291 108.098 56.0291 110.079V190.5H134.47V110.079C134.47 108.098 135.257 106.197 136.658 104.796C138.059 103.395 139.96 102.608 141.941 102.608C143.922 102.608 145.822 103.395 147.223 104.796C148.624 106.197 149.411 108.098 149.411 110.079V197.97C149.411 199.952 148.624 201.852 147.223 203.253C145.822 204.654 143.922 205.441 141.941 205.441Z" fill="#032E61"/>
<path d="M190.5 205.441C188.519 205.441 186.618 204.654 185.217 203.253C183.816 201.852 183.029 199.952 183.029 197.97V119.529C183.029 117.548 183.816 115.648 185.217 114.247C186.618 112.846 188.519 112.059 190.5 112.059C192.481 112.059 194.381 112.846 195.782 114.247C197.183 115.648 197.97 117.548 197.97 119.529V197.97C197.97 199.952 197.183 201.852 195.782 203.253C194.381 204.654 192.481 205.441 190.5 205.441Z" fill="#032E61"/>
<path d="M108.324 156.882H82.1766C80.1953 156.882 78.2951 156.095 76.8941 154.694C75.4931 153.293 74.7061 151.393 74.7061 149.412C74.7061 147.43 75.4931 145.53 76.8941 144.129C78.2951 142.728 80.1953 141.941 82.1766 141.941H108.324C110.305 141.941 112.205 142.728 113.606 144.129C115.007 145.53 115.794 147.43 115.794 149.412C115.794 151.393 115.007 153.293 113.606 154.694C112.205 156.095 110.305 156.882 108.324 156.882Z" fill="white"/>
<path d="M168.089 100.853C165.105 104.38 161.385 107.211 157.191 109.147C152.996 111.083 148.429 112.077 143.809 112.059C134.471 112.059 123.564 108.025 119.53 100.853C116.629 104.496 112.933 107.427 108.724 109.421C104.516 111.415 99.9069 112.42 95.2503 112.358C90.6053 112.349 86.0196 111.314 81.822 109.325C77.6244 107.336 73.9188 104.443 70.9709 100.853C67.989 104.411 64.2539 107.261 60.0357 109.199C55.8174 111.137 51.2213 112.114 46.5795 112.059C41.9589 112.187 37.3715 111.242 33.178 109.298C28.9845 107.353 25.2993 104.463 22.4121 100.853L44.1142 41.0881H193.526L216.647 100.853C213.653 104.367 209.931 107.189 205.739 109.125C201.547 111.06 196.985 112.062 192.368 112.062C187.751 112.062 183.189 111.06 178.997 109.125C174.805 107.189 171.083 104.367 168.089 100.853Z" fill="#00A1E0"/>
<path d="M95.2126 119.529C86.3717 119.465 77.8184 116.381 70.9706 110.789C64.0356 116.258 55.4482 119.208 46.6164 119.156C40.9015 119.275 35.2355 118.08 30.0548 115.665C24.8741 113.249 20.3169 109.677 16.7341 105.223C15.9916 104.275 15.5025 103.153 15.313 101.964C15.1235 100.775 15.2398 99.5569 15.6509 98.4249L37.3529 38.6602C37.8564 37.2768 38.7776 36.0843 39.989 35.2477C41.2003 34.4112 42.6418 33.972 44.1138 33.9911H193.526C194.954 33.9913 196.35 34.4228 197.53 35.2293C198.709 36.0357 199.618 37.1794 200.137 38.5108L223.258 98.2755C223.731 99.5442 223.831 100.922 223.547 102.245C223.262 103.569 222.605 104.784 221.652 105.746C217.973 109.896 213.468 113.232 208.425 115.541C203.382 117.85 197.913 119.081 192.368 119.156C183.496 119.2 174.896 116.103 168.088 110.415C161.338 116.203 152.699 119.314 143.809 119.156C134.997 119.173 126.412 116.372 119.305 111.162C112.448 116.562 103.978 119.508 95.25 119.529H95.2126ZM70.9706 93.7558C72.0254 93.762 73.0655 94.0033 74.0153 94.462C74.9652 94.9208 75.8008 95.5855 76.4614 96.4078C78.7278 99.1735 81.5771 101.404 84.8056 102.941C88.0342 104.478 91.5623 105.283 95.1379 105.298C98.7032 105.382 102.24 104.648 105.478 103.152C108.715 101.656 111.567 99.4385 113.814 96.6693C114.52 95.7202 115.451 94.9624 116.524 94.4647C117.596 93.967 118.776 93.7452 119.956 93.8194C121.136 93.8936 122.279 94.2615 123.281 94.8897C124.283 95.5179 125.112 96.3864 125.693 97.4164C128.046 101.6 136.189 104.887 143.809 104.887C151.429 104.887 156.546 102.422 163.008 95.8102C163.668 95.1439 164.453 94.6149 165.319 94.2539C166.185 93.893 167.113 93.7071 168.051 93.7071C168.989 93.7071 169.917 93.893 170.783 94.2539C171.648 94.6149 172.434 95.1439 173.093 95.8102C175.473 98.6159 178.422 100.883 181.745 102.461C185.069 104.039 188.69 104.891 192.368 104.962C198.236 104.976 203.904 102.821 208.28 98.9105L188.632 48.1852H49.0817L30.4053 99.2093C34.8434 103.056 40.5581 105.108 46.4297 104.962C50.0277 105.012 53.5922 104.264 56.8667 102.772C60.1412 101.28 63.0445 99.0811 65.3676 96.3331C66.0475 95.5097 66.9044 94.8503 67.8745 94.404C68.8446 93.9578 69.9029 93.7362 70.9706 93.7558Z" fill="#032E61"/>
</g>
<defs>
<clipPath id="clip0_353_197">
<rect width="239.059" height="239.059" fill="white"/>
</clipPath>
</defs>
</svg>
