<svg width="240" height="240" viewBox="0 0 240 240" fill="none" xmlns="http://www.w3.org/2000/svg">
<path d="M115.794 134.471C97.23 134.471 82.1768 149.524 82.1768 168.088C82.1768 168.761 82.0647 169.433 81.8779 170.031C91.8512 175.858 103.393 179.294 115.794 179.294C128.196 179.294 139.738 175.895 149.711 170.031C149.524 169.396 149.412 168.761 149.412 168.088C149.412 149.524 134.359 134.471 115.794 134.471Z" fill="white"/>
<path d="M115.795 119.53C128.172 119.53 138.206 109.495 138.206 97.1178C138.206 84.7401 128.172 74.7061 115.795 74.7061C103.417 74.7061 93.3828 84.7401 93.3828 97.1178C93.3828 109.495 103.417 119.53 115.795 119.53Z" fill="white"/>
<path d="M91.9254 125.842C83.7077 119.007 78.4409 108.66 78.4409 97.1178C78.4409 76.499 95.1751 59.7649 115.794 59.7649C136.413 59.7649 153.147 76.499 153.147 97.1178C153.147 108.66 147.917 118.969 139.662 125.842C151.989 132.827 160.916 145.004 163.531 159.385C175.596 147.245 183.029 130.511 183.029 112.059C183.029 74.9302 152.923 44.8237 115.794 44.8237C78.6651 44.8237 48.5586 74.9302 48.5586 112.059C48.5586 130.511 55.9918 147.245 68.0568 159.385C70.6715 144.967 79.5989 132.79 91.9254 125.842Z" fill="#FFBA90"/>
<path d="M221.913 192.666L185.233 155.986C193.301 143.286 197.97 128.233 197.97 112.059C197.97 66.675 161.177 29.8823 115.794 29.8823C70.4098 29.8823 33.6172 66.675 33.6172 112.059C33.6172 157.443 70.4098 194.235 115.794 194.235C130.025 194.235 143.397 190.612 155.052 184.262L192.703 221.914C194.085 223.333 195.99 224.118 197.97 224.118C199.95 224.118 201.855 223.333 203.237 221.914L221.913 203.237C224.827 200.324 224.827 195.58 221.913 192.666Z" fill="#DD7A01"/>
<path d="M48.5586 112.059C48.5586 74.9302 78.6651 44.8237 115.794 44.8237C152.923 44.8237 183.029 74.9302 183.029 112.059C183.029 130.511 175.596 147.245 163.531 159.385C160.916 144.967 151.989 132.79 139.662 125.842C147.88 119.007 153.147 108.66 153.147 97.1178C153.147 76.499 136.413 59.7649 115.794 59.7649C95.1751 59.7649 78.4409 76.499 78.4409 97.1178C78.4409 108.66 83.6704 118.969 91.9254 125.842C79.5989 132.827 70.6715 145.004 68.0568 159.385C55.9918 147.245 48.5586 130.511 48.5586 112.059Z" fill="#FFBA90"/>
<path d="M115.795 119.53C128.172 119.53 138.206 109.495 138.206 97.1178C138.206 84.7401 128.172 74.7061 115.795 74.7061C103.417 74.7061 93.3828 84.7401 93.3828 97.1178C93.3828 109.495 103.417 119.53 115.795 119.53Z" fill="white"/>
<path d="M115.794 179.294C103.393 179.294 91.8512 175.895 81.8779 170.031C82.0647 169.396 82.1768 168.761 82.1768 168.088C82.1768 149.524 97.23 134.471 115.794 134.471C134.359 134.471 149.412 149.524 149.412 168.088C149.412 168.761 149.524 169.433 149.711 170.031C139.738 175.858 128.196 179.294 115.794 179.294Z" fill="white"/>
<path d="M197.971 206.076L167.678 175.783C169.097 174.625 170.479 173.393 171.861 172.123C171.973 172.01 172.085 171.898 172.197 171.786C173.505 170.554 174.812 169.246 176.045 167.939L206.077 197.971L197.971 206.076Z" fill="#DD7A01"/>
<path d="M176.045 167.939C174.812 169.284 173.542 170.554 172.197 171.786C172.085 171.898 171.973 172.01 171.861 172.123C170.517 173.393 169.134 174.588 167.678 175.783L197.971 206.076L206.077 197.971L176.045 167.939Z" fill="white"/>
</svg>
