<svg width="240" height="240" viewBox="0 0 240 240" fill="none" xmlns="http://www.w3.org/2000/svg">
<path d="M119.529 216.012C66.6004 216.273 23.4951 173.542 23.2336 120.613C22.9721 67.6834 65.7039 24.5781 118.633 24.3166C171.562 24.0552 214.667 66.7869 214.929 119.716V120.164C215.041 172.981 172.347 215.9 119.529 216.012Z" fill="#0D9DDA"/>
<path d="M93.0092 166.445C76.4245 158.227 66.003 141.232 66.2645 122.704C66.2645 112.918 69.1033 103.318 74.5195 95.138L108.922 146.648H129.727L164.129 95.138C169.545 103.318 172.422 112.918 172.384 122.704C172.534 139.924 163.569 155.949 148.777 164.801L155.389 190.276C194.012 170.18 209.065 122.555 188.932 83.9321C182.208 70.9707 172.011 60.1757 159.497 52.6677L119.53 114.636L79.973 52.481C42.508 74.5939 30.0321 122.929 52.1824 160.431C60.2133 174.065 72.1662 184.934 86.4724 191.658L93.0092 166.445Z" fill="white"/>
<path d="M119.53 14.9414C61.782 14.9414 14.9414 61.782 14.9414 119.53C14.9414 177.277 61.782 224.118 119.53 224.118C177.277 224.118 224.118 177.277 224.118 119.53C224.118 61.782 177.277 14.9414 119.53 14.9414ZM119.53 216.012C66.6005 216.274 23.4952 173.542 23.2338 120.613C22.9723 67.6838 65.7041 24.5785 118.633 24.317C171.562 24.0555 214.668 66.7873 214.929 119.716V120.165C215.041 172.982 172.347 215.9 119.53 216.012Z" fill="#032D60"/>
</svg>
