<svg width="240" height="240" viewBox="0 0 240 240" fill="none" xmlns="http://www.w3.org/2000/svg">
<path d="M61.0345 146.162C61.0345 157.816 51.5095 167.379 39.818 167.379C28.1266 167.379 18.6016 157.854 18.6016 146.162C18.6016 134.471 28.1266 124.946 39.818 124.946H61.0345V146.162Z" fill="#E01E5A"/>
<path d="M71.7178 146.162C71.7178 134.508 81.2428 124.946 92.9342 124.946C104.626 124.946 114.151 134.471 114.151 146.162V199.241C114.151 210.895 104.626 220.457 92.9342 220.457C81.2428 220.457 71.7178 210.932 71.7178 199.241V146.162Z" fill="#E01E5A"/>
<path d="M92.8962 61.0345C81.242 61.0345 71.6797 51.5095 71.6797 39.818C71.6797 28.1266 81.2047 18.6016 92.8962 18.6016C104.588 18.6016 114.113 28.1266 114.113 39.818V61.0345H92.8962Z" fill="#36C5F0"/>
<path d="M92.8966 71.7173C104.551 71.7173 114.113 81.2423 114.113 92.9338C114.113 104.625 104.588 114.15 92.8966 114.15H39.818C28.1639 114.15 18.6016 104.625 18.6016 92.9338C18.6016 81.2423 28.1266 71.7173 39.818 71.7173H92.8966Z" fill="#36C5F0"/>
<path d="M178.024 92.8966C178.024 81.2425 187.549 71.6802 199.241 71.6802C210.932 71.6802 220.457 81.2052 220.457 92.8966C220.457 104.588 210.932 114.113 199.241 114.113H178.024V92.8966Z" fill="#2EB67D"/>
<path d="M167.341 92.8966C167.341 104.551 157.816 114.113 146.125 114.113C134.433 114.113 124.908 104.588 124.908 92.8966V39.818C124.908 28.1639 134.433 18.6016 146.125 18.6016C157.816 18.6016 167.341 28.1266 167.341 39.818V92.8966Z" fill="#2EB67D"/>
<path d="M146.162 178.024C157.816 178.024 167.378 187.549 167.378 199.24C167.378 210.932 157.853 220.457 146.162 220.457C134.47 220.457 124.945 210.932 124.945 199.24V178.024H146.162Z" fill="#ECB22E"/>
<path d="M146.162 167.341C134.508 167.341 124.945 157.816 124.945 146.125C124.945 134.433 134.47 124.908 146.162 124.908H199.24C210.894 124.908 220.457 134.433 220.457 146.125C220.457 157.816 210.932 167.341 199.24 167.341H146.162Z" fill="#ECB22E"/>
</svg>
