<svg width="240" height="240" viewBox="0 0 240 240" fill="none" xmlns="http://www.w3.org/2000/svg">
<path d="M114.116 99.6949C129.571 99.6949 142.1 86.383 142.1 69.9619C142.1 53.5409 129.571 40.229 114.116 40.229C98.6607 40.229 86.1318 53.5409 86.1318 69.9619C86.1318 86.383 98.6607 99.6949 114.116 99.6949Z" fill="#0D9DDA"/>
<path d="M157.639 185.607C153.42 185.607 149.272 184.038 145.967 181.236L130.428 168.013C126.526 164.726 124.1 159.982 123.537 154.716C122.975 149.449 124.416 144.257 127.51 140.148C131.096 135.404 136.369 132.715 142.1 132.715C146.002 132.715 149.869 134.059 153.033 136.487L153.42 135.89C145.123 122.069 130.639 112.88 114.116 112.88C88.3816 112.88 67.4639 135.105 67.4639 162.448V198.792H160.768V185.308H160.697C159.713 185.494 158.658 185.569 157.639 185.569V185.607Z" fill="#0D9DDA"/>
<path d="M182.741 123.863C181.721 123.153 180.561 122.854 179.401 122.854C177.362 122.854 175.323 123.937 174.127 125.917L167.799 136.525L167.659 136.749L163.721 143.323L159.327 150.645L156.092 156.023L147.831 149.001L145.968 147.432C144.807 146.424 143.436 145.975 142.065 145.975C140.237 145.975 138.409 146.835 137.214 148.441C135.069 151.28 135.491 155.463 138.163 157.742L153.702 170.965C154.827 171.936 156.198 172.421 157.604 172.421C157.956 172.421 158.272 172.421 158.624 172.309C159.362 172.16 160.1 171.861 160.698 171.488C161.542 170.965 162.28 170.218 162.842 169.321L166.92 162.523L172.44 153.297L184.604 132.977C186.432 129.914 185.588 125.805 182.705 123.863H182.741Z" fill="white"/>
<path d="M189.419 112.731C186.396 110.714 182.951 109.631 179.4 109.631C173.002 109.631 167.096 113.068 163.65 118.82L160.592 123.9C154.545 115.682 146.67 109.108 137.529 104.887C147.795 97.0805 154.51 84.3805 154.51 69.9622C154.51 46.2805 136.369 27.0063 114.08 27.0063C91.7916 27.0063 73.6512 46.2805 73.6512 69.9622C73.6512 84.3805 80.3659 97.0805 90.6315 104.887C69.7137 114.524 54.9834 136.712 54.9834 162.485V205.441C54.9834 209.065 57.7959 212.053 61.206 212.053H166.92C170.33 212.053 173.142 209.065 173.142 205.441V176.717C173.142 176.717 173.283 176.53 173.318 176.418L195.08 140.074C200.599 130.848 198.033 118.558 189.349 112.694L189.419 112.731Z" fill="#032D60"/>
<path d="M160.768 198.83H67.4639V162.485C67.4639 135.143 88.3816 112.918 114.116 112.918C130.639 112.918 145.158 122.107 153.42 135.927L153.033 136.525C149.869 134.097 146.002 132.752 142.1 132.752C136.405 132.752 131.096 135.479 127.51 140.186C124.416 144.332 122.975 149.487 123.537 154.753C124.1 160.02 126.526 164.727 130.428 168.051L145.967 181.274C149.272 184.075 153.385 185.644 157.639 185.644C158.658 185.644 159.678 185.532 160.697 185.383H160.768V198.867V198.83Z" fill="#0D9DDA"/>
<path d="M114.116 99.6949C129.571 99.6949 142.1 86.383 142.1 69.9619C142.1 53.5409 129.571 40.229 114.116 40.229C98.6607 40.229 86.1318 53.5409 86.1318 69.9619C86.1318 86.383 98.6607 99.6949 114.116 99.6949Z" fill="#0D9DDA"/>
<path d="M166.991 162.523L162.913 169.321C162.385 170.218 161.647 170.927 160.768 171.488C160.1 171.898 159.432 172.197 158.694 172.309C158.342 172.384 158.026 172.421 157.674 172.421C156.268 172.421 154.897 171.936 153.772 170.965L138.233 157.742C135.561 155.463 135.14 151.28 137.284 148.441C138.514 146.835 140.343 145.975 142.136 145.975C143.507 145.975 144.878 146.424 146.038 147.432L147.901 149.001L156.163 156.023L159.397 150.645L163.792 143.323L167.729 136.749L167.87 136.525L174.198 125.917C175.393 123.937 177.397 122.854 179.471 122.854C180.631 122.854 181.756 123.19 182.811 123.863C185.694 125.805 186.573 129.914 184.709 132.977L172.545 153.297L167.026 162.523H166.991Z" fill="white"/>
</svg>
