<svg width="240" height="240" viewBox="0 0 240 240" fill="none" xmlns="http://www.w3.org/2000/svg">
<g clip-path="url(#clip0_353_188)">
<path d="M146.573 134.47C147.237 133.319 148.197 132.366 149.353 131.71C150.508 131.053 151.818 130.717 153.147 130.735H177.165L119.529 36.6431L61.8564 130.735H85.9117C87.2129 130.756 88.4861 131.116 89.6052 131.78C90.7243 132.444 91.6506 133.389 92.2922 134.522C92.9337 135.654 93.2684 136.934 93.2631 138.235C93.2578 139.537 92.9126 140.814 92.2617 141.941L62.0059 190.5H112.059V138.206C112.059 136.224 112.846 134.324 114.247 132.923C115.648 131.522 117.548 130.735 119.529 130.735C121.511 130.735 123.411 131.522 124.812 132.923C126.213 134.324 127 136.224 127 138.206V190.5H176.978L146.76 141.941C146.075 140.822 145.698 139.542 145.665 138.231C145.632 136.919 145.945 135.622 146.573 134.47Z" fill="#91DB8B"/>
<path d="M125.245 82.1765L104.813 115.794C104.341 116.652 103.7 117.405 102.928 118.008C102.155 118.61 101.269 119.048 100.322 119.296C99.3743 119.545 98.3865 119.597 97.4183 119.451C96.4501 119.305 95.5218 118.963 94.69 118.446C93.0011 117.411 91.7926 115.747 91.3303 113.821C90.868 111.894 91.1897 109.863 92.2247 108.174L112.507 74.5565C113.558 72.9002 115.218 71.7235 117.128 71.2805C119.039 70.8375 121.047 71.1636 122.72 72.1886C124.392 73.2135 125.594 74.855 126.067 76.7587C126.539 78.6623 126.244 80.6754 125.245 82.3632V82.1765Z" fill="#91DB8B"/>
<path d="M166.594 145.676H190.5C192.481 145.676 194.382 144.889 195.783 143.488C197.184 142.087 197.971 140.187 197.971 138.206C197.949 136.896 197.602 135.613 196.962 134.47L125.88 18.6764C124.864 17.0193 123.243 15.8232 121.36 15.342C119.477 14.8608 117.48 15.1323 115.794 16.099C114.772 16.7207 113.913 17.579 113.292 18.6017L42.321 134.396C41.3128 136.083 41.0102 138.099 41.4787 140.008C41.9471 141.917 43.1489 143.564 44.8236 144.593C45.9419 145.299 47.2367 145.674 48.5589 145.676H72.4275L42.1716 193.936C41.4427 195.072 41.0351 196.384 40.9921 197.733C40.9491 199.082 41.2723 200.417 41.9274 201.597C42.5825 202.777 43.545 203.758 44.7126 204.435C45.8803 205.111 47.2094 205.459 48.5589 205.441H112.059V216.647C112.059 218.628 112.846 220.528 114.247 221.929C115.648 223.33 117.548 224.118 119.53 224.118C121.511 224.118 123.411 223.33 124.812 221.929C126.213 220.528 127 218.628 127 216.647V205.441H190.5C191.817 205.453 193.114 205.116 194.259 204.466C195.404 203.815 196.357 202.873 197.02 201.735C197.684 200.597 198.035 199.304 198.038 197.987C198.041 196.67 197.695 195.376 197.037 194.235L166.594 145.676Z" fill="#194E31"/>
<path d="M127 190.5V138.206C127 136.224 126.213 134.324 124.812 132.923C123.411 131.522 121.511 130.735 119.529 130.735C117.548 130.735 115.648 131.522 114.247 132.923C112.846 134.324 112.059 136.224 112.059 138.206V190.5H62.0059L92.2244 141.941C92.8738 140.817 93.2191 139.543 93.2261 138.245C93.2331 136.946 92.9017 135.669 92.2645 134.537C91.6273 133.406 90.7063 132.461 89.5923 131.794C88.4783 131.127 87.2097 130.762 85.9117 130.735H61.8564L119.529 36.6431L177.128 130.735H153.147C151.824 130.723 150.522 131.063 149.374 131.719C148.225 132.375 147.272 133.325 146.61 134.47C145.955 135.606 145.609 136.894 145.609 138.206C145.609 139.517 145.955 140.805 146.61 141.941L177.016 190.5H127Z" fill="#91DB8B"/>
<path d="M122.779 72.0162C121.09 70.9812 119.059 70.6595 117.133 71.1218C115.207 71.5841 113.543 72.7926 112.507 74.4815L92.0753 107.875C91.0403 109.564 90.7186 111.595 91.1809 113.522C91.6432 115.448 92.8517 117.112 94.5406 118.147C95.3695 118.652 96.2917 118.984 97.252 119.123C98.2122 119.263 99.1908 119.207 100.129 118.96C101.067 118.712 101.946 118.278 102.712 117.682C103.478 117.087 104.117 116.343 104.589 115.495L125.095 82.1762C126.109 80.5147 126.434 78.5233 126.001 76.6258C125.569 74.7283 124.413 73.0744 122.779 72.0162Z" fill="white"/>
</g>
<defs>
<clipPath id="clip0_353_188">
<rect width="239.059" height="239.059" fill="white"/>
</clipPath>
</defs>
</svg>
