<svg width="240" height="240" viewBox="0 0 240 240" fill="none" xmlns="http://www.w3.org/2000/svg">
<g clip-path="url(#clip0_353_155)">
<path d="M154.182 124.602H125.447V155.87H114.035V124.602H85.2998V113.613H114.035V82.3408H125.447V113.613H154.182V124.602Z" fill="#E8762C"/>
<path d="M96.2886 164.745H70.5114V136.432H60.7921V164.745H34.5928V173.198H60.7921V201.086H70.5114V173.198H96.2886V164.745Z" fill="#C72035"/>
<path d="M204.466 64.1722H178.689V36.2808H168.97V64.1722H143.192V73.0473H168.97V100.935H178.689V73.0473H204.466V64.1722Z" fill="#59879B"/>
<path d="M141.504 195.595H124.176V176.156H115.727V195.595H97.9766V203.2H115.727V223.06H124.176V203.2H141.504V195.595Z" fill="#5B6591"/>
<path d="M96.2886 64.1722H70.0893V36.2808H60.7921V64.1722H34.5928V72.6214H60.7921V100.935H70.0893V72.6214H96.2886V64.1722Z" fill="#EB912C"/>
<path d="M224.331 115.305H207.003V95.8662H198.554V115.305H180.804V122.91H198.554V142.348H207.003V122.91H224.331V115.305Z" fill="#5B6591"/>
<path d="M204.466 164.745H178.689V136.432H168.97V164.745H143.192V173.198H168.97V201.086H178.689V173.198H204.466V164.745Z" fill="#1F447E"/>
<path d="M140.234 35.4365H122.91V15.998H116.571V35.4365H99.2471V41.3532H116.571V60.3696H122.91V41.3532H140.234V35.4365Z" fill="#7099A6"/>
<path d="M55.7196 116.149H38.3953V97.1323H32.0565V116.149H14.7285V122.065H32.0565V141.082H38.3953V122.065H55.7196V116.149Z" fill="#7099A6"/>
</g>
<defs>
<clipPath id="clip0_353_155">
<rect width="239.059" height="239.059" fill="white"/>
</clipPath>
</defs>
</svg>
