<svg width="240" height="240" viewBox="0 0 240 240" fill="none" xmlns="http://www.w3.org/2000/svg">
<path d="M41.0879 127.672L69.4388 99.3214C72.3523 96.4078 77.0588 96.4078 79.9723 99.3214L104.588 123.713L146.311 82.1764H112.058C107.95 82.1764 104.588 78.8146 104.588 74.7058C104.588 70.597 107.95 67.2352 112.058 67.2352H164.353C168.461 67.2352 171.823 70.597 171.823 74.7058V127C171.823 131.109 168.461 134.47 164.353 134.47C160.244 134.47 156.882 131.109 156.882 127V92.7846L110.079 139.55C107.165 142.464 102.459 142.464 99.5452 139.55L74.7055 115.122L41.0879 148.739V197.97H67.2349V175.559C67.2349 171.45 70.5967 168.088 74.7055 168.088C78.8144 168.088 82.1761 171.45 82.1761 175.559V197.97H112.058V175.559C112.058 171.45 115.42 168.088 119.529 168.088C123.638 168.088 127 171.45 127 175.559V197.97H156.882V175.559C156.882 171.45 160.244 168.088 164.353 168.088C168.461 168.088 171.823 171.45 171.823 175.559V197.97H197.97V41.0881H41.0879V127.672Z" fill="#04E1CB"/>
<path d="M99.5452 139.551C102.459 142.464 107.165 142.464 110.079 139.551L156.882 92.7848V127C156.882 131.109 160.244 134.471 164.353 134.471C168.461 134.471 171.823 131.109 171.823 127V74.7059C171.823 70.5971 168.461 67.2354 164.353 67.2354H112.058C107.95 67.2354 104.588 70.5971 104.588 74.7059C104.588 78.8148 107.95 82.1765 112.058 82.1765H146.311L104.588 123.713L79.9723 99.3215C77.0588 96.408 72.3523 96.408 69.4388 99.3215L41.0879 127.672V148.739L74.7055 115.122L99.5452 139.551Z" fill="white"/>
<path d="M205.442 26.147H33.618C29.5092 26.147 26.1475 29.5087 26.1475 33.6176V205.441C26.1475 209.55 29.5092 212.912 33.618 212.912H205.442C209.55 212.912 212.912 209.55 212.912 205.441V33.6176C212.912 29.5087 209.55 26.147 205.442 26.147ZM197.971 197.971H171.824V175.559C171.824 171.45 168.462 168.088 164.353 168.088C160.245 168.088 156.883 171.45 156.883 175.559V197.971H127V175.559C127 171.45 123.639 168.088 119.53 168.088C115.421 168.088 112.059 171.45 112.059 175.559V197.971H82.1769V175.559C82.1769 171.45 78.8151 168.088 74.7063 168.088C70.5975 168.088 67.2357 171.45 67.2357 175.559V197.971H41.0886V41.0881H197.971V197.971Z" fill="#0B827C"/>
</svg>
