<svg width="1000" height="831" viewBox="0 0 1000 831" fill="none" xmlns="http://www.w3.org/2000/svg">
<g clip-path="url(#clip0_1_24911)">
<path d="M941.995 0H58.0046C25.9696 0 0 25.9696 0 58.0046V772.622C0 804.657 25.9696 830.626 58.0046 830.626H941.995C974.03 830.626 1000 804.657 1000 772.622V58.0046C1000 25.9696 974.03 0 941.995 0Z" fill="#E4E2DD"/>
<path d="M662.834 83.2368H583.667C562.607 83.2368 545.534 100.31 545.534 121.37C545.534 142.431 562.607 159.504 583.667 159.504H662.834C683.895 159.504 700.968 142.431 700.968 121.37C700.968 100.31 683.895 83.2368 662.834 83.2368Z" fill="#B6174B" stroke="black" stroke-width="2"/>
<path d="M766.166 125.735C766.734 125.169 766.734 124.251 766.166 123.684L756.937 114.456C756.369 113.89 755.453 113.89 754.884 114.456C754.321 115.023 754.321 115.941 754.884 116.507L763.092 124.71L754.884 132.913C754.321 133.479 754.321 134.397 754.884 134.964C755.453 135.53 756.369 135.53 756.937 134.964L766.166 125.735ZM765.139 123.26H702.436V126.16H765.139V123.26Z" fill="black"/>
<path d="M601.085 124.519H605.087V126.45H598.648V114.304H601.085V124.519ZM610.916 126.607C609.988 126.607 609.153 126.404 608.411 125.998C607.668 125.58 607.082 124.994 606.653 124.24C606.235 123.486 606.027 122.616 606.027 121.63C606.027 120.644 606.241 119.774 606.671 119.02C607.111 118.266 607.709 117.686 608.463 117.28C609.217 116.862 610.058 116.653 610.986 116.653C611.914 116.653 612.755 116.862 613.509 117.28C614.263 117.686 614.855 118.266 615.284 119.02C615.725 119.774 615.945 120.644 615.945 121.63C615.945 122.616 615.719 123.486 615.267 124.24C614.826 124.994 614.223 125.58 613.457 125.998C612.703 126.404 611.856 126.607 610.916 126.607ZM610.916 124.484C611.357 124.484 611.769 124.38 612.152 124.171C612.546 123.95 612.86 123.625 613.092 123.196C613.324 122.767 613.44 122.245 613.44 121.63C613.44 120.714 613.196 120.012 612.709 119.525C612.233 119.026 611.647 118.776 610.951 118.776C610.255 118.776 609.669 119.026 609.194 119.525C608.73 120.012 608.498 120.714 608.498 121.63C608.498 122.547 608.724 123.254 609.176 123.753C609.64 124.24 610.22 124.484 610.916 124.484ZM621.508 116.653C622.227 116.653 622.86 116.798 623.405 117.088C623.95 117.367 624.379 117.732 624.693 118.185V116.81H627.146V126.52C627.146 127.413 626.966 128.208 626.607 128.904C626.247 129.612 625.708 130.168 624.988 130.574C624.269 130.992 623.399 131.201 622.378 131.201C621.009 131.201 619.884 130.882 619.002 130.244C618.132 129.606 617.639 128.736 617.523 127.634H619.942C620.07 128.074 620.342 128.422 620.76 128.678C621.189 128.945 621.705 129.078 622.309 129.078C623.016 129.078 623.59 128.863 624.031 128.434C624.472 128.016 624.693 127.378 624.693 126.52V125.023C624.379 125.476 623.944 125.853 623.387 126.154C622.842 126.456 622.216 126.607 621.508 126.607C620.696 126.607 619.954 126.398 619.281 125.98C618.608 125.563 618.074 124.977 617.68 124.223C617.297 123.457 617.106 122.581 617.106 121.595C617.106 120.621 617.297 119.757 617.68 119.003C618.074 118.248 618.602 117.668 619.263 117.262C619.936 116.856 620.684 116.653 621.508 116.653ZM624.693 121.63C624.693 121.038 624.577 120.534 624.345 120.116C624.113 119.687 623.799 119.362 623.405 119.142C623.01 118.91 622.587 118.794 622.135 118.794C621.682 118.794 621.264 118.904 620.882 119.124C620.499 119.345 620.186 119.67 619.942 120.099C619.71 120.516 619.594 121.015 619.594 121.595C619.594 122.175 619.71 122.686 619.942 123.127C620.186 123.556 620.499 123.887 620.882 124.119C621.276 124.351 621.694 124.467 622.135 124.467C622.587 124.467 623.01 124.356 623.405 124.136C623.799 123.904 624.113 123.579 624.345 123.161C624.577 122.732 624.693 122.222 624.693 121.63ZM630.76 115.661C630.331 115.661 629.971 115.528 629.681 115.261C629.403 114.983 629.263 114.641 629.263 114.235C629.263 113.829 629.403 113.492 629.681 113.225C629.971 112.947 630.331 112.808 630.76 112.808C631.189 112.808 631.543 112.947 631.821 113.225C632.111 113.492 632.256 113.829 632.256 114.235C632.256 114.641 632.111 114.983 631.821 115.261C631.543 115.528 631.189 115.661 630.76 115.661ZM631.961 116.81V126.45H629.524V116.81H631.961ZM639.71 116.671C640.858 116.671 641.787 117.036 642.494 117.767C643.202 118.486 643.556 119.496 643.556 120.795V126.45H641.119V121.125C641.119 120.36 640.928 119.774 640.545 119.368C640.162 118.95 639.64 118.741 638.979 118.741C638.306 118.741 637.773 118.95 637.378 119.368C636.995 119.774 636.804 120.36 636.804 121.125V126.45H634.368V116.81H636.804V118.011C637.129 117.593 637.541 117.268 638.039 117.036C638.55 116.793 639.107 116.671 639.71 116.671Z" fill="white"/>
<path d="M883.832 83.2368H804.665C783.604 83.2368 766.531 100.31 766.531 121.37C766.531 142.431 783.604 159.504 804.665 159.504H883.832C904.892 159.504 921.965 142.431 921.965 121.37C921.965 100.31 904.892 83.2368 883.832 83.2368Z" fill="#B6174B" stroke="black" stroke-width="2"/>
<path d="M788.312 120.36C788.312 119.165 788.579 118.098 789.112 117.158C789.658 116.207 790.394 115.47 791.322 114.948C792.262 114.414 793.312 114.147 794.472 114.147C795.829 114.147 797.018 114.496 798.039 115.192C799.06 115.888 799.774 116.851 800.18 118.08H797.378C797.1 117.5 796.705 117.065 796.195 116.775C795.696 116.485 795.116 116.34 794.455 116.34C793.747 116.34 793.115 116.508 792.558 116.845C792.013 117.17 791.583 117.634 791.27 118.237C790.969 118.84 790.818 119.548 790.818 120.36C790.818 121.16 790.969 121.868 791.27 122.483C791.583 123.086 792.013 123.556 792.558 123.892C793.115 124.217 793.747 124.379 794.455 124.379C795.116 124.379 795.696 124.234 796.195 123.944C796.705 123.643 797.1 123.202 797.378 122.622H800.18C799.774 123.863 799.06 124.832 798.039 125.528C797.03 126.212 795.841 126.555 794.472 126.555C793.312 126.555 792.262 126.294 791.322 125.772C790.394 125.238 789.658 124.501 789.112 123.562C788.579 122.622 788.312 121.555 788.312 120.36ZM801.636 121.595C801.636 120.621 801.827 119.757 802.21 119.002C802.604 118.248 803.132 117.668 803.793 117.262C804.466 116.856 805.215 116.653 806.038 116.653C806.757 116.653 807.384 116.798 807.918 117.088C808.463 117.378 808.898 117.744 809.223 118.185V116.81H811.676V126.45H809.223V125.041C808.909 125.493 808.474 125.87 807.918 126.172C807.372 126.462 806.74 126.607 806.021 126.607C805.209 126.607 804.466 126.398 803.793 125.98C803.132 125.563 802.604 124.977 802.21 124.223C801.827 123.457 801.636 122.581 801.636 121.595ZM809.223 121.63C809.223 121.038 809.107 120.534 808.875 120.116C808.643 119.687 808.329 119.362 807.935 119.142C807.541 118.91 807.117 118.794 806.665 118.794C806.212 118.794 805.795 118.904 805.412 119.124C805.029 119.345 804.716 119.67 804.472 120.099C804.24 120.516 804.124 121.015 804.124 121.595C804.124 122.175 804.24 122.686 804.472 123.127C804.716 123.556 805.029 123.886 805.412 124.118C805.806 124.35 806.224 124.467 806.665 124.467C807.117 124.467 807.541 124.356 807.935 124.136C808.329 123.904 808.643 123.579 808.875 123.161C809.107 122.732 809.223 122.222 809.223 121.63ZM813.428 121.595C813.428 120.621 813.619 119.757 814.002 119.002C814.397 118.248 814.93 117.668 815.603 117.262C816.276 116.856 817.024 116.653 817.848 116.653C818.474 116.653 819.072 116.792 819.64 117.071C820.209 117.338 820.661 117.697 820.998 118.15V113.573H823.469V126.45H820.998V125.023C820.696 125.499 820.273 125.882 819.727 126.172C819.182 126.462 818.55 126.607 817.831 126.607C817.018 126.607 816.276 126.398 815.603 125.98C814.93 125.563 814.397 124.977 814.002 124.223C813.619 123.457 813.428 122.581 813.428 121.595ZM821.015 121.63C821.015 121.038 820.899 120.534 820.667 120.116C820.435 119.687 820.122 119.362 819.727 119.142C819.333 118.91 818.909 118.794 818.457 118.794C818.005 118.794 817.587 118.904 817.204 119.124C816.821 119.345 816.508 119.67 816.264 120.099C816.032 120.516 815.916 121.015 815.916 121.595C815.916 122.175 816.032 122.686 816.264 123.127C816.508 123.556 816.821 123.886 817.204 124.118C817.599 124.35 818.016 124.467 818.457 124.467C818.909 124.467 819.333 124.356 819.727 124.136C820.122 123.904 820.435 123.579 820.667 123.161C820.899 122.732 821.015 122.222 821.015 121.63ZM825.22 121.595C825.22 120.621 825.412 119.757 825.795 119.002C826.189 118.248 826.717 117.668 827.378 117.262C828.051 116.856 828.799 116.653 829.623 116.653C830.342 116.653 830.969 116.798 831.502 117.088C832.047 117.378 832.483 117.744 832.807 118.185V116.81H835.261V126.45H832.807V125.041C832.494 125.493 832.059 125.87 831.502 126.172C830.957 126.462 830.325 126.607 829.605 126.607C828.793 126.607 828.051 126.398 827.378 125.98C826.717 125.563 826.189 124.977 825.795 124.223C825.412 123.457 825.22 122.581 825.22 121.595ZM832.807 121.63C832.807 121.038 832.691 120.534 832.459 120.116C832.227 119.687 831.914 119.362 831.52 119.142C831.125 118.91 830.702 118.794 830.249 118.794C829.797 118.794 829.379 118.904 828.996 119.124C828.614 119.345 828.3 119.67 828.057 120.099C827.825 120.516 827.709 121.015 827.709 121.595C827.709 122.175 827.825 122.686 828.057 123.127C828.3 123.556 828.614 123.886 828.996 124.118C829.391 124.35 829.808 124.467 830.249 124.467C830.702 124.467 831.125 124.356 831.52 124.136C831.914 123.904 832.227 123.579 832.459 123.161C832.691 122.732 832.807 122.222 832.807 121.63ZM841.328 126.607C840.539 126.607 839.832 126.468 839.205 126.189C838.579 125.899 838.08 125.511 837.709 125.023C837.349 124.536 837.152 123.997 837.117 123.405H839.571C839.617 123.776 839.797 124.084 840.11 124.327C840.435 124.571 840.835 124.693 841.311 124.693C841.775 124.693 842.135 124.6 842.39 124.414C842.657 124.229 842.79 123.991 842.79 123.701C842.79 123.388 842.628 123.156 842.303 123.005C841.989 122.842 841.485 122.668 840.789 122.483C840.07 122.309 839.478 122.129 839.014 121.943C838.561 121.758 838.167 121.473 837.831 121.091C837.506 120.708 837.343 120.192 837.343 119.542C837.343 119.008 837.494 118.521 837.796 118.08C838.109 117.639 838.55 117.291 839.118 117.036C839.698 116.781 840.377 116.653 841.154 116.653C842.303 116.653 843.219 116.943 843.904 117.523C844.588 118.092 844.965 118.863 845.035 119.838H842.703C842.668 119.455 842.506 119.153 842.216 118.933C841.937 118.701 841.56 118.585 841.085 118.585C840.644 118.585 840.302 118.666 840.058 118.828C839.826 118.991 839.71 119.217 839.71 119.507C839.71 119.832 839.872 120.081 840.197 120.255C840.522 120.418 841.027 120.586 841.711 120.76C842.407 120.934 842.981 121.114 843.434 121.299C843.886 121.485 844.275 121.775 844.6 122.17C844.936 122.552 845.11 123.063 845.122 123.701C845.122 124.258 844.965 124.757 844.652 125.197C844.35 125.638 843.909 125.986 843.329 126.241C842.761 126.485 842.094 126.607 841.328 126.607ZM849.959 118.811V123.475C849.959 123.799 850.035 124.037 850.186 124.188C850.348 124.327 850.615 124.397 850.986 124.397H852.117V126.45H850.586C848.532 126.45 847.506 125.453 847.506 123.457V118.811H846.357V116.81H847.506V114.426H849.959V116.81H852.117V118.811H849.959ZM856.305 118.306C856.618 117.796 857.024 117.396 857.523 117.106C858.034 116.816 858.614 116.671 859.263 116.671V119.229H858.619C857.854 119.229 857.274 119.409 856.879 119.768C856.496 120.128 856.305 120.754 856.305 121.647V126.45H853.869V116.81H856.305V118.306ZM869.867 121.421C869.867 121.769 869.843 122.083 869.797 122.361H862.749C862.807 123.057 863.051 123.602 863.48 123.997C863.909 124.391 864.437 124.588 865.064 124.588C865.969 124.588 866.612 124.2 866.995 123.422H869.623C869.344 124.351 868.811 125.116 868.022 125.719C867.233 126.311 866.264 126.607 865.116 126.607C864.188 126.607 863.353 126.404 862.61 125.998C861.879 125.58 861.305 124.994 860.887 124.24C860.481 123.486 860.278 122.616 860.278 121.63C860.278 120.632 860.481 119.757 860.887 119.002C861.293 118.248 861.862 117.668 862.593 117.262C863.324 116.856 864.165 116.653 865.116 116.653C866.032 116.653 866.85 116.851 867.569 117.245C868.3 117.639 868.863 118.202 869.257 118.933C869.663 119.652 869.867 120.482 869.867 121.421ZM867.343 120.725C867.332 120.099 867.105 119.6 866.665 119.229C866.224 118.846 865.684 118.654 865.046 118.654C864.443 118.654 863.933 118.84 863.515 119.211C863.109 119.571 862.86 120.076 862.767 120.725H867.343ZM879.06 119.211V121.265H871.682V119.211H879.06ZM885.481 126.607C884.692 126.607 883.985 126.468 883.358 126.189C882.732 125.899 882.233 125.511 881.862 125.023C881.502 124.536 881.305 123.997 881.27 123.405H883.724C883.77 123.776 883.95 124.084 884.263 124.327C884.588 124.571 884.988 124.693 885.464 124.693C885.928 124.693 886.288 124.6 886.543 124.414C886.81 124.229 886.943 123.991 886.943 123.701C886.943 123.388 886.781 123.156 886.456 123.005C886.143 122.842 885.638 122.668 884.942 122.483C884.223 122.309 883.631 122.129 883.167 121.943C882.715 121.758 882.32 121.473 881.984 121.091C881.659 120.708 881.496 120.192 881.496 119.542C881.496 119.008 881.647 118.521 881.949 118.08C882.262 117.639 882.703 117.291 883.271 117.036C883.851 116.781 884.53 116.653 885.307 116.653C886.456 116.653 887.372 116.943 888.057 117.523C888.741 118.092 889.118 118.863 889.188 119.838H886.856C886.821 119.455 886.659 119.153 886.369 118.933C886.09 118.701 885.713 118.585 885.238 118.585C884.797 118.585 884.455 118.666 884.211 118.828C883.979 118.991 883.863 119.217 883.863 119.507C883.863 119.832 884.025 120.081 884.35 120.255C884.675 120.418 885.18 120.586 885.864 120.76C886.56 120.934 887.134 121.114 887.587 121.299C888.039 121.485 888.428 121.775 888.753 122.17C889.089 122.552 889.263 123.063 889.275 123.701C889.275 124.258 889.118 124.757 888.805 125.197C888.503 125.638 888.063 125.986 887.483 126.241C886.914 126.485 886.247 126.607 885.481 126.607ZM900.232 121.421C900.232 121.769 900.209 122.083 900.162 122.361H893.115C893.173 123.057 893.416 123.602 893.846 123.997C894.275 124.391 894.803 124.588 895.429 124.588C896.334 124.588 896.978 124.2 897.361 123.422H899.988C899.71 124.351 899.176 125.116 898.387 125.719C897.598 126.311 896.63 126.607 895.481 126.607C894.553 126.607 893.718 126.404 892.976 125.998C892.245 125.58 891.67 124.994 891.253 124.24C890.847 123.486 890.644 122.616 890.644 121.63C890.644 120.632 890.847 119.757 891.253 119.002C891.659 118.248 892.227 117.668 892.958 117.262C893.689 116.856 894.53 116.653 895.481 116.653C896.398 116.653 897.216 116.851 897.935 117.245C898.666 117.639 899.228 118.202 899.623 118.933C900.029 119.652 900.232 120.482 900.232 121.421ZM897.709 120.725C897.697 120.099 897.471 119.6 897.03 119.229C896.589 118.846 896.05 118.654 895.412 118.654C894.808 118.654 894.298 118.84 893.88 119.211C893.474 119.571 893.225 120.076 893.132 120.725H897.709Z" fill="white"/>
<path d="M420.824 441.996V755.221C420.824 764.351 428.225 771.752 437.355 771.752H808.585C817.715 771.752 825.116 764.351 825.116 755.221V441.996C825.116 432.866 817.715 425.464 808.585 425.464H437.355C428.225 425.464 420.824 432.866 420.824 441.996Z" fill="#3A7D44" stroke="black" stroke-width="2"/>
<path d="M435.041 402.732C435.041 403.706 434.806 404.62 434.336 405.473C433.883 406.325 433.161 407.013 432.169 407.535C431.195 408.057 429.959 408.318 428.463 408.318H425.409V415.313H421.755V397.094H428.463C429.872 397.094 431.073 397.337 432.065 397.825C433.057 398.312 433.796 398.982 434.284 399.835C434.788 400.687 435.041 401.653 435.041 402.732ZM428.306 405.368C429.316 405.368 430.064 405.142 430.551 404.689C431.038 404.22 431.282 403.567 431.282 402.732C431.282 400.957 430.29 400.069 428.306 400.069H425.409V405.368H428.306ZM436.695 408.031C436.695 406.569 436.983 405.272 437.557 404.141C438.149 403.01 438.94 402.14 439.932 401.531C440.941 400.922 442.064 400.618 443.299 400.618C444.378 400.618 445.318 400.835 446.118 401.27C446.936 401.705 447.589 402.253 448.076 402.915V400.852H451.756V415.313H448.076V413.199C447.606 413.877 446.954 414.443 446.118 414.895C445.3 415.33 444.352 415.548 443.273 415.548C442.055 415.548 440.941 415.235 439.932 414.608C438.94 413.982 438.149 413.103 437.557 411.972C436.983 410.823 436.695 409.51 436.695 408.031ZM448.076 408.083C448.076 407.195 447.902 406.438 447.554 405.812C447.206 405.168 446.736 404.681 446.144 404.35C445.553 404.002 444.918 403.828 444.239 403.828C443.56 403.828 442.934 403.993 442.36 404.324C441.785 404.655 441.316 405.142 440.95 405.786C440.602 406.412 440.428 407.161 440.428 408.031C440.428 408.901 440.602 409.666 440.95 410.328C441.316 410.971 441.785 411.467 442.36 411.815C442.951 412.163 443.578 412.337 444.239 412.337C444.918 412.337 445.553 412.172 446.144 411.841C446.736 411.493 447.206 411.006 447.554 410.38C447.902 409.736 448.076 408.97 448.076 408.083ZM447.58 397.094L441.577 399.835V397.224L447.58 394.118V397.094ZM460.99 400.618C462.068 400.618 463.017 400.835 463.835 401.27C464.653 401.688 465.296 402.236 465.766 402.915V400.852H469.447V415.417C469.447 416.757 469.177 417.949 468.637 418.993C468.098 420.055 467.289 420.89 466.21 421.499C465.131 422.126 463.826 422.439 462.295 422.439C460.241 422.439 458.553 421.96 457.231 421.003C455.926 420.046 455.186 418.741 455.012 417.088H458.64C458.832 417.749 459.241 418.271 459.867 418.654C460.511 419.054 461.285 419.254 462.19 419.254C463.252 419.254 464.113 418.933 464.774 418.289C465.436 417.662 465.766 416.705 465.766 415.417V413.173C465.296 413.851 464.644 414.417 463.809 414.869C462.991 415.322 462.051 415.548 460.99 415.548C459.771 415.548 458.658 415.235 457.649 414.608C456.639 413.982 455.839 413.103 455.247 411.972C454.673 410.823 454.386 409.51 454.386 408.031C454.386 406.569 454.673 405.272 455.247 404.141C455.839 403.01 456.631 402.14 457.622 401.531C458.632 400.922 459.754 400.618 460.99 400.618ZM465.766 408.083C465.766 407.195 465.592 406.438 465.244 405.812C464.896 405.168 464.426 404.681 463.835 404.35C463.243 404.002 462.608 403.828 461.929 403.828C461.251 403.828 460.624 403.993 460.05 404.324C459.476 404.655 459.006 405.142 458.64 405.786C458.292 406.412 458.118 407.161 458.118 408.031C458.118 408.901 458.292 409.666 458.64 410.328C459.006 410.971 459.476 411.467 460.05 411.815C460.642 412.163 461.268 412.337 461.929 412.337C462.608 412.337 463.243 412.172 463.835 411.841C464.426 411.493 464.896 411.006 465.244 410.38C465.592 409.736 465.766 408.97 465.766 408.083ZM474.869 399.13C474.225 399.13 473.686 398.93 473.251 398.529C472.833 398.112 472.624 397.598 472.624 396.989C472.624 396.38 472.833 395.876 473.251 395.475C473.686 395.058 474.225 394.849 474.869 394.849C475.513 394.849 476.044 395.058 476.461 395.475C476.896 395.876 477.114 396.38 477.114 396.989C477.114 397.598 476.896 398.112 476.461 398.529C476.044 398.93 475.513 399.13 474.869 399.13ZM476.67 400.852V415.313H473.016V400.852H476.67ZM488.294 400.644C490.016 400.644 491.408 401.192 492.47 402.288C493.531 403.367 494.062 404.881 494.062 406.83V415.313H490.408V407.326C490.408 406.177 490.121 405.299 489.546 404.689C488.972 404.063 488.189 403.75 487.197 403.75C486.188 403.75 485.387 404.063 484.796 404.689C484.222 405.299 483.934 406.177 483.934 407.326V415.313H480.28V400.852H483.934V402.654C484.422 402.027 485.039 401.54 485.788 401.192C486.553 400.826 487.389 400.644 488.294 400.644ZM496.597 408.031C496.597 406.569 496.885 405.272 497.459 404.141C498.05 403.01 498.842 402.14 499.834 401.531C500.843 400.922 501.966 400.618 503.201 400.618C504.28 400.618 505.22 400.835 506.02 401.27C506.838 401.705 507.491 402.253 507.978 402.915V400.852H511.658V415.313H507.978V413.199C507.508 413.877 506.856 414.443 506.02 414.895C505.202 415.33 504.254 415.548 503.175 415.548C501.957 415.548 500.843 415.235 499.834 414.608C498.842 413.982 498.05 413.103 497.459 411.972C496.885 410.823 496.597 409.51 496.597 408.031ZM507.978 408.083C507.978 407.195 507.804 406.438 507.456 405.812C507.108 405.168 506.638 404.681 506.046 404.35C505.455 404.002 504.82 403.828 504.141 403.828C503.462 403.828 502.836 403.993 502.262 404.324C501.687 404.655 501.218 405.142 500.852 405.786C500.504 406.412 500.33 407.161 500.33 408.031C500.33 408.901 500.504 409.666 500.852 410.328C501.218 410.971 501.687 411.467 502.262 411.815C502.853 412.163 503.48 412.337 504.141 412.337C504.82 412.337 505.455 412.172 506.046 411.841C506.638 411.493 507.108 411.006 507.456 410.38C507.804 409.736 507.978 408.97 507.978 408.083Z" fill="black"/>
<path d="M662.816 270.592H583.649C562.588 270.592 545.515 287.665 545.515 308.725C545.515 329.786 562.588 346.859 583.649 346.859H662.816C683.876 346.859 700.949 329.786 700.949 308.725C700.949 287.665 683.876 270.592 662.816 270.592Z" fill="#C0330C" stroke="black" stroke-width="2"/>
<path d="M610.818 301.955V316.125H607.976V306.908L604.182 316.125H602.03L598.214 306.908V316.125H595.371V301.955H598.596L603.103 312.491L607.61 301.955H610.818ZM624.084 310.258C624.084 310.664 624.055 311.029 624.002 311.354H615.777C615.847 312.166 616.131 312.803 616.63 313.263C617.135 313.723 617.75 313.953 618.48 313.953C619.536 313.953 620.284 313.499 620.731 312.593H623.799C623.475 313.676 622.854 314.569 621.932 315.272C621.009 315.963 619.878 316.308 618.538 316.308C617.459 316.308 616.485 316.071 615.615 315.597C614.762 315.11 614.095 314.427 613.608 313.547C613.132 312.667 612.895 311.652 612.895 310.502C612.895 309.337 613.132 308.316 613.608 307.436C614.084 306.556 614.745 305.88 615.598 305.406C616.45 304.932 617.43 304.695 618.538 304.695C619.611 304.695 620.563 304.926 621.404 305.386C622.256 305.846 622.912 306.502 623.37 307.355C623.846 308.194 624.084 309.162 624.084 310.258ZM621.137 309.446C621.125 308.715 620.864 308.133 620.348 307.7C619.832 307.253 619.205 307.03 618.457 307.03C617.755 307.03 617.158 307.246 616.671 307.68C616.201 308.099 615.911 308.688 615.801 309.446H621.137ZM632.39 304.716C633.73 304.716 634.814 305.142 635.638 305.995C636.462 306.834 636.879 308.011 636.879 309.527V316.125H634.037V309.913C634.037 309.02 633.811 308.336 633.364 307.862C632.918 307.375 632.309 307.131 631.537 307.131C630.754 307.131 630.128 307.375 629.669 307.862C629.223 308.336 629.002 309.02 629.002 309.913V316.125H626.16V304.878H629.002V306.279C629.379 305.792 629.861 305.413 630.441 305.142C631.038 304.858 631.688 304.716 632.39 304.716ZM650.197 304.878V316.125H647.338V314.704C646.972 315.191 646.491 315.577 645.893 315.861C645.313 316.132 644.675 316.267 643.985 316.267C643.103 316.267 642.326 316.085 641.653 315.719C640.975 315.34 640.441 314.792 640.046 314.075C639.669 313.344 639.478 312.478 639.478 311.476V304.878H642.32V311.07C642.32 311.963 642.546 312.654 642.993 313.141C643.44 313.615 644.049 313.851 644.82 313.851C645.603 313.851 646.218 313.615 646.665 313.141C647.111 312.654 647.338 311.963 647.338 311.07V304.878H650.197Z" fill="white"/>
<path d="M623.416 346.998C622.848 346.432 621.931 346.432 621.363 346.998L612.134 356.226C611.572 356.793 611.572 357.711 612.134 358.277C612.703 358.844 613.619 358.844 614.188 358.277L622.39 350.074L630.592 358.277C631.16 358.844 632.076 358.844 632.645 358.277C633.208 357.711 633.208 356.793 632.645 356.226L623.416 346.998ZM621.363 425.624C621.931 426.19 622.848 426.19 623.416 425.624L632.645 416.395C633.208 415.829 633.208 414.911 632.645 414.345C632.076 413.778 631.16 413.778 630.592 414.345L622.39 422.548L614.188 414.345C613.619 413.778 612.703 413.778 612.134 414.345C611.572 414.911 611.572 415.829 612.134 416.395L621.363 425.624ZM620.94 348.023V424.598H623.84V348.023H620.94Z" fill="black"/>
<path d="M58.8748 443.155L58.8748 640.371C58.8748 649.501 66.2761 656.902 75.4061 656.902H272.622C281.752 656.902 289.153 649.501 289.153 640.371V443.155C289.153 434.025 281.752 426.624 272.622 426.624H75.4061C66.2761 426.624 58.8748 434.025 58.8748 443.155Z" fill="#3A7D44" stroke="black" stroke-width="2"/>
<path d="M73.0916 402.732C73.0916 403.706 72.8567 404.62 72.3869 405.473C71.9344 406.325 71.2123 407.013 70.2204 407.535C69.2459 408.057 68.0104 408.318 66.5139 408.318H63.46V415.313H59.8057V397.094H66.5139C67.9234 397.094 69.1241 397.337 70.116 397.825C71.1079 398.312 71.8474 398.982 72.3347 399.835C72.8393 400.687 73.0916 401.653 73.0916 402.732ZM66.3573 405.368C67.3666 405.368 68.1148 405.142 68.6021 404.689C69.0893 404.22 69.3329 403.567 69.3329 402.732C69.3329 400.957 68.341 400.069 66.3573 400.069H63.46V405.368H66.3573ZM74.7465 408.031C74.7465 406.569 75.0336 405.272 75.6079 404.141C76.1995 403.01 76.9913 402.14 77.9832 401.531C78.9924 400.922 80.1148 400.618 81.3503 400.618C82.4292 400.618 83.3689 400.835 84.1694 401.27C84.9872 401.705 85.6398 402.253 86.127 402.915V400.852H89.8074V415.313H86.127V413.199C85.6572 413.877 85.0046 414.443 84.1694 414.895C83.3515 415.33 82.4031 415.548 81.3242 415.548C80.1061 415.548 78.9924 415.235 77.9832 414.608C76.9913 413.982 76.1995 413.103 75.6079 411.972C75.0336 410.823 74.7465 409.51 74.7465 408.031ZM86.127 408.083C86.127 407.195 85.953 406.438 85.605 405.812C85.2569 405.168 84.7871 404.681 84.1955 404.35C83.6038 404.002 82.9687 403.828 82.29 403.828C81.6113 403.828 80.9849 403.993 80.4107 404.324C79.8364 404.655 79.3666 405.142 79.0011 405.786C78.6531 406.412 78.4791 407.161 78.4791 408.031C78.4791 408.901 78.6531 409.666 79.0011 410.328C79.3666 410.971 79.8364 411.467 80.4107 411.815C81.0023 412.163 81.6287 412.337 82.29 412.337C82.9687 412.337 83.6038 412.172 84.1955 411.841C84.7871 411.493 85.2569 411.006 85.605 410.38C85.953 409.736 86.127 408.97 86.127 408.083ZM85.6311 397.094L79.6276 399.835V397.224L85.6311 394.118V397.094ZM99.0406 400.618C100.119 400.618 101.068 400.835 101.886 401.27C102.704 401.688 103.347 402.236 103.817 402.915V400.852H107.498V415.417C107.498 416.757 107.228 417.949 106.688 418.993C106.149 420.055 105.34 420.89 104.261 421.499C103.182 422.126 101.877 422.439 100.346 422.439C98.2923 422.439 96.6044 421.96 95.2819 421.003C93.9768 420.046 93.2372 418.741 93.0632 417.088H96.6914C96.8828 417.749 97.2917 418.271 97.9182 418.654C98.562 419.054 99.3364 419.254 100.241 419.254C101.303 419.254 102.164 418.933 102.825 418.289C103.487 417.662 103.817 416.705 103.817 415.417V413.173C103.347 413.851 102.695 414.417 101.86 414.869C101.042 415.322 100.102 415.548 99.0406 415.548C97.8225 415.548 96.7088 415.235 95.6995 414.608C94.6902 413.982 93.8898 413.103 93.2981 411.972C92.7239 410.823 92.4367 409.51 92.4367 408.031C92.4367 406.569 92.7239 405.272 93.2981 404.141C93.8898 403.01 94.6815 402.14 95.6734 401.531C96.6827 400.922 97.8051 400.618 99.0406 400.618ZM103.817 408.083C103.817 407.195 103.643 406.438 103.295 405.812C102.947 405.168 102.477 404.681 101.886 404.35C101.294 404.002 100.659 403.828 99.9803 403.828C99.3016 403.828 98.6752 403.993 98.1009 404.324C97.5267 404.655 97.0568 405.142 96.6914 405.786C96.3434 406.412 96.1694 407.161 96.1694 408.031C96.1694 408.901 96.3434 409.666 96.6914 410.328C97.0568 410.971 97.5267 411.467 98.1009 411.815C98.6926 412.163 99.319 412.337 99.9803 412.337C100.659 412.337 101.294 412.172 101.886 411.841C102.477 411.493 102.947 411.006 103.295 410.38C103.643 409.736 103.817 408.97 103.817 408.083ZM112.92 399.13C112.276 399.13 111.737 398.93 111.302 398.529C110.884 398.112 110.675 397.598 110.675 396.989C110.675 396.38 110.884 395.876 111.302 395.475C111.737 395.058 112.276 394.849 112.92 394.849C113.564 394.849 114.095 395.058 114.512 395.475C114.947 395.876 115.165 396.38 115.165 396.989C115.165 397.598 114.947 398.112 114.512 398.529C114.095 398.93 113.564 399.13 112.92 399.13ZM114.721 400.852V415.313H111.067V400.852H114.721ZM126.345 400.644C128.067 400.644 129.459 401.192 130.521 402.288C131.582 403.367 132.113 404.881 132.113 406.83V415.313H128.459V407.326C128.459 406.177 128.172 405.299 127.597 404.689C127.023 404.063 126.24 403.75 125.248 403.75C124.239 403.75 123.438 404.063 122.847 404.689C122.273 405.299 121.985 406.177 121.985 407.326V415.313H118.331V400.852H121.985V402.654C122.473 402.027 123.09 401.54 123.839 401.192C124.604 400.826 125.44 400.644 126.345 400.644ZM134.648 408.031C134.648 406.569 134.936 405.272 135.51 404.141C136.101 403.01 136.893 402.14 137.885 401.531C138.894 400.922 140.017 400.618 141.252 400.618C142.331 400.618 143.271 400.835 144.071 401.27C144.889 401.705 145.542 402.253 146.029 402.915V400.852H149.709V415.313H146.029V413.199C145.559 413.877 144.907 414.443 144.071 414.895C143.253 415.33 142.305 415.548 141.226 415.548C140.008 415.548 138.894 415.235 137.885 414.608C136.893 413.982 136.101 413.103 135.51 411.972C134.936 410.823 134.648 409.51 134.648 408.031ZM146.029 408.083C146.029 407.195 145.855 406.438 145.507 405.812C145.159 405.168 144.689 404.681 144.097 404.35C143.506 404.002 142.871 403.828 142.192 403.828C141.513 403.828 140.887 403.993 140.313 404.324C139.738 404.655 139.269 405.142 138.903 405.786C138.555 406.412 138.381 407.161 138.381 408.031C138.381 408.901 138.555 409.666 138.903 410.328C139.269 410.971 139.738 411.467 140.313 411.815C140.904 412.163 141.531 412.337 142.192 412.337C142.871 412.337 143.506 412.172 144.097 411.841C144.689 411.493 145.159 411.006 145.507 410.38C145.855 409.736 146.029 408.97 146.029 408.083Z" fill="black"/>
<path d="M213.878 456.787H134.711C113.651 456.787 96.5776 473.86 96.5776 494.92C96.5776 515.981 113.651 533.053 134.711 533.053H213.878C234.939 533.053 252.012 515.981 252.012 494.92C252.012 473.86 234.939 456.787 213.878 456.787Z" fill="#3423A6" stroke="black" stroke-width="2"/>
<path d="M117.048 501.282C115.911 501.282 114.867 501.015 113.915 500.481C112.964 499.948 112.21 499.211 111.653 498.271C111.096 497.32 110.818 496.247 110.818 495.052C110.818 493.869 111.096 492.807 111.653 491.868C112.21 490.916 112.964 490.174 113.915 489.64C114.867 489.107 115.911 488.84 117.048 488.84C118.196 488.84 119.24 489.107 120.18 489.64C121.131 490.174 121.879 490.916 122.425 491.868C122.981 492.807 123.26 493.869 123.26 495.052C123.26 496.247 122.981 497.32 122.425 498.271C121.879 499.211 121.131 499.948 120.18 500.481C119.229 501.015 118.184 501.282 117.048 501.282ZM117.048 499.107C117.778 499.107 118.422 498.944 118.979 498.619C119.536 498.283 119.971 497.807 120.284 497.192C120.597 496.578 120.754 495.864 120.754 495.052C120.754 494.24 120.597 493.532 120.284 492.929C119.971 492.314 119.536 491.844 118.979 491.52C118.422 491.195 117.778 491.032 117.048 491.032C116.317 491.032 115.667 491.195 115.099 491.52C114.542 491.844 114.107 492.314 113.794 492.929C113.48 493.532 113.324 494.24 113.324 495.052C113.324 495.864 113.48 496.578 113.794 497.192C114.107 497.807 114.542 498.283 115.099 498.619C115.667 498.944 116.317 499.107 117.048 499.107ZM127.509 493.016C127.822 492.506 128.228 492.106 128.727 491.815C129.237 491.525 129.817 491.38 130.467 491.38V493.938H129.823C129.057 493.938 128.477 494.118 128.083 494.478C127.7 494.838 127.509 495.464 127.509 496.357V501.16H125.073V491.52H127.509V493.016ZM135.884 491.363C136.603 491.363 137.236 491.508 137.781 491.798C138.326 492.076 138.755 492.442 139.068 492.894V491.52H141.522V501.23C141.522 502.123 141.342 502.918 140.983 503.614C140.623 504.321 140.084 504.878 139.364 505.284C138.645 505.702 137.775 505.911 136.754 505.911C135.385 505.911 134.26 505.592 133.378 504.954C132.508 504.315 132.015 503.445 131.899 502.343H134.318C134.445 502.784 134.718 503.132 135.136 503.387C135.565 503.654 136.081 503.788 136.684 503.788C137.392 503.788 137.966 503.573 138.407 503.144C138.848 502.726 139.068 502.088 139.068 501.23V499.733C138.755 500.186 138.32 500.563 137.763 500.864C137.218 501.166 136.592 501.317 135.884 501.317C135.072 501.317 134.329 501.108 133.657 500.69C132.984 500.273 132.45 499.687 132.056 498.933C131.673 498.167 131.481 497.291 131.481 496.305C131.481 495.331 131.673 494.466 132.056 493.712C132.45 492.958 132.978 492.378 133.639 491.972C134.312 491.566 135.06 491.363 135.884 491.363ZM139.068 496.34C139.068 495.748 138.952 495.244 138.72 494.826C138.488 494.397 138.175 494.072 137.781 493.851C137.386 493.619 136.963 493.503 136.51 493.503C136.058 493.503 135.64 493.614 135.258 493.834C134.875 494.054 134.561 494.379 134.318 494.809C134.086 495.226 133.97 495.725 133.97 496.305C133.97 496.885 134.086 497.396 134.318 497.836C134.561 498.266 134.875 498.596 135.258 498.828C135.652 499.06 136.07 499.176 136.51 499.176C136.963 499.176 137.386 499.066 137.781 498.846C138.175 498.614 138.488 498.289 138.72 497.871C138.952 497.442 139.068 496.931 139.068 496.34ZM143.275 496.305C143.275 495.331 143.466 494.466 143.849 493.712C144.244 492.958 144.771 492.378 145.433 491.972C146.106 491.566 146.854 491.363 147.677 491.363C148.397 491.363 149.023 491.508 149.557 491.798C150.102 492.088 150.537 492.454 150.862 492.894V491.52H153.316V501.16H150.862V499.751C150.549 500.203 150.114 500.58 149.557 500.882C149.012 501.172 148.379 501.317 147.66 501.317C146.848 501.317 146.106 501.108 145.433 500.69C144.771 500.273 144.244 499.687 143.849 498.933C143.466 498.167 143.275 497.291 143.275 496.305ZM150.862 496.34C150.862 495.748 150.746 495.244 150.514 494.826C150.282 494.397 149.969 494.072 149.574 493.851C149.18 493.619 148.756 493.503 148.304 493.503C147.852 493.503 147.434 493.614 147.051 493.834C146.668 494.054 146.355 494.379 146.111 494.809C145.879 495.226 145.763 495.725 145.763 496.305C145.763 496.885 145.879 497.396 146.111 497.836C146.355 498.266 146.668 498.596 147.051 498.828C147.445 499.06 147.863 499.176 148.304 499.176C148.756 499.176 149.18 499.066 149.574 498.846C149.969 498.614 150.282 498.289 150.514 497.871C150.746 497.442 150.862 496.931 150.862 496.34ZM161.037 491.38C162.186 491.38 163.114 491.746 163.821 492.477C164.529 493.196 164.883 494.205 164.883 495.505V501.16H162.447V495.835C162.447 495.07 162.255 494.484 161.872 494.078C161.49 493.66 160.968 493.451 160.306 493.451C159.633 493.451 159.1 493.66 158.705 494.078C158.323 494.484 158.131 495.07 158.131 495.835V501.16H155.695V491.52H158.131V492.72C158.456 492.303 158.868 491.978 159.367 491.746C159.877 491.502 160.434 491.38 161.037 491.38ZM171.48 501.317C170.552 501.317 169.717 501.114 168.974 500.708C168.232 500.29 167.646 499.704 167.217 498.95C166.799 498.196 166.59 497.326 166.59 496.34C166.59 495.354 166.805 494.484 167.234 493.73C167.675 492.976 168.273 492.396 169.027 491.989C169.781 491.572 170.622 491.363 171.55 491.363C172.478 491.363 173.319 491.572 174.073 491.989C174.827 492.396 175.419 492.976 175.848 493.73C176.289 494.484 176.509 495.354 176.509 496.34C176.509 497.326 176.283 498.196 175.831 498.95C175.39 499.704 174.787 500.29 174.021 500.708C173.267 501.114 172.42 501.317 171.48 501.317ZM171.48 499.194C171.921 499.194 172.333 499.089 172.716 498.88C173.11 498.66 173.423 498.335 173.655 497.906C173.887 497.477 174.003 496.955 174.003 496.34C174.003 495.423 173.76 494.722 173.273 494.234C172.797 493.735 172.211 493.486 171.515 493.486C170.819 493.486 170.233 493.735 169.758 494.234C169.294 494.722 169.061 495.423 169.061 496.34C169.061 497.256 169.288 497.964 169.74 498.463C170.204 498.95 170.784 499.194 171.48 499.194ZM182.073 491.363C182.792 491.363 183.424 491.508 183.969 491.798C184.515 492.076 184.944 492.442 185.257 492.894V491.52H187.711V501.23C187.711 502.123 187.531 502.918 187.171 503.614C186.812 504.321 186.272 504.878 185.553 505.284C184.834 505.702 183.963 505.911 182.943 505.911C181.574 505.911 180.448 505.592 179.567 504.954C178.697 504.315 178.204 503.445 178.088 502.343H180.506C180.634 502.784 180.907 503.132 181.324 503.387C181.753 503.654 182.27 503.788 182.873 503.788C183.581 503.788 184.155 503.573 184.596 503.144C185.037 502.726 185.257 502.088 185.257 501.23V499.733C184.944 500.186 184.509 500.563 183.952 500.864C183.407 501.166 182.78 501.317 182.073 501.317C181.26 501.317 180.518 501.108 179.845 500.69C179.172 500.273 178.639 499.687 178.244 498.933C177.861 498.167 177.669 497.291 177.669 496.305C177.669 495.331 177.861 494.466 178.244 493.712C178.639 492.958 179.166 492.378 179.828 491.972C180.501 491.566 181.249 491.363 182.073 491.363ZM185.257 496.34C185.257 495.748 185.141 495.244 184.909 494.826C184.677 494.397 184.364 494.072 183.969 493.851C183.575 493.619 183.151 493.503 182.699 493.503C182.247 493.503 181.829 493.614 181.445 493.834C181.063 494.054 180.75 494.379 180.506 494.809C180.274 495.226 180.158 495.725 180.158 496.305C180.158 496.885 180.274 497.396 180.506 497.836C180.75 498.266 181.063 498.596 181.445 498.828C181.84 499.06 182.258 499.176 182.699 499.176C183.151 499.176 183.575 499.066 183.969 498.846C184.364 498.614 184.677 498.289 184.909 497.871C185.141 497.442 185.257 496.931 185.257 496.34ZM192.526 493.016C192.839 492.506 193.245 492.106 193.744 491.815C194.255 491.525 194.835 491.38 195.484 491.38V493.938H194.84C194.075 493.938 193.495 494.118 193.1 494.478C192.718 494.838 192.526 495.464 192.526 496.357V501.16H190.09V491.52H192.526V493.016ZM196.498 496.305C196.498 495.331 196.69 494.466 197.073 493.712C197.467 492.958 197.995 492.378 198.656 491.972C199.329 491.566 200.077 491.363 200.901 491.363C201.62 491.363 202.247 491.508 202.78 491.798C203.325 492.088 203.76 492.454 204.085 492.894V491.52H206.539V501.16H204.085V499.751C203.772 500.203 203.337 500.58 202.78 500.882C202.235 501.172 201.603 501.317 200.883 501.317C200.071 501.317 199.329 501.108 198.656 500.69C197.995 500.273 197.467 499.687 197.073 498.933C196.69 498.167 196.498 497.291 196.498 496.305ZM204.085 496.34C204.085 495.748 203.969 495.244 203.737 494.826C203.505 494.397 203.192 494.072 202.798 493.851C202.403 493.619 201.98 493.503 201.527 493.503C201.075 493.503 200.657 493.614 200.274 493.834C199.892 494.054 199.578 494.379 199.335 494.809C199.103 495.226 198.987 495.725 198.987 496.305C198.987 496.885 199.103 497.396 199.335 497.836C199.578 498.266 199.892 498.596 200.274 498.828C200.669 499.06 201.086 499.176 201.527 499.176C201.98 499.176 202.403 499.066 202.798 498.846C203.192 498.614 203.505 498.289 203.737 497.871C203.969 497.442 204.085 496.931 204.085 496.34ZM220.89 491.38C222.074 491.38 223.025 491.746 223.744 492.477C224.475 493.196 224.84 494.205 224.84 495.505V501.16H222.404V495.835C222.404 495.081 222.213 494.507 221.83 494.112C221.447 493.706 220.925 493.503 220.264 493.503C219.603 493.503 219.075 493.706 218.68 494.112C218.298 494.507 218.106 495.081 218.106 495.835V501.16H215.67V495.835C215.67 495.081 215.479 494.507 215.096 494.112C214.713 493.706 214.191 493.503 213.53 493.503C212.857 493.503 212.323 493.706 211.929 494.112C211.546 494.507 211.354 495.081 211.354 495.835V501.16H208.918V491.52H211.354V492.686C211.668 492.28 212.068 491.96 212.555 491.728C213.054 491.496 213.599 491.38 214.191 491.38C214.945 491.38 215.618 491.543 216.209 491.868C216.801 492.181 217.259 492.633 217.584 493.225C217.897 492.668 218.35 492.222 218.941 491.885C219.545 491.549 220.194 491.38 220.89 491.38ZM226.526 496.305C226.526 495.331 226.718 494.466 227.1 493.712C227.495 492.958 228.023 492.378 228.684 491.972C229.357 491.566 230.105 491.363 230.929 491.363C231.648 491.363 232.274 491.508 232.808 491.798C233.353 492.088 233.788 492.454 234.113 492.894V491.52H236.567V501.16H234.113V499.751C233.8 500.203 233.365 500.58 232.808 500.882C232.263 501.172 231.631 501.317 230.911 501.317C230.099 501.317 229.357 501.108 228.684 500.69C228.023 500.273 227.495 499.687 227.1 498.933C226.718 498.167 226.526 497.291 226.526 496.305ZM234.113 496.34C234.113 495.748 233.997 495.244 233.765 494.826C233.533 494.397 233.22 494.072 232.825 493.851C232.431 493.619 232.008 493.503 231.555 493.503C231.103 493.503 230.685 493.614 230.302 493.834C229.919 494.054 229.606 494.379 229.363 494.809C229.131 495.226 229.015 495.725 229.015 496.305C229.015 496.885 229.131 497.396 229.363 497.836C229.606 498.266 229.919 498.596 230.302 498.828C230.697 499.06 231.114 499.176 231.555 499.176C232.008 499.176 232.431 499.066 232.825 498.846C233.22 498.614 233.533 498.289 233.765 497.871C233.997 497.442 234.113 496.931 234.113 496.34Z" fill="#E2E2E2"/>
<path d="M213.878 550.455H134.711C113.651 550.455 96.5776 567.528 96.5776 588.588C96.5776 609.649 113.651 626.721 134.711 626.721H213.878C234.939 626.721 252.012 609.649 252.012 588.588C252.012 567.528 234.939 550.455 213.878 550.455Z" fill="#3423A6" stroke="black" stroke-width="2"/>
<path d="M147.488 584.368V587.413H151.578V589.344H147.488V592.564H152.1V594.547H145.052V582.384H152.1V584.368H147.488ZM153.687 589.71C153.687 588.747 153.885 587.894 154.279 587.152C154.685 586.398 155.23 585.812 155.915 585.394C156.599 584.977 157.353 584.768 158.177 584.768C158.861 584.768 159.465 584.901 159.987 585.168C160.52 585.423 160.95 585.754 161.274 586.16V584.907H163.728V599.141H161.274V593.225C160.95 593.643 160.515 593.991 159.969 594.269C159.424 594.547 158.809 594.687 158.125 594.687C157.313 594.687 156.564 594.478 155.88 594.06C155.207 593.631 154.673 593.039 154.279 592.285C153.885 591.531 153.687 590.673 153.687 589.71ZM161.274 589.727C161.274 589.136 161.153 588.625 160.909 588.196C160.665 587.767 160.346 587.442 159.952 587.221C159.569 587.001 159.157 586.891 158.716 586.891C158.287 586.891 157.875 587.001 157.481 587.221C157.098 587.442 156.785 587.767 156.541 588.196C156.298 588.614 156.176 589.118 156.176 589.71C156.176 590.302 156.298 590.818 156.541 591.259C156.785 591.688 157.098 592.013 157.481 592.233C157.875 592.454 158.287 592.564 158.716 592.564C159.157 592.564 159.569 592.454 159.952 592.233C160.346 592.013 160.665 591.688 160.909 591.259C161.153 590.829 161.274 590.319 161.274 589.727ZM175.208 584.907V594.547H172.755V593.329C172.441 593.747 172.03 594.078 171.519 594.321C171.02 594.553 170.475 594.669 169.883 594.669C169.129 594.669 168.462 594.513 167.882 594.199C167.302 593.875 166.844 593.405 166.508 592.79C166.183 592.163 166.02 591.421 166.02 590.563V584.907H168.457V590.215C168.457 590.98 168.648 591.572 169.031 591.989C169.414 592.396 169.936 592.599 170.597 592.599C171.27 592.599 171.798 592.396 172.18 591.989C172.563 591.572 172.755 590.98 172.755 590.215V584.907H175.208ZM178.847 583.759C178.418 583.759 178.059 583.625 177.769 583.358C177.49 583.08 177.351 582.738 177.351 582.332C177.351 581.926 177.49 581.589 177.769 581.322C178.059 581.044 178.418 580.905 178.847 580.905C179.277 580.905 179.631 581.044 179.909 581.322C180.199 581.589 180.344 581.926 180.344 582.332C180.344 582.738 180.199 583.08 179.909 583.358C179.631 583.625 179.277 583.759 178.847 583.759ZM180.048 584.907V594.547H177.612V584.907H180.048ZM184.891 586.299C185.204 585.858 185.633 585.493 186.179 585.203C186.736 584.901 187.368 584.75 188.075 584.75C188.899 584.75 189.642 584.954 190.303 585.36C190.976 585.766 191.504 586.346 191.886 587.1C192.281 587.842 192.478 588.706 192.478 589.693C192.478 590.679 192.281 591.554 191.886 592.32C191.504 593.074 190.976 593.66 190.303 594.078C189.642 594.495 188.899 594.704 188.075 594.704C187.368 594.704 186.741 594.559 186.196 594.269C185.662 593.979 185.227 593.614 184.891 593.173V599.141H182.455V584.907H184.891V586.299ZM189.99 589.693C189.99 589.112 189.868 588.614 189.624 588.196C189.392 587.767 189.079 587.442 188.684 587.221C188.302 587.001 187.884 586.891 187.432 586.891C186.991 586.891 186.573 587.007 186.179 587.239C185.796 587.459 185.483 587.784 185.239 588.213C185.007 588.643 184.891 589.147 184.891 589.727C184.891 590.307 185.007 590.812 185.239 591.241C185.483 591.67 185.796 592.001 186.179 592.233C186.573 592.454 186.991 592.564 187.432 592.564C187.884 592.564 188.302 592.448 188.684 592.216C189.079 591.984 189.392 591.653 189.624 591.224C189.868 590.795 189.99 590.284 189.99 589.693ZM203.21 589.518C203.21 589.867 203.187 590.18 203.14 590.458H196.093C196.151 591.154 196.394 591.699 196.824 592.094C197.253 592.488 197.781 592.686 198.407 592.686C199.312 592.686 199.956 592.297 200.339 591.52H202.966C202.688 592.448 202.154 593.213 201.365 593.817C200.577 594.408 199.608 594.704 198.459 594.704C197.531 594.704 196.696 594.501 195.954 594.095C195.223 593.677 194.649 593.092 194.231 592.338C193.825 591.583 193.622 590.713 193.622 589.727C193.622 588.73 193.825 587.854 194.231 587.1C194.637 586.346 195.205 585.766 195.936 585.36C196.667 584.954 197.508 584.75 198.459 584.75C199.376 584.75 200.194 584.948 200.913 585.342C201.644 585.737 202.207 586.299 202.601 587.03C203.007 587.749 203.21 588.579 203.21 589.518ZM200.687 588.822C200.675 588.196 200.449 587.697 200.008 587.326C199.567 586.943 199.028 586.752 198.39 586.752C197.787 586.752 197.276 586.937 196.859 587.309C196.452 587.668 196.203 588.173 196.11 588.822H200.687Z" fill="white"/>
<path d="M214.458 270.592H135.291C114.231 270.592 97.1577 287.665 97.1577 308.725C97.1577 329.786 114.231 346.859 135.291 346.859H214.458C235.519 346.859 252.592 329.786 252.592 308.725C252.592 287.665 235.519 270.592 214.458 270.592Z" fill="#C0330C" stroke="black" stroke-width="2"/>
<path d="M143.28 316.125L140.154 310.603H138.814V316.125H135.972V301.955H141.291C142.387 301.955 143.321 302.151 144.092 302.543C144.864 302.922 145.439 303.444 145.818 304.107C146.211 304.756 146.407 305.487 146.407 306.299C146.407 307.233 146.136 308.079 145.595 308.837C145.053 309.581 144.248 310.096 143.179 310.38L146.569 316.125H143.28ZM138.814 308.471H141.189C141.961 308.471 142.536 308.289 142.915 307.923C143.294 307.544 143.483 307.023 143.483 306.36C143.483 305.71 143.294 305.21 142.915 304.858C142.536 304.492 141.961 304.31 141.189 304.31H138.814V308.471ZM153.972 316.308C152.889 316.308 151.914 316.071 151.048 315.597C150.182 315.11 149.498 314.427 148.998 313.547C148.511 312.667 148.267 311.652 148.267 310.502C148.267 309.351 148.518 308.336 149.018 307.456C149.533 306.576 150.229 305.9 151.109 305.426C151.989 304.939 152.97 304.695 154.053 304.695C155.136 304.695 156.117 304.939 156.997 305.426C157.877 305.9 158.567 306.576 159.067 307.456C159.582 308.336 159.839 309.351 159.839 310.502C159.839 311.652 159.575 312.667 159.047 313.547C158.533 314.427 157.829 315.11 156.936 315.597C156.056 316.071 155.068 316.308 153.972 316.308ZM153.972 313.831C154.486 313.831 154.966 313.709 155.413 313.466C155.873 313.209 156.238 312.829 156.509 312.329C156.78 311.828 156.915 311.219 156.915 310.502C156.915 309.433 156.631 308.614 156.063 308.045C155.508 307.463 154.824 307.172 154.012 307.172C153.2 307.172 152.517 307.463 151.962 308.045C151.421 308.614 151.15 309.433 151.15 310.502C151.15 311.571 151.414 312.397 151.942 312.978C152.483 313.547 153.16 313.831 153.972 313.831ZM161.193 310.461C161.193 309.324 161.416 308.316 161.863 307.436C162.323 306.556 162.946 305.88 163.73 305.406C164.516 304.932 165.389 304.695 166.349 304.695C167.08 304.695 167.777 304.858 168.44 305.183C169.104 305.494 169.632 305.913 170.024 306.441V301.102H172.907V316.125H170.024V314.46C169.672 315.016 169.178 315.462 168.542 315.8C167.906 316.138 167.168 316.308 166.329 316.308C165.382 316.308 164.516 316.064 163.73 315.577C162.946 315.09 162.323 314.406 161.863 313.527C161.416 312.633 161.193 311.611 161.193 310.461ZM170.044 310.502C170.044 309.811 169.909 309.223 169.638 308.735C169.368 308.235 169.002 307.855 168.542 307.598C168.082 307.328 167.588 307.192 167.06 307.192C166.532 307.192 166.045 307.321 165.598 307.578C165.151 307.835 164.786 308.214 164.502 308.715C164.232 309.202 164.096 309.784 164.096 310.461C164.096 311.138 164.232 311.733 164.502 312.248C164.786 312.748 165.151 313.134 165.598 313.405C166.059 313.676 166.546 313.811 167.06 313.811C167.588 313.811 168.082 313.682 168.542 313.425C169.002 313.154 169.368 312.775 169.638 312.288C169.909 311.788 170.044 311.192 170.044 310.502ZM174.952 310.461C174.952 309.324 175.175 308.316 175.622 307.436C176.082 306.556 176.698 305.88 177.469 305.406C178.254 304.932 179.127 304.695 180.088 304.695C180.928 304.695 181.658 304.865 182.281 305.203C182.917 305.541 183.425 305.967 183.803 306.482V304.878H186.666V316.125H183.803V314.481C183.438 315.009 182.931 315.448 182.281 315.8C181.645 316.138 180.907 316.308 180.068 316.308C179.121 316.308 178.254 316.064 177.469 315.577C176.698 315.09 176.082 314.406 175.622 313.527C175.175 312.633 174.952 311.611 174.952 310.461ZM183.803 310.502C183.803 309.811 183.668 309.223 183.397 308.735C183.127 308.235 182.761 307.855 182.301 307.598C181.841 307.328 181.347 307.192 180.819 307.192C180.291 307.192 179.804 307.321 179.357 307.578C178.911 307.835 178.545 308.214 178.261 308.715C177.99 309.202 177.855 309.784 177.855 310.461C177.855 311.138 177.99 311.733 178.261 312.248C178.545 312.748 178.911 313.134 179.357 313.405C179.817 313.676 180.305 313.811 180.819 313.811C181.347 313.811 181.841 313.682 182.301 313.425C182.761 313.154 183.127 312.775 183.397 312.288C183.668 311.788 183.803 311.192 183.803 310.502ZM192.284 306.502C192.65 305.988 193.15 305.561 193.787 305.223C194.436 304.871 195.174 304.695 196 304.695C196.96 304.695 197.827 304.932 198.598 305.406C199.383 305.88 199.999 306.556 200.446 307.436C200.906 308.302 201.136 309.311 201.136 310.461C201.136 311.611 200.906 312.633 200.446 313.527C199.999 314.406 199.383 315.09 198.598 315.577C197.827 316.064 196.96 316.308 196 316.308C195.174 316.308 194.443 316.138 193.807 315.8C193.184 315.462 192.676 315.036 192.284 314.521V321.485H189.442V304.878H192.284V306.502ZM198.233 310.461C198.233 309.784 198.091 309.202 197.806 308.715C197.535 308.214 197.17 307.835 196.71 307.578C196.263 307.321 195.776 307.192 195.248 307.192C194.734 307.192 194.247 307.328 193.787 307.598C193.34 307.855 192.975 308.235 192.69 308.735C192.419 309.236 192.284 309.825 192.284 310.502C192.284 311.178 192.419 311.767 192.69 312.268C192.975 312.768 193.34 313.154 193.787 313.425C194.247 313.682 194.734 313.811 195.248 313.811C195.776 313.811 196.263 313.676 196.71 313.405C197.17 313.134 197.535 312.748 197.806 312.248C198.091 311.747 198.233 311.151 198.233 310.461ZM213.656 310.258C213.656 310.664 213.629 311.029 213.575 311.354H205.353C205.421 312.166 205.705 312.803 206.205 313.263C206.707 313.723 207.322 313.953 208.053 313.953C209.109 313.953 209.86 313.499 210.306 312.593H213.372C213.047 313.676 212.425 314.569 211.504 315.272C210.584 315.963 209.454 316.308 208.114 316.308C207.031 316.308 206.057 316.071 205.19 315.597C204.338 315.11 203.668 314.427 203.18 313.547C202.707 312.667 202.47 311.652 202.47 310.502C202.47 309.337 202.707 308.316 203.18 307.436C203.654 306.556 204.317 305.88 205.17 305.406C206.023 304.932 207.004 304.695 208.114 304.695C209.183 304.695 210.138 304.926 210.976 305.386C211.829 305.846 212.486 306.502 212.946 307.355C213.419 308.194 213.656 309.162 213.656 310.258ZM210.712 309.446C210.699 308.715 210.435 308.133 209.921 307.7C209.407 307.253 208.777 307.03 208.033 307.03C207.329 307.03 206.733 307.246 206.246 307.68C205.773 308.099 205.482 308.688 205.373 309.446H210.712ZM210.286 301.914L205.617 304.046V302.015L210.286 299.6V301.914Z" fill="#E2E2E2"/>
<path d="M175.039 346.998C174.473 346.432 173.555 346.432 172.988 346.998L163.76 356.226C163.194 356.793 163.194 357.711 163.76 358.277C164.327 358.844 165.245 358.844 165.811 358.277L174.014 350.074L182.217 358.277C182.783 358.844 183.701 358.844 184.268 358.277C184.834 357.711 184.834 356.793 184.268 356.226L175.039 346.998ZM172.988 425.624C173.555 426.19 174.473 426.19 175.039 425.624L184.268 416.395C184.834 415.829 184.834 414.911 184.268 414.345C183.701 413.778 182.783 413.778 182.217 414.345L174.014 422.548L165.811 414.345C165.245 413.778 164.327 413.778 163.76 414.345C163.194 414.911 163.194 415.829 163.76 416.395L172.988 425.624ZM172.564 348.023V424.598H175.464V348.023H172.564Z" fill="black"/>
<path d="M442.575 59.4546H355.568C324.334 59.4546 299.014 84.7749 299.014 116.009C299.014 147.243 324.334 172.564 355.568 172.564H442.575C473.81 172.564 499.13 147.243 499.13 116.009C499.13 84.7749 473.81 59.4546 442.575 59.4546Z" fill="#2364AA" stroke="black" stroke-width="2"/>
<path d="M332.436 112.946C332.436 113.812 332.227 114.624 331.81 115.383C331.408 116.141 330.766 116.752 329.884 117.216C329.018 117.68 327.919 117.912 326.589 117.912H323.875V124.13H320.626V107.935H326.589C327.842 107.935 328.91 108.151 329.791 108.584C330.673 109.018 331.33 109.613 331.763 110.371C332.212 111.129 332.436 111.988 332.436 112.946ZM326.45 115.29C327.347 115.29 328.012 115.089 328.445 114.687C328.879 114.269 329.095 113.689 329.095 112.946C329.095 111.369 328.213 110.58 326.45 110.58H323.875V115.29H326.45ZM333.907 117.656C333.907 116.357 334.162 115.205 334.673 114.199C335.199 113.194 335.903 112.42 336.784 111.879C337.682 111.338 338.679 111.067 339.777 111.067C340.736 111.067 341.571 111.26 342.283 111.647C343.01 112.034 343.59 112.521 344.023 113.109V111.276H347.295V124.13H344.023V122.25C343.606 122.854 343.026 123.357 342.283 123.758C341.556 124.145 340.713 124.339 339.754 124.339C338.671 124.339 337.682 124.06 336.784 123.503C335.903 122.946 335.199 122.165 334.673 121.16C334.162 120.139 333.907 118.971 333.907 117.656ZM344.023 117.703C344.023 116.914 343.868 116.241 343.559 115.684C343.25 115.112 342.832 114.679 342.306 114.385C341.78 114.076 341.216 113.921 340.613 113.921C340.009 113.921 339.452 114.068 338.942 114.362C338.432 114.656 338.014 115.089 337.689 115.661C337.38 116.218 337.225 116.883 337.225 117.656C337.225 118.43 337.38 119.111 337.689 119.698C338.014 120.271 338.432 120.711 338.942 121.021C339.468 121.33 340.025 121.485 340.613 121.485C341.216 121.485 341.78 121.338 342.306 121.044C342.832 120.735 343.25 120.301 343.559 119.745C343.868 119.172 344.023 118.492 344.023 117.703ZM355.502 111.067C356.461 111.067 357.304 111.26 358.031 111.647C358.758 112.018 359.33 112.506 359.748 113.109V111.276H363.019V124.223C363.019 125.413 362.78 126.473 362.3 127.401C361.821 128.345 361.102 129.087 360.142 129.629C359.183 130.185 358.023 130.464 356.662 130.464C354.837 130.464 353.336 130.039 352.161 129.188C351.001 128.337 350.343 127.177 350.189 125.707H353.414C353.584 126.295 353.947 126.759 354.504 127.1C355.077 127.455 355.765 127.633 356.569 127.633C357.513 127.633 358.278 127.347 358.866 126.775C359.454 126.218 359.748 125.367 359.748 124.223V122.227C359.33 122.83 358.75 123.333 358.008 123.735C357.281 124.137 356.445 124.339 355.502 124.339C354.419 124.339 353.429 124.06 352.532 123.503C351.635 122.946 350.923 122.165 350.397 121.16C349.887 120.139 349.632 118.971 349.632 117.656C349.632 116.357 349.887 115.205 350.397 114.199C350.923 113.194 351.627 112.42 352.509 111.879C353.406 111.338 354.404 111.067 355.502 111.067ZM359.748 117.703C359.748 116.914 359.593 116.241 359.284 115.684C358.975 115.112 358.557 114.679 358.031 114.385C357.505 114.076 356.94 113.921 356.337 113.921C355.734 113.921 355.177 114.068 354.666 114.362C354.156 114.656 353.738 115.089 353.414 115.661C353.104 116.218 352.95 116.883 352.95 117.656C352.95 118.43 353.104 119.111 353.414 119.698C353.738 120.271 354.156 120.711 354.666 121.021C355.193 121.33 355.749 121.485 356.337 121.485C356.94 121.485 357.505 121.338 358.031 121.044C358.557 120.735 358.975 120.301 359.284 119.745C359.593 119.172 359.748 118.492 359.748 117.703ZM367.839 109.745C367.267 109.745 366.787 109.566 366.401 109.211C366.03 108.84 365.844 108.383 365.844 107.842C365.844 107.301 366.03 106.852 366.401 106.496C366.787 106.125 367.267 105.939 367.839 105.939C368.411 105.939 368.883 106.125 369.255 106.496C369.641 106.852 369.835 107.301 369.835 107.842C369.835 108.383 369.641 108.84 369.255 109.211C368.883 109.566 368.411 109.745 367.839 109.745ZM369.44 111.276V124.13H366.192V111.276H369.44ZM379.773 111.09C381.304 111.09 382.541 111.578 383.485 112.552C384.428 113.511 384.9 114.857 384.9 116.589V124.13H381.652V117.03C381.652 116.009 381.397 115.228 380.886 114.687C380.376 114.13 379.68 113.851 378.798 113.851C377.901 113.851 377.189 114.13 376.664 114.687C376.153 115.228 375.898 116.009 375.898 117.03V124.13H372.65V111.276H375.898V112.877C376.331 112.32 376.88 111.887 377.545 111.578C378.226 111.253 378.968 111.09 379.773 111.09ZM387.154 117.656C387.154 116.357 387.409 115.205 387.919 114.199C388.445 113.194 389.149 112.42 390.031 111.879C390.928 111.338 391.925 111.067 393.024 111.067C393.983 111.067 394.818 111.26 395.53 111.647C396.256 112.034 396.836 112.521 397.27 113.109V111.276H400.541V124.13H397.27V122.25C396.852 122.854 396.272 123.357 395.53 123.758C394.802 124.145 393.959 124.339 393.001 124.339C391.918 124.339 390.928 124.06 390.031 123.503C389.149 122.946 388.445 122.165 387.919 121.16C387.409 120.139 387.154 118.971 387.154 117.656ZM397.27 117.703C397.27 116.914 397.115 116.241 396.806 115.684C396.496 115.112 396.078 114.679 395.553 114.385C395.027 114.076 394.462 113.921 393.859 113.921C393.256 113.921 392.699 114.068 392.189 114.362C391.678 114.656 391.26 115.089 390.936 115.661C390.626 116.218 390.472 116.883 390.472 117.656C390.472 118.43 390.626 119.111 390.936 119.698C391.26 120.271 391.678 120.711 392.189 121.021C392.714 121.33 393.271 121.485 393.859 121.485C394.462 121.485 395.027 121.338 395.553 121.044C396.078 120.735 396.496 120.301 396.806 119.745C397.115 119.172 397.27 118.492 397.27 117.703ZM410.889 109.745C410.317 109.745 409.838 109.566 409.451 109.211C409.079 108.84 408.894 108.383 408.894 107.842C408.894 107.301 409.079 106.852 409.451 106.496C409.838 106.125 410.317 105.939 410.889 105.939C411.462 105.939 411.933 106.125 412.305 106.496C412.691 106.852 412.885 107.301 412.885 107.842C412.885 108.383 412.691 108.84 412.305 109.211C411.933 109.566 411.462 109.745 410.889 109.745ZM412.49 111.276V124.13H409.242V111.276H412.49ZM422.823 111.09C424.354 111.09 425.592 111.578 426.535 112.552C427.479 113.511 427.95 114.857 427.95 116.589V124.13H424.702V117.03C424.702 116.009 424.447 115.228 423.936 114.687C423.426 114.13 422.73 113.851 421.848 113.851C420.951 113.851 420.24 114.13 419.713 114.687C419.203 115.228 418.948 116.009 418.948 117.03V124.13H415.7V111.276H418.948V112.877C419.381 112.32 419.93 111.887 420.595 111.578C421.276 111.253 422.019 111.09 422.823 111.09ZM432.687 109.745C432.114 109.745 431.635 109.566 431.248 109.211C430.877 108.84 430.691 108.383 430.691 107.842C430.691 107.301 430.877 106.852 431.248 106.496C431.635 106.125 432.114 105.939 432.687 105.939C433.259 105.939 433.731 106.125 434.102 106.496C434.488 106.852 434.682 107.301 434.682 107.842C434.682 108.383 434.488 108.84 434.102 109.211C433.731 109.566 433.259 109.745 432.687 109.745ZM434.288 111.276V124.13H431.039V111.276H434.288ZM436.661 117.703C436.661 116.373 436.932 115.213 437.473 114.223C438.015 113.217 438.765 112.444 439.724 111.902C440.683 111.345 441.781 111.067 443.019 111.067C444.612 111.067 445.927 111.469 446.963 112.274C448.015 113.062 448.719 114.176 449.074 115.615H445.571C445.385 115.058 445.068 114.624 444.619 114.315C444.187 113.99 443.645 113.828 442.995 113.828C442.067 113.828 441.333 114.169 440.791 114.849C440.25 115.514 439.979 116.466 439.979 117.703C439.979 118.925 440.25 119.876 440.791 120.557C441.333 121.222 442.067 121.554 442.995 121.554C444.31 121.554 445.169 120.967 445.571 119.791H449.074C448.719 121.183 448.015 122.289 446.963 123.109C445.911 123.928 444.596 124.339 443.019 124.339C441.781 124.339 440.683 124.068 439.724 123.526C438.765 122.97 438.015 122.196 437.473 121.206C436.932 120.201 436.661 119.033 436.661 117.703ZM453.102 109.745C452.529 109.745 452.05 109.566 451.663 109.211C451.292 108.84 451.106 108.383 451.106 107.842C451.106 107.301 451.292 106.852 451.663 106.496C452.05 106.125 452.529 105.939 453.102 105.939C453.674 105.939 454.146 106.125 454.517 106.496C454.904 106.852 455.097 107.301 455.097 107.842C455.097 108.383 454.904 108.84 454.517 109.211C454.146 109.566 453.674 109.745 453.102 109.745ZM454.702 111.276V124.13H451.454V111.276H454.702ZM457.077 117.656C457.077 116.357 457.332 115.205 457.842 114.199C458.368 113.194 459.072 112.42 459.954 111.879C460.85 111.338 461.848 111.067 462.947 111.067C463.905 111.067 464.741 111.26 465.452 111.647C466.179 112.034 466.759 112.521 467.193 113.109V111.276H470.464V124.13H467.193V122.25C466.775 122.854 466.195 123.357 465.452 123.758C464.725 124.145 463.882 124.339 462.923 124.339C461.841 124.339 460.85 124.06 459.954 123.503C459.072 122.946 458.368 122.165 457.842 121.16C457.332 120.139 457.077 118.971 457.077 117.656ZM467.193 117.703C467.193 116.914 467.038 116.241 466.729 115.684C466.419 115.112 466.001 114.679 465.476 114.385C464.95 114.076 464.385 113.921 463.782 113.921C463.179 113.921 462.622 114.068 462.111 114.362C461.601 114.656 461.183 115.089 460.858 115.661C460.549 116.218 460.394 116.883 460.394 117.656C460.394 118.43 460.549 119.111 460.858 119.698C461.183 120.271 461.601 120.711 462.111 121.021C462.637 121.33 463.194 121.485 463.782 121.485C464.385 121.485 464.95 121.338 465.476 121.044C466.001 120.735 466.419 120.301 466.729 119.745C467.038 119.172 467.193 118.492 467.193 117.703ZM476.885 106.96V124.13H473.636V106.96H476.885Z" fill="white"/>
<path d="M545.111 310.188C545.676 309.621 545.675 308.703 545.107 308.138L535.86 298.928C535.292 298.362 534.375 298.364 533.809 298.932C533.244 299.499 533.246 300.417 533.813 300.982L542.032 309.169L533.846 317.388C533.281 317.956 533.282 318.874 533.85 319.439C534.418 320.004 535.336 320.003 535.901 319.435L545.111 310.188ZM397.042 174.014C397.042 207.764 397.039 233.226 399.327 252.361C401.614 271.496 406.222 284.621 415.703 293.442C425.164 302.242 439.218 306.512 459.766 308.618C480.332 310.726 507.721 310.688 544.086 310.615L544.081 307.715C507.65 307.787 480.442 307.822 460.061 305.733C439.661 303.642 426.417 299.447 417.679 291.318C408.961 283.208 404.469 270.939 402.206 252.017C399.944 233.095 399.942 207.84 399.942 174.014H397.042Z" fill="black"/>
<path d="M399.918 172.912C399.352 172.346 398.434 172.346 397.868 172.912L388.639 182.14C388.072 182.707 388.072 183.625 388.639 184.191C389.205 184.758 390.124 184.758 390.69 184.191L398.893 175.988L407.096 184.191C407.662 184.758 408.581 184.758 409.147 184.191C409.713 183.625 409.713 182.707 409.147 182.14L399.918 172.912ZM253.035 308.14C252.469 308.706 252.469 309.624 253.035 310.19L262.264 319.419C262.83 319.985 263.748 319.985 264.314 319.419C264.881 318.853 264.881 317.935 264.314 317.368L256.111 309.165L264.314 300.962C264.881 300.396 264.881 299.477 264.314 298.911C263.748 298.345 262.83 298.345 262.264 298.911L253.035 308.14ZM397.443 173.937C397.443 207.782 397.44 233.034 395.19 251.944C392.94 270.856 388.47 283.106 379.799 291.202C371.108 299.317 357.936 303.505 337.642 305.61C317.368 307.713 290.302 307.715 254.06 307.715V310.615C290.235 310.615 317.481 310.617 337.941 308.494C358.382 306.374 372.366 302.11 381.778 293.321C391.212 284.514 395.794 271.409 398.07 252.287C400.346 233.165 400.343 207.707 400.343 173.937H397.443Z" fill="black"/>
<path d="M575.827 448.086H496.66C475.6 448.086 458.527 465.159 458.527 486.219C458.527 507.28 475.6 524.353 496.66 524.353H575.827C596.888 524.353 613.96 507.28 613.96 486.219C613.96 465.159 596.888 448.086 575.827 448.086Z" fill="#3423A6" stroke="black" stroke-width="2"/>
<path d="M502.601 482.723C502.601 483.373 502.445 483.982 502.132 484.551C501.83 485.119 501.349 485.577 500.687 485.925C500.038 486.273 499.214 486.447 498.216 486.447H496.18V491.111H493.744V478.965H498.216C499.156 478.965 499.956 479.127 500.618 479.452C501.279 479.777 501.772 480.223 502.097 480.792C502.433 481.36 502.601 482.004 502.601 482.723ZM498.112 484.481C498.785 484.481 499.284 484.33 499.608 484.029C499.933 483.715 500.096 483.28 500.096 482.723C500.096 481.54 499.434 480.949 498.112 480.949H496.18V484.481H498.112ZM506.767 482.967C507.08 482.457 507.486 482.056 507.985 481.766C508.495 481.476 509.075 481.331 509.725 481.331V483.889H509.081C508.315 483.889 507.735 484.069 507.341 484.429C506.958 484.788 506.767 485.415 506.767 486.308V491.111H504.331V481.471H506.767V482.967ZM515.647 491.268C514.719 491.268 513.883 491.065 513.141 490.659C512.398 490.241 511.813 489.655 511.383 488.901C510.966 488.147 510.757 487.277 510.757 486.291C510.757 485.305 510.972 484.435 511.401 483.681C511.842 482.926 512.439 482.346 513.193 481.94C513.947 481.523 514.788 481.314 515.716 481.314C516.644 481.314 517.485 481.523 518.239 481.94C518.994 482.346 519.585 482.926 520.014 483.681C520.455 484.435 520.676 485.305 520.676 486.291C520.676 487.277 520.449 488.147 519.997 488.901C519.556 489.655 518.953 490.241 518.187 490.659C517.433 491.065 516.586 491.268 515.647 491.268ZM515.647 489.145C516.087 489.145 516.499 489.04 516.882 488.831C517.277 488.611 517.59 488.286 517.822 487.857C518.054 487.428 518.17 486.906 518.17 486.291C518.17 485.374 517.926 484.672 517.439 484.185C516.963 483.686 516.378 483.437 515.681 483.437C514.985 483.437 514.4 483.686 513.924 484.185C513.46 484.672 513.228 485.374 513.228 486.291C513.228 487.207 513.454 487.915 513.907 488.414C514.371 488.901 514.951 489.145 515.647 489.145ZM521.836 486.256C521.836 485.281 522.028 484.417 522.411 483.663C522.805 482.909 523.339 482.329 524.012 481.923C524.684 481.517 525.433 481.314 526.256 481.314C526.883 481.314 527.48 481.453 528.049 481.732C528.617 481.998 529.07 482.358 529.406 482.81V478.234H531.877V491.111H529.406V489.684C529.104 490.16 528.681 490.542 528.136 490.833C527.59 491.123 526.958 491.268 526.239 491.268C525.427 491.268 524.684 491.059 524.012 490.641C523.339 490.223 522.805 489.638 522.411 488.884C522.028 488.118 521.836 487.242 521.836 486.256ZM529.423 486.291C529.423 485.699 529.307 485.194 529.075 484.777C528.843 484.348 528.53 484.023 528.136 483.802C527.741 483.57 527.318 483.454 526.865 483.454C526.413 483.454 525.995 483.565 525.612 483.785C525.23 484.005 524.916 484.33 524.673 484.759C524.441 485.177 524.325 485.676 524.325 486.256C524.325 486.836 524.441 487.346 524.673 487.787C524.916 488.217 525.23 488.547 525.612 488.779C526.007 489.011 526.425 489.127 526.865 489.127C527.318 489.127 527.741 489.017 528.136 488.797C528.53 488.565 528.843 488.24 529.075 487.822C529.307 487.393 529.423 486.882 529.423 486.291ZM543.357 481.471V491.111H540.904V489.893C540.59 490.31 540.179 490.641 539.668 490.885C539.169 491.117 538.624 491.233 538.032 491.233C537.278 491.233 536.611 491.076 536.031 490.763C535.451 490.438 534.993 489.968 534.657 489.353C534.332 488.727 534.169 487.984 534.169 487.126V481.471H536.605V486.778C536.605 487.544 536.797 488.135 537.18 488.553C537.563 488.959 538.085 489.162 538.746 489.162C539.419 489.162 539.947 488.959 540.329 488.553C540.712 488.135 540.904 487.544 540.904 486.778V481.471H543.357ZM548.597 483.472V488.135C548.597 488.46 548.673 488.698 548.824 488.849C548.986 488.988 549.253 489.058 549.624 489.058H550.755V491.111H549.224C547.17 491.111 546.144 490.113 546.144 488.118V483.472H544.995V481.471H546.144V479.087H548.597V481.471H550.755V483.472H548.597ZM556.788 491.268C555.86 491.268 555.025 491.065 554.282 490.659C553.54 490.241 552.954 489.655 552.525 488.901C552.107 488.147 551.898 487.277 551.898 486.291C551.898 485.305 552.113 484.435 552.542 483.681C552.983 482.926 553.581 482.346 554.335 481.94C555.089 481.523 555.93 481.314 556.858 481.314C557.786 481.314 558.627 481.523 559.381 481.94C560.135 482.346 560.727 482.926 561.156 483.681C561.597 484.435 561.817 485.305 561.817 486.291C561.817 487.277 561.591 488.147 561.139 488.901C560.698 489.655 560.094 490.241 559.329 490.659C558.575 491.065 557.728 491.268 556.788 491.268ZM556.788 489.145C557.229 489.145 557.641 489.04 558.024 488.831C558.418 488.611 558.731 488.286 558.963 487.857C559.195 487.428 559.311 486.906 559.311 486.291C559.311 485.374 559.068 484.672 558.581 484.185C558.105 483.686 557.519 483.437 556.823 483.437C556.127 483.437 555.541 483.686 555.065 484.185C554.601 484.672 554.369 485.374 554.369 486.291C554.369 487.207 554.596 487.915 555.048 488.414C555.512 488.901 556.092 489.145 556.788 489.145ZM567.293 491.268C566.505 491.268 565.797 491.128 565.17 490.85C564.544 490.56 564.045 490.171 563.674 489.684C563.314 489.197 563.117 488.657 563.082 488.066H565.536C565.582 488.437 565.762 488.744 566.075 488.988C566.4 489.232 566.8 489.353 567.276 489.353C567.74 489.353 568.1 489.261 568.355 489.075C568.622 488.889 568.755 488.652 568.755 488.362C568.755 488.048 568.593 487.816 568.268 487.665C567.955 487.503 567.45 487.329 566.754 487.143C566.035 486.969 565.443 486.79 564.979 486.604C564.527 486.418 564.132 486.134 563.796 485.751C563.471 485.368 563.308 484.852 563.308 484.203C563.308 483.669 563.459 483.182 563.761 482.741C564.074 482.3 564.515 481.952 565.083 481.697C565.663 481.442 566.342 481.314 567.119 481.314C568.268 481.314 569.184 481.604 569.869 482.184C570.553 482.752 570.93 483.524 571 484.498H568.668C568.633 484.116 568.471 483.814 568.181 483.594C567.902 483.362 567.525 483.245 567.05 483.245C566.609 483.245 566.267 483.327 566.023 483.489C565.791 483.652 565.675 483.878 565.675 484.168C565.675 484.493 565.838 484.742 566.162 484.916C566.487 485.078 566.992 485.247 567.676 485.421C568.372 485.595 568.947 485.774 569.399 485.96C569.851 486.146 570.24 486.436 570.565 486.83C570.901 487.213 571.075 487.723 571.087 488.362C571.087 488.918 570.93 489.417 570.617 489.858C570.315 490.299 569.875 490.647 569.295 490.902C568.726 491.146 568.059 491.268 567.293 491.268Z" fill="white"/>
<path d="M748.664 448.086H669.496C648.436 448.086 631.363 465.159 631.363 486.219C631.363 507.28 648.436 524.353 669.496 524.353H748.664C769.724 524.353 786.797 507.28 786.797 486.219C786.797 465.159 769.724 448.086 748.664 448.086Z" fill="#3423A6" stroke="black" stroke-width="2"/>
<path d="M663.95 478.965V491.111H661.514V478.965H663.95ZM671.7 481.331C672.848 481.331 673.776 481.697 674.484 482.428C675.191 483.147 675.545 484.156 675.545 485.455V491.111H673.109V485.786C673.109 485.02 672.918 484.435 672.535 484.029C672.152 483.611 671.63 483.402 670.969 483.402C670.296 483.402 669.762 483.611 669.368 484.029C668.985 484.435 668.794 485.02 668.794 485.786V491.111H666.357V481.471H668.794V482.671C669.118 482.254 669.53 481.929 670.029 481.697C670.539 481.453 671.096 481.331 671.7 481.331ZM677.233 486.256C677.233 485.281 677.425 484.417 677.807 483.663C678.202 482.909 678.736 482.329 679.408 481.923C680.081 481.517 680.83 481.314 681.653 481.314C682.28 481.314 682.877 481.453 683.446 481.732C684.014 481.998 684.466 482.358 684.803 482.81V478.234H687.274V491.111H684.803V489.684C684.501 490.16 684.078 490.542 683.533 490.832C682.987 491.122 682.355 491.268 681.636 491.268C680.824 491.268 680.081 491.059 679.408 490.641C678.736 490.223 678.202 489.638 677.807 488.884C677.425 488.118 677.233 487.242 677.233 486.256ZM684.82 486.291C684.82 485.699 684.704 485.194 684.472 484.777C684.24 484.348 683.927 484.023 683.533 483.802C683.138 483.57 682.715 483.454 682.262 483.454C681.81 483.454 681.392 483.564 681.009 483.785C680.627 484.005 680.313 484.33 680.07 484.759C679.838 485.177 679.722 485.676 679.722 486.256C679.722 486.836 679.838 487.346 680.07 487.787C680.313 488.216 680.627 488.547 681.009 488.779C681.404 489.011 681.821 489.127 682.262 489.127C682.715 489.127 683.138 489.017 683.533 488.796C683.927 488.564 684.24 488.24 684.472 487.822C684.704 487.393 684.82 486.882 684.82 486.291ZM698.753 481.471V491.111H696.299V489.893C695.986 490.31 695.574 490.641 695.064 490.885C694.565 491.117 694.02 491.233 693.428 491.233C692.674 491.233 692.007 491.076 691.427 490.763C690.847 490.438 690.389 489.968 690.052 489.353C689.727 488.727 689.565 487.984 689.565 487.126V481.471H692.001V486.778C692.001 487.544 692.193 488.135 692.575 488.553C692.958 488.959 693.48 489.162 694.142 489.162C694.814 489.162 695.342 488.959 695.725 488.553C696.108 488.135 696.299 487.544 696.299 486.778V481.471H698.753ZM696.108 478.965L692.106 480.792V479.052L696.108 476.981V478.965ZM704.849 491.268C704.06 491.268 703.353 491.128 702.726 490.85C702.1 490.56 701.601 490.171 701.23 489.684C700.87 489.197 700.673 488.657 700.638 488.066H703.092C703.138 488.437 703.318 488.744 703.631 488.988C703.956 489.232 704.356 489.353 704.832 489.353C705.296 489.353 705.655 489.261 705.911 489.075C706.178 488.889 706.311 488.651 706.311 488.361C706.311 488.048 706.148 487.816 705.824 487.665C705.51 487.503 705.006 487.329 704.31 487.143C703.59 486.969 702.999 486.79 702.535 486.604C702.082 486.418 701.688 486.134 701.352 485.751C701.027 485.368 700.864 484.852 700.864 484.203C700.864 483.669 701.015 483.182 701.317 482.741C701.63 482.3 702.071 481.952 702.639 481.697C703.219 481.442 703.898 481.314 704.675 481.314C705.824 481.314 706.74 481.604 707.425 482.184C708.109 482.752 708.486 483.524 708.556 484.498H706.224C706.189 484.116 706.027 483.814 705.737 483.594C705.458 483.361 705.081 483.245 704.606 483.245C704.165 483.245 703.823 483.327 703.579 483.489C703.347 483.651 703.231 483.878 703.231 484.168C703.231 484.493 703.393 484.742 703.718 484.916C704.043 485.078 704.548 485.247 705.232 485.421C705.928 485.595 706.502 485.774 706.955 485.96C707.407 486.146 707.796 486.436 708.121 486.83C708.457 487.213 708.631 487.723 708.643 488.361C708.643 488.918 708.486 489.417 708.173 489.858C707.871 490.299 707.43 490.647 706.85 490.902C706.282 491.146 705.615 491.268 704.849 491.268ZM713.48 483.472V488.135C713.48 488.46 713.556 488.698 713.707 488.849C713.869 488.988 714.136 489.058 714.507 489.058H715.638V491.111H714.107C712.053 491.111 711.027 490.113 711.027 488.118V483.472H709.878V481.471H711.027V479.087H713.48V481.471H715.638V483.472H713.48ZM719.826 482.967C720.139 482.457 720.545 482.056 721.044 481.766C721.555 481.476 722.135 481.331 722.784 481.331V483.889H722.14C721.375 483.889 720.795 484.069 720.4 484.429C720.017 484.788 719.826 485.415 719.826 486.308V491.111H717.39V481.471H719.826V482.967ZM725.655 480.322C725.226 480.322 724.867 480.189 724.577 479.922C724.298 479.643 724.159 479.301 724.159 478.895C724.159 478.489 724.298 478.153 724.577 477.886C724.867 477.607 725.226 477.468 725.655 477.468C726.085 477.468 726.439 477.607 726.717 477.886C727.007 478.153 727.152 478.489 727.152 478.895C727.152 479.301 727.007 479.643 726.717 479.922C726.439 480.189 726.085 480.322 725.655 480.322ZM726.856 481.471V491.111H724.42V481.471H726.856ZM728.637 486.256C728.637 485.281 728.828 484.417 729.211 483.663C729.606 482.909 730.133 482.329 730.795 481.923C731.468 481.517 732.216 481.314 733.039 481.314C733.759 481.314 734.385 481.459 734.919 481.749C735.464 482.039 735.899 482.404 736.224 482.845V481.471H738.678V491.111H736.224V489.701C735.911 490.154 735.476 490.531 734.919 490.832C734.374 491.122 733.741 491.268 733.022 491.268C732.21 491.268 731.468 491.059 730.795 490.641C730.133 490.223 729.606 489.638 729.211 488.884C728.828 488.118 728.637 487.242 728.637 486.256ZM736.224 486.291C736.224 485.699 736.108 485.194 735.876 484.777C735.644 484.348 735.331 484.023 734.936 483.802C734.542 483.57 734.118 483.454 733.666 483.454C733.213 483.454 732.796 483.564 732.413 483.785C732.03 484.005 731.717 484.33 731.473 484.759C731.241 485.177 731.125 485.676 731.125 486.256C731.125 486.836 731.241 487.346 731.473 487.787C731.717 488.216 732.03 488.547 732.413 488.779C732.807 489.011 733.225 489.127 733.666 489.127C734.118 489.127 734.542 489.017 734.936 488.796C735.331 488.564 735.644 488.24 735.876 487.822C736.108 487.393 736.224 486.882 736.224 486.291ZM744.751 491.268C743.962 491.268 743.254 491.128 742.628 490.85C742.001 490.56 741.502 490.171 741.131 489.684C740.771 489.197 740.574 488.657 740.539 488.066H742.993C743.039 488.437 743.219 488.744 743.532 488.988C743.857 489.232 744.258 489.353 744.733 489.353C745.197 489.353 745.557 489.261 745.812 489.075C746.079 488.889 746.212 488.651 746.212 488.361C746.212 488.048 746.05 487.816 745.725 487.665C745.412 487.503 744.907 487.329 744.211 487.143C743.492 486.969 742.9 486.79 742.436 486.604C741.984 486.418 741.589 486.134 741.253 485.751C740.928 485.368 740.766 484.852 740.766 484.203C740.766 483.669 740.916 483.182 741.218 482.741C741.531 482.3 741.972 481.952 742.541 481.697C743.121 481.442 743.799 481.314 744.577 481.314C745.725 481.314 746.642 481.604 747.326 482.184C748.01 482.752 748.387 483.524 748.457 484.498H746.125C746.09 484.116 745.928 483.814 745.638 483.594C745.36 483.361 744.983 483.245 744.507 483.245C744.066 483.245 743.724 483.327 743.48 483.489C743.248 483.651 743.132 483.878 743.132 484.168C743.132 484.493 743.295 484.742 743.62 484.916C743.944 485.078 744.449 485.247 745.133 485.421C745.829 485.595 746.404 485.774 746.856 485.96C747.309 486.146 747.697 486.436 748.022 486.83C748.358 487.213 748.533 487.723 748.544 488.361C748.544 488.918 748.388 489.417 748.074 489.858C747.773 490.299 747.332 490.647 746.752 490.902C746.183 491.146 745.516 491.268 744.751 491.268Z" fill="white"/>
<path d="M575.827 555.975H496.66C475.6 555.975 458.527 573.047 458.527 594.108C458.527 615.168 475.6 632.241 496.66 632.241H575.827C596.888 632.241 613.96 615.168 613.96 594.108C613.96 573.047 596.888 555.975 575.827 555.975Z" fill="#3423A6" stroke="black" stroke-width="2"/>
<path d="M482.825 596.682H477.987L477.187 598.997H474.629L478.997 586.833H481.833L486.201 598.997H483.625L482.825 596.682ZM482.164 594.733L480.406 589.652L478.649 594.733H482.164ZM490.27 590.748C490.583 590.308 491.012 589.942 491.558 589.652C492.114 589.351 492.747 589.2 493.454 589.2C494.278 589.2 495.02 589.403 495.682 589.809C496.355 590.215 496.882 590.795 497.265 591.549C497.66 592.291 497.857 593.156 497.857 594.142C497.857 595.128 497.66 596.004 497.265 596.769C496.882 597.523 496.355 598.109 495.682 598.527C495.02 598.944 494.278 599.153 493.454 599.153C492.747 599.153 492.12 599.008 491.575 598.718C491.041 598.428 490.606 598.063 490.27 597.622V603.591H487.834V589.356H490.27V590.748ZM495.368 594.142C495.368 593.562 495.247 593.063 495.003 592.645C494.771 592.216 494.458 591.891 494.063 591.671C493.681 591.45 493.263 591.34 492.81 591.34C492.37 591.34 491.952 591.456 491.558 591.688C491.175 591.909 490.862 592.233 490.618 592.663C490.386 593.092 490.27 593.596 490.27 594.176C490.27 594.757 490.386 595.261 490.618 595.69C490.862 596.12 491.175 596.45 491.558 596.682C491.952 596.903 492.37 597.013 492.81 597.013C493.263 597.013 493.681 596.897 494.063 596.665C494.458 596.433 494.771 596.102 495.003 595.673C495.247 595.244 495.368 594.733 495.368 594.142ZM502.063 590.853C502.377 590.342 502.783 589.942 503.281 589.652C503.792 589.362 504.372 589.217 505.022 589.217V591.775H504.378C503.612 591.775 503.032 591.955 502.638 592.315C502.255 592.674 502.063 593.301 502.063 594.194V598.997H499.627V589.356H502.063V590.853ZM515.624 593.968C515.624 594.316 515.601 594.629 515.555 594.907H508.507C508.565 595.603 508.809 596.149 509.238 596.543C509.667 596.937 510.195 597.135 510.821 597.135C511.726 597.135 512.37 596.746 512.753 595.969H515.381C515.102 596.897 514.569 597.663 513.78 598.266C512.991 598.857 512.022 599.153 510.874 599.153C509.946 599.153 509.11 598.95 508.368 598.544C507.637 598.127 507.063 597.541 506.645 596.787C506.239 596.033 506.036 595.163 506.036 594.176C506.036 593.179 506.239 592.303 506.645 591.549C507.051 590.795 507.62 590.215 508.35 589.809C509.081 589.403 509.922 589.2 510.874 589.2C511.79 589.2 512.608 589.397 513.327 589.791C514.058 590.186 514.621 590.748 515.015 591.479C515.421 592.199 515.624 593.028 515.624 593.968ZM513.101 593.272C513.089 592.645 512.863 592.146 512.422 591.775C511.982 591.392 511.442 591.201 510.804 591.201C510.201 591.201 509.69 591.386 509.273 591.758C508.867 592.117 508.617 592.622 508.524 593.272H513.101ZM522.745 589.217C523.893 589.217 524.821 589.583 525.529 590.313C526.237 591.033 526.591 592.042 526.591 593.341V598.997H524.154V593.672C524.154 592.906 523.963 592.32 523.58 591.914C523.197 591.497 522.675 591.288 522.014 591.288C521.341 591.288 520.808 591.497 520.413 591.914C520.03 592.32 519.839 592.906 519.839 593.672V598.997H517.403V589.356H519.839V590.557C520.164 590.139 520.576 589.815 521.074 589.583C521.585 589.339 522.142 589.217 522.745 589.217ZM528.281 594.142C528.281 593.167 528.472 592.303 528.855 591.549C529.25 590.795 529.783 590.215 530.456 589.809C531.129 589.403 531.877 589.2 532.701 589.2C533.327 589.2 533.925 589.339 534.493 589.617C535.062 589.884 535.514 590.244 535.851 590.696V586.12H538.321V598.997H535.851V597.57C535.549 598.045 535.125 598.428 534.58 598.718C534.035 599.008 533.403 599.153 532.683 599.153C531.871 599.153 531.129 598.944 530.456 598.527C529.783 598.109 529.25 597.523 528.855 596.769C528.472 596.004 528.281 595.128 528.281 594.142ZM535.868 594.176C535.868 593.585 535.752 593.08 535.52 592.663C535.288 592.233 534.975 591.909 534.58 591.688C534.186 591.456 533.762 591.34 533.31 591.34C532.857 591.34 532.44 591.45 532.057 591.671C531.674 591.891 531.361 592.216 531.117 592.645C530.885 593.063 530.769 593.562 530.769 594.142C530.769 594.722 530.885 595.232 531.117 595.673C531.361 596.102 531.674 596.433 532.057 596.665C532.451 596.897 532.869 597.013 533.31 597.013C533.762 597.013 534.186 596.903 534.58 596.682C534.975 596.45 535.288 596.125 535.52 595.708C535.752 595.279 535.868 594.768 535.868 594.176ZM541.936 588.208C541.507 588.208 541.147 588.074 540.857 587.808C540.579 587.529 540.44 587.187 540.44 586.781C540.44 586.375 540.579 586.038 540.857 585.772C541.147 585.493 541.507 585.354 541.936 585.354C542.366 585.354 542.719 585.493 542.998 585.772C543.288 586.038 543.433 586.375 543.433 586.781C543.433 587.187 543.288 587.529 542.998 587.808C542.719 588.074 542.366 588.208 541.936 588.208ZM543.137 589.356V598.997H540.701V589.356H543.137ZM547.771 596.996H552.069V598.997H545.004V597.03L549.215 591.357H545.022V589.356H552.017V591.323L547.771 596.996ZM553.329 594.142C553.329 593.167 553.52 592.303 553.903 591.549C554.298 590.795 554.826 590.215 555.487 589.809C556.16 589.403 556.908 589.2 557.732 589.2C558.451 589.2 559.077 589.345 559.611 589.635C560.156 589.925 560.591 590.29 560.916 590.731V589.356H563.37V598.997H560.916V597.587C560.603 598.04 560.168 598.417 559.611 598.718C559.066 599.008 558.433 599.153 557.714 599.153C556.902 599.153 556.16 598.944 555.487 598.527C554.826 598.109 554.298 597.523 553.903 596.769C553.52 596.004 553.329 595.128 553.329 594.142ZM560.916 594.176C560.916 593.585 560.8 593.08 560.568 592.663C560.336 592.233 560.023 591.909 559.628 591.688C559.234 591.456 558.81 591.34 558.358 591.34C557.906 591.34 557.488 591.45 557.105 591.671C556.722 591.891 556.409 592.216 556.165 592.645C555.933 593.063 555.817 593.562 555.817 594.142C555.817 594.722 555.933 595.232 556.165 595.673C556.409 596.102 556.722 596.433 557.105 596.665C557.5 596.897 557.917 597.013 558.358 597.013C558.81 597.013 559.234 596.903 559.628 596.682C560.023 596.45 560.336 596.125 560.568 595.708C560.8 595.279 560.916 594.768 560.916 594.176ZM565.123 594.142C565.123 593.167 565.314 592.303 565.697 591.549C566.091 590.795 566.625 590.215 567.298 589.809C567.971 589.403 568.719 589.2 569.542 589.2C570.169 589.2 570.766 589.339 571.335 589.617C571.903 589.884 572.356 590.244 572.692 590.696V586.12H575.163V598.997H572.692V597.57C572.391 598.045 571.967 598.428 571.422 598.718C570.877 599.008 570.244 599.153 569.525 599.153C568.713 599.153 567.971 598.944 567.298 598.527C566.625 598.109 566.091 597.523 565.697 596.769C565.314 596.004 565.123 595.128 565.123 594.142ZM572.71 594.176C572.71 593.585 572.594 593.08 572.361 592.663C572.129 592.233 571.816 591.909 571.422 591.688C571.027 591.456 570.604 591.34 570.152 591.34C569.699 591.34 569.281 591.45 568.899 591.671C568.516 591.891 568.203 592.216 567.959 592.645C567.727 593.063 567.611 593.562 567.611 594.142C567.611 594.722 567.727 595.232 567.959 595.673C568.203 596.102 568.516 596.433 568.899 596.665C569.293 596.897 569.711 597.013 570.152 597.013C570.604 597.013 571.027 596.903 571.422 596.682C571.816 596.45 572.129 596.125 572.361 595.708C572.594 595.279 572.71 594.768 572.71 594.176ZM581.821 599.153C580.893 599.153 580.058 598.95 579.317 598.544C578.575 598.127 577.989 597.541 577.56 596.787C577.142 596.033 576.933 595.163 576.933 594.176C576.933 593.19 577.148 592.32 577.577 591.566C578.018 590.812 578.616 590.232 579.37 589.826C580.122 589.409 580.963 589.2 581.891 589.2C582.819 589.2 583.66 589.409 584.414 589.826C585.168 590.232 585.76 590.812 586.189 591.566C586.63 592.32 586.85 593.19 586.85 594.176C586.85 595.163 586.624 596.033 586.172 596.787C585.731 597.541 585.128 598.127 584.362 598.544C583.608 598.95 582.761 599.153 581.821 599.153ZM581.821 597.03C582.262 597.03 582.674 596.926 583.057 596.717C583.451 596.497 583.765 596.172 583.997 595.743C584.229 595.313 584.345 594.791 584.345 594.176C584.345 593.26 584.101 592.558 583.614 592.071C583.138 591.572 582.552 591.323 581.856 591.323C581.16 591.323 580.574 591.572 580.099 592.071C579.636 592.558 579.404 593.26 579.404 594.176C579.404 595.093 579.631 595.801 580.081 596.299C580.545 596.787 581.125 597.03 581.821 597.03Z" fill="white"/>
<path d="M575.827 664.426H496.66C475.6 664.426 458.527 681.499 458.527 702.559C458.527 723.62 475.6 740.693 496.66 740.693H575.827C596.888 740.693 613.96 723.62 613.96 702.559C613.96 681.499 596.888 664.426 575.827 664.426Z" fill="#3423A6" stroke="black" stroke-width="2"/>
<path d="M503.638 707.569C502.791 707.569 502.026 707.424 501.341 707.134C500.668 706.844 500.135 706.427 499.74 705.881C499.346 705.336 499.143 704.692 499.131 703.95H501.741C501.776 704.449 501.95 704.843 502.263 705.133C502.588 705.423 503.029 705.568 503.586 705.568C504.154 705.568 504.601 705.435 504.926 705.168C505.251 704.89 505.413 704.53 505.413 704.089C505.413 703.73 505.303 703.434 505.082 703.202C504.862 702.97 504.584 702.79 504.247 702.662C503.922 702.523 503.47 702.372 502.89 702.21C502.101 701.978 501.457 701.752 500.958 701.531C500.471 701.299 500.048 700.957 499.688 700.504C499.34 700.04 499.166 699.426 499.166 698.66C499.166 697.941 499.346 697.314 499.705 696.781C500.065 696.247 500.57 695.841 501.219 695.562C501.869 695.272 502.611 695.127 503.447 695.127C504.7 695.127 505.715 695.435 506.492 696.05C507.281 696.653 507.716 697.5 507.797 698.59H505.117C505.094 698.173 504.914 697.83 504.578 697.564C504.253 697.285 503.818 697.146 503.273 697.146C502.797 697.146 502.414 697.268 502.124 697.511C501.846 697.755 501.707 698.109 501.707 698.573C501.707 698.898 501.811 699.17 502.02 699.391C502.24 699.6 502.507 699.774 502.82 699.913C503.145 700.04 503.597 700.191 504.178 700.365C504.966 700.597 505.61 700.829 506.109 701.061C506.608 701.293 507.037 701.641 507.397 702.105C507.756 702.569 507.936 703.178 507.936 703.933C507.936 704.582 507.768 705.185 507.432 705.742C507.095 706.299 506.602 706.746 505.952 707.082C505.303 707.407 504.531 707.569 503.638 707.569ZM519.149 697.807V707.448H516.695V706.23C516.382 706.647 515.97 706.978 515.46 707.221C514.961 707.453 514.416 707.569 513.824 707.569C513.07 707.569 512.403 707.413 511.823 707.1C511.243 706.775 510.785 706.305 510.448 705.69C510.124 705.064 509.961 704.321 509.961 703.463V697.807H512.397V703.115C512.397 703.88 512.589 704.472 512.972 704.89C513.354 705.296 513.876 705.499 514.538 705.499C515.211 705.499 515.738 705.296 516.121 704.89C516.504 704.472 516.695 703.88 516.695 703.115V697.807H519.149ZM523.989 699.199C524.302 698.759 524.731 698.393 525.277 698.103C525.834 697.801 526.466 697.651 527.173 697.651C527.997 697.651 528.74 697.854 529.401 698.26C530.074 698.666 530.602 699.246 530.984 700C531.379 700.742 531.576 701.607 531.576 702.593C531.576 703.579 531.379 704.455 530.984 705.22C530.602 705.974 530.074 706.56 529.401 706.978C528.74 707.395 527.997 707.604 527.173 707.604C526.466 707.604 525.839 707.459 525.294 707.169C524.76 706.879 524.325 706.514 523.989 706.073V712.042H521.553V697.807H523.989V699.199ZM529.088 702.593C529.088 702.013 528.966 701.514 528.722 701.096C528.49 700.667 528.177 700.342 527.782 700.122C527.4 699.901 526.982 699.791 526.53 699.791C526.089 699.791 525.671 699.907 525.277 700.139C524.894 700.359 524.581 700.684 524.337 701.113C524.105 701.543 523.989 702.047 523.989 702.627C523.989 703.207 524.105 703.712 524.337 704.141C524.581 704.571 524.894 704.901 525.277 705.133C525.671 705.354 526.089 705.464 526.53 705.464C526.982 705.464 527.4 705.348 527.782 705.116C528.177 704.884 528.49 704.553 528.722 704.124C528.966 703.695 529.088 703.184 529.088 702.593ZM537.627 707.604C536.699 707.604 535.864 707.401 535.121 706.995C534.379 706.578 533.793 705.992 533.364 705.238C532.946 704.484 532.737 703.613 532.737 702.627C532.737 701.641 532.952 700.771 533.381 700.017C533.822 699.263 534.419 698.683 535.173 698.277C535.927 697.859 536.769 697.651 537.697 697.651C538.625 697.651 539.466 697.859 540.22 698.277C540.974 698.683 541.566 699.263 541.995 700.017C542.436 700.771 542.656 701.641 542.656 702.627C542.656 703.613 542.43 704.484 541.977 705.238C541.537 705.992 540.933 706.578 540.168 706.995C539.414 707.401 538.567 707.604 537.627 707.604ZM537.627 705.481C538.068 705.481 538.48 705.377 538.863 705.168C539.257 704.948 539.57 704.623 539.802 704.194C540.034 703.764 540.15 703.242 540.15 702.627C540.15 701.711 539.907 701.009 539.419 700.522C538.944 700.023 538.358 699.774 537.662 699.774C536.966 699.774 536.38 700.023 535.904 700.522C535.44 701.009 535.208 701.711 535.208 702.627C535.208 703.544 535.434 704.252 535.887 704.75C536.351 705.238 536.931 705.481 537.627 705.481ZM546.879 699.304C547.193 698.793 547.599 698.393 548.097 698.103C548.608 697.813 549.188 697.668 549.838 697.668V700.226H549.194C548.428 700.226 547.848 700.406 547.454 700.765C547.071 701.125 546.879 701.752 546.879 702.645V707.448H544.443V697.807H546.879V699.304ZM554.315 699.808V704.472C554.315 704.797 554.39 705.035 554.541 705.185C554.704 705.325 554.97 705.394 555.342 705.394H556.473V707.448H554.941C552.888 707.448 551.861 706.45 551.861 704.455V699.808H550.713V697.807H551.861V695.423H554.315V697.807H556.473V699.808H554.315ZM567.187 702.419C567.187 702.767 567.164 703.08 567.117 703.358H560.07C560.128 704.054 560.371 704.6 560.8 704.994C561.23 705.388 561.758 705.586 562.384 705.586C563.289 705.586 563.933 705.197 564.316 704.42H566.943C566.665 705.348 566.131 706.114 565.342 706.717C564.553 707.308 563.585 707.604 562.436 707.604C561.508 707.604 560.673 707.401 559.93 706.995C559.2 706.578 558.625 705.992 558.208 705.238C557.802 704.484 557.599 703.613 557.599 702.627C557.599 701.63 557.802 700.754 558.208 700C558.614 699.246 559.182 698.666 559.913 698.26C560.644 697.854 561.485 697.651 562.436 697.651C563.353 697.651 564.171 697.848 564.89 698.242C565.621 698.637 566.183 699.199 566.578 699.93C566.984 700.65 567.187 701.479 567.187 702.419ZM564.664 701.723C564.652 701.096 564.426 700.597 563.985 700.226C563.544 699.843 563.005 699.652 562.367 699.652C561.763 699.652 561.253 699.837 560.835 700.209C560.429 700.568 560.18 701.073 560.087 701.723H564.664Z" fill="white"/>
<path d="M748.681 555.975H669.514C648.453 555.975 631.38 573.047 631.38 594.108C631.38 615.168 648.453 632.241 669.514 632.241H748.681C769.741 632.241 786.814 615.168 786.814 594.108C786.814 573.047 769.741 555.975 748.681 555.975Z" fill="#3423A6" stroke="black" stroke-width="2"/>
<path d="M669.669 588.817V591.862H673.759V593.794H669.669V597.013H674.281V598.997H667.233V586.833H674.281V588.817H669.669ZM688.463 589.217C689.646 589.217 690.597 589.582 691.317 590.313C692.047 591.033 692.413 592.042 692.413 593.341V598.997H689.977V593.672C689.977 592.918 689.785 592.343 689.403 591.949C689.02 591.543 688.498 591.34 687.836 591.34C687.175 591.34 686.647 591.543 686.253 591.949C685.87 592.343 685.679 592.918 685.679 593.672V598.997H683.242V593.672C683.242 592.918 683.051 592.343 682.668 591.949C682.285 591.543 681.763 591.34 681.102 591.34C680.429 591.34 679.896 591.543 679.501 591.949C679.118 592.343 678.927 592.918 678.927 593.672V598.997H676.491V589.356H678.927V590.522C679.24 590.116 679.64 589.797 680.128 589.565C680.626 589.333 681.172 589.217 681.763 589.217C682.517 589.217 683.19 589.379 683.782 589.704C684.373 590.017 684.832 590.47 685.157 591.062C685.47 590.505 685.922 590.058 686.514 589.722C687.117 589.385 687.767 589.217 688.463 589.217ZM697.164 590.748C697.477 590.307 697.906 589.942 698.451 589.652C699.008 589.35 699.64 589.2 700.348 589.2C701.172 589.2 701.914 589.403 702.575 589.809C703.248 590.215 703.776 590.795 704.159 591.549C704.553 592.291 704.751 593.156 704.751 594.142C704.751 595.128 704.553 596.004 704.159 596.769C703.776 597.523 703.248 598.109 702.575 598.527C701.914 598.944 701.172 599.153 700.348 599.153C699.64 599.153 699.014 599.008 698.469 598.718C697.935 598.428 697.5 598.063 697.164 597.622V603.591H694.727V589.356H697.164V590.748ZM702.262 594.142C702.262 593.562 702.14 593.063 701.897 592.645C701.665 592.216 701.351 591.891 700.957 591.671C700.574 591.45 700.157 591.34 699.704 591.34C699.263 591.34 698.846 591.456 698.451 591.688C698.068 591.908 697.755 592.233 697.512 592.662C697.28 593.092 697.164 593.596 697.164 594.176C697.164 594.756 697.28 595.261 697.512 595.69C697.755 596.12 698.068 596.45 698.451 596.682C698.846 596.903 699.263 597.013 699.704 597.013C700.157 597.013 700.574 596.897 700.957 596.665C701.351 596.433 701.665 596.102 701.897 595.673C702.14 595.244 702.262 594.733 702.262 594.142ZM708.956 590.853C709.269 590.342 709.675 589.942 710.174 589.652C710.684 589.362 711.264 589.217 711.914 589.217V591.775H711.27C710.505 591.775 709.925 591.955 709.53 592.314C709.147 592.674 708.956 593.301 708.956 594.194V598.997H706.52V589.356H708.956V590.853ZM722.517 593.968C722.517 594.316 722.494 594.629 722.448 594.907H715.4C715.458 595.603 715.702 596.149 716.131 596.543C716.56 596.937 717.088 597.135 717.715 597.135C718.619 597.135 719.263 596.746 719.646 595.969H722.274C721.995 596.897 721.462 597.662 720.673 598.266C719.884 598.857 718.915 599.153 717.767 599.153C716.839 599.153 716.003 598.95 715.261 598.544C714.53 598.127 713.956 597.541 713.538 596.787C713.132 596.033 712.929 595.162 712.929 594.176C712.929 593.179 713.132 592.303 713.538 591.549C713.944 590.795 714.513 590.215 715.244 589.809C715.974 589.403 716.816 589.2 717.767 589.2C718.683 589.2 719.501 589.397 720.22 589.791C720.951 590.186 721.514 590.748 721.908 591.479C722.314 592.198 722.517 593.028 722.517 593.968ZM719.994 593.272C719.983 592.645 719.756 592.146 719.315 591.775C718.875 591.392 718.335 591.201 717.697 591.201C717.094 591.201 716.583 591.386 716.166 591.758C715.76 592.117 715.51 592.622 715.418 593.272H719.994ZM727.987 599.153C727.198 599.153 726.491 599.014 725.864 598.736C725.238 598.446 724.739 598.057 724.368 597.57C724.008 597.082 723.811 596.543 723.776 595.951H726.23C726.276 596.323 726.456 596.63 726.769 596.874C727.094 597.117 727.494 597.239 727.97 597.239C728.434 597.239 728.793 597.146 729.049 596.961C729.315 596.775 729.449 596.537 729.449 596.247C729.449 595.934 729.286 595.702 728.962 595.551C728.648 595.389 728.144 595.215 727.448 595.029C726.728 594.855 726.137 594.675 725.673 594.49C725.22 594.304 724.826 594.02 724.49 593.637C724.165 593.254 724.002 592.738 724.002 592.088C724.002 591.555 724.153 591.067 724.455 590.626C724.768 590.186 725.209 589.838 725.777 589.582C726.357 589.327 727.036 589.2 727.813 589.2C728.962 589.2 729.878 589.49 730.563 590.07C731.247 590.638 731.624 591.41 731.694 592.384H729.362C729.327 592.001 729.165 591.7 728.875 591.479C728.596 591.247 728.219 591.131 727.744 591.131C727.303 591.131 726.96 591.212 726.717 591.375C726.485 591.537 726.369 591.763 726.369 592.053C726.369 592.378 726.531 592.628 726.856 592.802C727.181 592.964 727.686 593.132 728.37 593.306C729.066 593.48 729.64 593.66 730.093 593.846C730.545 594.031 730.934 594.321 731.259 594.716C731.595 595.099 731.769 595.609 731.781 596.247C731.781 596.804 731.624 597.303 731.311 597.744C731.009 598.185 730.568 598.533 729.988 598.788C729.42 599.031 728.753 599.153 727.987 599.153ZM733.15 594.142C733.15 593.167 733.341 592.303 733.724 591.549C734.118 590.795 734.646 590.215 735.307 589.809C735.98 589.403 736.729 589.2 737.552 589.2C738.271 589.2 738.898 589.345 739.432 589.635C739.977 589.925 740.412 590.29 740.737 590.731V589.356H743.19V598.997H740.737V597.587C740.423 598.039 739.988 598.416 739.432 598.718C738.886 599.008 738.254 599.153 737.535 599.153C736.723 599.153 735.98 598.944 735.307 598.527C734.646 598.109 734.118 597.523 733.724 596.769C733.341 596.004 733.15 595.128 733.15 594.142ZM740.737 594.176C740.737 593.585 740.621 593.08 740.389 592.662C740.157 592.233 739.843 591.908 739.449 591.688C739.055 591.456 738.631 591.34 738.179 591.34C737.726 591.34 737.309 591.45 736.926 591.671C736.543 591.891 736.23 592.216 735.986 592.645C735.754 593.063 735.638 593.562 735.638 594.142C735.638 594.722 735.754 595.232 735.986 595.673C736.23 596.102 736.543 596.433 736.926 596.665C737.32 596.897 737.738 597.013 738.179 597.013C738.631 597.013 739.055 596.903 739.449 596.682C739.843 596.45 740.157 596.125 740.389 595.708C740.621 595.278 740.737 594.768 740.737 594.176Z" fill="white"/>
<path d="M630.957 159.647C630.389 159.081 629.472 159.081 628.904 159.647L619.675 168.876C619.113 169.442 619.113 170.36 619.675 170.927C620.244 171.493 621.16 171.493 621.729 170.927L629.93 162.724L638.132 170.927C638.701 171.493 639.617 171.493 640.186 170.927C640.748 170.36 640.748 169.442 640.186 168.876L630.957 159.647ZM628.904 270.167C629.472 270.733 630.389 270.733 630.957 270.167L640.186 260.938C640.748 260.372 640.748 259.454 640.186 258.887C639.617 258.321 638.701 258.321 638.132 258.887L629.93 267.09L621.729 258.887C621.16 258.321 620.244 258.321 619.675 258.887C619.113 259.454 619.113 260.372 619.675 260.938L628.904 270.167ZM628.48 160.673V269.141H631.381V160.673H628.48Z" fill="black"/>
</g>
<defs>
<clipPath id="clip0_1_24911">
<rect width="1000" height="830.626" fill="white"/>
</clipPath>
</defs>
</svg>
