<svg width="525" height="368" viewBox="0 0 525 368" fill="none" xmlns="http://www.w3.org/2000/svg">
<path d="M218.363 40.1982C235.331 22.6241 258.965 11.514 285.023 11.514C319.767 11.514 349.865 30.9061 366.026 59.5903C379.964 53.3282 395.518 49.8942 411.88 49.8942C474.5 49.8942 525 101 525 164.025C525 227.049 474.298 278.155 411.88 278.155C404.204 278.155 396.73 277.347 389.66 275.933C375.52 301.183 348.451 318.353 317.343 318.353C304.415 318.353 292.093 315.323 281.185 310.071C266.843 343.805 233.311 367.642 194.325 367.642C153.723 367.642 118.979 341.987 105.646 305.829C99.7884 307.041 93.7284 307.647 87.6684 307.647C39.1882 307.647 0 268.055 0 218.969C0 186.245 17.5741 157.561 43.8342 142.209C38.3802 129.887 35.3502 116.15 35.3502 101.606C35.1481 45.6522 81.0023 0 137.159 0C170.287 0 199.779 15.7561 218.363 40.1982Z" fill="#00A1E0"/>
</svg>
