<svg width="1724" height="1432" viewBox="0 0 1724 1432" fill="none" xmlns="http://www.w3.org/2000/svg">
<rect width="1724" height="1432" rx="100" fill="#E4E2DD"/>
<rect x="1212.47" y="284.5" width="267.968" height="131.484" rx="65.742" fill="#B6174B" stroke="black" stroke-width="5"/>
<path d="M1308.24 355.67H1315.14V359H1304.04V338.06H1308.24V355.67ZM1325.19 359.27C1323.59 359.27 1322.15 358.92 1320.87 358.22C1319.59 357.5 1318.58 356.49 1317.84 355.19C1317.12 353.89 1316.76 352.39 1316.76 350.69C1316.76 348.99 1317.13 347.49 1317.87 346.19C1318.63 344.89 1319.66 343.89 1320.96 343.19C1322.26 342.47 1323.71 342.11 1325.31 342.11C1326.91 342.11 1328.36 342.47 1329.66 343.19C1330.96 343.89 1331.98 344.89 1332.72 346.19C1333.48 347.49 1333.86 348.99 1333.86 350.69C1333.86 352.39 1333.47 353.89 1332.69 355.19C1331.93 356.49 1330.89 357.5 1329.57 358.22C1328.27 358.92 1326.81 359.27 1325.19 359.27ZM1325.19 355.61C1325.95 355.61 1326.66 355.43 1327.32 355.07C1328 354.69 1328.54 354.13 1328.94 353.39C1329.34 352.65 1329.54 351.75 1329.54 350.69C1329.54 349.11 1329.12 347.9 1328.28 347.06C1327.46 346.2 1326.45 345.77 1325.25 345.77C1324.05 345.77 1323.04 346.2 1322.22 347.06C1321.42 347.9 1321.02 349.11 1321.02 350.69C1321.02 352.27 1321.41 353.49 1322.19 354.35C1322.99 355.19 1323.99 355.61 1325.19 355.61ZM1343.45 342.11C1344.69 342.11 1345.78 342.36 1346.72 342.86C1347.66 343.34 1348.4 343.97 1348.94 344.75V342.38H1353.17V359.12C1353.17 360.66 1352.86 362.03 1352.24 363.23C1351.62 364.45 1350.69 365.41 1349.45 366.11C1348.21 366.83 1346.71 367.19 1344.95 367.19C1342.59 367.19 1340.65 366.64 1339.13 365.54C1337.63 364.44 1336.78 362.94 1336.58 361.04H1340.75C1340.97 361.8 1341.44 362.4 1342.16 362.84C1342.9 363.3 1343.79 363.53 1344.83 363.53C1346.05 363.53 1347.04 363.16 1347.8 362.42C1348.56 361.7 1348.94 360.6 1348.94 359.12V356.54C1348.4 357.32 1347.65 357.97 1346.69 358.49C1345.75 359.01 1344.67 359.27 1343.45 359.27C1342.05 359.27 1340.77 358.91 1339.61 358.19C1338.45 357.47 1337.53 356.46 1336.85 355.16C1336.19 353.84 1335.86 352.33 1335.86 350.63C1335.86 348.95 1336.19 347.46 1336.85 346.16C1337.53 344.86 1338.44 343.86 1339.58 343.16C1340.74 342.46 1342.03 342.11 1343.45 342.11ZM1348.94 350.69C1348.94 349.67 1348.74 348.8 1348.34 348.08C1347.94 347.34 1347.4 346.78 1346.72 346.4C1346.04 346 1345.31 345.8 1344.53 345.8C1343.75 345.8 1343.03 345.99 1342.37 346.37C1341.71 346.75 1341.17 347.31 1340.75 348.05C1340.35 348.77 1340.15 349.63 1340.15 350.63C1340.15 351.63 1340.35 352.51 1340.75 353.27C1341.17 354.01 1341.71 354.58 1342.37 354.98C1343.05 355.38 1343.77 355.58 1344.53 355.58C1345.31 355.58 1346.04 355.39 1346.72 355.01C1347.4 354.61 1347.94 354.05 1348.34 353.33C1348.74 352.59 1348.94 351.71 1348.94 350.69ZM1359.4 340.4C1358.66 340.4 1358.04 340.17 1357.54 339.71C1357.06 339.23 1356.82 338.64 1356.82 337.94C1356.82 337.24 1357.06 336.66 1357.54 336.2C1358.04 335.72 1358.66 335.48 1359.4 335.48C1360.14 335.48 1360.75 335.72 1361.23 336.2C1361.73 336.66 1361.98 337.24 1361.98 337.94C1361.98 338.64 1361.73 339.23 1361.23 339.71C1360.75 340.17 1360.14 340.4 1359.4 340.4ZM1361.47 342.38V359H1357.27V342.38H1361.47ZM1374.83 342.14C1376.81 342.14 1378.41 342.77 1379.63 344.03C1380.85 345.27 1381.46 347.01 1381.46 349.25V359H1377.26V349.82C1377.26 348.5 1376.93 347.49 1376.27 346.79C1375.61 346.07 1374.71 345.71 1373.57 345.71C1372.41 345.71 1371.49 346.07 1370.81 346.79C1370.15 347.49 1369.82 348.5 1369.82 349.82V359H1365.62V342.38H1369.82V344.45C1370.38 343.73 1371.09 343.17 1371.95 342.77C1372.83 342.35 1373.79 342.14 1374.83 342.14Z" fill="white"/>
<rect x="839.5" y="284.5" width="267.968" height="131.484" rx="65.742" fill="#B6174B" stroke="black" stroke-width="5"/>
<path d="M877.05 348.5C877.05 346.44 877.51 344.6 878.43 342.98C879.37 341.34 880.64 340.07 882.24 339.17C883.86 338.25 885.67 337.79 887.67 337.79C890.01 337.79 892.06 338.39 893.82 339.59C895.58 340.79 896.81 342.45 897.51 344.57H892.68C892.2 343.57 891.52 342.82 890.64 342.32C889.78 341.82 888.78 341.57 887.64 341.57C886.42 341.57 885.33 341.86 884.37 342.44C883.43 343 882.69 343.8 882.15 344.84C881.63 345.88 881.37 347.1 881.37 348.5C881.37 349.88 881.63 351.1 882.15 352.16C882.69 353.2 883.43 354.01 884.37 354.59C885.33 355.15 886.42 355.43 887.64 355.43C888.78 355.43 889.78 355.18 890.64 354.68C891.52 354.16 892.2 353.4 892.68 352.4H897.51C896.81 354.54 895.58 356.21 893.82 357.41C892.08 358.59 890.03 359.18 887.67 359.18C885.67 359.18 883.86 358.73 882.24 357.83C880.64 356.91 879.37 355.64 878.43 354.02C877.51 352.4 877.05 350.56 877.05 348.5ZM900.017 350.63C900.017 348.95 900.347 347.46 901.007 346.16C901.687 344.86 902.597 343.86 903.737 343.16C904.897 342.46 906.187 342.11 907.607 342.11C908.847 342.11 909.927 342.36 910.847 342.86C911.787 343.36 912.537 343.99 913.097 344.75V342.38H917.327V359H913.097V356.57C912.557 357.35 911.807 358 910.847 358.52C909.907 359.02 908.817 359.27 907.577 359.27C906.177 359.27 904.897 358.91 903.737 358.19C902.597 357.47 901.687 356.46 901.007 355.16C900.347 353.84 900.017 352.33 900.017 350.63ZM913.097 350.69C913.097 349.67 912.897 348.8 912.497 348.08C912.097 347.34 911.557 346.78 910.877 346.4C910.197 346 909.467 345.8 908.687 345.8C907.907 345.8 907.187 345.99 906.527 346.37C905.867 346.75 905.327 347.31 904.907 348.05C904.507 348.77 904.307 349.63 904.307 350.63C904.307 351.63 904.507 352.51 904.907 353.27C905.327 354.01 905.867 354.58 906.527 354.98C907.207 355.38 907.927 355.58 908.687 355.58C909.467 355.58 910.197 355.39 910.877 355.01C911.557 354.61 912.097 354.05 912.497 353.33C912.897 352.59 913.097 351.71 913.097 350.69ZM920.349 350.63C920.349 348.95 920.679 347.46 921.339 346.16C922.019 344.86 922.939 343.86 924.099 343.16C925.259 342.46 926.549 342.11 927.969 342.11C929.049 342.11 930.079 342.35 931.059 342.83C932.039 343.29 932.819 343.91 933.399 344.69V336.8H937.659V359H933.399V356.54C932.879 357.36 932.149 358.02 931.209 358.52C930.269 359.02 929.179 359.27 927.939 359.27C926.539 359.27 925.259 358.91 924.099 358.19C922.939 357.47 922.019 356.46 921.339 355.16C920.679 353.84 920.349 352.33 920.349 350.63ZM933.429 350.69C933.429 349.67 933.229 348.8 932.829 348.08C932.429 347.34 931.889 346.78 931.209 346.4C930.529 346 929.799 345.8 929.019 345.8C928.239 345.8 927.519 345.99 926.859 346.37C926.199 346.75 925.659 347.31 925.239 348.05C924.839 348.77 924.639 349.63 924.639 350.63C924.639 351.63 924.839 352.51 925.239 353.27C925.659 354.01 926.199 354.58 926.859 354.98C927.539 355.38 928.259 355.58 929.019 355.58C929.799 355.58 930.529 355.39 931.209 355.01C931.889 354.61 932.429 354.05 932.829 353.33C933.229 352.59 933.429 351.71 933.429 350.69ZM940.681 350.63C940.681 348.95 941.011 347.46 941.671 346.16C942.351 344.86 943.261 343.86 944.401 343.16C945.561 342.46 946.851 342.11 948.271 342.11C949.511 342.11 950.591 342.36 951.511 342.86C952.451 343.36 953.201 343.99 953.761 344.75V342.38H957.991V359H953.761V356.57C953.221 357.35 952.471 358 951.511 358.52C950.571 359.02 949.481 359.27 948.241 359.27C946.841 359.27 945.561 358.91 944.401 358.19C943.261 357.47 942.351 356.46 941.671 355.16C941.011 353.84 940.681 352.33 940.681 350.63ZM953.761 350.69C953.761 349.67 953.561 348.8 953.161 348.08C952.761 347.34 952.221 346.78 951.541 346.4C950.861 346 950.131 345.8 949.351 345.8C948.571 345.8 947.851 345.99 947.191 346.37C946.531 346.75 945.991 347.31 945.571 348.05C945.171 348.77 944.971 349.63 944.971 350.63C944.971 351.63 945.171 352.51 945.571 353.27C945.991 354.01 946.531 354.58 947.191 354.98C947.871 355.38 948.591 355.58 949.351 355.58C950.131 355.58 950.861 355.39 951.541 355.01C952.221 354.61 952.761 354.05 953.161 353.33C953.561 352.59 953.761 351.71 953.761 350.69ZM968.453 359.27C967.093 359.27 965.873 359.03 964.793 358.55C963.713 358.05 962.853 357.38 962.213 356.54C961.593 355.7 961.253 354.77 961.193 353.75H965.423C965.503 354.39 965.813 354.92 966.353 355.34C966.913 355.76 967.603 355.97 968.423 355.97C969.223 355.97 969.843 355.81 970.283 355.49C970.743 355.17 970.973 354.76 970.973 354.26C970.973 353.72 970.693 353.32 970.133 353.06C969.593 352.78 968.723 352.48 967.523 352.16C966.283 351.86 965.263 351.55 964.463 351.23C963.683 350.91 963.003 350.42 962.423 349.76C961.863 349.1 961.583 348.21 961.583 347.09C961.583 346.17 961.843 345.33 962.363 344.57C962.903 343.81 963.663 343.21 964.643 342.77C965.643 342.33 966.813 342.11 968.153 342.11C970.133 342.11 971.713 342.61 972.893 343.61C974.073 344.59 974.723 345.92 974.843 347.6H970.823C970.763 346.94 970.483 346.42 969.983 346.04C969.503 345.64 968.853 345.44 968.033 345.44C967.273 345.44 966.683 345.58 966.263 345.86C965.863 346.14 965.663 346.53 965.663 347.03C965.663 347.59 965.943 348.02 966.503 348.32C967.063 348.6 967.933 348.89 969.113 349.19C970.313 349.49 971.303 349.8 972.083 350.12C972.863 350.44 973.533 350.94 974.093 351.62C974.673 352.28 974.973 353.16 974.993 354.26C974.993 355.22 974.723 356.08 974.183 356.84C973.663 357.6 972.903 358.2 971.903 358.64C970.923 359.06 969.773 359.27 968.453 359.27ZM983.331 345.83V353.87C983.331 354.43 983.461 354.84 983.721 355.1C984.001 355.34 984.461 355.46 985.101 355.46H987.051V359H984.411C980.871 359 979.101 357.28 979.101 353.84V345.83H977.121V342.38H979.101V338.27H983.331V342.38H987.051V345.83H983.331ZM994.272 344.96C994.812 344.08 995.512 343.39 996.372 342.89C997.252 342.39 998.252 342.14 999.372 342.14V346.55H998.262C996.942 346.55 995.942 346.86 995.262 347.48C994.602 348.1 994.272 349.18 994.272 350.72V359H990.072V342.38H994.272V344.96ZM1017.65 350.33C1017.65 350.93 1017.61 351.47 1017.53 351.95H1005.38C1005.48 353.15 1005.9 354.09 1006.64 354.77C1007.38 355.45 1008.29 355.79 1009.37 355.79C1010.93 355.79 1012.04 355.12 1012.7 353.78H1017.23C1016.75 355.38 1015.83 356.7 1014.47 357.74C1013.11 358.76 1011.44 359.27 1009.46 359.27C1007.86 359.27 1006.42 358.92 1005.14 358.22C1003.88 357.5 1002.89 356.49 1002.17 355.19C1001.47 353.89 1001.12 352.39 1001.12 350.69C1001.12 348.97 1001.47 347.46 1002.17 346.16C1002.87 344.86 1003.85 343.86 1005.11 343.16C1006.37 342.46 1007.82 342.11 1009.46 342.11C1011.04 342.11 1012.45 342.45 1013.69 343.13C1014.95 343.81 1015.92 344.78 1016.6 346.04C1017.3 347.28 1017.65 348.71 1017.65 350.33ZM1013.3 349.13C1013.28 348.05 1012.89 347.19 1012.13 346.55C1011.37 345.89 1010.44 345.56 1009.34 345.56C1008.3 345.56 1007.42 345.88 1006.7 346.52C1006 347.14 1005.57 348.01 1005.41 349.13H1013.3ZM1033.5 346.52V350.06H1020.78V346.52H1033.5ZM1044.57 359.27C1043.21 359.27 1041.99 359.03 1040.91 358.55C1039.83 358.05 1038.97 357.38 1038.33 356.54C1037.71 355.7 1037.37 354.77 1037.31 353.75H1041.54C1041.62 354.39 1041.93 354.92 1042.47 355.34C1043.03 355.76 1043.72 355.97 1044.54 355.97C1045.34 355.97 1045.96 355.81 1046.4 355.49C1046.86 355.17 1047.09 354.76 1047.09 354.26C1047.09 353.72 1046.81 353.32 1046.25 353.06C1045.71 352.78 1044.84 352.48 1043.64 352.16C1042.4 351.86 1041.38 351.55 1040.58 351.23C1039.8 350.91 1039.12 350.42 1038.54 349.76C1037.98 349.1 1037.7 348.21 1037.7 347.09C1037.7 346.17 1037.96 345.33 1038.48 344.57C1039.02 343.81 1039.78 343.21 1040.76 342.77C1041.76 342.33 1042.93 342.11 1044.27 342.11C1046.25 342.11 1047.83 342.61 1049.01 343.61C1050.19 344.59 1050.84 345.92 1050.96 347.6H1046.94C1046.88 346.94 1046.6 346.42 1046.1 346.04C1045.62 345.64 1044.97 345.44 1044.15 345.44C1043.39 345.44 1042.8 345.58 1042.38 345.86C1041.98 346.14 1041.78 346.53 1041.78 347.03C1041.78 347.59 1042.06 348.02 1042.62 348.32C1043.18 348.6 1044.05 348.89 1045.23 349.19C1046.43 349.49 1047.42 349.8 1048.2 350.12C1048.98 350.44 1049.65 350.94 1050.21 351.62C1050.79 352.28 1051.09 353.16 1051.11 354.26C1051.11 355.22 1050.84 356.08 1050.3 356.84C1049.78 357.6 1049.02 358.2 1048.02 358.64C1047.04 359.06 1045.89 359.27 1044.57 359.27ZM1070 350.33C1070 350.93 1069.96 351.47 1069.88 351.95H1057.73C1057.83 353.15 1058.25 354.09 1058.99 354.77C1059.73 355.45 1060.64 355.79 1061.72 355.79C1063.28 355.79 1064.39 355.12 1065.05 353.78H1069.58C1069.1 355.38 1068.18 356.7 1066.82 357.74C1065.46 358.76 1063.79 359.27 1061.81 359.27C1060.21 359.27 1058.77 358.92 1057.49 358.22C1056.23 357.5 1055.24 356.49 1054.52 355.19C1053.82 353.89 1053.47 352.39 1053.47 350.69C1053.47 348.97 1053.82 347.46 1054.52 346.16C1055.22 344.86 1056.2 343.86 1057.46 343.16C1058.72 342.46 1060.17 342.11 1061.81 342.11C1063.39 342.11 1064.8 342.45 1066.04 343.13C1067.3 343.81 1068.27 344.78 1068.95 346.04C1069.65 347.28 1070 348.71 1070 350.33ZM1065.65 349.13C1065.63 348.05 1065.24 347.19 1064.48 346.55C1063.72 345.89 1062.79 345.56 1061.69 345.56C1060.65 345.56 1059.77 345.88 1059.05 346.52C1058.35 347.14 1057.92 348.01 1057.76 349.13H1065.65Z" fill="white"/>
<rect x="214.5" y="1329.5" width="595" height="695" rx="27.5" transform="rotate(-90 214.5 1329.5)" fill="#3A7D44" stroke="black" stroke-width="5"/>
<rect x="266.5" y="779.5" width="267.968" height="131.484" rx="65.742" fill="#3423A6" stroke="black" stroke-width="5"/>
<path d="M349.34 841.54C349.34 842.66 349.07 843.71 348.53 844.69C348.01 845.67 347.18 846.46 346.04 847.06C344.92 847.66 343.5 847.96 341.78 847.96H338.27V856H334.07V835.06H341.78C343.4 835.06 344.78 835.34 345.92 835.9C347.06 836.46 347.91 837.23 348.47 838.21C349.05 839.19 349.34 840.3 349.34 841.54ZM341.6 844.57C342.76 844.57 343.62 844.31 344.18 843.79C344.74 843.25 345.02 842.5 345.02 841.54C345.02 839.5 343.88 838.48 341.6 838.48H338.27V844.57H341.6ZM356.522 841.96C357.062 841.08 357.762 840.39 358.622 839.89C359.502 839.39 360.502 839.14 361.622 839.14V843.55H360.512C359.192 843.55 358.192 843.86 357.512 844.48C356.852 845.1 356.522 846.18 356.522 847.72V856H352.322V839.38H356.522V841.96ZM371.831 856.27C370.231 856.27 368.791 855.92 367.511 855.22C366.231 854.5 365.221 853.49 364.481 852.19C363.761 850.89 363.401 849.39 363.401 847.69C363.401 845.99 363.771 844.49 364.511 843.19C365.271 841.89 366.301 840.89 367.601 840.19C368.901 839.47 370.351 839.11 371.951 839.11C373.551 839.11 375.001 839.47 376.301 840.19C377.601 840.89 378.621 841.89 379.361 843.19C380.121 844.49 380.501 845.99 380.501 847.69C380.501 849.39 380.111 850.89 379.331 852.19C378.571 853.49 377.531 854.5 376.211 855.22C374.911 855.92 373.451 856.27 371.831 856.27ZM371.831 852.61C372.591 852.61 373.301 852.43 373.961 852.07C374.641 851.69 375.181 851.13 375.581 850.39C375.981 849.65 376.181 848.75 376.181 847.69C376.181 846.11 375.761 844.9 374.921 844.06C374.101 843.2 373.091 842.77 371.891 842.77C370.691 842.77 369.681 843.2 368.861 844.06C368.061 844.9 367.661 846.11 367.661 847.69C367.661 849.27 368.051 850.49 368.831 851.35C369.631 852.19 370.631 852.61 371.831 852.61ZM382.502 847.63C382.502 845.95 382.832 844.46 383.492 843.16C384.172 841.86 385.092 840.86 386.252 840.16C387.412 839.46 388.702 839.11 390.122 839.11C391.202 839.11 392.232 839.35 393.212 839.83C394.192 840.29 394.972 840.91 395.552 841.69V833.8H399.812V856H395.552V853.54C395.032 854.36 394.302 855.02 393.362 855.52C392.422 856.02 391.332 856.27 390.092 856.27C388.692 856.27 387.412 855.91 386.252 855.19C385.092 854.47 384.172 853.46 383.492 852.16C382.832 850.84 382.502 849.33 382.502 847.63ZM395.582 847.69C395.582 846.67 395.382 845.8 394.982 845.08C394.582 844.34 394.042 843.78 393.362 843.4C392.682 843 391.952 842.8 391.172 842.8C390.392 842.8 389.672 842.99 389.012 843.37C388.352 843.75 387.812 844.31 387.392 845.05C386.992 845.77 386.792 846.63 386.792 847.63C386.792 848.63 386.992 849.51 387.392 850.27C387.812 851.01 388.352 851.58 389.012 851.98C389.692 852.38 390.412 852.58 391.172 852.58C391.952 852.58 392.682 852.39 393.362 852.01C394.042 851.61 394.582 851.05 394.982 850.33C395.382 849.59 395.582 848.71 395.582 847.69ZM419.604 839.38V856H415.374V853.9C414.834 854.62 414.124 855.19 413.244 855.61C412.384 856.01 411.444 856.21 410.424 856.21C409.124 856.21 407.974 855.94 406.974 855.4C405.974 854.84 405.184 854.03 404.604 852.97C404.044 851.89 403.764 850.61 403.764 849.13V839.38H407.964V848.53C407.964 849.85 408.294 850.87 408.954 851.59C409.614 852.29 410.514 852.64 411.654 852.64C412.814 852.64 413.724 852.29 414.384 851.59C415.044 850.87 415.374 849.85 415.374 848.53V839.38H419.604ZM428.638 842.83V850.87C428.638 851.43 428.768 851.84 429.028 852.1C429.308 852.34 429.768 852.46 430.408 852.46H432.358V856H429.718C426.178 856 424.408 854.28 424.408 850.84V842.83H422.428V839.38H424.408V835.27H428.638V839.38H432.358V842.83H428.638ZM442.759 856.27C441.159 856.27 439.719 855.92 438.439 855.22C437.159 854.5 436.149 853.49 435.409 852.19C434.689 850.89 434.329 849.39 434.329 847.69C434.329 845.99 434.699 844.49 435.439 843.19C436.199 841.89 437.229 840.89 438.529 840.19C439.829 839.47 441.279 839.11 442.879 839.11C444.479 839.11 445.929 839.47 447.229 840.19C448.529 840.89 449.549 841.89 450.289 843.19C451.049 844.49 451.429 845.99 451.429 847.69C451.429 849.39 451.039 850.89 450.259 852.19C449.499 853.49 448.459 854.5 447.139 855.22C445.839 855.92 444.379 856.27 442.759 856.27ZM442.759 852.61C443.519 852.61 444.229 852.43 444.889 852.07C445.569 851.69 446.109 851.13 446.509 850.39C446.909 849.65 447.109 848.75 447.109 847.69C447.109 846.11 446.689 844.9 445.849 844.06C445.029 843.2 444.019 842.77 442.819 842.77C441.619 842.77 440.609 843.2 439.789 844.06C438.989 844.9 438.589 846.11 438.589 847.69C438.589 849.27 438.979 850.49 439.759 851.35C440.559 852.19 441.559 852.61 442.759 852.61ZM460.869 856.27C459.509 856.27 458.289 856.03 457.209 855.55C456.129 855.05 455.269 854.38 454.629 853.54C454.009 852.7 453.669 851.77 453.609 850.75H457.839C457.919 851.39 458.229 851.92 458.769 852.34C459.329 852.76 460.019 852.97 460.839 852.97C461.639 852.97 462.259 852.81 462.699 852.49C463.159 852.17 463.389 851.76 463.389 851.26C463.389 850.72 463.109 850.32 462.549 850.06C462.009 849.78 461.139 849.48 459.939 849.16C458.699 848.86 457.679 848.55 456.879 848.23C456.099 847.91 455.419 847.42 454.839 846.76C454.279 846.1 453.999 845.21 453.999 844.09C453.999 843.17 454.259 842.33 454.779 841.57C455.319 840.81 456.079 840.21 457.059 839.77C458.059 839.33 459.229 839.11 460.569 839.11C462.549 839.11 464.129 839.61 465.309 840.61C466.489 841.59 467.139 842.92 467.259 844.6H463.239C463.179 843.94 462.899 843.42 462.399 843.04C461.919 842.64 461.269 842.44 460.449 842.44C459.689 842.44 459.099 842.58 458.679 842.86C458.279 843.14 458.079 843.53 458.079 844.03C458.079 844.59 458.359 845.02 458.919 845.32C459.479 845.6 460.349 845.89 461.529 846.19C462.729 846.49 463.719 846.8 464.499 847.12C465.279 847.44 465.949 847.94 466.509 848.62C467.089 849.28 467.389 850.16 467.409 851.26C467.409 852.22 467.139 853.08 466.599 853.84C466.079 854.6 465.319 855.2 464.319 855.64C463.339 856.06 462.189 856.27 460.869 856.27Z" fill="white"/>
<rect x="589.468" y="779.5" width="267.968" height="131.484" rx="65.742" fill="#3423A6" stroke="black" stroke-width="5"/>
<path d="M652.27 835.06V856H648.07V835.06H652.27ZM665.63 839.14C667.61 839.14 669.21 839.77 670.43 841.03C671.65 842.27 672.26 844.01 672.26 846.25V856H668.06V846.82C668.06 845.5 667.73 844.49 667.07 843.79C666.41 843.07 665.51 842.71 664.37 842.71C663.21 842.71 662.29 843.07 661.61 843.79C660.95 844.49 660.62 845.5 660.62 846.82V856H656.42V839.38H660.62V841.45C661.18 840.73 661.89 840.17 662.75 839.77C663.63 839.35 664.59 839.14 665.63 839.14ZM675.174 847.63C675.174 845.95 675.504 844.46 676.164 843.16C676.844 841.86 677.764 840.86 678.924 840.16C680.084 839.46 681.374 839.11 682.794 839.11C683.874 839.11 684.904 839.35 685.884 839.83C686.864 840.29 687.644 840.91 688.224 841.69V833.8H692.484V856H688.224V853.54C687.704 854.36 686.974 855.02 686.034 855.52C685.094 856.02 684.004 856.27 682.764 856.27C681.364 856.27 680.084 855.91 678.924 855.19C677.764 854.47 676.844 853.46 676.164 852.16C675.504 850.84 675.174 849.33 675.174 847.63ZM688.254 847.69C688.254 846.67 688.054 845.8 687.654 845.08C687.254 844.34 686.714 843.78 686.034 843.4C685.354 843 684.624 842.8 683.844 842.8C683.064 842.8 682.344 842.99 681.684 843.37C681.024 843.75 680.484 844.31 680.064 845.05C679.664 845.77 679.464 846.63 679.464 847.63C679.464 848.63 679.664 849.51 680.064 850.27C680.484 851.01 681.024 851.58 681.684 851.98C682.364 852.38 683.084 852.58 683.844 852.58C684.624 852.58 685.354 852.39 686.034 852.01C686.714 851.61 687.254 851.05 687.654 850.33C688.054 849.59 688.254 848.71 688.254 847.69ZM712.276 839.38V856H708.046V853.9C707.506 854.62 706.796 855.19 705.916 855.61C705.056 856.01 704.116 856.21 703.096 856.21C701.796 856.21 700.646 855.94 699.646 855.4C698.646 854.84 697.856 854.03 697.276 852.97C696.716 851.89 696.436 850.61 696.436 849.13V839.38H700.636V848.53C700.636 849.85 700.966 850.87 701.626 851.59C702.286 852.29 703.186 852.64 704.326 852.64C705.486 852.64 706.396 852.29 707.056 851.59C707.716 850.87 708.046 849.85 708.046 848.53V839.38H712.276ZM707.716 835.06L700.816 838.21V835.21L707.716 831.64V835.06ZM722.78 856.27C721.42 856.27 720.2 856.03 719.12 855.55C718.04 855.05 717.18 854.38 716.54 853.54C715.92 852.7 715.58 851.77 715.52 850.75H719.75C719.83 851.39 720.14 851.92 720.68 852.34C721.24 852.76 721.93 852.97 722.75 852.97C723.55 852.97 724.17 852.81 724.61 852.49C725.07 852.17 725.3 851.76 725.3 851.26C725.3 850.72 725.02 850.32 724.46 850.06C723.92 849.78 723.05 849.48 721.85 849.16C720.61 848.86 719.59 848.55 718.79 848.23C718.01 847.91 717.33 847.42 716.75 846.76C716.19 846.1 715.91 845.21 715.91 844.09C715.91 843.17 716.17 842.33 716.69 841.57C717.23 840.81 717.99 840.21 718.97 839.77C719.97 839.33 721.14 839.11 722.48 839.11C724.46 839.11 726.04 839.61 727.22 840.61C728.4 841.59 729.05 842.92 729.17 844.6H725.15C725.09 843.94 724.81 843.42 724.31 843.04C723.83 842.64 723.18 842.44 722.36 842.44C721.6 842.44 721.01 842.58 720.59 842.86C720.19 843.14 719.99 843.53 719.99 844.03C719.99 844.59 720.27 845.02 720.83 845.32C721.39 845.6 722.26 845.89 723.44 846.19C724.64 846.49 725.63 846.8 726.41 847.12C727.19 847.44 727.86 847.94 728.42 848.62C729 849.28 729.3 850.16 729.32 851.26C729.32 852.22 729.05 853.08 728.51 853.84C727.99 854.6 727.23 855.2 726.23 855.64C725.25 856.06 724.1 856.27 722.78 856.27ZM737.657 842.83V850.87C737.657 851.43 737.787 851.84 738.047 852.1C738.327 852.34 738.787 852.46 739.427 852.46H741.377V856H738.737C735.197 856 733.427 854.28 733.427 850.84V842.83H731.447V839.38H733.427V835.27H737.657V839.38H741.377V842.83H737.657ZM748.598 841.96C749.138 841.08 749.838 840.39 750.698 839.89C751.578 839.39 752.578 839.14 753.698 839.14V843.55H752.588C751.268 843.55 750.268 843.86 749.588 844.48C748.928 845.1 748.598 846.18 748.598 847.72V856H744.398V839.38H748.598V841.96ZM758.657 837.4C757.917 837.4 757.297 837.17 756.797 836.71C756.317 836.23 756.077 835.64 756.077 834.94C756.077 834.24 756.317 833.66 756.797 833.2C757.297 832.72 757.917 832.48 758.657 832.48C759.397 832.48 760.007 832.72 760.487 833.2C760.987 833.66 761.237 834.24 761.237 834.94C761.237 835.64 760.987 836.23 760.487 836.71C760.007 837.17 759.397 837.4 758.657 837.4ZM760.727 839.38V856H756.527V839.38H760.727ZM763.797 847.63C763.797 845.95 764.127 844.46 764.787 843.16C765.467 841.86 766.377 840.86 767.517 840.16C768.677 839.46 769.967 839.11 771.387 839.11C772.627 839.11 773.707 839.36 774.627 839.86C775.567 840.36 776.317 840.99 776.877 841.75V839.38H781.107V856H776.877V853.57C776.337 854.35 775.587 855 774.627 855.52C773.687 856.02 772.597 856.27 771.357 856.27C769.957 856.27 768.677 855.91 767.517 855.19C766.377 854.47 765.467 853.46 764.787 852.16C764.127 850.84 763.797 849.33 763.797 847.63ZM776.877 847.69C776.877 846.67 776.677 845.8 776.277 845.08C775.877 844.34 775.337 843.78 774.657 843.4C773.977 843 773.247 842.8 772.467 842.8C771.687 842.8 770.967 842.99 770.307 843.37C769.647 843.75 769.107 844.31 768.687 845.05C768.287 845.77 768.087 846.63 768.087 847.63C768.087 848.63 768.287 849.51 768.687 850.27C769.107 851.01 769.647 851.58 770.307 851.98C770.987 852.38 771.707 852.58 772.467 852.58C773.247 852.58 773.977 852.39 774.657 852.01C775.337 851.61 775.877 851.05 776.277 850.33C776.677 849.59 776.877 848.71 776.877 847.69ZM791.569 856.27C790.209 856.27 788.989 856.03 787.909 855.55C786.829 855.05 785.969 854.38 785.329 853.54C784.709 852.7 784.369 851.77 784.309 850.75H788.539C788.619 851.39 788.929 851.92 789.469 852.34C790.029 852.76 790.719 852.97 791.539 852.97C792.339 852.97 792.959 852.81 793.399 852.49C793.859 852.17 794.089 851.76 794.089 851.26C794.089 850.72 793.809 850.32 793.249 850.06C792.709 849.78 791.839 849.48 790.639 849.16C789.399 848.86 788.379 848.55 787.579 848.23C786.799 847.91 786.119 847.42 785.539 846.76C784.979 846.1 784.699 845.21 784.699 844.09C784.699 843.17 784.959 842.33 785.479 841.57C786.019 840.81 786.779 840.21 787.759 839.77C788.759 839.33 789.929 839.11 791.269 839.11C793.249 839.11 794.829 839.61 796.009 840.61C797.189 841.59 797.839 842.92 797.959 844.6H793.939C793.879 843.94 793.599 843.42 793.099 843.04C792.619 842.64 791.969 842.44 791.149 842.44C790.389 842.44 789.799 842.58 789.379 842.86C788.979 843.14 788.779 843.53 788.779 844.03C788.779 844.59 789.059 845.02 789.619 845.32C790.179 845.6 791.049 845.89 792.229 846.19C793.429 846.49 794.419 846.8 795.199 847.12C795.979 847.44 796.649 847.94 797.209 848.62C797.789 849.28 798.089 850.16 798.109 851.26C798.109 852.22 797.839 853.08 797.299 853.84C796.779 854.6 796.019 855.2 795.019 855.64C794.039 856.06 792.889 856.27 791.569 856.27Z" fill="white"/>
<rect x="266.5" y="965.984" width="267.968" height="131.484" rx="65.742" fill="#3423A6" stroke="black" stroke-width="5"/>
<path d="M316.91 1038.01H308.57L307.19 1042H302.78L310.31 1021.03H315.2L322.73 1042H318.29L316.91 1038.01ZM315.77 1034.65L312.74 1025.89L309.71 1034.65H315.77ZM329.745 1027.78C330.285 1027.02 331.025 1026.39 331.965 1025.89C332.925 1025.37 334.015 1025.11 335.235 1025.11C336.655 1025.11 337.935 1025.46 339.075 1026.16C340.235 1026.86 341.145 1027.86 341.805 1029.16C342.485 1030.44 342.825 1031.93 342.825 1033.63C342.825 1035.33 342.485 1036.84 341.805 1038.16C341.145 1039.46 340.235 1040.47 339.075 1041.19C337.935 1041.91 336.655 1042.27 335.235 1042.27C334.015 1042.27 332.935 1042.02 331.995 1041.52C331.075 1041.02 330.325 1040.39 329.745 1039.63V1049.92H325.545V1025.38H329.745V1027.78ZM338.535 1033.63C338.535 1032.63 338.325 1031.77 337.905 1031.05C337.505 1030.31 336.965 1029.75 336.285 1029.37C335.625 1028.99 334.905 1028.8 334.125 1028.8C333.365 1028.8 332.645 1029 331.965 1029.4C331.305 1029.78 330.765 1030.34 330.345 1031.08C329.945 1031.82 329.745 1032.69 329.745 1033.69C329.745 1034.69 329.945 1035.56 330.345 1036.3C330.765 1037.04 331.305 1037.61 331.965 1038.01C332.645 1038.39 333.365 1038.58 334.125 1038.58C334.905 1038.58 335.625 1038.38 336.285 1037.98C336.965 1037.58 337.505 1037.01 337.905 1036.27C338.325 1035.53 338.535 1034.65 338.535 1033.63ZM350.077 1027.96C350.617 1027.08 351.317 1026.39 352.177 1025.89C353.057 1025.39 354.057 1025.14 355.177 1025.14V1029.55H354.067C352.747 1029.55 351.747 1029.86 351.067 1030.48C350.407 1031.1 350.077 1032.18 350.077 1033.72V1042H345.877V1025.38H350.077V1027.96ZM373.456 1033.33C373.456 1033.93 373.416 1034.47 373.336 1034.95H361.186C361.286 1036.15 361.706 1037.09 362.446 1037.77C363.186 1038.45 364.096 1038.79 365.176 1038.79C366.736 1038.79 367.846 1038.12 368.506 1036.78H373.036C372.556 1038.38 371.636 1039.7 370.276 1040.74C368.916 1041.76 367.246 1042.27 365.266 1042.27C363.666 1042.27 362.226 1041.92 360.946 1041.22C359.686 1040.5 358.696 1039.49 357.976 1038.19C357.276 1036.89 356.926 1035.39 356.926 1033.69C356.926 1031.97 357.276 1030.46 357.976 1029.16C358.676 1027.86 359.656 1026.86 360.916 1026.16C362.176 1025.46 363.626 1025.11 365.266 1025.11C366.846 1025.11 368.256 1025.45 369.496 1026.13C370.756 1026.81 371.726 1027.78 372.406 1029.04C373.106 1030.28 373.456 1031.71 373.456 1033.33ZM369.106 1032.13C369.086 1031.05 368.696 1030.19 367.936 1029.55C367.176 1028.89 366.246 1028.56 365.146 1028.56C364.106 1028.56 363.226 1028.88 362.506 1029.52C361.806 1030.14 361.376 1031.01 361.216 1032.13H369.106ZM385.731 1025.14C387.711 1025.14 389.311 1025.77 390.531 1027.03C391.751 1028.27 392.361 1030.01 392.361 1032.25V1042H388.161V1032.82C388.161 1031.5 387.831 1030.49 387.171 1029.79C386.511 1029.07 385.611 1028.71 384.471 1028.71C383.311 1028.71 382.391 1029.07 381.711 1029.79C381.051 1030.49 380.721 1031.5 380.721 1032.82V1042H376.521V1025.38H380.721V1027.45C381.281 1026.73 381.991 1026.17 382.851 1025.77C383.731 1025.35 384.691 1025.14 385.731 1025.14ZM395.275 1033.63C395.275 1031.95 395.605 1030.46 396.265 1029.16C396.945 1027.86 397.865 1026.86 399.025 1026.16C400.185 1025.46 401.475 1025.11 402.895 1025.11C403.975 1025.11 405.005 1025.35 405.985 1025.83C406.965 1026.29 407.745 1026.91 408.325 1027.69V1019.8H412.585V1042H408.325V1039.54C407.805 1040.36 407.075 1041.02 406.135 1041.52C405.195 1042.02 404.105 1042.27 402.865 1042.27C401.465 1042.27 400.185 1041.91 399.025 1041.19C397.865 1040.47 396.945 1039.46 396.265 1038.16C395.605 1036.84 395.275 1035.33 395.275 1033.63ZM408.355 1033.69C408.355 1032.67 408.155 1031.8 407.755 1031.08C407.355 1030.34 406.815 1029.78 406.135 1029.4C405.455 1029 404.725 1028.8 403.945 1028.8C403.165 1028.8 402.445 1028.99 401.785 1029.37C401.125 1029.75 400.585 1030.31 400.165 1031.05C399.765 1031.77 399.565 1032.63 399.565 1033.63C399.565 1034.63 399.765 1035.51 400.165 1036.27C400.585 1037.01 401.125 1037.58 401.785 1037.98C402.465 1038.38 403.185 1038.58 403.945 1038.58C404.725 1038.58 405.455 1038.39 406.135 1038.01C406.815 1037.61 407.355 1037.05 407.755 1036.33C408.155 1035.59 408.355 1034.71 408.355 1033.69ZM418.817 1023.4C418.077 1023.4 417.457 1023.17 416.957 1022.71C416.477 1022.23 416.237 1021.64 416.237 1020.94C416.237 1020.24 416.477 1019.66 416.957 1019.2C417.457 1018.72 418.077 1018.48 418.817 1018.48C419.557 1018.48 420.167 1018.72 420.647 1019.2C421.147 1019.66 421.397 1020.24 421.397 1020.94C421.397 1021.64 421.147 1022.23 420.647 1022.71C420.167 1023.17 419.557 1023.4 418.817 1023.4ZM420.887 1025.38V1042H416.687V1025.38H420.887ZM428.877 1038.55H436.287V1042H424.107V1038.61L431.367 1028.83H424.137V1025.38H436.197V1028.77L428.877 1038.55ZM438.459 1033.63C438.459 1031.95 438.789 1030.46 439.449 1029.16C440.129 1027.86 441.039 1026.86 442.179 1026.16C443.339 1025.46 444.629 1025.11 446.049 1025.11C447.289 1025.11 448.369 1025.36 449.289 1025.86C450.229 1026.36 450.979 1026.99 451.539 1027.75V1025.38H455.769V1042H451.539V1039.57C450.999 1040.35 450.249 1041 449.289 1041.52C448.349 1042.02 447.259 1042.27 446.019 1042.27C444.619 1042.27 443.339 1041.91 442.179 1041.19C441.039 1040.47 440.129 1039.46 439.449 1038.16C438.789 1036.84 438.459 1035.33 438.459 1033.63ZM451.539 1033.69C451.539 1032.67 451.339 1031.8 450.939 1031.08C450.539 1030.34 449.999 1029.78 449.319 1029.4C448.639 1029 447.909 1028.8 447.129 1028.8C446.349 1028.8 445.629 1028.99 444.969 1029.37C444.309 1029.75 443.769 1030.31 443.349 1031.05C442.949 1031.77 442.749 1032.63 442.749 1033.63C442.749 1034.63 442.949 1035.51 443.349 1036.27C443.769 1037.01 444.309 1037.58 444.969 1037.98C445.649 1038.38 446.369 1038.58 447.129 1038.58C447.909 1038.58 448.639 1038.39 449.319 1038.01C449.999 1037.61 450.539 1037.05 450.939 1036.33C451.339 1035.59 451.539 1034.71 451.539 1033.69ZM458.791 1033.63C458.791 1031.95 459.121 1030.46 459.781 1029.16C460.461 1027.86 461.381 1026.86 462.541 1026.16C463.701 1025.46 464.991 1025.11 466.411 1025.11C467.491 1025.11 468.521 1025.35 469.501 1025.83C470.481 1026.29 471.261 1026.91 471.841 1027.69V1019.8H476.101V1042H471.841V1039.54C471.321 1040.36 470.591 1041.02 469.651 1041.52C468.711 1042.02 467.621 1042.27 466.381 1042.27C464.981 1042.27 463.701 1041.91 462.541 1041.19C461.381 1040.47 460.461 1039.46 459.781 1038.16C459.121 1036.84 458.791 1035.33 458.791 1033.63ZM471.871 1033.69C471.871 1032.67 471.671 1031.8 471.271 1031.08C470.871 1030.34 470.331 1029.78 469.651 1029.4C468.971 1029 468.241 1028.8 467.461 1028.8C466.681 1028.8 465.961 1028.99 465.301 1029.37C464.641 1029.75 464.101 1030.31 463.681 1031.05C463.281 1031.77 463.081 1032.63 463.081 1033.63C463.081 1034.63 463.281 1035.51 463.681 1036.27C464.101 1037.01 464.641 1037.58 465.301 1037.98C465.981 1038.38 466.701 1038.58 467.461 1038.58C468.241 1038.58 468.971 1038.39 469.651 1038.01C470.331 1037.61 470.871 1037.05 471.271 1036.33C471.671 1035.59 471.871 1034.71 471.871 1033.69ZM487.583 1042.27C485.983 1042.27 484.543 1041.92 483.263 1041.22C481.983 1040.5 480.973 1039.49 480.233 1038.19C479.513 1036.89 479.153 1035.39 479.153 1033.69C479.153 1031.99 479.523 1030.49 480.263 1029.19C481.023 1027.89 482.053 1026.89 483.353 1026.19C484.653 1025.47 486.103 1025.11 487.703 1025.11C489.303 1025.11 490.753 1025.47 492.053 1026.19C493.353 1026.89 494.373 1027.89 495.113 1029.19C495.873 1030.49 496.253 1031.99 496.253 1033.69C496.253 1035.39 495.863 1036.89 495.083 1038.19C494.323 1039.49 493.283 1040.5 491.963 1041.22C490.663 1041.92 489.203 1042.27 487.583 1042.27ZM487.583 1038.61C488.343 1038.61 489.053 1038.43 489.713 1038.07C490.393 1037.69 490.933 1037.13 491.333 1036.39C491.733 1035.65 491.933 1034.75 491.933 1033.69C491.933 1032.11 491.513 1030.9 490.673 1030.06C489.853 1029.2 488.843 1028.77 487.643 1028.77C486.443 1028.77 485.433 1029.2 484.613 1030.06C483.813 1030.9 483.413 1032.11 483.413 1033.69C483.413 1035.27 483.803 1036.49 484.583 1037.35C485.383 1038.19 486.383 1038.61 487.583 1038.61Z" fill="white"/>
<rect x="266.5" y="1152.47" width="267.968" height="131.484" rx="65.742" fill="#3423A6" stroke="black" stroke-width="5"/>
<path d="M349.3 1229.21C347.84 1229.21 346.52 1228.96 345.34 1228.46C344.18 1227.96 343.26 1227.24 342.58 1226.3C341.9 1225.36 341.55 1224.25 341.53 1222.97H346.03C346.09 1223.83 346.39 1224.51 346.93 1225.01C347.49 1225.51 348.25 1225.76 349.21 1225.76C350.19 1225.76 350.96 1225.53 351.52 1225.07C352.08 1224.59 352.36 1223.97 352.36 1223.21C352.36 1222.59 352.17 1222.08 351.79 1221.68C351.41 1221.28 350.93 1220.97 350.35 1220.75C349.79 1220.51 349.01 1220.25 348.01 1219.97C346.65 1219.57 345.54 1219.18 344.68 1218.8C343.84 1218.4 343.11 1217.81 342.49 1217.03C341.89 1216.23 341.59 1215.17 341.59 1213.85C341.59 1212.61 341.9 1211.53 342.52 1210.61C343.14 1209.69 344.01 1208.99 345.13 1208.51C346.25 1208.01 347.53 1207.76 348.97 1207.76C351.13 1207.76 352.88 1208.29 354.22 1209.35C355.58 1210.39 356.33 1211.85 356.47 1213.73H351.85C351.81 1213.01 351.5 1212.42 350.92 1211.96C350.36 1211.48 349.61 1211.24 348.67 1211.24C347.85 1211.24 347.19 1211.45 346.69 1211.87C346.21 1212.29 345.97 1212.9 345.97 1213.7C345.97 1214.26 346.15 1214.73 346.51 1215.11C346.89 1215.47 347.35 1215.77 347.89 1216.01C348.45 1216.23 349.23 1216.49 350.23 1216.79C351.59 1217.19 352.7 1217.59 353.56 1217.99C354.42 1218.39 355.16 1218.99 355.78 1219.79C356.4 1220.59 356.71 1221.64 356.71 1222.94C356.71 1224.06 356.42 1225.1 355.84 1226.06C355.26 1227.02 354.41 1227.79 353.29 1228.37C352.17 1228.93 350.84 1229.21 349.3 1229.21ZM376.041 1212.38V1229H371.811V1226.9C371.271 1227.62 370.561 1228.19 369.681 1228.61C368.821 1229.01 367.881 1229.21 366.861 1229.21C365.561 1229.21 364.411 1228.94 363.411 1228.4C362.411 1227.84 361.621 1227.03 361.041 1225.97C360.481 1224.89 360.201 1223.61 360.201 1222.13V1212.38H364.401V1221.53C364.401 1222.85 364.731 1223.87 365.391 1224.59C366.051 1225.29 366.951 1225.64 368.091 1225.64C369.251 1225.64 370.161 1225.29 370.821 1224.59C371.481 1223.87 371.811 1222.85 371.811 1221.53V1212.38H376.041ZM384.385 1214.78C384.925 1214.02 385.665 1213.39 386.605 1212.89C387.565 1212.37 388.655 1212.11 389.875 1212.11C391.295 1212.11 392.575 1212.46 393.715 1213.16C394.875 1213.86 395.785 1214.86 396.445 1216.16C397.125 1217.44 397.465 1218.93 397.465 1220.63C397.465 1222.33 397.125 1223.84 396.445 1225.16C395.785 1226.46 394.875 1227.47 393.715 1228.19C392.575 1228.91 391.295 1229.27 389.875 1229.27C388.655 1229.27 387.575 1229.02 386.635 1228.52C385.715 1228.02 384.965 1227.39 384.385 1226.63V1236.92H380.185V1212.38H384.385V1214.78ZM393.175 1220.63C393.175 1219.63 392.965 1218.77 392.545 1218.05C392.145 1217.31 391.605 1216.75 390.925 1216.37C390.265 1215.99 389.545 1215.8 388.765 1215.8C388.005 1215.8 387.285 1216 386.605 1216.4C385.945 1216.78 385.405 1217.34 384.985 1218.08C384.585 1218.82 384.385 1219.69 384.385 1220.69C384.385 1221.69 384.585 1222.56 384.985 1223.3C385.405 1224.04 385.945 1224.61 386.605 1225.01C387.285 1225.39 388.005 1225.58 388.765 1225.58C389.545 1225.58 390.265 1225.38 390.925 1224.98C391.605 1224.58 392.145 1224.01 392.545 1223.27C392.965 1222.53 393.175 1221.65 393.175 1220.63ZM407.897 1229.27C406.297 1229.27 404.857 1228.92 403.577 1228.22C402.297 1227.5 401.287 1226.49 400.547 1225.19C399.827 1223.89 399.467 1222.39 399.467 1220.69C399.467 1218.99 399.837 1217.49 400.577 1216.19C401.337 1214.89 402.367 1213.89 403.667 1213.19C404.967 1212.47 406.417 1212.11 408.017 1212.11C409.617 1212.11 411.067 1212.47 412.367 1213.19C413.667 1213.89 414.687 1214.89 415.427 1216.19C416.187 1217.49 416.567 1218.99 416.567 1220.69C416.567 1222.39 416.177 1223.89 415.397 1225.19C414.637 1226.49 413.597 1227.5 412.277 1228.22C410.977 1228.92 409.517 1229.27 407.897 1229.27ZM407.897 1225.61C408.657 1225.61 409.367 1225.43 410.027 1225.07C410.707 1224.69 411.247 1224.13 411.647 1223.39C412.047 1222.65 412.247 1221.75 412.247 1220.69C412.247 1219.11 411.827 1217.9 410.987 1217.06C410.167 1216.2 409.157 1215.77 407.957 1215.77C406.757 1215.77 405.747 1216.2 404.927 1217.06C404.127 1217.9 403.727 1219.11 403.727 1220.69C403.727 1222.27 404.117 1223.49 404.897 1224.35C405.697 1225.19 406.697 1225.61 407.897 1225.61ZM423.848 1214.96C424.388 1214.08 425.088 1213.39 425.948 1212.89C426.828 1212.39 427.828 1212.14 428.948 1212.14V1216.55H427.838C426.518 1216.55 425.518 1216.86 424.838 1217.48C424.178 1218.1 423.848 1219.18 423.848 1220.72V1229H419.648V1212.38H423.848V1214.96ZM436.667 1215.83V1223.87C436.667 1224.43 436.797 1224.84 437.057 1225.1C437.337 1225.34 437.797 1225.46 438.437 1225.46H440.387V1229H437.747C434.207 1229 432.437 1227.28 432.437 1223.84V1215.83H430.457V1212.38H432.437V1208.27H436.667V1212.38H440.387V1215.83H436.667ZM458.858 1220.33C458.858 1220.93 458.818 1221.47 458.738 1221.95H446.588C446.688 1223.15 447.108 1224.09 447.848 1224.77C448.588 1225.45 449.498 1225.79 450.578 1225.79C452.138 1225.79 453.248 1225.12 453.908 1223.78H458.438C457.958 1225.38 457.038 1226.7 455.678 1227.74C454.318 1228.76 452.648 1229.27 450.668 1229.27C449.068 1229.27 447.628 1228.92 446.348 1228.22C445.088 1227.5 444.098 1226.49 443.378 1225.19C442.678 1223.89 442.328 1222.39 442.328 1220.69C442.328 1218.97 442.678 1217.46 443.378 1216.16C444.078 1214.86 445.058 1213.86 446.318 1213.16C447.578 1212.46 449.028 1212.11 450.668 1212.11C452.248 1212.11 453.658 1212.45 454.898 1213.13C456.158 1213.81 457.128 1214.78 457.808 1216.04C458.508 1217.28 458.858 1218.71 458.858 1220.33ZM454.508 1219.13C454.488 1218.05 454.098 1217.19 453.338 1216.55C452.578 1215.89 451.648 1215.56 450.548 1215.56C449.508 1215.56 448.628 1215.88 447.908 1216.52C447.208 1217.14 446.778 1218.01 446.618 1219.13H454.508Z" fill="white"/>
<rect x="589.5" y="965.984" width="267.968" height="131.484" rx="65.742" fill="#3423A6" stroke="black" stroke-width="5"/>
<path d="M661.27 1024.45V1029.7H668.32V1033.03H661.27V1038.58H669.22V1042H657.07V1021.03H669.22V1024.45H661.27ZM693.677 1025.14C695.717 1025.14 697.357 1025.77 698.597 1027.03C699.857 1028.27 700.487 1030.01 700.487 1032.25V1042H696.287V1032.82C696.287 1031.52 695.957 1030.53 695.297 1029.85C694.637 1029.15 693.737 1028.8 692.597 1028.8C691.457 1028.8 690.547 1029.15 689.867 1029.85C689.207 1030.53 688.877 1031.52 688.877 1032.82V1042H684.677V1032.82C684.677 1031.52 684.347 1030.53 683.687 1029.85C683.027 1029.15 682.127 1028.8 680.987 1028.8C679.827 1028.8 678.907 1029.15 678.227 1029.85C677.567 1030.53 677.237 1031.52 677.237 1032.82V1042H673.037V1025.38H677.237V1027.39C677.777 1026.69 678.467 1026.14 679.307 1025.74C680.167 1025.34 681.107 1025.14 682.127 1025.14C683.427 1025.14 684.587 1025.42 685.607 1025.98C686.627 1026.52 687.417 1027.3 687.977 1028.32C688.517 1027.36 689.297 1026.59 690.317 1026.01C691.357 1025.43 692.477 1025.14 693.677 1025.14ZM708.672 1027.78C709.212 1027.02 709.952 1026.39 710.892 1025.89C711.852 1025.37 712.942 1025.11 714.162 1025.11C715.582 1025.11 716.862 1025.46 718.002 1026.16C719.162 1026.86 720.072 1027.86 720.732 1029.16C721.412 1030.44 721.752 1031.93 721.752 1033.63C721.752 1035.33 721.412 1036.84 720.732 1038.16C720.072 1039.46 719.162 1040.47 718.002 1041.19C716.862 1041.91 715.582 1042.27 714.162 1042.27C712.942 1042.27 711.862 1042.02 710.922 1041.52C710.002 1041.02 709.252 1040.39 708.672 1039.63V1049.92H704.472V1025.38H708.672V1027.78ZM717.462 1033.63C717.462 1032.63 717.252 1031.77 716.832 1031.05C716.432 1030.31 715.892 1029.75 715.212 1029.37C714.552 1028.99 713.832 1028.8 713.052 1028.8C712.292 1028.8 711.572 1029 710.892 1029.4C710.232 1029.78 709.692 1030.34 709.272 1031.08C708.872 1031.82 708.672 1032.69 708.672 1033.69C708.672 1034.69 708.872 1035.56 709.272 1036.3C709.692 1037.04 710.232 1037.61 710.892 1038.01C711.572 1038.39 712.292 1038.58 713.052 1038.58C713.832 1038.58 714.552 1038.38 715.212 1037.98C715.892 1037.58 716.432 1037.01 716.832 1036.27C717.252 1035.53 717.462 1034.65 717.462 1033.63ZM729.004 1027.96C729.544 1027.08 730.244 1026.39 731.104 1025.89C731.984 1025.39 732.984 1025.14 734.104 1025.14V1029.55H732.994C731.674 1029.55 730.674 1029.86 729.994 1030.48C729.334 1031.1 729.004 1032.18 729.004 1033.72V1042H724.804V1025.38H729.004V1027.96ZM752.383 1033.33C752.383 1033.93 752.343 1034.47 752.263 1034.95H740.113C740.213 1036.15 740.633 1037.09 741.373 1037.77C742.113 1038.45 743.023 1038.79 744.103 1038.79C745.663 1038.79 746.773 1038.12 747.433 1036.78H751.963C751.483 1038.38 750.563 1039.7 749.203 1040.74C747.843 1041.76 746.173 1042.27 744.193 1042.27C742.593 1042.27 741.153 1041.92 739.873 1041.22C738.613 1040.5 737.623 1039.49 736.903 1038.19C736.203 1036.89 735.853 1035.39 735.853 1033.69C735.853 1031.97 736.203 1030.46 736.903 1029.16C737.603 1027.86 738.583 1026.86 739.843 1026.16C741.103 1025.46 742.553 1025.11 744.193 1025.11C745.773 1025.11 747.183 1025.45 748.423 1026.13C749.683 1026.81 750.653 1027.78 751.333 1029.04C752.033 1030.28 752.383 1031.71 752.383 1033.33ZM748.033 1032.13C748.013 1031.05 747.623 1030.19 746.863 1029.55C746.103 1028.89 745.173 1028.56 744.073 1028.56C743.033 1028.56 742.153 1028.88 741.433 1029.52C740.733 1030.14 740.303 1031.01 740.143 1032.13H748.033ZM761.809 1042.27C760.449 1042.27 759.229 1042.03 758.149 1041.55C757.069 1041.05 756.209 1040.38 755.569 1039.54C754.949 1038.7 754.609 1037.77 754.549 1036.75H758.779C758.859 1037.39 759.169 1037.92 759.709 1038.34C760.269 1038.76 760.959 1038.97 761.779 1038.97C762.579 1038.97 763.199 1038.81 763.639 1038.49C764.099 1038.17 764.329 1037.76 764.329 1037.26C764.329 1036.72 764.049 1036.32 763.489 1036.06C762.949 1035.78 762.079 1035.48 760.879 1035.16C759.639 1034.86 758.619 1034.55 757.819 1034.23C757.039 1033.91 756.359 1033.42 755.779 1032.76C755.219 1032.1 754.939 1031.21 754.939 1030.09C754.939 1029.17 755.199 1028.33 755.719 1027.57C756.259 1026.81 757.019 1026.21 757.999 1025.77C758.999 1025.33 760.169 1025.11 761.509 1025.11C763.489 1025.11 765.069 1025.61 766.249 1026.61C767.429 1027.59 768.079 1028.92 768.199 1030.6H764.179C764.119 1029.94 763.839 1029.42 763.339 1029.04C762.859 1028.64 762.209 1028.44 761.389 1028.44C760.629 1028.44 760.039 1028.58 759.619 1028.86C759.219 1029.14 759.019 1029.53 759.019 1030.03C759.019 1030.59 759.299 1031.02 759.859 1031.32C760.419 1031.6 761.289 1031.89 762.469 1032.19C763.669 1032.49 764.659 1032.8 765.439 1033.12C766.219 1033.44 766.889 1033.94 767.449 1034.62C768.029 1035.28 768.329 1036.16 768.349 1037.26C768.349 1038.22 768.079 1039.08 767.539 1039.84C767.019 1040.6 766.259 1041.2 765.259 1041.64C764.279 1042.06 763.129 1042.27 761.809 1042.27ZM770.717 1033.63C770.717 1031.95 771.047 1030.46 771.707 1029.16C772.387 1027.86 773.297 1026.86 774.437 1026.16C775.597 1025.46 776.887 1025.11 778.307 1025.11C779.547 1025.11 780.627 1025.36 781.547 1025.86C782.487 1026.36 783.237 1026.99 783.797 1027.75V1025.38H788.027V1042H783.797V1039.57C783.257 1040.35 782.507 1041 781.547 1041.52C780.607 1042.02 779.517 1042.27 778.277 1042.27C776.877 1042.27 775.597 1041.91 774.437 1041.19C773.297 1040.47 772.387 1039.46 771.707 1038.16C771.047 1036.84 770.717 1035.33 770.717 1033.63ZM783.797 1033.69C783.797 1032.67 783.597 1031.8 783.197 1031.08C782.797 1030.34 782.257 1029.78 781.577 1029.4C780.897 1029 780.167 1028.8 779.387 1028.8C778.607 1028.8 777.887 1028.99 777.227 1029.37C776.567 1029.75 776.027 1030.31 775.607 1031.05C775.207 1031.77 775.007 1032.63 775.007 1033.63C775.007 1034.63 775.207 1035.51 775.607 1036.27C776.027 1037.01 776.567 1037.58 777.227 1037.98C777.907 1038.38 778.627 1038.58 779.387 1038.58C780.167 1038.58 780.897 1038.39 781.577 1038.01C782.257 1037.61 782.797 1037.05 783.197 1036.33C783.597 1035.59 783.797 1034.71 783.797 1033.69Z" fill="white"/>
<rect x="589.5" y="1152.47" width="267.968" height="131.484" rx="65.742" fill="#B6174B" stroke="black" stroke-width="5"/>
<path d="M688.27 1225.67H695.17V1229H684.07V1208.06H688.27V1225.67ZM705.22 1229.27C703.62 1229.27 702.18 1228.92 700.9 1228.22C699.62 1227.5 698.61 1226.49 697.87 1225.19C697.15 1223.89 696.79 1222.39 696.79 1220.69C696.79 1218.99 697.16 1217.49 697.9 1216.19C698.66 1214.89 699.69 1213.89 700.99 1213.19C702.29 1212.47 703.74 1212.11 705.34 1212.11C706.94 1212.11 708.39 1212.47 709.69 1213.19C710.99 1213.89 712.01 1214.89 712.75 1216.19C713.51 1217.49 713.89 1218.99 713.89 1220.69C713.89 1222.39 713.5 1223.89 712.72 1225.19C711.96 1226.49 710.92 1227.5 709.6 1228.22C708.3 1228.92 706.84 1229.27 705.22 1229.27ZM705.22 1225.61C705.98 1225.61 706.69 1225.43 707.35 1225.07C708.03 1224.69 708.57 1224.13 708.97 1223.39C709.37 1222.65 709.57 1221.75 709.57 1220.69C709.57 1219.11 709.15 1217.9 708.31 1217.06C707.49 1216.2 706.48 1215.77 705.28 1215.77C704.08 1215.77 703.07 1216.2 702.25 1217.06C701.45 1217.9 701.05 1219.11 701.05 1220.69C701.05 1222.27 701.44 1223.49 702.22 1224.35C703.02 1225.19 704.02 1225.61 705.22 1225.61ZM723.48 1212.11C724.72 1212.11 725.81 1212.36 726.75 1212.86C727.69 1213.34 728.43 1213.97 728.97 1214.75V1212.38H733.2V1229.12C733.2 1230.66 732.89 1232.03 732.27 1233.23C731.65 1234.45 730.72 1235.41 729.48 1236.11C728.24 1236.83 726.74 1237.19 724.98 1237.19C722.62 1237.19 720.68 1236.64 719.16 1235.54C717.66 1234.44 716.81 1232.94 716.61 1231.04H720.78C721 1231.8 721.47 1232.4 722.19 1232.84C722.93 1233.3 723.82 1233.53 724.86 1233.53C726.08 1233.53 727.07 1233.16 727.83 1232.42C728.59 1231.7 728.97 1230.6 728.97 1229.12V1226.54C728.43 1227.32 727.68 1227.97 726.72 1228.49C725.78 1229.01 724.7 1229.27 723.48 1229.27C722.08 1229.27 720.8 1228.91 719.64 1228.19C718.48 1227.47 717.56 1226.46 716.88 1225.16C716.22 1223.84 715.89 1222.33 715.89 1220.63C715.89 1218.95 716.22 1217.46 716.88 1216.16C717.56 1214.86 718.47 1213.86 719.61 1213.16C720.77 1212.46 722.06 1212.11 723.48 1212.11ZM728.97 1220.69C728.97 1219.67 728.77 1218.8 728.37 1218.08C727.97 1217.34 727.43 1216.78 726.75 1216.4C726.07 1216 725.34 1215.8 724.56 1215.8C723.78 1215.8 723.06 1215.99 722.4 1216.37C721.74 1216.75 721.2 1217.31 720.78 1218.05C720.38 1218.77 720.18 1219.63 720.18 1220.63C720.18 1221.63 720.38 1222.51 720.78 1223.27C721.2 1224.01 721.74 1224.58 722.4 1224.98C723.08 1225.38 723.8 1225.58 724.56 1225.58C725.34 1225.58 726.07 1225.39 726.75 1225.01C727.43 1224.61 727.97 1224.05 728.37 1223.33C728.77 1222.59 728.97 1221.71 728.97 1220.69ZM739.432 1210.4C738.692 1210.4 738.072 1210.17 737.572 1209.71C737.092 1209.23 736.852 1208.64 736.852 1207.94C736.852 1207.24 737.092 1206.66 737.572 1206.2C738.072 1205.72 738.692 1205.48 739.432 1205.48C740.172 1205.48 740.782 1205.72 741.262 1206.2C741.762 1206.66 742.012 1207.24 742.012 1207.94C742.012 1208.64 741.762 1209.23 741.262 1209.71C740.782 1210.17 740.172 1210.4 739.432 1210.4ZM741.502 1212.38V1229H737.302V1212.38H741.502ZM754.862 1212.14C756.842 1212.14 758.442 1212.77 759.662 1214.03C760.882 1215.27 761.492 1217.01 761.492 1219.25V1229H757.292V1219.82C757.292 1218.5 756.962 1217.49 756.302 1216.79C755.642 1216.07 754.742 1215.71 753.602 1215.71C752.442 1215.71 751.522 1216.07 750.842 1216.79C750.182 1217.49 749.852 1218.5 749.852 1219.82V1229H745.652V1212.38H749.852V1214.45C750.412 1213.73 751.122 1213.17 751.982 1212.77C752.862 1212.35 753.822 1212.14 754.862 1212.14Z" fill="white"/>
<path d="M238.01 694.31C238.01 695.99 237.605 697.565 236.795 699.035C236.015 700.505 234.77 701.69 233.06 702.59C231.38 703.49 229.25 703.94 226.67 703.94H221.405V716H215.105V684.59H226.67C229.1 684.59 231.17 685.01 232.88 685.85C234.59 686.69 235.865 687.845 236.705 689.315C237.575 690.785 238.01 692.45 238.01 694.31ZM226.4 698.855C228.14 698.855 229.43 698.465 230.27 697.685C231.11 696.875 231.53 695.75 231.53 694.31C231.53 691.25 229.82 689.72 226.4 689.72H221.405V698.855H226.4ZM240.863 703.445C240.863 700.925 241.358 698.69 242.348 696.74C243.368 694.79 244.733 693.29 246.443 692.24C248.183 691.19 250.118 690.665 252.248 690.665C254.108 690.665 255.728 691.04 257.108 691.79C258.518 692.54 259.643 693.485 260.483 694.625V691.07H266.828V716H260.483V712.355C259.673 713.525 258.548 714.5 257.108 715.28C255.698 716.03 254.063 716.405 252.203 716.405C250.103 716.405 248.183 715.865 246.443 714.785C244.733 713.705 243.368 712.19 242.348 710.24C241.358 708.26 240.863 705.995 240.863 703.445ZM260.483 703.535C260.483 702.005 260.183 700.7 259.583 699.62C258.983 698.51 258.173 697.67 257.153 697.1C256.133 696.5 255.038 696.2 253.868 696.2C252.698 696.2 251.618 696.485 250.628 697.055C249.638 697.625 248.828 698.465 248.198 699.575C247.598 700.655 247.298 701.945 247.298 703.445C247.298 704.945 247.598 706.265 248.198 707.405C248.828 708.515 249.638 709.37 250.628 709.97C251.648 710.57 252.728 710.87 253.868 710.87C255.038 710.87 256.133 710.585 257.153 710.015C258.173 709.415 258.983 708.575 259.583 707.495C260.183 706.385 260.483 705.065 260.483 703.535ZM259.628 684.59L249.278 689.315V684.815L259.628 679.46V684.59ZM282.746 690.665C284.606 690.665 286.241 691.04 287.651 691.79C289.061 692.51 290.171 693.455 290.981 694.625V691.07H297.326V716.18C297.326 718.49 296.861 720.545 295.931 722.345C295.001 724.175 293.606 725.615 291.746 726.665C289.886 727.745 287.636 728.285 284.996 728.285C281.456 728.285 278.546 727.46 276.266 725.81C274.016 724.16 272.741 721.91 272.441 719.06H278.696C279.026 720.2 279.731 721.1 280.811 721.76C281.921 722.45 283.256 722.795 284.816 722.795C286.646 722.795 288.131 722.24 289.271 721.13C290.411 720.05 290.981 718.4 290.981 716.18V712.31C290.171 713.48 289.046 714.455 287.606 715.235C286.196 716.015 284.576 716.405 282.746 716.405C280.646 716.405 278.726 715.865 276.986 714.785C275.246 713.705 273.866 712.19 272.846 710.24C271.856 708.26 271.361 705.995 271.361 703.445C271.361 700.925 271.856 698.69 272.846 696.74C273.866 694.79 275.231 693.29 276.941 692.24C278.681 691.19 280.616 690.665 282.746 690.665ZM290.981 703.535C290.981 702.005 290.681 700.7 290.081 699.62C289.481 698.51 288.671 697.67 287.651 697.1C286.631 696.5 285.536 696.2 284.366 696.2C283.196 696.2 282.116 696.485 281.126 697.055C280.136 697.625 279.326 698.465 278.696 699.575C278.096 700.655 277.796 701.945 277.796 703.445C277.796 704.945 278.096 706.265 278.696 707.405C279.326 708.515 280.136 709.37 281.126 709.97C282.146 710.57 283.226 710.87 284.366 710.87C285.536 710.87 286.631 710.585 287.651 710.015C288.671 709.415 289.481 708.575 290.081 707.495C290.681 706.385 290.981 705.065 290.981 703.535ZM306.674 688.1C305.564 688.1 304.634 687.755 303.884 687.065C303.164 686.345 302.804 685.46 302.804 684.41C302.804 683.36 303.164 682.49 303.884 681.8C304.634 681.08 305.564 680.72 306.674 680.72C307.784 680.72 308.699 681.08 309.419 681.8C310.169 682.49 310.544 683.36 310.544 684.41C310.544 685.46 310.169 686.345 309.419 687.065C308.699 687.755 307.784 688.1 306.674 688.1ZM309.779 691.07V716H303.479V691.07H309.779ZM329.818 690.71C332.788 690.71 335.188 691.655 337.018 693.545C338.848 695.405 339.763 698.015 339.763 701.375V716H333.463V702.23C333.463 700.25 332.968 698.735 331.978 697.685C330.988 696.605 329.638 696.065 327.928 696.065C326.188 696.065 324.808 696.605 323.788 697.685C322.798 698.735 322.303 700.25 322.303 702.23V716H316.003V691.07H322.303V694.175C323.143 693.095 324.208 692.255 325.498 691.655C326.818 691.025 328.258 690.71 329.818 690.71ZM344.134 703.445C344.134 700.925 344.629 698.69 345.619 696.74C346.639 694.79 348.004 693.29 349.714 692.24C351.454 691.19 353.389 690.665 355.519 690.665C357.379 690.665 358.999 691.04 360.379 691.79C361.789 692.54 362.914 693.485 363.754 694.625V691.07H370.099V716H363.754V712.355C362.944 713.525 361.819 714.5 360.379 715.28C358.969 716.03 357.334 716.405 355.474 716.405C353.374 716.405 351.454 715.865 349.714 714.785C348.004 713.705 346.639 712.19 345.619 710.24C344.629 708.26 344.134 705.995 344.134 703.445ZM363.754 703.535C363.754 702.005 363.454 700.7 362.854 699.62C362.254 698.51 361.444 697.67 360.424 697.1C359.404 696.5 358.309 696.2 357.139 696.2C355.969 696.2 354.889 696.485 353.899 697.055C352.909 697.625 352.099 698.465 351.469 699.575C350.869 700.655 350.569 701.945 350.569 703.445C350.569 704.945 350.869 706.265 351.469 707.405C352.099 708.515 352.909 709.37 353.899 709.97C354.919 710.57 355.999 710.87 357.139 710.87C358.309 710.87 359.404 710.585 360.424 710.015C361.444 709.415 362.254 708.575 362.854 707.495C363.454 706.385 363.754 705.065 363.754 703.535Z" fill="black"/>
<rect x="1114.5" y="1131.5" width="395" height="395" rx="27.5" transform="rotate(-90 1114.5 1131.5)" fill="#3A7D44" stroke="black" stroke-width="5"/>
<rect x="1178.5" y="775.5" width="267.968" height="131.484" rx="65.742" fill="#3423A6" stroke="black" stroke-width="5"/>
<path d="M1213.79 852.21C1211.83 852.21 1210.03 851.75 1208.39 850.83C1206.75 849.91 1205.45 848.64 1204.49 847.02C1203.53 845.38 1203.05 843.53 1203.05 841.47C1203.05 839.43 1203.53 837.6 1204.49 835.98C1205.45 834.34 1206.75 833.06 1208.39 832.14C1210.03 831.22 1211.83 830.76 1213.79 830.76C1215.77 830.76 1217.57 831.22 1219.19 832.14C1220.83 833.06 1222.12 834.34 1223.06 835.98C1224.02 837.6 1224.5 839.43 1224.5 841.47C1224.5 843.53 1224.02 845.38 1223.06 847.02C1222.12 848.64 1220.83 849.91 1219.19 850.83C1217.55 851.75 1215.75 852.21 1213.79 852.21ZM1213.79 848.46C1215.05 848.46 1216.16 848.18 1217.12 847.62C1218.08 847.04 1218.83 846.22 1219.37 845.16C1219.91 844.1 1220.18 842.87 1220.18 841.47C1220.18 840.07 1219.91 838.85 1219.37 837.81C1218.83 836.75 1218.08 835.94 1217.12 835.38C1216.16 834.82 1215.05 834.54 1213.79 834.54C1212.53 834.54 1211.41 834.82 1210.43 835.38C1209.47 835.94 1208.72 836.75 1208.18 837.81C1207.64 838.85 1207.37 840.07 1207.37 841.47C1207.37 842.87 1207.64 844.1 1208.18 845.16C1208.72 846.22 1209.47 847.04 1210.43 847.62C1211.41 848.18 1212.53 848.46 1213.79 848.46ZM1231.82 837.96C1232.36 837.08 1233.06 836.39 1233.92 835.89C1234.8 835.39 1235.8 835.14 1236.92 835.14V839.55H1235.81C1234.49 839.55 1233.49 839.86 1232.81 840.48C1232.15 841.1 1231.82 842.18 1231.82 843.72V852H1227.62V835.38H1231.82V837.96ZM1246.26 835.11C1247.5 835.11 1248.59 835.36 1249.53 835.86C1250.47 836.34 1251.21 836.97 1251.75 837.75V835.38H1255.98V852.12C1255.98 853.66 1255.67 855.03 1255.05 856.23C1254.43 857.45 1253.5 858.41 1252.26 859.11C1251.02 859.83 1249.52 860.19 1247.76 860.19C1245.4 860.19 1243.46 859.64 1241.94 858.54C1240.44 857.44 1239.59 855.94 1239.39 854.04H1243.56C1243.78 854.8 1244.25 855.4 1244.97 855.84C1245.71 856.3 1246.6 856.53 1247.64 856.53C1248.86 856.53 1249.85 856.16 1250.61 855.42C1251.37 854.7 1251.75 853.6 1251.75 852.12V849.54C1251.21 850.32 1250.46 850.97 1249.5 851.49C1248.56 852.01 1247.48 852.27 1246.26 852.27C1244.86 852.27 1243.58 851.91 1242.42 851.19C1241.26 850.47 1240.34 849.46 1239.66 848.16C1239 846.84 1238.67 845.33 1238.67 843.63C1238.67 841.95 1239 840.46 1239.66 839.16C1240.34 837.86 1241.25 836.86 1242.39 836.16C1243.55 835.46 1244.84 835.11 1246.26 835.11ZM1251.75 843.69C1251.75 842.67 1251.55 841.8 1251.15 841.08C1250.75 840.34 1250.21 839.78 1249.53 839.4C1248.85 839 1248.12 838.8 1247.34 838.8C1246.56 838.8 1245.84 838.99 1245.18 839.37C1244.52 839.75 1243.98 840.31 1243.56 841.05C1243.16 841.77 1242.96 842.63 1242.96 843.63C1242.96 844.63 1243.16 845.51 1243.56 846.27C1243.98 847.01 1244.52 847.58 1245.18 847.98C1245.86 848.38 1246.58 848.58 1247.34 848.58C1248.12 848.58 1248.85 848.39 1249.53 848.01C1250.21 847.61 1250.75 847.05 1251.15 846.33C1251.55 845.59 1251.75 844.71 1251.75 843.69ZM1259.01 843.63C1259.01 841.95 1259.34 840.46 1260 839.16C1260.68 837.86 1261.59 836.86 1262.73 836.16C1263.89 835.46 1265.18 835.11 1266.6 835.11C1267.84 835.11 1268.92 835.36 1269.84 835.86C1270.78 836.36 1271.53 836.99 1272.09 837.75V835.38H1276.32V852H1272.09V849.57C1271.55 850.35 1270.8 851 1269.84 851.52C1268.9 852.02 1267.81 852.27 1266.57 852.27C1265.17 852.27 1263.89 851.91 1262.73 851.19C1261.59 850.47 1260.68 849.46 1260 848.16C1259.34 846.84 1259.01 845.33 1259.01 843.63ZM1272.09 843.69C1272.09 842.67 1271.89 841.8 1271.49 841.08C1271.09 840.34 1270.55 839.78 1269.87 839.4C1269.19 839 1268.46 838.8 1267.68 838.8C1266.9 838.8 1266.18 838.99 1265.52 839.37C1264.86 839.75 1264.32 840.31 1263.9 841.05C1263.5 841.77 1263.3 842.63 1263.3 843.63C1263.3 844.63 1263.5 845.51 1263.9 846.27C1264.32 847.01 1264.86 847.58 1265.52 847.98C1266.2 848.38 1266.92 848.58 1267.68 848.58C1268.46 848.58 1269.19 848.39 1269.87 848.01C1270.55 847.61 1271.09 847.05 1271.49 846.33C1271.89 845.59 1272.09 844.71 1272.09 843.69ZM1289.63 835.14C1291.61 835.14 1293.21 835.77 1294.43 837.03C1295.65 838.27 1296.26 840.01 1296.26 842.25V852H1292.06V842.82C1292.06 841.5 1291.73 840.49 1291.07 839.79C1290.41 839.07 1289.51 838.71 1288.37 838.71C1287.21 838.71 1286.29 839.07 1285.61 839.79C1284.95 840.49 1284.62 841.5 1284.62 842.82V852H1280.42V835.38H1284.62V837.45C1285.18 836.73 1285.89 836.17 1286.75 835.77C1287.63 835.35 1288.59 835.14 1289.63 835.14ZM1307.63 852.27C1306.03 852.27 1304.59 851.92 1303.31 851.22C1302.03 850.5 1301.02 849.49 1300.28 848.19C1299.56 846.89 1299.2 845.39 1299.2 843.69C1299.2 841.99 1299.57 840.49 1300.31 839.19C1301.07 837.89 1302.1 836.89 1303.4 836.19C1304.7 835.47 1306.15 835.11 1307.75 835.11C1309.35 835.11 1310.8 835.47 1312.1 836.19C1313.4 836.89 1314.42 837.89 1315.16 839.19C1315.92 840.49 1316.3 841.99 1316.3 843.69C1316.3 845.39 1315.91 846.89 1315.13 848.19C1314.37 849.49 1313.33 850.5 1312.01 851.22C1310.71 851.92 1309.25 852.27 1307.63 852.27ZM1307.63 848.61C1308.39 848.61 1309.1 848.43 1309.76 848.07C1310.44 847.69 1310.98 847.13 1311.38 846.39C1311.78 845.65 1311.98 844.75 1311.98 843.69C1311.98 842.11 1311.56 840.9 1310.72 840.06C1309.9 839.2 1308.89 838.77 1307.69 838.77C1306.49 838.77 1305.48 839.2 1304.66 840.06C1303.86 840.9 1303.46 842.11 1303.46 843.69C1303.46 845.27 1303.85 846.49 1304.63 847.35C1305.43 848.19 1306.43 848.61 1307.63 848.61ZM1325.89 835.11C1327.13 835.11 1328.22 835.36 1329.16 835.86C1330.1 836.34 1330.84 836.97 1331.38 837.75V835.38H1335.61V852.12C1335.61 853.66 1335.3 855.03 1334.68 856.23C1334.06 857.45 1333.13 858.41 1331.89 859.11C1330.65 859.83 1329.15 860.19 1327.39 860.19C1325.03 860.19 1323.09 859.64 1321.57 858.54C1320.07 857.44 1319.22 855.94 1319.02 854.04H1323.19C1323.41 854.8 1323.88 855.4 1324.6 855.84C1325.34 856.3 1326.23 856.53 1327.27 856.53C1328.49 856.53 1329.48 856.16 1330.24 855.42C1331 854.7 1331.38 853.6 1331.38 852.12V849.54C1330.84 850.32 1330.09 850.97 1329.13 851.49C1328.19 852.01 1327.11 852.27 1325.89 852.27C1324.49 852.27 1323.21 851.91 1322.05 851.19C1320.89 850.47 1319.97 849.46 1319.29 848.16C1318.63 846.84 1318.3 845.33 1318.3 843.63C1318.3 841.95 1318.63 840.46 1319.29 839.16C1319.97 837.86 1320.88 836.86 1322.02 836.16C1323.18 835.46 1324.47 835.11 1325.89 835.11ZM1331.38 843.69C1331.38 842.67 1331.18 841.8 1330.78 841.08C1330.38 840.34 1329.84 839.78 1329.16 839.4C1328.48 839 1327.75 838.8 1326.97 838.8C1326.19 838.8 1325.47 838.99 1324.81 839.37C1324.15 839.75 1323.61 840.31 1323.19 841.05C1322.79 841.77 1322.59 842.63 1322.59 843.63C1322.59 844.63 1322.79 845.51 1323.19 846.27C1323.61 847.01 1324.15 847.58 1324.81 847.98C1325.49 848.38 1326.21 848.58 1326.97 848.58C1327.75 848.58 1328.48 848.39 1329.16 848.01C1329.84 847.61 1330.38 847.05 1330.78 846.33C1331.18 845.59 1331.38 844.71 1331.38 843.69ZM1343.91 837.96C1344.45 837.08 1345.15 836.39 1346.01 835.89C1346.89 835.39 1347.89 835.14 1349.01 835.14V839.55H1347.9C1346.58 839.55 1345.58 839.86 1344.9 840.48C1344.24 841.1 1343.91 842.18 1343.91 843.72V852H1339.71V835.38H1343.91V837.96ZM1350.76 843.63C1350.76 841.95 1351.09 840.46 1351.75 839.16C1352.43 837.86 1353.34 836.86 1354.48 836.16C1355.64 835.46 1356.93 835.11 1358.35 835.11C1359.59 835.11 1360.67 835.36 1361.59 835.86C1362.53 836.36 1363.28 836.99 1363.84 837.75V835.38H1368.07V852H1363.84V849.57C1363.3 850.35 1362.55 851 1361.59 851.52C1360.65 852.02 1359.56 852.27 1358.32 852.27C1356.92 852.27 1355.64 851.91 1354.48 851.19C1353.34 850.47 1352.43 849.46 1351.75 848.16C1351.09 846.84 1350.76 845.33 1350.76 843.63ZM1363.84 843.69C1363.84 842.67 1363.64 841.8 1363.24 841.08C1362.84 840.34 1362.3 839.78 1361.62 839.4C1360.94 839 1360.21 838.8 1359.43 838.8C1358.65 838.8 1357.93 838.99 1357.27 839.37C1356.61 839.75 1356.07 840.31 1355.65 841.05C1355.25 841.77 1355.05 842.63 1355.05 843.63C1355.05 844.63 1355.25 845.51 1355.65 846.27C1356.07 847.01 1356.61 847.58 1357.27 847.98C1357.95 848.38 1358.67 848.58 1359.43 848.58C1360.21 848.58 1360.94 848.39 1361.62 848.01C1362.3 847.61 1362.84 847.05 1363.24 846.33C1363.64 845.59 1363.84 844.71 1363.84 843.69ZM1392.82 835.14C1394.86 835.14 1396.5 835.77 1397.74 837.03C1399 838.27 1399.63 840.01 1399.63 842.25V852H1395.43V842.82C1395.43 841.52 1395.1 840.53 1394.44 839.85C1393.78 839.15 1392.88 838.8 1391.74 838.8C1390.6 838.8 1389.69 839.15 1389.01 839.85C1388.35 840.53 1388.02 841.52 1388.02 842.82V852H1383.82V842.82C1383.82 841.52 1383.49 840.53 1382.83 839.85C1382.17 839.15 1381.27 838.8 1380.13 838.8C1378.97 838.8 1378.05 839.15 1377.37 839.85C1376.71 840.53 1376.38 841.52 1376.38 842.82V852H1372.18V835.38H1376.38V837.39C1376.92 836.69 1377.61 836.14 1378.45 835.74C1379.31 835.34 1380.25 835.14 1381.27 835.14C1382.57 835.14 1383.73 835.42 1384.75 835.98C1385.77 836.52 1386.56 837.3 1387.12 838.32C1387.66 837.36 1388.44 836.59 1389.46 836.01C1390.5 835.43 1391.62 835.14 1392.82 835.14ZM1402.53 843.63C1402.53 841.95 1402.86 840.46 1403.52 839.16C1404.2 837.86 1405.11 836.86 1406.25 836.16C1407.41 835.46 1408.7 835.11 1410.12 835.11C1411.36 835.11 1412.44 835.36 1413.36 835.86C1414.3 836.36 1415.05 836.99 1415.61 837.75V835.38H1419.84V852H1415.61V849.57C1415.07 850.35 1414.32 851 1413.36 851.52C1412.42 852.02 1411.33 852.27 1410.09 852.27C1408.69 852.27 1407.41 851.91 1406.25 851.19C1405.11 850.47 1404.2 849.46 1403.52 848.16C1402.86 846.84 1402.53 845.33 1402.53 843.63ZM1415.61 843.69C1415.61 842.67 1415.41 841.8 1415.01 841.08C1414.61 840.34 1414.07 839.78 1413.39 839.4C1412.71 839 1411.98 838.8 1411.2 838.8C1410.42 838.8 1409.7 838.99 1409.04 839.37C1408.38 839.75 1407.84 840.31 1407.42 841.05C1407.02 841.77 1406.82 842.63 1406.82 843.63C1406.82 844.63 1407.02 845.51 1407.42 846.27C1407.84 847.01 1408.38 847.58 1409.04 847.98C1409.72 848.38 1410.44 848.58 1411.2 848.58C1411.98 848.58 1412.71 848.39 1413.39 848.01C1414.07 847.61 1414.61 847.05 1415.01 846.33C1415.41 845.59 1415.61 844.71 1415.61 843.69Z" fill="#E2E2E2"/>
<rect x="1178.5" y="961.984" width="267.968" height="131.484" rx="65.742" fill="#3423A6" stroke="black" stroke-width="5"/>
<path d="M1266.27 1020.45V1025.7H1273.32V1029.03H1266.27V1034.58H1274.22V1038H1262.07V1017.03H1274.22V1020.45H1266.27ZM1276.96 1029.66C1276.96 1028 1277.3 1026.53 1277.98 1025.25C1278.68 1023.95 1279.62 1022.94 1280.8 1022.22C1281.98 1021.5 1283.28 1021.14 1284.7 1021.14C1285.88 1021.14 1286.92 1021.37 1287.82 1021.83C1288.74 1022.27 1289.48 1022.84 1290.04 1023.54V1021.38H1294.27V1045.92H1290.04V1035.72C1289.48 1036.44 1288.73 1037.04 1287.79 1037.52C1286.85 1038 1285.79 1038.24 1284.61 1038.24C1283.21 1038.24 1281.92 1037.88 1280.74 1037.16C1279.58 1036.42 1278.66 1035.4 1277.98 1034.1C1277.3 1032.8 1276.96 1031.32 1276.96 1029.66ZM1290.04 1029.69C1290.04 1028.67 1289.83 1027.79 1289.41 1027.05C1288.99 1026.31 1288.44 1025.75 1287.76 1025.37C1287.1 1024.99 1286.39 1024.8 1285.63 1024.8C1284.89 1024.8 1284.18 1024.99 1283.5 1025.37C1282.84 1025.75 1282.3 1026.31 1281.88 1027.05C1281.46 1027.77 1281.25 1028.64 1281.25 1029.66C1281.25 1030.68 1281.46 1031.57 1281.88 1032.33C1282.3 1033.07 1282.84 1033.63 1283.5 1034.01C1284.18 1034.39 1284.89 1034.58 1285.63 1034.58C1286.39 1034.58 1287.1 1034.39 1287.76 1034.01C1288.44 1033.63 1288.99 1033.07 1289.41 1032.33C1289.83 1031.59 1290.04 1030.71 1290.04 1029.69ZM1314.06 1021.38V1038H1309.83V1035.9C1309.29 1036.62 1308.58 1037.19 1307.7 1037.61C1306.84 1038.01 1305.9 1038.21 1304.88 1038.21C1303.58 1038.21 1302.43 1037.94 1301.43 1037.4C1300.43 1036.84 1299.64 1036.03 1299.06 1034.97C1298.5 1033.89 1298.22 1032.61 1298.22 1031.13V1021.38H1302.42V1030.53C1302.42 1031.85 1302.75 1032.87 1303.41 1033.59C1304.07 1034.29 1304.97 1034.64 1306.11 1034.64C1307.27 1034.64 1308.18 1034.29 1308.84 1033.59C1309.5 1032.87 1309.83 1031.85 1309.83 1030.53V1021.38H1314.06ZM1320.33 1019.4C1319.59 1019.4 1318.97 1019.17 1318.47 1018.71C1317.99 1018.23 1317.75 1017.64 1317.75 1016.94C1317.75 1016.24 1317.99 1015.66 1318.47 1015.2C1318.97 1014.72 1319.59 1014.48 1320.33 1014.48C1321.07 1014.48 1321.68 1014.72 1322.16 1015.2C1322.66 1015.66 1322.91 1016.24 1322.91 1016.94C1322.91 1017.64 1322.66 1018.23 1322.16 1018.71C1321.68 1019.17 1321.07 1019.4 1320.33 1019.4ZM1322.4 1021.38V1038H1318.2V1021.38H1322.4ZM1330.75 1023.78C1331.29 1023.02 1332.03 1022.39 1332.97 1021.89C1333.93 1021.37 1335.02 1021.11 1336.24 1021.11C1337.66 1021.11 1338.94 1021.46 1340.08 1022.16C1341.24 1022.86 1342.15 1023.86 1342.81 1025.16C1343.49 1026.44 1343.83 1027.93 1343.83 1029.63C1343.83 1031.33 1343.49 1032.84 1342.81 1034.16C1342.15 1035.46 1341.24 1036.47 1340.08 1037.19C1338.94 1037.91 1337.66 1038.27 1336.24 1038.27C1335.02 1038.27 1333.94 1038.02 1333 1037.52C1332.08 1037.02 1331.33 1036.39 1330.75 1035.63V1045.92H1326.55V1021.38H1330.75V1023.78ZM1339.54 1029.63C1339.54 1028.63 1339.33 1027.77 1338.91 1027.05C1338.51 1026.31 1337.97 1025.75 1337.29 1025.37C1336.63 1024.99 1335.91 1024.8 1335.13 1024.8C1334.37 1024.8 1333.65 1025 1332.97 1025.4C1332.31 1025.78 1331.77 1026.34 1331.35 1027.08C1330.95 1027.82 1330.75 1028.69 1330.75 1029.69C1330.75 1030.69 1330.95 1031.56 1331.35 1032.3C1331.77 1033.04 1332.31 1033.61 1332.97 1034.01C1333.65 1034.39 1334.37 1034.58 1335.13 1034.58C1335.91 1034.58 1336.63 1034.38 1337.29 1033.98C1337.97 1033.58 1338.51 1033.01 1338.91 1032.27C1339.33 1031.53 1339.54 1030.65 1339.54 1029.63ZM1362.33 1029.33C1362.33 1029.93 1362.29 1030.47 1362.21 1030.95H1350.06C1350.16 1032.15 1350.58 1033.09 1351.32 1033.77C1352.06 1034.45 1352.97 1034.79 1354.05 1034.79C1355.61 1034.79 1356.72 1034.12 1357.38 1032.78H1361.91C1361.43 1034.38 1360.51 1035.7 1359.15 1036.74C1357.79 1037.76 1356.12 1038.27 1354.14 1038.27C1352.54 1038.27 1351.1 1037.92 1349.82 1037.22C1348.56 1036.5 1347.57 1035.49 1346.85 1034.19C1346.15 1032.89 1345.8 1031.39 1345.8 1029.69C1345.8 1027.97 1346.15 1026.46 1346.85 1025.16C1347.55 1023.86 1348.53 1022.86 1349.79 1022.16C1351.05 1021.46 1352.5 1021.11 1354.14 1021.11C1355.72 1021.11 1357.13 1021.45 1358.37 1022.13C1359.63 1022.81 1360.6 1023.78 1361.28 1025.04C1361.98 1026.28 1362.33 1027.71 1362.33 1029.33ZM1357.98 1028.13C1357.96 1027.05 1357.57 1026.19 1356.81 1025.55C1356.05 1024.89 1355.12 1024.56 1354.02 1024.56C1352.98 1024.56 1352.1 1024.88 1351.38 1025.52C1350.68 1026.14 1350.25 1027.01 1350.09 1028.13H1357.98Z" fill="white"/>
<path d="M1138.01 694.31C1138.01 695.99 1137.61 697.565 1136.79 699.035C1136.02 700.505 1134.77 701.69 1133.06 702.59C1131.38 703.49 1129.25 703.94 1126.67 703.94H1121.41V716H1115.11V684.59H1126.67C1129.1 684.59 1131.17 685.01 1132.88 685.85C1134.59 686.69 1135.87 687.845 1136.71 689.315C1137.58 690.785 1138.01 692.45 1138.01 694.31ZM1126.4 698.855C1128.14 698.855 1129.43 698.465 1130.27 697.685C1131.11 696.875 1131.53 695.75 1131.53 694.31C1131.53 691.25 1129.82 689.72 1126.4 689.72H1121.41V698.855H1126.4ZM1140.86 703.445C1140.86 700.925 1141.36 698.69 1142.35 696.74C1143.37 694.79 1144.73 693.29 1146.44 692.24C1148.18 691.19 1150.12 690.665 1152.25 690.665C1154.11 690.665 1155.73 691.04 1157.11 691.79C1158.52 692.54 1159.64 693.485 1160.48 694.625V691.07H1166.83V716H1160.48V712.355C1159.67 713.525 1158.55 714.5 1157.11 715.28C1155.7 716.03 1154.06 716.405 1152.2 716.405C1150.1 716.405 1148.18 715.865 1146.44 714.785C1144.73 713.705 1143.37 712.19 1142.35 710.24C1141.36 708.26 1140.86 705.995 1140.86 703.445ZM1160.48 703.535C1160.48 702.005 1160.18 700.7 1159.58 699.62C1158.98 698.51 1158.17 697.67 1157.15 697.1C1156.13 696.5 1155.04 696.2 1153.87 696.2C1152.7 696.2 1151.62 696.485 1150.63 697.055C1149.64 697.625 1148.83 698.465 1148.2 699.575C1147.6 700.655 1147.3 701.945 1147.3 703.445C1147.3 704.945 1147.6 706.265 1148.2 707.405C1148.83 708.515 1149.64 709.37 1150.63 709.97C1151.65 710.57 1152.73 710.87 1153.87 710.87C1155.04 710.87 1156.13 710.585 1157.15 710.015C1158.17 709.415 1158.98 708.575 1159.58 707.495C1160.18 706.385 1160.48 705.065 1160.48 703.535ZM1159.63 684.59L1149.28 689.315V684.815L1159.63 679.46V684.59ZM1182.75 690.665C1184.61 690.665 1186.24 691.04 1187.65 691.79C1189.06 692.51 1190.17 693.455 1190.98 694.625V691.07H1197.33V716.18C1197.33 718.49 1196.86 720.545 1195.93 722.345C1195 724.175 1193.61 725.615 1191.75 726.665C1189.89 727.745 1187.64 728.285 1185 728.285C1181.46 728.285 1178.55 727.46 1176.27 725.81C1174.02 724.16 1172.74 721.91 1172.44 719.06H1178.7C1179.03 720.2 1179.73 721.1 1180.81 721.76C1181.92 722.45 1183.26 722.795 1184.82 722.795C1186.65 722.795 1188.13 722.24 1189.27 721.13C1190.41 720.05 1190.98 718.4 1190.98 716.18V712.31C1190.17 713.48 1189.05 714.455 1187.61 715.235C1186.2 716.015 1184.58 716.405 1182.75 716.405C1180.65 716.405 1178.73 715.865 1176.99 714.785C1175.25 713.705 1173.87 712.19 1172.85 710.24C1171.86 708.26 1171.36 705.995 1171.36 703.445C1171.36 700.925 1171.86 698.69 1172.85 696.74C1173.87 694.79 1175.23 693.29 1176.94 692.24C1178.68 691.19 1180.62 690.665 1182.75 690.665ZM1190.98 703.535C1190.98 702.005 1190.68 700.7 1190.08 699.62C1189.48 698.51 1188.67 697.67 1187.65 697.1C1186.63 696.5 1185.54 696.2 1184.37 696.2C1183.2 696.2 1182.12 696.485 1181.13 697.055C1180.14 697.625 1179.33 698.465 1178.7 699.575C1178.1 700.655 1177.8 701.945 1177.8 703.445C1177.8 704.945 1178.1 706.265 1178.7 707.405C1179.33 708.515 1180.14 709.37 1181.13 709.97C1182.15 710.57 1183.23 710.87 1184.37 710.87C1185.54 710.87 1186.63 710.585 1187.65 710.015C1188.67 709.415 1189.48 708.575 1190.08 707.495C1190.68 706.385 1190.98 705.065 1190.98 703.535ZM1206.67 688.1C1205.56 688.1 1204.63 687.755 1203.88 687.065C1203.16 686.345 1202.8 685.46 1202.8 684.41C1202.8 683.36 1203.16 682.49 1203.88 681.8C1204.63 681.08 1205.56 680.72 1206.67 680.72C1207.78 680.72 1208.7 681.08 1209.42 681.8C1210.17 682.49 1210.54 683.36 1210.54 684.41C1210.54 685.46 1210.17 686.345 1209.42 687.065C1208.7 687.755 1207.78 688.1 1206.67 688.1ZM1209.78 691.07V716H1203.48V691.07H1209.78ZM1229.82 690.71C1232.79 690.71 1235.19 691.655 1237.02 693.545C1238.85 695.405 1239.76 698.015 1239.76 701.375V716H1233.46V702.23C1233.46 700.25 1232.97 698.735 1231.98 697.685C1230.99 696.605 1229.64 696.065 1227.93 696.065C1226.19 696.065 1224.81 696.605 1223.79 697.685C1222.8 698.735 1222.3 700.25 1222.3 702.23V716H1216V691.07H1222.3V694.175C1223.14 693.095 1224.21 692.255 1225.5 691.655C1226.82 691.025 1228.26 690.71 1229.82 690.71ZM1244.13 703.445C1244.13 700.925 1244.63 698.69 1245.62 696.74C1246.64 694.79 1248 693.29 1249.71 692.24C1251.45 691.19 1253.39 690.665 1255.52 690.665C1257.38 690.665 1259 691.04 1260.38 691.79C1261.79 692.54 1262.91 693.485 1263.75 694.625V691.07H1270.1V716H1263.75V712.355C1262.94 713.525 1261.82 714.5 1260.38 715.28C1258.97 716.03 1257.33 716.405 1255.47 716.405C1253.37 716.405 1251.45 715.865 1249.71 714.785C1248 713.705 1246.64 712.19 1245.62 710.24C1244.63 708.26 1244.13 705.995 1244.13 703.445ZM1263.75 703.535C1263.75 702.005 1263.45 700.7 1262.85 699.62C1262.25 698.51 1261.44 697.67 1260.42 697.1C1259.4 696.5 1258.31 696.2 1257.14 696.2C1255.97 696.2 1254.89 696.485 1253.9 697.055C1252.91 697.625 1252.1 698.465 1251.47 699.575C1250.87 700.655 1250.57 701.945 1250.57 703.445C1250.57 704.945 1250.87 706.265 1251.47 707.405C1252.1 708.515 1252.91 709.37 1253.9 709.97C1254.92 710.57 1256 710.87 1257.14 710.87C1258.31 710.87 1259.4 710.585 1260.42 710.015C1261.44 709.415 1262.25 708.575 1262.85 707.495C1263.45 706.385 1263.75 705.065 1263.75 703.535Z" fill="black"/>
<rect x="189.5" y="252.5" width="345" height="195" rx="97.5" fill="#2364AA" stroke="black" stroke-width="5"/>
<path d="M247.12 344.72C247.12 346.213 246.76 347.613 246.04 348.92C245.347 350.227 244.24 351.28 242.72 352.08C241.227 352.88 239.333 353.28 237.04 353.28H232.36V364H226.76V336.08H237.04C239.2 336.08 241.04 336.453 242.56 337.2C244.08 337.947 245.213 338.973 245.96 340.28C246.733 341.587 247.12 343.067 247.12 344.72ZM236.8 348.76C238.347 348.76 239.493 348.413 240.24 347.72C240.987 347 241.36 346 241.36 344.72C241.36 342 239.84 340.64 236.8 340.64H232.36V348.76H236.8ZM249.656 352.84C249.656 350.6 250.096 348.613 250.976 346.88C251.883 345.147 253.096 343.813 254.616 342.88C256.163 341.947 257.883 341.48 259.776 341.48C261.429 341.48 262.869 341.813 264.096 342.48C265.349 343.147 266.349 343.987 267.096 345V341.84H272.736V364H267.096V360.76C266.376 361.8 265.376 362.667 264.096 363.36C262.843 364.027 261.389 364.36 259.736 364.36C257.869 364.36 256.163 363.88 254.616 362.92C253.096 361.96 251.883 360.613 250.976 358.88C250.096 357.12 249.656 355.107 249.656 352.84ZM267.096 352.92C267.096 351.56 266.829 350.4 266.296 349.44C265.763 348.453 265.043 347.707 264.136 347.2C263.229 346.667 262.256 346.4 261.216 346.4C260.176 346.4 259.216 346.653 258.336 347.16C257.456 347.667 256.736 348.413 256.176 349.4C255.643 350.36 255.376 351.507 255.376 352.84C255.376 354.173 255.643 355.347 256.176 356.36C256.736 357.347 257.456 358.107 258.336 358.64C259.243 359.173 260.203 359.44 261.216 359.44C262.256 359.44 263.229 359.187 264.136 358.68C265.043 358.147 265.763 357.4 266.296 356.44C266.829 355.453 267.096 354.28 267.096 352.92ZM286.885 341.48C288.539 341.48 289.992 341.813 291.245 342.48C292.499 343.12 293.485 343.96 294.205 345V341.84H299.845V364.16C299.845 366.213 299.432 368.04 298.605 369.64C297.779 371.267 296.539 372.547 294.885 373.48C293.232 374.44 291.232 374.92 288.885 374.92C285.739 374.92 283.152 374.187 281.125 372.72C279.125 371.253 277.992 369.253 277.725 366.72H283.285C283.579 367.733 284.205 368.533 285.165 369.12C286.152 369.733 287.339 370.04 288.725 370.04C290.352 370.04 291.672 369.547 292.685 368.56C293.699 367.6 294.205 366.133 294.205 364.16V360.72C293.485 361.76 292.485 362.627 291.205 363.32C289.952 364.013 288.512 364.36 286.885 364.36C285.019 364.36 283.312 363.88 281.765 362.92C280.219 361.96 278.992 360.613 278.085 358.88C277.205 357.12 276.765 355.107 276.765 352.84C276.765 350.6 277.205 348.613 278.085 346.88C278.992 345.147 280.205 343.813 281.725 342.88C283.272 341.947 284.992 341.48 286.885 341.48ZM294.205 352.92C294.205 351.56 293.939 350.4 293.405 349.44C292.872 348.453 292.152 347.707 291.245 347.2C290.339 346.667 289.365 346.4 288.325 346.4C287.285 346.4 286.325 346.653 285.445 347.16C284.565 347.667 283.845 348.413 283.285 349.4C282.752 350.36 282.485 351.507 282.485 352.84C282.485 354.173 282.752 355.347 283.285 356.36C283.845 357.347 284.565 358.107 285.445 358.64C286.352 359.173 287.312 359.44 288.325 359.44C289.365 359.44 290.339 359.187 291.245 358.68C292.152 358.147 292.872 357.4 293.405 356.44C293.939 355.453 294.205 354.28 294.205 352.92ZM308.155 339.2C307.168 339.2 306.341 338.893 305.675 338.28C305.035 337.64 304.715 336.853 304.715 335.92C304.715 334.987 305.035 334.213 305.675 333.6C306.341 332.96 307.168 332.64 308.155 332.64C309.141 332.64 309.955 332.96 310.595 333.6C311.261 334.213 311.595 334.987 311.595 335.92C311.595 336.853 311.261 337.64 310.595 338.28C309.955 338.893 309.141 339.2 308.155 339.2ZM310.915 341.84V364H305.315V341.84H310.915ZM328.728 341.52C331.368 341.52 333.501 342.36 335.128 344.04C336.754 345.693 337.568 348.013 337.568 351V364H331.968V351.76C331.968 350 331.528 348.653 330.648 347.72C329.768 346.76 328.568 346.28 327.048 346.28C325.501 346.28 324.274 346.76 323.368 347.72C322.488 348.653 322.048 350 322.048 351.76V364H316.448V341.84H322.048V344.6C322.794 343.64 323.741 342.893 324.888 342.36C326.061 341.8 327.341 341.52 328.728 341.52ZM341.453 352.84C341.453 350.6 341.893 348.613 342.773 346.88C343.679 345.147 344.893 343.813 346.413 342.88C347.959 341.947 349.679 341.48 351.573 341.48C353.226 341.48 354.666 341.813 355.893 342.48C357.146 343.147 358.146 343.987 358.893 345V341.84H364.533V364H358.893V360.76C358.173 361.8 357.173 362.667 355.893 363.36C354.639 364.027 353.186 364.36 351.533 364.36C349.666 364.36 347.959 363.88 346.413 362.92C344.893 361.96 343.679 360.613 342.773 358.88C341.893 357.12 341.453 355.107 341.453 352.84ZM358.893 352.92C358.893 351.56 358.626 350.4 358.093 349.44C357.559 348.453 356.839 347.707 355.933 347.2C355.026 346.667 354.053 346.4 353.013 346.4C351.973 346.4 351.013 346.653 350.133 347.16C349.253 347.667 348.533 348.413 347.973 349.4C347.439 350.36 347.173 351.507 347.173 352.84C347.173 354.173 347.439 355.347 347.973 356.36C348.533 357.347 349.253 358.107 350.133 358.64C351.039 359.173 351.999 359.44 353.013 359.44C354.053 359.44 355.026 359.187 355.933 358.68C356.839 358.147 357.559 357.4 358.093 356.44C358.626 355.453 358.893 354.28 358.893 352.92ZM382.373 339.2C381.387 339.2 380.56 338.893 379.893 338.28C379.253 337.64 378.933 336.853 378.933 335.92C378.933 334.987 379.253 334.213 379.893 333.6C380.56 332.96 381.387 332.64 382.373 332.64C383.36 332.64 384.173 332.96 384.813 333.6C385.48 334.213 385.813 334.987 385.813 335.92C385.813 336.853 385.48 337.64 384.813 338.28C384.173 338.893 383.36 339.2 382.373 339.2ZM385.133 341.84V364H379.533V341.84H385.133ZM402.946 341.52C405.586 341.52 407.72 342.36 409.346 344.04C410.973 345.693 411.786 348.013 411.786 351V364H406.186V351.76C406.186 350 405.746 348.653 404.866 347.72C403.986 346.76 402.786 346.28 401.266 346.28C399.72 346.28 398.493 346.76 397.586 347.72C396.706 348.653 396.266 350 396.266 351.76V364H390.666V341.84H396.266V344.6C397.013 343.64 397.96 342.893 399.106 342.36C400.28 341.8 401.56 341.52 402.946 341.52ZM419.952 339.2C418.965 339.2 418.138 338.893 417.472 338.28C416.832 337.64 416.512 336.853 416.512 335.92C416.512 334.987 416.832 334.213 417.472 333.6C418.138 332.96 418.965 332.64 419.952 332.64C420.938 332.64 421.752 332.96 422.392 333.6C423.058 334.213 423.392 334.987 423.392 335.92C423.392 336.853 423.058 337.64 422.392 338.28C421.752 338.893 420.938 339.2 419.952 339.2ZM422.712 341.84V364H417.112V341.84H422.712ZM426.804 352.92C426.804 350.627 427.271 348.627 428.204 346.92C429.138 345.187 430.431 343.853 432.084 342.92C433.738 341.96 435.631 341.48 437.764 341.48C440.511 341.48 442.778 342.173 444.564 343.56C446.378 344.92 447.591 346.84 448.204 349.32H442.164C441.844 348.36 441.298 347.613 440.524 347.08C439.778 346.52 438.844 346.24 437.724 346.24C436.124 346.24 434.858 346.827 433.924 348C432.991 349.147 432.524 350.787 432.524 352.92C432.524 355.027 432.991 356.667 433.924 357.84C434.858 358.987 436.124 359.56 437.724 359.56C439.991 359.56 441.471 358.547 442.164 356.52H448.204C447.591 358.92 446.378 360.827 444.564 362.24C442.751 363.653 440.484 364.36 437.764 364.36C435.631 364.36 433.738 363.893 432.084 362.96C430.431 362 429.138 360.667 428.204 358.96C427.271 357.227 426.804 355.213 426.804 352.92ZM455.147 339.2C454.16 339.2 453.334 338.893 452.667 338.28C452.027 337.64 451.707 336.853 451.707 335.92C451.707 334.987 452.027 334.213 452.667 333.6C453.334 332.96 454.16 332.64 455.147 332.64C456.134 332.64 456.947 332.96 457.587 333.6C458.254 334.213 458.587 334.987 458.587 335.92C458.587 336.853 458.254 337.64 457.587 338.28C456.947 338.893 456.134 339.2 455.147 339.2ZM457.907 341.84V364H452.307V341.84H457.907ZM462 352.84C462 350.6 462.44 348.613 463.32 346.88C464.226 345.147 465.44 343.813 466.96 342.88C468.506 341.947 470.226 341.48 472.12 341.48C473.773 341.48 475.213 341.813 476.44 342.48C477.693 343.147 478.693 343.987 479.44 345V341.84H485.08V364H479.44V360.76C478.72 361.8 477.72 362.667 476.44 363.36C475.186 364.027 473.733 364.36 472.08 364.36C470.213 364.36 468.506 363.88 466.96 362.92C465.44 361.96 464.226 360.613 463.32 358.88C462.44 357.12 462 355.107 462 352.84ZM479.44 352.92C479.44 351.56 479.173 350.4 478.64 349.44C478.106 348.453 477.386 347.707 476.48 347.2C475.573 346.667 474.6 346.4 473.56 346.4C472.52 346.4 471.56 346.653 470.68 347.16C469.8 347.667 469.08 348.413 468.52 349.4C467.986 350.36 467.72 351.507 467.72 352.84C467.72 354.173 467.986 355.347 468.52 356.36C469.08 357.347 469.8 358.107 470.68 358.64C471.586 359.173 472.546 359.44 473.56 359.44C474.6 359.44 475.573 359.187 476.48 358.68C477.386 358.147 478.106 357.4 478.64 356.44C479.173 355.453 479.44 354.28 479.44 352.92ZM496.149 334.4V364H490.549V334.4H496.149Z" fill="white"/>
<path d="M364.475 447.525C363.108 446.158 360.892 446.158 359.525 447.525L337.251 469.799C335.885 471.165 335.885 473.381 337.251 474.748C338.618 476.115 340.834 476.115 342.201 474.748L362 454.949L381.799 474.748C383.166 476.115 385.382 476.115 386.749 474.748C388.116 473.381 388.116 471.165 386.749 469.799L364.475 447.525ZM584.525 736.474C585.892 737.841 588.108 737.841 589.475 736.474L611.749 714.201C613.116 712.834 613.116 710.618 611.749 709.251C610.382 707.884 608.166 707.884 606.799 709.251L587 729.05L567.201 709.251C565.834 707.884 563.618 707.884 562.251 709.251C560.885 710.618 560.885 712.834 562.251 714.201L584.525 736.474ZM358.5 450C358.5 521.227 372.561 558.127 394.903 576.928C417.145 595.644 446.682 595.5 474.5 595.5C502.932 595.5 529.645 595.644 549.59 612.428C569.436 629.127 583.5 663.227 583.5 734L590.5 734C590.5 662.772 576.439 625.872 554.097 607.072C531.855 588.355 502.318 588.5 474.5 588.5C446.068 588.5 419.355 588.355 399.41 571.572C379.564 554.872 365.5 520.772 365.5 450L358.5 450Z" fill="black"/>
<path d="M1309.53 734.475C1310.89 735.842 1313.11 735.842 1314.47 734.475L1336.75 712.201C1338.12 710.835 1338.12 708.618 1336.75 707.252C1335.38 705.885 1333.17 705.885 1331.8 707.252L1312 727.051L1292.2 707.252C1290.83 705.885 1288.62 705.885 1287.25 707.252C1285.88 708.618 1285.88 710.835 1287.25 712.201L1309.53 734.475ZM463.029 596C674.789 594.25 833.684 593.282 952.934 595.016C1072.23 596.75 1151.65 601.188 1204.54 610.201C1257.56 619.235 1282.97 632.723 1295.54 651.669C1301.84 661.177 1305.12 672.348 1306.79 685.672C1308.46 699.044 1308.5 714.319 1308.5 732L1315.5 732C1315.5 714.431 1315.47 698.691 1313.73 684.801C1311.99 670.864 1308.49 658.527 1301.37 647.8C1287.09 626.277 1259.07 612.391 1205.71 603.3C1152.23 594.187 1072.33 589.751 953.036 588.016C833.691 586.281 674.712 587.251 462.971 589.001L463.029 596Z" fill="black"/>
<path d="M534.533 346.517C533.162 347.879 533.155 350.095 534.517 351.467L556.716 373.815C558.079 375.186 560.295 375.193 561.666 373.831C563.037 372.469 563.045 370.253 561.683 368.881L541.95 349.016L561.815 329.284C563.186 327.921 563.193 325.705 561.831 324.334C560.469 322.963 558.253 322.955 556.881 324.317L534.533 346.517ZM837.012 346.5L537.012 345.5L536.988 352.5L836.988 353.5L837.012 346.5Z" fill="black"/>
<path d="M1107.55 346.501C1106.17 347.854 1106.15 350.07 1107.5 351.45L1129.55 373.945C1130.9 375.326 1133.12 375.348 1134.5 373.995C1135.88 372.642 1135.9 370.426 1134.55 369.045L1114.95 349.049L1134.95 329.449C1136.33 328.096 1136.35 325.88 1134.99 324.5C1133.64 323.12 1131.43 323.097 1130.05 324.45L1107.55 346.501ZM1210.03 346.5L1110.04 345.5L1109.97 352.5L1209.97 353.5L1210.03 346.5Z" fill="black"/>
</svg>
