<svg width="1724" height="1432" viewBox="0 0 1724 1432" fill="none" xmlns="http://www.w3.org/2000/svg">
<rect width="1724" height="1432" rx="100" fill="#E4E2DD"/>
<rect x="972.5" y="143.5" width="267.968" height="131.484" rx="65.742" fill="#B6174B" stroke="black" stroke-width="5"/>
<path d="M1352.87 216.768C1353.85 215.791 1353.85 214.209 1352.87 213.232L1336.96 197.322C1335.98 196.346 1334.4 196.346 1333.42 197.322C1332.45 198.299 1332.45 199.882 1333.42 200.858L1347.57 215L1333.42 229.142C1332.45 230.118 1332.45 231.701 1333.42 232.678C1334.4 233.654 1335.98 233.654 1336.96 232.678L1352.87 216.768ZM1351.1 212.5H1243V217.5H1351.1V212.5Z" fill="black"/>
<path d="M1068.27 214.67H1075.17V218H1064.07V197.06H1068.27V214.67ZM1085.22 218.27C1083.62 218.27 1082.18 217.92 1080.9 217.22C1079.62 216.5 1078.61 215.49 1077.87 214.19C1077.15 212.89 1076.79 211.39 1076.79 209.69C1076.79 207.99 1077.16 206.49 1077.9 205.19C1078.66 203.89 1079.69 202.89 1080.99 202.19C1082.29 201.47 1083.74 201.11 1085.34 201.11C1086.94 201.11 1088.39 201.47 1089.69 202.19C1090.99 202.89 1092.01 203.89 1092.75 205.19C1093.51 206.49 1093.89 207.99 1093.89 209.69C1093.89 211.39 1093.5 212.89 1092.72 214.19C1091.96 215.49 1090.92 216.5 1089.6 217.22C1088.3 217.92 1086.84 218.27 1085.22 218.27ZM1085.22 214.61C1085.98 214.61 1086.69 214.43 1087.35 214.07C1088.03 213.69 1088.57 213.13 1088.97 212.39C1089.37 211.65 1089.57 210.75 1089.57 209.69C1089.57 208.11 1089.15 206.9 1088.31 206.06C1087.49 205.2 1086.48 204.77 1085.28 204.77C1084.08 204.77 1083.07 205.2 1082.25 206.06C1081.45 206.9 1081.05 208.11 1081.05 209.69C1081.05 211.27 1081.44 212.49 1082.22 213.35C1083.02 214.19 1084.02 214.61 1085.22 214.61ZM1103.48 201.11C1104.72 201.11 1105.81 201.36 1106.75 201.86C1107.69 202.34 1108.43 202.97 1108.97 203.75V201.38H1113.2V218.12C1113.2 219.66 1112.89 221.03 1112.27 222.23C1111.65 223.45 1110.72 224.41 1109.48 225.11C1108.24 225.83 1106.74 226.19 1104.98 226.19C1102.62 226.19 1100.68 225.64 1099.16 224.54C1097.66 223.44 1096.81 221.94 1096.61 220.04H1100.78C1101 220.8 1101.47 221.4 1102.19 221.84C1102.93 222.3 1103.82 222.53 1104.86 222.53C1106.08 222.53 1107.07 222.16 1107.83 221.42C1108.59 220.7 1108.97 219.6 1108.97 218.12V215.54C1108.43 216.32 1107.68 216.97 1106.72 217.49C1105.78 218.01 1104.7 218.27 1103.48 218.27C1102.08 218.27 1100.8 217.91 1099.64 217.19C1098.48 216.47 1097.56 215.46 1096.88 214.16C1096.22 212.84 1095.89 211.33 1095.89 209.63C1095.89 207.95 1096.22 206.46 1096.88 205.16C1097.56 203.86 1098.47 202.86 1099.61 202.16C1100.77 201.46 1102.06 201.11 1103.48 201.11ZM1108.97 209.69C1108.97 208.67 1108.77 207.8 1108.37 207.08C1107.97 206.34 1107.43 205.78 1106.75 205.4C1106.07 205 1105.34 204.8 1104.56 204.8C1103.78 204.8 1103.06 204.99 1102.4 205.37C1101.74 205.75 1101.2 206.31 1100.78 207.05C1100.38 207.77 1100.18 208.63 1100.18 209.63C1100.18 210.63 1100.38 211.51 1100.78 212.27C1101.2 213.01 1101.74 213.58 1102.4 213.98C1103.08 214.38 1103.8 214.58 1104.56 214.58C1105.34 214.58 1106.07 214.39 1106.75 214.01C1107.43 213.61 1107.97 213.05 1108.37 212.33C1108.77 211.59 1108.97 210.71 1108.97 209.69ZM1119.43 199.4C1118.69 199.4 1118.07 199.17 1117.57 198.71C1117.09 198.23 1116.85 197.64 1116.85 196.94C1116.85 196.24 1117.09 195.66 1117.57 195.2C1118.07 194.72 1118.69 194.48 1119.43 194.48C1120.17 194.48 1120.78 194.72 1121.26 195.2C1121.76 195.66 1122.01 196.24 1122.01 196.94C1122.01 197.64 1121.76 198.23 1121.26 198.71C1120.78 199.17 1120.17 199.4 1119.43 199.4ZM1121.5 201.38V218H1117.3V201.38H1121.5ZM1134.86 201.14C1136.84 201.14 1138.44 201.77 1139.66 203.03C1140.88 204.27 1141.49 206.01 1141.49 208.25V218H1137.29V208.82C1137.29 207.5 1136.96 206.49 1136.3 205.79C1135.64 205.07 1134.74 204.71 1133.6 204.71C1132.44 204.71 1131.52 205.07 1130.84 205.79C1130.18 206.49 1129.85 207.5 1129.85 208.82V218H1125.65V201.38H1129.85V203.45C1130.41 202.73 1131.12 202.17 1131.98 201.77C1132.86 201.35 1133.82 201.14 1134.86 201.14Z" fill="white"/>
<rect x="1353.5" y="143.5" width="267.968" height="131.484" rx="65.742" fill="#B6174B" stroke="black" stroke-width="5"/>
<path d="M1382.05 207.5C1382.05 205.44 1382.51 203.6 1383.43 201.98C1384.37 200.34 1385.64 199.07 1387.24 198.17C1388.86 197.25 1390.67 196.79 1392.67 196.79C1395.01 196.79 1397.06 197.39 1398.82 198.59C1400.58 199.79 1401.81 201.45 1402.51 203.57H1397.68C1397.2 202.57 1396.52 201.82 1395.64 201.32C1394.78 200.82 1393.78 200.57 1392.64 200.57C1391.42 200.57 1390.33 200.86 1389.37 201.44C1388.43 202 1387.69 202.8 1387.15 203.84C1386.63 204.88 1386.37 206.1 1386.37 207.5C1386.37 208.88 1386.63 210.1 1387.15 211.16C1387.69 212.2 1388.43 213.01 1389.37 213.59C1390.33 214.15 1391.42 214.43 1392.64 214.43C1393.78 214.43 1394.78 214.18 1395.64 213.68C1396.52 213.16 1397.2 212.4 1397.68 211.4H1402.51C1401.81 213.54 1400.58 215.21 1398.82 216.41C1397.08 217.59 1395.03 218.18 1392.67 218.18C1390.67 218.18 1388.86 217.73 1387.24 216.83C1385.64 215.91 1384.37 214.64 1383.43 213.02C1382.51 211.4 1382.05 209.56 1382.05 207.5ZM1405.02 209.63C1405.02 207.95 1405.35 206.46 1406.01 205.16C1406.69 203.86 1407.6 202.86 1408.74 202.16C1409.9 201.46 1411.19 201.11 1412.61 201.11C1413.85 201.11 1414.93 201.36 1415.85 201.86C1416.79 202.36 1417.54 202.99 1418.1 203.75V201.38H1422.33V218H1418.1V215.57C1417.56 216.35 1416.81 217 1415.85 217.52C1414.91 218.02 1413.82 218.27 1412.58 218.27C1411.18 218.27 1409.9 217.91 1408.74 217.19C1407.6 216.47 1406.69 215.46 1406.01 214.16C1405.35 212.84 1405.02 211.33 1405.02 209.63ZM1418.1 209.69C1418.1 208.67 1417.9 207.8 1417.5 207.08C1417.1 206.34 1416.56 205.78 1415.88 205.4C1415.2 205 1414.47 204.8 1413.69 204.8C1412.91 204.8 1412.19 204.99 1411.53 205.37C1410.87 205.75 1410.33 206.31 1409.91 207.05C1409.51 207.77 1409.31 208.63 1409.31 209.63C1409.31 210.63 1409.51 211.51 1409.91 212.27C1410.33 213.01 1410.87 213.58 1411.53 213.98C1412.21 214.38 1412.93 214.58 1413.69 214.58C1414.47 214.58 1415.2 214.39 1415.88 214.01C1416.56 213.61 1417.1 213.05 1417.5 212.33C1417.9 211.59 1418.1 210.71 1418.1 209.69ZM1425.35 209.63C1425.35 207.95 1425.68 206.46 1426.34 205.16C1427.02 203.86 1427.94 202.86 1429.1 202.16C1430.26 201.46 1431.55 201.11 1432.97 201.11C1434.05 201.11 1435.08 201.35 1436.06 201.83C1437.04 202.29 1437.82 202.91 1438.4 203.69V195.8H1442.66V218H1438.4V215.54C1437.88 216.36 1437.15 217.02 1436.21 217.52C1435.27 218.02 1434.18 218.27 1432.94 218.27C1431.54 218.27 1430.26 217.91 1429.1 217.19C1427.94 216.47 1427.02 215.46 1426.34 214.16C1425.68 212.84 1425.35 211.33 1425.35 209.63ZM1438.43 209.69C1438.43 208.67 1438.23 207.8 1437.83 207.08C1437.43 206.34 1436.89 205.78 1436.21 205.4C1435.53 205 1434.8 204.8 1434.02 204.8C1433.24 204.8 1432.52 204.99 1431.86 205.37C1431.2 205.75 1430.66 206.31 1430.24 207.05C1429.84 207.77 1429.64 208.63 1429.64 209.63C1429.64 210.63 1429.84 211.51 1430.24 212.27C1430.66 213.01 1431.2 213.58 1431.86 213.98C1432.54 214.38 1433.26 214.58 1434.02 214.58C1434.8 214.58 1435.53 214.39 1436.21 214.01C1436.89 213.61 1437.43 213.05 1437.83 212.33C1438.23 211.59 1438.43 210.71 1438.43 209.69ZM1445.68 209.63C1445.68 207.95 1446.01 206.46 1446.67 205.16C1447.35 203.86 1448.26 202.86 1449.4 202.16C1450.56 201.46 1451.85 201.11 1453.27 201.11C1454.51 201.11 1455.59 201.36 1456.51 201.86C1457.45 202.36 1458.2 202.99 1458.76 203.75V201.38H1462.99V218H1458.76V215.57C1458.22 216.35 1457.47 217 1456.51 217.52C1455.57 218.02 1454.48 218.27 1453.24 218.27C1451.84 218.27 1450.56 217.91 1449.4 217.19C1448.26 216.47 1447.35 215.46 1446.67 214.16C1446.01 212.84 1445.68 211.33 1445.68 209.63ZM1458.76 209.69C1458.76 208.67 1458.56 207.8 1458.16 207.08C1457.76 206.34 1457.22 205.78 1456.54 205.4C1455.86 205 1455.13 204.8 1454.35 204.8C1453.57 204.8 1452.85 204.99 1452.19 205.37C1451.53 205.75 1450.99 206.31 1450.57 207.05C1450.17 207.77 1449.97 208.63 1449.97 209.63C1449.97 210.63 1450.17 211.51 1450.57 212.27C1450.99 213.01 1451.53 213.58 1452.19 213.98C1452.87 214.38 1453.59 214.58 1454.35 214.58C1455.13 214.58 1455.86 214.39 1456.54 214.01C1457.22 213.61 1457.76 213.05 1458.16 212.33C1458.56 211.59 1458.76 210.71 1458.76 209.69ZM1473.45 218.27C1472.09 218.27 1470.87 218.03 1469.79 217.55C1468.71 217.05 1467.85 216.38 1467.21 215.54C1466.59 214.7 1466.25 213.77 1466.19 212.75H1470.42C1470.5 213.39 1470.81 213.92 1471.35 214.34C1471.91 214.76 1472.6 214.97 1473.42 214.97C1474.22 214.97 1474.84 214.81 1475.28 214.49C1475.74 214.17 1475.97 213.76 1475.97 213.26C1475.97 212.72 1475.69 212.32 1475.13 212.06C1474.59 211.78 1473.72 211.48 1472.52 211.16C1471.28 210.86 1470.26 210.55 1469.46 210.23C1468.68 209.91 1468 209.42 1467.42 208.76C1466.86 208.1 1466.58 207.21 1466.58 206.09C1466.58 205.17 1466.84 204.33 1467.36 203.57C1467.9 202.81 1468.66 202.21 1469.64 201.77C1470.64 201.33 1471.81 201.11 1473.15 201.11C1475.13 201.11 1476.71 201.61 1477.89 202.61C1479.07 203.59 1479.72 204.92 1479.84 206.6H1475.82C1475.76 205.94 1475.48 205.42 1474.98 205.04C1474.5 204.64 1473.85 204.44 1473.03 204.44C1472.27 204.44 1471.68 204.58 1471.26 204.86C1470.86 205.14 1470.66 205.53 1470.66 206.03C1470.66 206.59 1470.94 207.02 1471.5 207.32C1472.06 207.6 1472.93 207.89 1474.11 208.19C1475.31 208.49 1476.3 208.8 1477.08 209.12C1477.86 209.44 1478.53 209.94 1479.09 210.62C1479.67 211.28 1479.97 212.16 1479.99 213.26C1479.99 214.22 1479.72 215.08 1479.18 215.84C1478.66 216.6 1477.9 217.2 1476.9 217.64C1475.92 218.06 1474.77 218.27 1473.45 218.27ZM1488.33 204.83V212.87C1488.33 213.43 1488.46 213.84 1488.72 214.1C1489 214.34 1489.46 214.46 1490.1 214.46H1492.05V218H1489.41C1485.87 218 1484.1 216.28 1484.1 212.84V204.83H1482.12V201.38H1484.1V197.27H1488.33V201.38H1492.05V204.83H1488.33ZM1499.27 203.96C1499.81 203.08 1500.51 202.39 1501.37 201.89C1502.25 201.39 1503.25 201.14 1504.37 201.14V205.55H1503.26C1501.94 205.55 1500.94 205.86 1500.26 206.48C1499.6 207.1 1499.27 208.18 1499.27 209.72V218H1495.07V201.38H1499.27V203.96ZM1522.65 209.33C1522.65 209.93 1522.61 210.47 1522.53 210.95H1510.38C1510.48 212.15 1510.9 213.09 1511.64 213.77C1512.38 214.45 1513.29 214.79 1514.37 214.79C1515.93 214.79 1517.04 214.12 1517.7 212.78H1522.23C1521.75 214.38 1520.83 215.7 1519.47 216.74C1518.11 217.76 1516.44 218.27 1514.46 218.27C1512.86 218.27 1511.42 217.92 1510.14 217.22C1508.88 216.5 1507.89 215.49 1507.17 214.19C1506.47 212.89 1506.12 211.39 1506.12 209.69C1506.12 207.97 1506.47 206.46 1507.17 205.16C1507.87 203.86 1508.85 202.86 1510.11 202.16C1511.37 201.46 1512.82 201.11 1514.46 201.11C1516.04 201.11 1517.45 201.45 1518.69 202.13C1519.95 202.81 1520.92 203.78 1521.6 205.04C1522.3 206.28 1522.65 207.71 1522.65 209.33ZM1518.3 208.13C1518.28 207.05 1517.89 206.19 1517.13 205.55C1516.37 204.89 1515.44 204.56 1514.34 204.56C1513.3 204.56 1512.42 204.88 1511.7 205.52C1511 206.14 1510.57 207.01 1510.41 208.13H1518.3ZM1538.5 205.52V209.06H1525.78V205.52H1538.5ZM1549.57 218.27C1548.21 218.27 1546.99 218.03 1545.91 217.55C1544.83 217.05 1543.97 216.38 1543.33 215.54C1542.71 214.7 1542.37 213.77 1542.31 212.75H1546.54C1546.62 213.39 1546.93 213.92 1547.47 214.34C1548.03 214.76 1548.72 214.97 1549.54 214.97C1550.34 214.97 1550.96 214.81 1551.4 214.49C1551.86 214.17 1552.09 213.76 1552.09 213.26C1552.09 212.72 1551.81 212.32 1551.25 212.06C1550.71 211.78 1549.84 211.48 1548.64 211.16C1547.4 210.86 1546.38 210.55 1545.58 210.23C1544.8 209.91 1544.12 209.42 1543.54 208.76C1542.98 208.1 1542.7 207.21 1542.7 206.09C1542.7 205.17 1542.96 204.33 1543.48 203.57C1544.02 202.81 1544.78 202.21 1545.76 201.77C1546.76 201.33 1547.93 201.11 1549.27 201.11C1551.25 201.11 1552.83 201.61 1554.01 202.61C1555.19 203.59 1555.84 204.92 1555.96 206.6H1551.94C1551.88 205.94 1551.6 205.42 1551.1 205.04C1550.62 204.64 1549.97 204.44 1549.15 204.44C1548.39 204.44 1547.8 204.58 1547.38 204.86C1546.98 205.14 1546.78 205.53 1546.78 206.03C1546.78 206.59 1547.06 207.02 1547.62 207.32C1548.18 207.6 1549.05 207.89 1550.23 208.19C1551.43 208.49 1552.42 208.8 1553.2 209.12C1553.98 209.44 1554.65 209.94 1555.21 210.62C1555.79 211.28 1556.09 212.16 1556.11 213.26C1556.11 214.22 1555.84 215.08 1555.3 215.84C1554.78 216.6 1554.02 217.2 1553.02 217.64C1552.04 218.06 1550.89 218.27 1549.57 218.27ZM1575 209.33C1575 209.93 1574.96 210.47 1574.88 210.95H1562.73C1562.83 212.15 1563.25 213.09 1563.99 213.77C1564.73 214.45 1565.64 214.79 1566.72 214.79C1568.28 214.79 1569.39 214.12 1570.05 212.78H1574.58C1574.1 214.38 1573.18 215.7 1571.82 216.74C1570.46 217.76 1568.79 218.27 1566.81 218.27C1565.21 218.27 1563.77 217.92 1562.49 217.22C1561.23 216.5 1560.24 215.49 1559.52 214.19C1558.82 212.89 1558.47 211.39 1558.47 209.69C1558.47 207.97 1558.82 206.46 1559.52 205.16C1560.22 203.86 1561.2 202.86 1562.46 202.16C1563.72 201.46 1565.17 201.11 1566.81 201.11C1568.39 201.11 1569.8 201.45 1571.04 202.13C1572.3 202.81 1573.27 203.78 1573.95 205.04C1574.65 206.28 1575 207.71 1575 209.33ZM1570.65 208.13C1570.63 207.05 1570.24 206.19 1569.48 205.55C1568.72 204.89 1567.79 204.56 1566.69 204.56C1565.65 204.56 1564.77 204.88 1564.05 205.52C1563.35 206.14 1562.92 207.01 1562.76 208.13H1570.65Z" fill="#E2E2E2"/>
<rect x="725.5" y="1330.5" width="597" height="697" rx="28.5" transform="rotate(-90 725.5 1330.5)" fill="#3A7D44" stroke="black" stroke-width="3"/>
<path d="M750.01 694.31C750.01 695.99 749.605 697.565 748.795 699.035C748.015 700.505 746.77 701.69 745.06 702.59C743.38 703.49 741.25 703.94 738.67 703.94H733.405V716H727.105V684.59H738.67C741.1 684.59 743.17 685.01 744.88 685.85C746.59 686.69 747.865 687.845 748.705 689.315C749.575 690.785 750.01 692.45 750.01 694.31ZM738.4 698.855C740.14 698.855 741.43 698.465 742.27 697.685C743.11 696.875 743.53 695.75 743.53 694.31C743.53 691.25 741.82 689.72 738.4 689.72H733.405V698.855H738.4ZM752.863 703.445C752.863 700.925 753.358 698.69 754.348 696.74C755.368 694.79 756.733 693.29 758.443 692.24C760.183 691.19 762.118 690.665 764.248 690.665C766.108 690.665 767.728 691.04 769.108 691.79C770.518 692.54 771.643 693.485 772.483 694.625V691.07H778.828V716H772.483V712.355C771.673 713.525 770.548 714.5 769.108 715.28C767.698 716.03 766.063 716.405 764.203 716.405C762.103 716.405 760.183 715.865 758.443 714.785C756.733 713.705 755.368 712.19 754.348 710.24C753.358 708.26 752.863 705.995 752.863 703.445ZM772.483 703.535C772.483 702.005 772.183 700.7 771.583 699.62C770.983 698.51 770.173 697.67 769.153 697.1C768.133 696.5 767.038 696.2 765.868 696.2C764.698 696.2 763.618 696.485 762.628 697.055C761.638 697.625 760.828 698.465 760.198 699.575C759.598 700.655 759.298 701.945 759.298 703.445C759.298 704.945 759.598 706.265 760.198 707.405C760.828 708.515 761.638 709.37 762.628 709.97C763.648 710.57 764.728 710.87 765.868 710.87C767.038 710.87 768.133 710.585 769.153 710.015C770.173 709.415 770.983 708.575 771.583 707.495C772.183 706.385 772.483 705.065 772.483 703.535ZM771.628 684.59L761.278 689.315V684.815L771.628 679.46V684.59ZM794.746 690.665C796.606 690.665 798.241 691.04 799.651 691.79C801.061 692.51 802.171 693.455 802.981 694.625V691.07H809.326V716.18C809.326 718.49 808.861 720.545 807.931 722.345C807.001 724.175 805.606 725.615 803.746 726.665C801.886 727.745 799.636 728.285 796.996 728.285C793.456 728.285 790.546 727.46 788.266 725.81C786.016 724.16 784.741 721.91 784.441 719.06H790.696C791.026 720.2 791.731 721.1 792.811 721.76C793.921 722.45 795.256 722.795 796.816 722.795C798.646 722.795 800.131 722.24 801.271 721.13C802.411 720.05 802.981 718.4 802.981 716.18V712.31C802.171 713.48 801.046 714.455 799.606 715.235C798.196 716.015 796.576 716.405 794.746 716.405C792.646 716.405 790.726 715.865 788.986 714.785C787.246 713.705 785.866 712.19 784.846 710.24C783.856 708.26 783.361 705.995 783.361 703.445C783.361 700.925 783.856 698.69 784.846 696.74C785.866 694.79 787.231 693.29 788.941 692.24C790.681 691.19 792.616 690.665 794.746 690.665ZM802.981 703.535C802.981 702.005 802.681 700.7 802.081 699.62C801.481 698.51 800.671 697.67 799.651 697.1C798.631 696.5 797.536 696.2 796.366 696.2C795.196 696.2 794.116 696.485 793.126 697.055C792.136 697.625 791.326 698.465 790.696 699.575C790.096 700.655 789.796 701.945 789.796 703.445C789.796 704.945 790.096 706.265 790.696 707.405C791.326 708.515 792.136 709.37 793.126 709.97C794.146 710.57 795.226 710.87 796.366 710.87C797.536 710.87 798.631 710.585 799.651 710.015C800.671 709.415 801.481 708.575 802.081 707.495C802.681 706.385 802.981 705.065 802.981 703.535ZM818.674 688.1C817.564 688.1 816.634 687.755 815.884 687.065C815.164 686.345 814.804 685.46 814.804 684.41C814.804 683.36 815.164 682.49 815.884 681.8C816.634 681.08 817.564 680.72 818.674 680.72C819.784 680.72 820.699 681.08 821.419 681.8C822.169 682.49 822.544 683.36 822.544 684.41C822.544 685.46 822.169 686.345 821.419 687.065C820.699 687.755 819.784 688.1 818.674 688.1ZM821.779 691.07V716H815.479V691.07H821.779ZM841.818 690.71C844.788 690.71 847.188 691.655 849.018 693.545C850.848 695.405 851.763 698.015 851.763 701.375V716H845.463V702.23C845.463 700.25 844.968 698.735 843.978 697.685C842.988 696.605 841.638 696.065 839.928 696.065C838.188 696.065 836.808 696.605 835.788 697.685C834.798 698.735 834.303 700.25 834.303 702.23V716H828.003V691.07H834.303V694.175C835.143 693.095 836.208 692.255 837.498 691.655C838.818 691.025 840.258 690.71 841.818 690.71ZM856.134 703.445C856.134 700.925 856.629 698.69 857.619 696.74C858.639 694.79 860.004 693.29 861.714 692.24C863.454 691.19 865.389 690.665 867.519 690.665C869.379 690.665 870.999 691.04 872.379 691.79C873.789 692.54 874.914 693.485 875.754 694.625V691.07H882.099V716H875.754V712.355C874.944 713.525 873.819 714.5 872.379 715.28C870.969 716.03 869.334 716.405 867.474 716.405C865.374 716.405 863.454 715.865 861.714 714.785C860.004 713.705 858.639 712.19 857.619 710.24C856.629 708.26 856.134 705.995 856.134 703.445ZM875.754 703.535C875.754 702.005 875.454 700.7 874.854 699.62C874.254 698.51 873.444 697.67 872.424 697.1C871.404 696.5 870.309 696.2 869.139 696.2C867.969 696.2 866.889 696.485 865.899 697.055C864.909 697.625 864.099 698.465 863.469 699.575C862.869 700.655 862.569 701.945 862.569 703.445C862.569 704.945 862.869 706.265 863.469 707.405C864.099 708.515 864.909 709.37 865.899 709.97C866.919 710.57 867.999 710.87 869.139 710.87C870.309 710.87 871.404 710.585 872.424 710.015C873.444 709.415 874.254 708.575 874.854 707.495C875.454 706.385 875.754 705.065 875.754 703.535Z" fill="black"/>
<rect x="940.468" y="466.5" width="267.968" height="131.484" rx="65.742" fill="#C0330C" stroke="black" stroke-width="5"/>
<path d="M1053.05 520.57V545H1048.15V529.11L1041.61 545H1037.9L1031.32 529.11V545H1026.42V520.57H1031.98L1039.75 538.735L1047.52 520.57H1053.05ZM1075.92 534.885C1075.92 535.585 1075.87 536.215 1075.78 536.775H1061.6C1061.72 538.175 1062.21 539.272 1063.07 540.065C1063.94 540.858 1065 541.255 1066.26 541.255C1068.08 541.255 1069.37 540.473 1070.14 538.91H1075.43C1074.87 540.777 1073.8 542.317 1072.21 543.53C1070.62 544.72 1068.67 545.315 1066.36 545.315C1064.5 545.315 1062.82 544.907 1061.32 544.09C1059.85 543.25 1058.7 542.072 1057.86 540.555C1057.04 539.038 1056.63 537.288 1056.63 535.305C1056.63 533.298 1057.04 531.537 1057.86 530.02C1058.68 528.503 1059.82 527.337 1061.29 526.52C1062.76 525.703 1064.45 525.295 1066.36 525.295C1068.21 525.295 1069.85 525.692 1071.3 526.485C1072.77 527.278 1073.9 528.41 1074.69 529.88C1075.51 531.327 1075.92 532.995 1075.92 534.885ZM1070.84 533.485C1070.82 532.225 1070.37 531.222 1069.48 530.475C1068.59 529.705 1067.51 529.32 1066.22 529.32C1065.01 529.32 1063.98 529.693 1063.14 530.44C1062.33 531.163 1061.83 532.178 1061.64 533.485H1070.84ZM1090.24 525.33C1092.55 525.33 1094.42 526.065 1095.84 527.535C1097.26 528.982 1097.98 531.012 1097.98 533.625V545H1093.08V534.29C1093.08 532.75 1092.69 531.572 1091.92 530.755C1091.15 529.915 1090.1 529.495 1088.77 529.495C1087.42 529.495 1086.34 529.915 1085.55 530.755C1084.78 531.572 1084.4 532.75 1084.4 534.29V545H1079.5V525.61H1084.4V528.025C1085.05 527.185 1085.88 526.532 1086.88 526.065C1087.91 525.575 1089.03 525.33 1090.24 525.33ZM1120.94 525.61V545H1116.01V542.55C1115.38 543.39 1114.55 544.055 1113.52 544.545C1112.52 545.012 1111.42 545.245 1110.23 545.245C1108.71 545.245 1107.37 544.93 1106.21 544.3C1105.04 543.647 1104.12 542.702 1103.44 541.465C1102.79 540.205 1102.46 538.712 1102.46 536.985V525.61H1107.36V536.285C1107.36 537.825 1107.75 539.015 1108.52 539.855C1109.29 540.672 1110.34 541.08 1111.67 541.08C1113.02 541.08 1114.08 540.672 1114.85 539.855C1115.62 539.015 1116.01 537.825 1116.01 536.285V525.61H1120.94Z" fill="white"/>
<path d="M1074.77 598.224C1073.79 597.248 1072.21 597.248 1071.23 598.224L1055.32 614.134C1054.35 615.111 1054.35 616.694 1055.32 617.67C1056.3 618.646 1057.88 618.646 1058.86 617.67L1073 603.528L1087.14 617.67C1088.12 618.646 1089.7 618.646 1090.68 617.67C1091.65 616.694 1091.65 615.111 1090.68 614.134L1074.77 598.224ZM1071.23 733.775C1072.21 734.751 1073.79 734.751 1074.77 733.775L1090.68 717.865C1091.65 716.889 1091.65 715.306 1090.68 714.33C1089.7 713.353 1088.12 713.353 1087.14 714.33L1073 728.472L1058.86 714.33C1057.88 713.353 1056.3 713.353 1055.32 714.33C1054.35 715.306 1054.35 716.889 1055.32 717.865L1071.23 733.775ZM1070.5 599.992V732.007H1075.5V599.992H1070.5Z" fill="black"/>
<rect x="101.5" y="1132.5" width="397" height="397" rx="28.5" transform="rotate(-90 101.5 1132.5)" fill="#3A7D44" stroke="black" stroke-width="3"/>
<path d="M126.01 694.31C126.01 695.99 125.605 697.565 124.795 699.035C124.015 700.505 122.77 701.69 121.06 702.59C119.38 703.49 117.25 703.94 114.67 703.94H109.405V716H103.105V684.59H114.67C117.1 684.59 119.17 685.01 120.88 685.85C122.59 686.69 123.865 687.845 124.705 689.315C125.575 690.785 126.01 692.45 126.01 694.31ZM114.4 698.855C116.14 698.855 117.43 698.465 118.27 697.685C119.11 696.875 119.53 695.75 119.53 694.31C119.53 691.25 117.82 689.72 114.4 689.72H109.405V698.855H114.4ZM128.863 703.445C128.863 700.925 129.358 698.69 130.348 696.74C131.368 694.79 132.733 693.29 134.443 692.24C136.183 691.19 138.118 690.665 140.248 690.665C142.108 690.665 143.728 691.04 145.108 691.79C146.518 692.54 147.643 693.485 148.483 694.625V691.07H154.828V716H148.483V712.355C147.673 713.525 146.548 714.5 145.108 715.28C143.698 716.03 142.063 716.405 140.203 716.405C138.103 716.405 136.183 715.865 134.443 714.785C132.733 713.705 131.368 712.19 130.348 710.24C129.358 708.26 128.863 705.995 128.863 703.445ZM148.483 703.535C148.483 702.005 148.183 700.7 147.583 699.62C146.983 698.51 146.173 697.67 145.153 697.1C144.133 696.5 143.038 696.2 141.868 696.2C140.698 696.2 139.618 696.485 138.628 697.055C137.638 697.625 136.828 698.465 136.198 699.575C135.598 700.655 135.298 701.945 135.298 703.445C135.298 704.945 135.598 706.265 136.198 707.405C136.828 708.515 137.638 709.37 138.628 709.97C139.648 710.57 140.728 710.87 141.868 710.87C143.038 710.87 144.133 710.585 145.153 710.015C146.173 709.415 146.983 708.575 147.583 707.495C148.183 706.385 148.483 705.065 148.483 703.535ZM147.628 684.59L137.278 689.315V684.815L147.628 679.46V684.59ZM170.746 690.665C172.606 690.665 174.241 691.04 175.651 691.79C177.061 692.51 178.171 693.455 178.981 694.625V691.07H185.326V716.18C185.326 718.49 184.861 720.545 183.931 722.345C183.001 724.175 181.606 725.615 179.746 726.665C177.886 727.745 175.636 728.285 172.996 728.285C169.456 728.285 166.546 727.46 164.266 725.81C162.016 724.16 160.741 721.91 160.441 719.06H166.696C167.026 720.2 167.731 721.1 168.811 721.76C169.921 722.45 171.256 722.795 172.816 722.795C174.646 722.795 176.131 722.24 177.271 721.13C178.411 720.05 178.981 718.4 178.981 716.18V712.31C178.171 713.48 177.046 714.455 175.606 715.235C174.196 716.015 172.576 716.405 170.746 716.405C168.646 716.405 166.726 715.865 164.986 714.785C163.246 713.705 161.866 712.19 160.846 710.24C159.856 708.26 159.361 705.995 159.361 703.445C159.361 700.925 159.856 698.69 160.846 696.74C161.866 694.79 163.231 693.29 164.941 692.24C166.681 691.19 168.616 690.665 170.746 690.665ZM178.981 703.535C178.981 702.005 178.681 700.7 178.081 699.62C177.481 698.51 176.671 697.67 175.651 697.1C174.631 696.5 173.536 696.2 172.366 696.2C171.196 696.2 170.116 696.485 169.126 697.055C168.136 697.625 167.326 698.465 166.696 699.575C166.096 700.655 165.796 701.945 165.796 703.445C165.796 704.945 166.096 706.265 166.696 707.405C167.326 708.515 168.136 709.37 169.126 709.97C170.146 710.57 171.226 710.87 172.366 710.87C173.536 710.87 174.631 710.585 175.651 710.015C176.671 709.415 177.481 708.575 178.081 707.495C178.681 706.385 178.981 705.065 178.981 703.535ZM194.674 688.1C193.564 688.1 192.634 687.755 191.884 687.065C191.164 686.345 190.804 685.46 190.804 684.41C190.804 683.36 191.164 682.49 191.884 681.8C192.634 681.08 193.564 680.72 194.674 680.72C195.784 680.72 196.699 681.08 197.419 681.8C198.169 682.49 198.544 683.36 198.544 684.41C198.544 685.46 198.169 686.345 197.419 687.065C196.699 687.755 195.784 688.1 194.674 688.1ZM197.779 691.07V716H191.479V691.07H197.779ZM217.818 690.71C220.788 690.71 223.188 691.655 225.018 693.545C226.848 695.405 227.763 698.015 227.763 701.375V716H221.463V702.23C221.463 700.25 220.968 698.735 219.978 697.685C218.988 696.605 217.638 696.065 215.928 696.065C214.188 696.065 212.808 696.605 211.788 697.685C210.798 698.735 210.303 700.25 210.303 702.23V716H204.003V691.07H210.303V694.175C211.143 693.095 212.208 692.255 213.498 691.655C214.818 691.025 216.258 690.71 217.818 690.71ZM232.134 703.445C232.134 700.925 232.629 698.69 233.619 696.74C234.639 694.79 236.004 693.29 237.714 692.24C239.454 691.19 241.389 690.665 243.519 690.665C245.379 690.665 246.999 691.04 248.379 691.79C249.789 692.54 250.914 693.485 251.754 694.625V691.07H258.099V716H251.754V712.355C250.944 713.525 249.819 714.5 248.379 715.28C246.969 716.03 245.334 716.405 243.474 716.405C241.374 716.405 239.454 715.865 237.714 714.785C236.004 713.705 234.639 712.19 233.619 710.24C232.629 708.26 232.134 705.995 232.134 703.445ZM251.754 703.535C251.754 702.005 251.454 700.7 250.854 699.62C250.254 698.51 249.444 697.67 248.424 697.1C247.404 696.5 246.309 696.2 245.139 696.2C243.969 696.2 242.889 696.485 241.899 697.055C240.909 697.625 240.099 698.465 239.469 699.575C238.869 700.655 238.569 701.945 238.569 703.445C238.569 704.945 238.869 706.265 239.469 707.405C240.099 708.515 240.909 709.37 241.899 709.97C242.919 710.57 243.999 710.87 245.139 710.87C246.309 710.87 247.404 710.585 248.424 710.015C249.444 709.415 250.254 708.575 250.854 707.495C251.454 706.385 251.754 705.065 251.754 703.535Z" fill="black"/>
<rect x="166.5" y="787.5" width="267.968" height="131.484" rx="65.742" fill="#3423A6" stroke="black" stroke-width="5"/>
<path d="M201.79 864.21C199.83 864.21 198.03 863.75 196.39 862.83C194.75 861.91 193.45 860.64 192.49 859.02C191.53 857.38 191.05 855.53 191.05 853.47C191.05 851.43 191.53 849.6 192.49 847.98C193.45 846.34 194.75 845.06 196.39 844.14C198.03 843.22 199.83 842.76 201.79 842.76C203.77 842.76 205.57 843.22 207.19 844.14C208.83 845.06 210.12 846.34 211.06 847.98C212.02 849.6 212.5 851.43 212.5 853.47C212.5 855.53 212.02 857.38 211.06 859.02C210.12 860.64 208.83 861.91 207.19 862.83C205.55 863.75 203.75 864.21 201.79 864.21ZM201.79 860.46C203.05 860.46 204.16 860.18 205.12 859.62C206.08 859.04 206.83 858.22 207.37 857.16C207.91 856.1 208.18 854.87 208.18 853.47C208.18 852.07 207.91 850.85 207.37 849.81C206.83 848.75 206.08 847.94 205.12 847.38C204.16 846.82 203.05 846.54 201.79 846.54C200.53 846.54 199.41 846.82 198.43 847.38C197.47 847.94 196.72 848.75 196.18 849.81C195.64 850.85 195.37 852.07 195.37 853.47C195.37 854.87 195.64 856.1 196.18 857.16C196.72 858.22 197.47 859.04 198.43 859.62C199.41 860.18 200.53 860.46 201.79 860.46ZM219.825 849.96C220.365 849.08 221.065 848.39 221.925 847.89C222.805 847.39 223.805 847.14 224.925 847.14V851.55H223.815C222.495 851.55 221.495 851.86 220.815 852.48C220.155 853.1 219.825 854.18 219.825 855.72V864H215.625V847.38H219.825V849.96ZM234.264 847.11C235.504 847.11 236.594 847.36 237.534 847.86C238.474 848.34 239.214 848.97 239.754 849.75V847.38H243.984V864.12C243.984 865.66 243.674 867.03 243.054 868.23C242.434 869.45 241.504 870.41 240.264 871.11C239.024 871.83 237.524 872.19 235.764 872.19C233.404 872.19 231.464 871.64 229.944 870.54C228.444 869.44 227.594 867.94 227.394 866.04H231.564C231.784 866.8 232.254 867.4 232.974 867.84C233.714 868.3 234.604 868.53 235.644 868.53C236.864 868.53 237.854 868.16 238.614 867.42C239.374 866.7 239.754 865.6 239.754 864.12V861.54C239.214 862.32 238.464 862.97 237.504 863.49C236.564 864.01 235.484 864.27 234.264 864.27C232.864 864.27 231.584 863.91 230.424 863.19C229.264 862.47 228.344 861.46 227.664 860.16C227.004 858.84 226.674 857.33 226.674 855.63C226.674 853.95 227.004 852.46 227.664 851.16C228.344 849.86 229.254 848.86 230.394 848.16C231.554 847.46 232.844 847.11 234.264 847.11ZM239.754 855.69C239.754 854.67 239.554 853.8 239.154 853.08C238.754 852.34 238.214 851.78 237.534 851.4C236.854 851 236.124 850.8 235.344 850.8C234.564 850.8 233.844 850.99 233.184 851.37C232.524 851.75 231.984 852.31 231.564 853.05C231.164 853.77 230.964 854.63 230.964 855.63C230.964 856.63 231.164 857.51 231.564 858.27C231.984 859.01 232.524 859.58 233.184 859.98C233.864 860.38 234.584 860.58 235.344 860.58C236.124 860.58 236.854 860.39 237.534 860.01C238.214 859.61 238.754 859.05 239.154 858.33C239.554 857.59 239.754 856.71 239.754 855.69ZM247.006 855.63C247.006 853.95 247.336 852.46 247.996 851.16C248.676 849.86 249.586 848.86 250.726 848.16C251.886 847.46 253.176 847.11 254.596 847.11C255.836 847.11 256.916 847.36 257.836 847.86C258.776 848.36 259.526 848.99 260.086 849.75V847.38H264.316V864H260.086V861.57C259.546 862.35 258.796 863 257.836 863.52C256.896 864.02 255.806 864.27 254.566 864.27C253.166 864.27 251.886 863.91 250.726 863.19C249.586 862.47 248.676 861.46 247.996 860.16C247.336 858.84 247.006 857.33 247.006 855.63ZM260.086 855.69C260.086 854.67 259.886 853.8 259.486 853.08C259.086 852.34 258.546 851.78 257.866 851.4C257.186 851 256.456 850.8 255.676 850.8C254.896 850.8 254.176 850.99 253.516 851.37C252.856 851.75 252.316 852.31 251.896 853.05C251.496 853.77 251.296 854.63 251.296 855.63C251.296 856.63 251.496 857.51 251.896 858.27C252.316 859.01 252.856 859.58 253.516 859.98C254.196 860.38 254.916 860.58 255.676 860.58C256.456 860.58 257.186 860.39 257.866 860.01C258.546 859.61 259.086 859.05 259.486 858.33C259.886 857.59 260.086 856.71 260.086 855.69ZM277.628 847.14C279.608 847.14 281.208 847.77 282.428 849.03C283.648 850.27 284.258 852.01 284.258 854.25V864H280.058V854.82C280.058 853.5 279.728 852.49 279.068 851.79C278.408 851.07 277.508 850.71 276.368 850.71C275.208 850.71 274.288 851.07 273.608 851.79C272.948 852.49 272.618 853.5 272.618 854.82V864H268.418V847.38H272.618V849.45C273.178 848.73 273.888 848.17 274.748 847.77C275.628 847.35 276.588 847.14 277.628 847.14ZM295.632 864.27C294.032 864.27 292.592 863.92 291.312 863.22C290.032 862.5 289.022 861.49 288.282 860.19C287.562 858.89 287.202 857.39 287.202 855.69C287.202 853.99 287.572 852.49 288.312 851.19C289.072 849.89 290.102 848.89 291.402 848.19C292.702 847.47 294.152 847.11 295.752 847.11C297.352 847.11 298.802 847.47 300.102 848.19C301.402 848.89 302.422 849.89 303.162 851.19C303.922 852.49 304.302 853.99 304.302 855.69C304.302 857.39 303.912 858.89 303.132 860.19C302.372 861.49 301.332 862.5 300.012 863.22C298.712 863.92 297.252 864.27 295.632 864.27ZM295.632 860.61C296.392 860.61 297.102 860.43 297.762 860.07C298.442 859.69 298.982 859.13 299.382 858.39C299.782 857.65 299.982 856.75 299.982 855.69C299.982 854.11 299.562 852.9 298.722 852.06C297.902 851.2 296.892 850.77 295.692 850.77C294.492 850.77 293.482 851.2 292.662 852.06C291.862 852.9 291.462 854.11 291.462 855.69C291.462 857.27 291.852 858.49 292.632 859.35C293.432 860.19 294.432 860.61 295.632 860.61ZM313.893 847.11C315.133 847.11 316.223 847.36 317.163 847.86C318.103 848.34 318.843 848.97 319.383 849.75V847.38H323.613V864.12C323.613 865.66 323.303 867.03 322.683 868.23C322.063 869.45 321.133 870.41 319.893 871.11C318.653 871.83 317.153 872.19 315.393 872.19C313.033 872.19 311.093 871.64 309.573 870.54C308.073 869.44 307.223 867.94 307.023 866.04H311.193C311.413 866.8 311.883 867.4 312.603 867.84C313.343 868.3 314.233 868.53 315.273 868.53C316.493 868.53 317.483 868.16 318.243 867.42C319.003 866.7 319.383 865.6 319.383 864.12V861.54C318.843 862.32 318.093 862.97 317.133 863.49C316.193 864.01 315.113 864.27 313.893 864.27C312.493 864.27 311.213 863.91 310.053 863.19C308.893 862.47 307.973 861.46 307.292 860.16C306.632 858.84 306.302 857.33 306.302 855.63C306.302 853.95 306.632 852.46 307.292 851.16C307.973 849.86 308.883 848.86 310.023 848.16C311.183 847.46 312.473 847.11 313.893 847.11ZM319.383 855.69C319.383 854.67 319.183 853.8 318.783 853.08C318.383 852.34 317.843 851.78 317.163 851.4C316.483 851 315.753 850.8 314.973 850.8C314.193 850.8 313.473 850.99 312.812 851.37C312.153 851.75 311.613 852.31 311.193 853.05C310.793 853.77 310.593 854.63 310.593 855.63C310.593 856.63 310.793 857.51 311.193 858.27C311.613 859.01 312.153 859.58 312.812 859.98C313.493 860.38 314.213 860.58 314.973 860.58C315.753 860.58 316.483 860.39 317.163 860.01C317.843 859.61 318.383 859.05 318.783 858.33C319.183 857.59 319.383 856.71 319.383 855.69ZM331.915 849.96C332.455 849.08 333.155 848.39 334.015 847.89C334.895 847.39 335.895 847.14 337.015 847.14V851.55H335.905C334.585 851.55 333.585 851.86 332.905 852.48C332.245 853.1 331.915 854.18 331.915 855.72V864H327.715V847.38H331.915V849.96ZM338.763 855.63C338.763 853.95 339.093 852.46 339.753 851.16C340.433 849.86 341.343 848.86 342.483 848.16C343.643 847.46 344.933 847.11 346.353 847.11C347.593 847.11 348.673 847.36 349.593 847.86C350.533 848.36 351.283 848.99 351.843 849.75V847.38H356.073V864H351.843V861.57C351.303 862.35 350.553 863 349.593 863.52C348.653 864.02 347.563 864.27 346.323 864.27C344.923 864.27 343.643 863.91 342.483 863.19C341.343 862.47 340.433 861.46 339.753 860.16C339.093 858.84 338.763 857.33 338.763 855.63ZM351.843 855.69C351.843 854.67 351.643 853.8 351.243 853.08C350.843 852.34 350.303 851.78 349.623 851.4C348.943 851 348.213 850.8 347.433 850.8C346.653 850.8 345.933 850.99 345.273 851.37C344.613 851.75 344.073 852.31 343.653 853.05C343.253 853.77 343.053 854.63 343.053 855.63C343.053 856.63 343.253 857.51 343.653 858.27C344.073 859.01 344.613 859.58 345.273 859.98C345.953 860.38 346.673 860.58 347.433 860.58C348.213 860.58 348.943 860.39 349.623 860.01C350.303 859.61 350.843 859.05 351.243 858.33C351.643 857.59 351.843 856.71 351.843 855.69ZM380.815 847.14C382.855 847.14 384.495 847.77 385.735 849.03C386.995 850.27 387.625 852.01 387.625 854.25V864H383.425V854.82C383.425 853.52 383.095 852.53 382.435 851.85C381.775 851.15 380.875 850.8 379.735 850.8C378.595 850.8 377.685 851.15 377.005 851.85C376.345 852.53 376.015 853.52 376.015 854.82V864H371.815V854.82C371.815 853.52 371.485 852.53 370.825 851.85C370.165 851.15 369.265 850.8 368.125 850.8C366.965 850.8 366.045 851.15 365.365 851.85C364.705 852.53 364.375 853.52 364.375 854.82V864H360.175V847.38H364.375V849.39C364.915 848.69 365.605 848.14 366.445 847.74C367.305 847.34 368.245 847.14 369.265 847.14C370.565 847.14 371.725 847.42 372.745 847.98C373.765 848.52 374.555 849.3 375.115 850.32C375.655 849.36 376.435 848.59 377.455 848.01C378.495 847.43 379.615 847.14 380.815 847.14ZM390.531 855.63C390.531 853.95 390.861 852.46 391.521 851.16C392.201 849.86 393.111 848.86 394.251 848.16C395.411 847.46 396.701 847.11 398.121 847.11C399.361 847.11 400.441 847.36 401.361 847.86C402.301 848.36 403.051 848.99 403.611 849.75V847.38H407.841V864H403.611V861.57C403.071 862.35 402.321 863 401.361 863.52C400.421 864.02 399.331 864.27 398.091 864.27C396.691 864.27 395.411 863.91 394.251 863.19C393.111 862.47 392.201 861.46 391.521 860.16C390.861 858.84 390.531 857.33 390.531 855.63ZM403.611 855.69C403.611 854.67 403.411 853.8 403.011 853.08C402.611 852.34 402.071 851.78 401.391 851.4C400.711 851 399.981 850.8 399.201 850.8C398.421 850.8 397.701 850.99 397.041 851.37C396.381 851.75 395.841 852.31 395.421 853.05C395.021 853.77 394.821 854.63 394.821 855.63C394.821 856.63 395.021 857.51 395.421 858.27C395.841 859.01 396.381 859.58 397.041 859.98C397.721 860.38 398.441 860.58 399.201 860.58C399.981 860.58 400.711 860.39 401.391 860.01C402.071 859.61 402.611 859.05 403.011 858.33C403.411 857.59 403.611 856.71 403.611 855.69Z" fill="#E2E2E2"/>
<rect x="166.5" y="948.984" width="267.968" height="131.484" rx="65.742" fill="#3423A6" stroke="black" stroke-width="5"/>
<path d="M254.27 1007.45V1012.7H261.32V1016.03H254.27V1021.58H262.22V1025H250.07V1004.03H262.22V1007.45H254.27ZM264.957 1016.66C264.957 1015 265.297 1013.53 265.977 1012.25C266.677 1010.95 267.617 1009.94 268.797 1009.22C269.977 1008.5 271.277 1008.14 272.697 1008.14C273.877 1008.14 274.917 1008.37 275.817 1008.83C276.737 1009.27 277.477 1009.84 278.037 1010.54V1008.38H282.267V1032.92H278.037V1022.72C277.477 1023.44 276.727 1024.04 275.787 1024.52C274.847 1025 273.787 1025.24 272.607 1025.24C271.207 1025.24 269.917 1024.88 268.737 1024.16C267.577 1023.42 266.657 1022.4 265.977 1021.1C265.297 1019.8 264.957 1018.32 264.957 1016.66ZM278.037 1016.69C278.037 1015.67 277.827 1014.79 277.407 1014.05C276.987 1013.31 276.437 1012.75 275.757 1012.37C275.097 1011.99 274.387 1011.8 273.627 1011.8C272.887 1011.8 272.177 1011.99 271.497 1012.37C270.837 1012.75 270.297 1013.31 269.877 1014.05C269.457 1014.77 269.247 1015.64 269.247 1016.66C269.247 1017.68 269.457 1018.57 269.877 1019.33C270.297 1020.07 270.837 1020.63 271.497 1021.01C272.177 1021.39 272.887 1021.58 273.627 1021.58C274.387 1021.58 275.097 1021.39 275.757 1021.01C276.437 1020.63 276.987 1020.07 277.407 1019.33C277.827 1018.59 278.037 1017.71 278.037 1016.69ZM302.059 1008.38V1025H297.829V1022.9C297.289 1023.62 296.579 1024.19 295.699 1024.61C294.839 1025.01 293.899 1025.21 292.879 1025.21C291.579 1025.21 290.429 1024.94 289.429 1024.4C288.429 1023.84 287.639 1023.03 287.059 1021.97C286.499 1020.89 286.219 1019.61 286.219 1018.13V1008.38H290.419V1017.53C290.419 1018.85 290.749 1019.87 291.409 1020.59C292.069 1021.29 292.969 1021.64 294.109 1021.64C295.269 1021.64 296.179 1021.29 296.839 1020.59C297.499 1019.87 297.829 1018.85 297.829 1017.53V1008.38H302.059ZM308.333 1006.4C307.593 1006.4 306.973 1006.17 306.473 1005.71C305.993 1005.23 305.753 1004.64 305.753 1003.94C305.753 1003.24 305.993 1002.66 306.473 1002.2C306.973 1001.72 307.593 1001.48 308.333 1001.48C309.073 1001.48 309.683 1001.72 310.163 1002.2C310.663 1002.66 310.913 1003.24 310.913 1003.94C310.913 1004.64 310.663 1005.23 310.163 1005.71C309.683 1006.17 309.073 1006.4 308.333 1006.4ZM310.403 1008.38V1025H306.203V1008.38H310.403ZM318.752 1010.78C319.292 1010.02 320.032 1009.39 320.972 1008.89C321.932 1008.37 323.022 1008.11 324.242 1008.11C325.662 1008.11 326.942 1008.46 328.082 1009.16C329.242 1009.86 330.152 1010.86 330.812 1012.16C331.492 1013.44 331.832 1014.93 331.832 1016.63C331.832 1018.33 331.492 1019.84 330.812 1021.16C330.152 1022.46 329.242 1023.47 328.082 1024.19C326.942 1024.91 325.662 1025.27 324.242 1025.27C323.022 1025.27 321.942 1025.02 321.002 1024.52C320.082 1024.02 319.332 1023.39 318.752 1022.63V1032.92H314.552V1008.38H318.752V1010.78ZM327.542 1016.63C327.542 1015.63 327.332 1014.77 326.912 1014.05C326.512 1013.31 325.972 1012.75 325.292 1012.37C324.632 1011.99 323.912 1011.8 323.132 1011.8C322.372 1011.8 321.652 1012 320.972 1012.4C320.312 1012.78 319.772 1013.34 319.352 1014.08C318.952 1014.82 318.752 1015.69 318.752 1016.69C318.752 1017.69 318.952 1018.56 319.352 1019.3C319.772 1020.04 320.312 1020.61 320.972 1021.01C321.652 1021.39 322.372 1021.58 323.132 1021.58C323.912 1021.58 324.632 1021.38 325.292 1020.98C325.972 1020.58 326.512 1020.01 326.912 1019.27C327.332 1018.53 327.542 1017.65 327.542 1016.63ZM350.334 1016.33C350.334 1016.93 350.294 1017.47 350.214 1017.95H338.064C338.164 1019.15 338.584 1020.09 339.324 1020.77C340.064 1021.45 340.974 1021.79 342.054 1021.79C343.614 1021.79 344.724 1021.12 345.384 1019.78H349.914C349.434 1021.38 348.514 1022.7 347.154 1023.74C345.794 1024.76 344.124 1025.27 342.144 1025.27C340.544 1025.27 339.104 1024.92 337.824 1024.22C336.564 1023.5 335.574 1022.49 334.854 1021.19C334.154 1019.89 333.804 1018.39 333.804 1016.69C333.804 1014.97 334.154 1013.46 334.854 1012.16C335.554 1010.86 336.534 1009.86 337.794 1009.16C339.054 1008.46 340.504 1008.11 342.144 1008.11C343.724 1008.11 345.134 1008.45 346.374 1009.13C347.634 1009.81 348.604 1010.78 349.284 1012.04C349.984 1013.28 350.334 1014.71 350.334 1016.33ZM345.984 1015.13C345.964 1014.05 345.574 1013.19 344.814 1012.55C344.054 1011.89 343.124 1011.56 342.024 1011.56C340.984 1011.56 340.104 1011.88 339.384 1012.52C338.684 1013.14 338.254 1014.01 338.094 1015.13H345.984Z" fill="white"/>
<rect x="167.5" y="466.5" width="267.968" height="131.484" rx="65.742" fill="#C0330C" stroke="black" stroke-width="5"/>
<path d="M247.015 545L241.625 535.48H239.315V545H234.415V520.57H243.585C245.475 520.57 247.085 520.908 248.415 521.585C249.745 522.238 250.737 523.137 251.39 524.28C252.067 525.4 252.405 526.66 252.405 528.06C252.405 529.67 251.938 531.128 251.005 532.435C250.072 533.718 248.683 534.605 246.84 535.095L252.685 545H247.015ZM239.315 531.805H243.41C244.74 531.805 245.732 531.49 246.385 530.86C247.038 530.207 247.365 529.308 247.365 528.165C247.365 527.045 247.038 526.182 246.385 525.575C245.732 524.945 244.74 524.63 243.41 524.63H239.315V531.805ZM265.447 545.315C263.58 545.315 261.9 544.907 260.407 544.09C258.914 543.25 257.735 542.072 256.872 540.555C256.032 539.038 255.612 537.288 255.612 535.305C255.612 533.322 256.044 531.572 256.907 530.055C257.794 528.538 258.995 527.372 260.512 526.555C262.029 525.715 263.72 525.295 265.587 525.295C267.454 525.295 269.145 525.715 270.662 526.555C272.179 527.372 273.369 528.538 274.232 530.055C275.119 531.572 275.562 533.322 275.562 535.305C275.562 537.288 275.107 539.038 274.197 540.555C273.31 542.072 272.097 543.25 270.557 544.09C269.04 544.907 267.337 545.315 265.447 545.315ZM265.447 541.045C266.334 541.045 267.162 540.835 267.932 540.415C268.725 539.972 269.355 539.318 269.822 538.455C270.289 537.592 270.522 536.542 270.522 535.305C270.522 533.462 270.032 532.05 269.052 531.07C268.095 530.067 266.917 529.565 265.517 529.565C264.117 529.565 262.939 530.067 261.982 531.07C261.049 532.05 260.582 533.462 260.582 535.305C260.582 537.148 261.037 538.572 261.947 539.575C262.88 540.555 264.047 541.045 265.447 541.045ZM277.896 535.235C277.896 533.275 278.281 531.537 279.051 530.02C279.845 528.503 280.918 527.337 282.271 526.52C283.625 525.703 285.13 525.295 286.786 525.295C288.046 525.295 289.248 525.575 290.391 526.135C291.535 526.672 292.445 527.395 293.121 528.305V519.1H298.091V545H293.121V542.13C292.515 543.087 291.663 543.857 290.566 544.44C289.47 545.023 288.198 545.315 286.751 545.315C285.118 545.315 283.625 544.895 282.271 544.055C280.918 543.215 279.845 542.037 279.051 540.52C278.281 538.98 277.896 537.218 277.896 535.235ZM293.156 535.305C293.156 534.115 292.923 533.1 292.456 532.26C291.99 531.397 291.36 530.743 290.566 530.3C289.773 529.833 288.921 529.6 288.011 529.6C287.101 529.6 286.261 529.822 285.491 530.265C284.721 530.708 284.091 531.362 283.601 532.225C283.135 533.065 282.901 534.068 282.901 535.235C282.901 536.402 283.135 537.428 283.601 538.315C284.091 539.178 284.721 539.843 285.491 540.31C286.285 540.777 287.125 541.01 288.011 541.01C288.921 541.01 289.773 540.788 290.566 540.345C291.36 539.878 291.99 539.225 292.456 538.385C292.923 537.522 293.156 536.495 293.156 535.305ZM301.617 535.235C301.617 533.275 302.002 531.537 302.772 530.02C303.565 528.503 304.627 527.337 305.957 526.52C307.31 525.703 308.815 525.295 310.472 525.295C311.919 525.295 313.179 525.587 314.252 526.17C315.349 526.753 316.224 527.488 316.877 528.375V525.61H321.812V545H316.877V542.165C316.247 543.075 315.372 543.833 314.252 544.44C313.155 545.023 311.884 545.315 310.437 545.315C308.804 545.315 307.31 544.895 305.957 544.055C304.627 543.215 303.565 542.037 302.772 540.52C302.002 538.98 301.617 537.218 301.617 535.235ZM316.877 535.305C316.877 534.115 316.644 533.1 316.177 532.26C315.71 531.397 315.08 530.743 314.287 530.3C313.494 529.833 312.642 529.6 311.732 529.6C310.822 529.6 309.982 529.822 309.212 530.265C308.442 530.708 307.812 531.362 307.322 532.225C306.855 533.065 306.622 534.068 306.622 535.235C306.622 536.402 306.855 537.428 307.322 538.315C307.812 539.178 308.442 539.843 309.212 540.31C310.005 540.777 310.845 541.01 311.732 541.01C312.642 541.01 313.494 540.788 314.287 540.345C315.08 539.878 315.71 539.225 316.177 538.385C316.644 537.522 316.877 536.495 316.877 535.305ZM331.498 528.41C332.128 527.523 332.991 526.788 334.088 526.205C335.208 525.598 336.479 525.295 337.903 525.295C339.559 525.295 341.053 525.703 342.383 526.52C343.736 527.337 344.798 528.503 345.568 530.02C346.361 531.513 346.758 533.252 346.758 535.235C346.758 537.218 346.361 538.98 345.568 540.52C344.798 542.037 343.736 543.215 342.383 544.055C341.053 544.895 339.559 545.315 337.903 545.315C336.479 545.315 335.219 545.023 334.123 544.44C333.049 543.857 332.174 543.122 331.498 542.235V554.24H326.598V525.61H331.498V528.41ZM341.753 535.235C341.753 534.068 341.508 533.065 341.018 532.225C340.551 531.362 339.921 530.708 339.128 530.265C338.358 529.822 337.518 529.6 336.608 529.6C335.721 529.6 334.881 529.833 334.088 530.3C333.318 530.743 332.688 531.397 332.198 532.26C331.731 533.123 331.498 534.138 331.498 535.305C331.498 536.472 331.731 537.487 332.198 538.35C332.688 539.213 333.318 539.878 334.088 540.345C334.881 540.788 335.721 541.01 336.608 541.01C337.518 541.01 338.358 540.777 339.128 540.31C339.921 539.843 340.551 539.178 341.018 538.315C341.508 537.452 341.753 536.425 341.753 535.235ZM368.343 534.885C368.343 535.585 368.297 536.215 368.203 536.775H354.028C354.145 538.175 354.635 539.272 355.498 540.065C356.362 540.858 357.423 541.255 358.683 541.255C360.503 541.255 361.798 540.473 362.568 538.91H367.853C367.293 540.777 366.22 542.317 364.633 543.53C363.047 544.72 361.098 545.315 358.788 545.315C356.922 545.315 355.242 544.907 353.748 544.09C352.278 543.25 351.123 542.072 350.283 540.555C349.467 539.038 349.058 537.288 349.058 535.305C349.058 533.298 349.467 531.537 350.283 530.02C351.1 528.503 352.243 527.337 353.713 526.52C355.183 525.703 356.875 525.295 358.788 525.295C360.632 525.295 362.277 525.692 363.723 526.485C365.193 527.278 366.325 528.41 367.118 529.88C367.935 531.327 368.343 532.995 368.343 534.885ZM363.268 533.485C363.245 532.225 362.79 531.222 361.903 530.475C361.017 529.705 359.932 529.32 358.648 529.32C357.435 529.32 356.408 529.693 355.568 530.44C354.752 531.163 354.25 532.178 354.063 533.485H363.268ZM362.533 520.5L354.483 524.175V520.675L362.533 516.51V520.5Z" fill="#E2E2E2"/>
<path d="M301.768 598.224C300.791 597.248 299.209 597.248 298.232 598.224L282.322 614.134C281.346 615.111 281.346 616.694 282.322 617.67C283.299 618.646 284.882 618.646 285.858 617.67L300 603.528L314.142 617.67C315.118 618.646 316.701 618.646 317.678 617.67C318.654 616.694 318.654 615.111 317.678 614.134L301.768 598.224ZM298.232 733.775C299.209 734.751 300.791 734.751 301.768 733.775L317.678 717.865C318.654 716.889 318.654 715.306 317.678 714.33C316.701 713.353 315.118 713.353 314.142 714.33L300 728.472L285.858 714.33C284.882 713.353 283.299 713.353 282.322 714.33C281.346 715.306 281.346 716.889 282.322 717.865L298.232 733.775ZM297.5 599.992V732.007H302.5V599.992H297.5Z" fill="black"/>
<rect x="515.5" y="102.5" width="345" height="195" rx="97.5" fill="#2364AA" stroke="black" stroke-width="5"/>
<path d="M573.12 194.72C573.12 196.213 572.76 197.613 572.04 198.92C571.347 200.227 570.24 201.28 568.72 202.08C567.227 202.88 565.333 203.28 563.04 203.28H558.36V214H552.76V186.08H563.04C565.2 186.08 567.04 186.453 568.56 187.2C570.08 187.947 571.213 188.973 571.96 190.28C572.733 191.587 573.12 193.067 573.12 194.72ZM562.8 198.76C564.347 198.76 565.493 198.413 566.24 197.72C566.987 197 567.36 196 567.36 194.72C567.36 192 565.84 190.64 562.8 190.64H558.36V198.76H562.8ZM575.656 202.84C575.656 200.6 576.096 198.613 576.976 196.88C577.883 195.147 579.096 193.813 580.616 192.88C582.163 191.947 583.883 191.48 585.776 191.48C587.429 191.48 588.869 191.813 590.096 192.48C591.349 193.147 592.349 193.987 593.096 195V191.84H598.736V214H593.096V210.76C592.376 211.8 591.376 212.667 590.096 213.36C588.843 214.027 587.389 214.36 585.736 214.36C583.869 214.36 582.163 213.88 580.616 212.92C579.096 211.96 577.883 210.613 576.976 208.88C576.096 207.12 575.656 205.107 575.656 202.84ZM593.096 202.92C593.096 201.56 592.829 200.4 592.296 199.44C591.763 198.453 591.043 197.707 590.136 197.2C589.229 196.667 588.256 196.4 587.216 196.4C586.176 196.4 585.216 196.653 584.336 197.16C583.456 197.667 582.736 198.413 582.176 199.4C581.643 200.36 581.376 201.507 581.376 202.84C581.376 204.173 581.643 205.347 582.176 206.36C582.736 207.347 583.456 208.107 584.336 208.64C585.243 209.173 586.203 209.44 587.216 209.44C588.256 209.44 589.229 209.187 590.136 208.68C591.043 208.147 591.763 207.4 592.296 206.44C592.829 205.453 593.096 204.28 593.096 202.92ZM612.885 191.48C614.539 191.48 615.992 191.813 617.245 192.48C618.499 193.12 619.485 193.96 620.205 195V191.84H625.845V214.16C625.845 216.213 625.432 218.04 624.605 219.64C623.779 221.267 622.539 222.547 620.885 223.48C619.232 224.44 617.232 224.92 614.885 224.92C611.739 224.92 609.152 224.187 607.125 222.72C605.125 221.253 603.992 219.253 603.725 216.72H609.285C609.579 217.733 610.205 218.533 611.165 219.12C612.152 219.733 613.339 220.04 614.725 220.04C616.352 220.04 617.672 219.547 618.685 218.56C619.699 217.6 620.205 216.133 620.205 214.16V210.72C619.485 211.76 618.485 212.627 617.205 213.32C615.952 214.013 614.512 214.36 612.885 214.36C611.019 214.36 609.312 213.88 607.765 212.92C606.219 211.96 604.992 210.613 604.085 208.88C603.205 207.12 602.765 205.107 602.765 202.84C602.765 200.6 603.205 198.613 604.085 196.88C604.992 195.147 606.205 193.813 607.725 192.88C609.272 191.947 610.992 191.48 612.885 191.48ZM620.205 202.92C620.205 201.56 619.939 200.4 619.405 199.44C618.872 198.453 618.152 197.707 617.245 197.2C616.339 196.667 615.365 196.4 614.325 196.4C613.285 196.4 612.325 196.653 611.445 197.16C610.565 197.667 609.845 198.413 609.285 199.4C608.752 200.36 608.485 201.507 608.485 202.84C608.485 204.173 608.752 205.347 609.285 206.36C609.845 207.347 610.565 208.107 611.445 208.64C612.352 209.173 613.312 209.44 614.325 209.44C615.365 209.44 616.339 209.187 617.245 208.68C618.152 208.147 618.872 207.4 619.405 206.44C619.939 205.453 620.205 204.28 620.205 202.92ZM634.155 189.2C633.168 189.2 632.341 188.893 631.675 188.28C631.035 187.64 630.715 186.853 630.715 185.92C630.715 184.987 631.035 184.213 631.675 183.6C632.341 182.96 633.168 182.64 634.155 182.64C635.141 182.64 635.955 182.96 636.595 183.6C637.261 184.213 637.595 184.987 637.595 185.92C637.595 186.853 637.261 187.64 636.595 188.28C635.955 188.893 635.141 189.2 634.155 189.2ZM636.915 191.84V214H631.315V191.84H636.915ZM654.728 191.52C657.368 191.52 659.501 192.36 661.128 194.04C662.754 195.693 663.568 198.013 663.568 201V214H657.968V201.76C657.968 200 657.528 198.653 656.648 197.72C655.768 196.76 654.568 196.28 653.048 196.28C651.501 196.28 650.274 196.76 649.368 197.72C648.488 198.653 648.048 200 648.048 201.76V214H642.448V191.84H648.048V194.6C648.794 193.64 649.741 192.893 650.888 192.36C652.061 191.8 653.341 191.52 654.728 191.52ZM667.453 202.84C667.453 200.6 667.893 198.613 668.773 196.88C669.679 195.147 670.893 193.813 672.413 192.88C673.959 191.947 675.679 191.48 677.573 191.48C679.226 191.48 680.666 191.813 681.893 192.48C683.146 193.147 684.146 193.987 684.893 195V191.84H690.533V214H684.893V210.76C684.173 211.8 683.173 212.667 681.893 213.36C680.639 214.027 679.186 214.36 677.533 214.36C675.666 214.36 673.959 213.88 672.413 212.92C670.893 211.96 669.679 210.613 668.773 208.88C667.893 207.12 667.453 205.107 667.453 202.84ZM684.893 202.92C684.893 201.56 684.626 200.4 684.093 199.44C683.559 198.453 682.839 197.707 681.933 197.2C681.026 196.667 680.053 196.4 679.013 196.4C677.973 196.4 677.013 196.653 676.133 197.16C675.253 197.667 674.533 198.413 673.973 199.4C673.439 200.36 673.173 201.507 673.173 202.84C673.173 204.173 673.439 205.347 673.973 206.36C674.533 207.347 675.253 208.107 676.133 208.64C677.039 209.173 677.999 209.44 679.013 209.44C680.053 209.44 681.026 209.187 681.933 208.68C682.839 208.147 683.559 207.4 684.093 206.44C684.626 205.453 684.893 204.28 684.893 202.92ZM708.373 189.2C707.387 189.2 706.56 188.893 705.893 188.28C705.253 187.64 704.933 186.853 704.933 185.92C704.933 184.987 705.253 184.213 705.893 183.6C706.56 182.96 707.387 182.64 708.373 182.64C709.36 182.64 710.173 182.96 710.813 183.6C711.48 184.213 711.813 184.987 711.813 185.92C711.813 186.853 711.48 187.64 710.813 188.28C710.173 188.893 709.36 189.2 708.373 189.2ZM711.133 191.84V214H705.533V191.84H711.133ZM728.946 191.52C731.586 191.52 733.72 192.36 735.346 194.04C736.973 195.693 737.786 198.013 737.786 201V214H732.186V201.76C732.186 200 731.746 198.653 730.866 197.72C729.986 196.76 728.786 196.28 727.266 196.28C725.72 196.28 724.493 196.76 723.586 197.72C722.706 198.653 722.266 200 722.266 201.76V214H716.666V191.84H722.266V194.6C723.013 193.64 723.96 192.893 725.106 192.36C726.28 191.8 727.56 191.52 728.946 191.52ZM745.952 189.2C744.965 189.2 744.138 188.893 743.472 188.28C742.832 187.64 742.512 186.853 742.512 185.92C742.512 184.987 742.832 184.213 743.472 183.6C744.138 182.96 744.965 182.64 745.952 182.64C746.938 182.64 747.752 182.96 748.392 183.6C749.058 184.213 749.392 184.987 749.392 185.92C749.392 186.853 749.058 187.64 748.392 188.28C747.752 188.893 746.938 189.2 745.952 189.2ZM748.712 191.84V214H743.112V191.84H748.712ZM752.804 202.92C752.804 200.627 753.271 198.627 754.204 196.92C755.138 195.187 756.431 193.853 758.084 192.92C759.738 191.96 761.631 191.48 763.764 191.48C766.511 191.48 768.778 192.173 770.564 193.56C772.378 194.92 773.591 196.84 774.204 199.32H768.164C767.844 198.36 767.298 197.613 766.524 197.08C765.778 196.52 764.844 196.24 763.724 196.24C762.124 196.24 760.858 196.827 759.924 198C758.991 199.147 758.524 200.787 758.524 202.92C758.524 205.027 758.991 206.667 759.924 207.84C760.858 208.987 762.124 209.56 763.724 209.56C765.991 209.56 767.471 208.547 768.164 206.52H774.204C773.591 208.92 772.378 210.827 770.564 212.24C768.751 213.653 766.484 214.36 763.764 214.36C761.631 214.36 759.738 213.893 758.084 212.96C756.431 212 755.138 210.667 754.204 208.96C753.271 207.227 752.804 205.213 752.804 202.92ZM781.147 189.2C780.16 189.2 779.334 188.893 778.667 188.28C778.027 187.64 777.707 186.853 777.707 185.92C777.707 184.987 778.027 184.213 778.667 183.6C779.334 182.96 780.16 182.64 781.147 182.64C782.134 182.64 782.947 182.96 783.587 183.6C784.254 184.213 784.587 184.987 784.587 185.92C784.587 186.853 784.254 187.64 783.587 188.28C782.947 188.893 782.134 189.2 781.147 189.2ZM783.907 191.84V214H778.307V191.84H783.907ZM788 202.84C788 200.6 788.44 198.613 789.32 196.88C790.226 195.147 791.44 193.813 792.96 192.88C794.506 191.947 796.226 191.48 798.12 191.48C799.773 191.48 801.213 191.813 802.44 192.48C803.693 193.147 804.693 193.987 805.44 195V191.84H811.08V214H805.44V210.76C804.72 211.8 803.72 212.667 802.44 213.36C801.186 214.027 799.733 214.36 798.08 214.36C796.213 214.36 794.506 213.88 792.96 212.92C791.44 211.96 790.226 210.613 789.32 208.88C788.44 207.12 788 205.107 788 202.84ZM805.44 202.92C805.44 201.56 805.173 200.4 804.64 199.44C804.106 198.453 803.386 197.707 802.48 197.2C801.573 196.667 800.6 196.4 799.56 196.4C798.52 196.4 797.56 196.653 796.68 197.16C795.8 197.667 795.08 198.413 794.52 199.4C793.986 200.36 793.72 201.507 793.72 202.84C793.72 204.173 793.986 205.347 794.52 206.36C795.08 207.347 795.8 208.107 796.68 208.64C797.586 209.173 798.546 209.44 799.56 209.44C800.6 209.44 801.573 209.187 802.48 208.68C803.386 208.147 804.106 207.4 804.64 206.44C805.173 205.453 805.44 204.28 805.44 202.92ZM822.149 184.4V214H816.549V184.4H822.149Z" fill="white"/>
<path d="M939.771 534.764C940.746 533.786 940.742 532.203 939.764 531.229L923.823 515.351C922.844 514.376 921.262 514.379 920.287 515.358C919.313 516.336 919.316 517.919 920.294 518.893L934.464 533.007L920.351 547.177C919.376 548.156 919.379 549.738 920.358 550.713C921.336 551.687 922.919 551.684 923.893 550.706L939.771 534.764ZM684.5 300C684.5 358.184 684.496 402.082 688.44 435.07C692.383 468.058 700.326 490.686 716.672 505.893C732.982 521.065 757.212 528.427 792.636 532.057C828.093 535.691 875.311 535.625 938.005 535.5L937.995 530.5C875.189 530.625 828.282 530.684 793.145 527.083C757.976 523.479 735.143 516.247 720.078 502.232C705.049 488.251 697.304 467.098 693.404 434.477C689.504 401.856 689.5 358.316 689.5 300L684.5 300Z" fill="black"/>
<path d="M689.459 298.099C688.483 297.123 686.9 297.123 685.923 298.099L670.013 314.009C669.037 314.986 669.037 316.569 670.013 317.545C670.99 318.521 672.573 318.521 673.549 317.545L687.691 303.403L701.833 317.545C702.81 318.521 704.392 318.521 705.369 317.545C706.345 316.569 706.345 314.986 705.369 314.009L689.459 298.099ZM436.232 531.232C435.256 532.208 435.256 533.791 436.232 534.768L452.142 550.678C453.119 551.654 454.702 551.654 455.678 550.678C456.654 549.701 456.654 548.118 455.678 547.142L441.536 533L455.678 518.858C456.654 517.881 456.654 516.299 455.678 515.322C454.702 514.346 453.119 514.346 452.142 515.322L436.232 531.232ZM685.191 299.867C685.191 358.216 685.187 401.75 681.307 434.352C677.427 466.954 669.722 488.074 654.774 502.031C639.79 516.021 617.081 523.241 582.095 526.871C547.142 530.497 500.48 530.5 438 530.5L438 535.5C500.366 535.5 547.338 535.503 582.611 531.844C617.85 528.188 641.959 520.837 658.186 505.686C674.449 490.501 682.349 467.908 686.272 434.942C690.195 401.975 690.191 358.085 690.191 299.867L685.191 299.867Z" fill="black"/>
<rect x="790.5" y="772.5" width="267.968" height="131.484" rx="65.742" fill="#3423A6" stroke="black" stroke-width="5"/>
<path d="M866.485 832.215C866.485 833.335 866.215 834.385 865.675 835.365C865.155 836.345 864.325 837.135 863.185 837.735C862.065 838.335 860.645 838.635 858.925 838.635H855.415V846.675H851.215V825.735H858.925C860.545 825.735 861.925 826.015 863.065 826.575C864.205 827.135 865.055 827.905 865.615 828.885C866.195 829.865 866.485 830.975 866.485 832.215ZM858.745 835.245C859.905 835.245 860.765 834.985 861.325 834.465C861.885 833.925 862.165 833.175 862.165 832.215C862.165 830.175 861.025 829.155 858.745 829.155H855.415V835.245H858.745ZM873.667 832.635C874.207 831.755 874.907 831.065 875.767 830.565C876.647 830.065 877.647 829.815 878.767 829.815V834.225H877.657C876.337 834.225 875.337 834.535 874.657 835.155C873.997 835.775 873.667 836.855 873.667 838.395V846.675H869.467V830.055H873.667V832.635ZM888.976 846.945C887.376 846.945 885.936 846.595 884.656 845.895C883.376 845.175 882.366 844.165 881.626 842.865C880.906 841.565 880.546 840.065 880.546 838.365C880.546 836.665 880.916 835.165 881.656 833.865C882.416 832.565 883.446 831.565 884.746 830.865C886.046 830.145 887.496 829.785 889.096 829.785C890.696 829.785 892.146 830.145 893.446 830.865C894.746 831.565 895.766 832.565 896.506 833.865C897.266 835.165 897.646 836.665 897.646 838.365C897.646 840.065 897.256 841.565 896.476 842.865C895.716 844.165 894.676 845.175 893.356 845.895C892.056 846.595 890.596 846.945 888.976 846.945ZM888.976 843.285C889.736 843.285 890.446 843.105 891.106 842.745C891.786 842.365 892.326 841.805 892.726 841.065C893.126 840.325 893.326 839.425 893.326 838.365C893.326 836.785 892.906 835.575 892.066 834.735C891.246 833.875 890.236 833.445 889.036 833.445C887.836 833.445 886.826 833.875 886.006 834.735C885.206 835.575 884.806 836.785 884.806 838.365C884.806 839.945 885.196 841.165 885.976 842.025C886.776 842.865 887.776 843.285 888.976 843.285ZM899.646 838.305C899.646 836.625 899.976 835.135 900.636 833.835C901.316 832.535 902.236 831.535 903.396 830.835C904.556 830.135 905.846 829.785 907.266 829.785C908.346 829.785 909.376 830.025 910.356 830.505C911.336 830.965 912.116 831.585 912.696 832.365V824.475H916.956V846.675H912.696V844.215C912.176 845.035 911.446 845.695 910.506 846.195C909.566 846.695 908.476 846.945 907.236 846.945C905.836 846.945 904.556 846.585 903.396 845.865C902.236 845.145 901.316 844.135 900.636 842.835C899.976 841.515 899.646 840.005 899.646 838.305ZM912.726 838.365C912.726 837.345 912.526 836.475 912.126 835.755C911.726 835.015 911.186 834.455 910.506 834.075C909.826 833.675 909.096 833.475 908.316 833.475C907.536 833.475 906.816 833.665 906.156 834.045C905.496 834.425 904.956 834.985 904.536 835.725C904.136 836.445 903.936 837.305 903.936 838.305C903.936 839.305 904.136 840.185 904.536 840.945C904.956 841.685 905.496 842.255 906.156 842.655C906.836 843.055 907.556 843.255 908.316 843.255C909.096 843.255 909.826 843.065 910.506 842.685C911.186 842.285 911.726 841.725 912.126 841.005C912.526 840.265 912.726 839.385 912.726 838.365ZM936.749 830.055V846.675H932.519V844.575C931.979 845.295 931.269 845.865 930.389 846.285C929.529 846.685 928.589 846.885 927.569 846.885C926.269 846.885 925.119 846.615 924.119 846.075C923.119 845.515 922.329 844.705 921.749 843.645C921.189 842.565 920.909 841.285 920.909 839.805V830.055H925.109V839.205C925.109 840.525 925.439 841.545 926.099 842.265C926.759 842.965 927.659 843.315 928.799 843.315C929.959 843.315 930.869 842.965 931.529 842.265C932.189 841.545 932.519 840.525 932.519 839.205V830.055H936.749ZM945.783 833.505V841.545C945.783 842.105 945.913 842.515 946.173 842.775C946.453 843.015 946.913 843.135 947.553 843.135H949.503V846.675H946.863C943.323 846.675 941.553 844.955 941.553 841.515V833.505H939.573V830.055H941.553V825.945H945.783V830.055H949.503V833.505H945.783ZM959.903 846.945C958.303 846.945 956.863 846.595 955.583 845.895C954.303 845.175 953.293 844.165 952.553 842.865C951.833 841.565 951.473 840.065 951.473 838.365C951.473 836.665 951.843 835.165 952.583 833.865C953.343 832.565 954.373 831.565 955.673 830.865C956.973 830.145 958.423 829.785 960.023 829.785C961.623 829.785 963.073 830.145 964.373 830.865C965.673 831.565 966.693 832.565 967.433 833.865C968.193 835.165 968.573 836.665 968.573 838.365C968.573 840.065 968.183 841.565 967.403 842.865C966.643 844.165 965.603 845.175 964.283 845.895C962.983 846.595 961.523 846.945 959.903 846.945ZM959.903 843.285C960.663 843.285 961.373 843.105 962.033 842.745C962.713 842.365 963.253 841.805 963.653 841.065C964.053 840.325 964.253 839.425 964.253 838.365C964.253 836.785 963.833 835.575 962.993 834.735C962.173 833.875 961.163 833.445 959.963 833.445C958.763 833.445 957.753 833.875 956.933 834.735C956.133 835.575 955.733 836.785 955.733 838.365C955.733 839.945 956.123 841.165 956.903 842.025C957.703 842.865 958.703 843.285 959.903 843.285ZM978.014 846.945C976.654 846.945 975.434 846.705 974.354 846.225C973.274 845.725 972.414 845.055 971.774 844.215C971.154 843.375 970.814 842.445 970.754 841.425H974.984C975.064 842.065 975.374 842.595 975.914 843.015C976.474 843.435 977.164 843.645 977.984 843.645C978.784 843.645 979.404 843.485 979.844 843.165C980.304 842.845 980.534 842.435 980.534 841.935C980.534 841.395 980.254 840.995 979.694 840.735C979.154 840.455 978.284 840.155 977.084 839.835C975.844 839.535 974.824 839.225 974.024 838.905C973.244 838.585 972.564 838.095 971.984 837.435C971.424 836.775 971.144 835.885 971.144 834.765C971.144 833.845 971.404 833.005 971.924 832.245C972.464 831.485 973.224 830.885 974.204 830.445C975.204 830.005 976.374 829.785 977.714 829.785C979.694 829.785 981.274 830.285 982.454 831.285C983.634 832.265 984.284 833.595 984.404 835.275H980.384C980.324 834.615 980.044 834.095 979.544 833.715C979.064 833.315 978.414 833.115 977.594 833.115C976.834 833.115 976.244 833.255 975.824 833.535C975.424 833.815 975.224 834.205 975.224 834.705C975.224 835.265 975.504 835.695 976.064 835.995C976.624 836.275 977.494 836.565 978.674 836.865C979.874 837.165 980.864 837.475 981.644 837.795C982.424 838.115 983.094 838.615 983.654 839.295C984.234 839.955 984.534 840.835 984.554 841.935C984.554 842.895 984.284 843.755 983.744 844.515C983.224 845.275 982.464 845.875 981.464 846.315C980.484 846.735 979.334 846.945 978.014 846.945Z" fill="white"/>
<rect x="1088.47" y="772.5" width="267.968" height="131.484" rx="65.742" fill="#3423A6" stroke="black" stroke-width="5"/>
<path d="M1144.65 825.735V846.675H1140.45V825.735H1144.65ZM1158.01 829.815C1159.99 829.815 1161.59 830.445 1162.81 831.705C1164.03 832.945 1164.64 834.685 1164.64 836.925V846.675H1160.44V837.495C1160.44 836.175 1160.11 835.165 1159.45 834.465C1158.79 833.745 1157.89 833.385 1156.75 833.385C1155.59 833.385 1154.67 833.745 1153.99 834.465C1153.33 835.165 1153 836.175 1153 837.495V846.675H1148.8V830.055H1153V832.125C1153.56 831.405 1154.27 830.845 1155.13 830.445C1156.01 830.025 1156.97 829.815 1158.01 829.815ZM1167.55 838.305C1167.55 836.625 1167.88 835.135 1168.54 833.835C1169.22 832.535 1170.14 831.535 1171.3 830.835C1172.46 830.135 1173.75 829.785 1175.17 829.785C1176.25 829.785 1177.28 830.025 1178.26 830.505C1179.24 830.965 1180.02 831.585 1180.6 832.365V824.475H1184.86V846.675H1180.6V844.215C1180.08 845.035 1179.35 845.695 1178.41 846.195C1177.47 846.695 1176.38 846.945 1175.14 846.945C1173.74 846.945 1172.46 846.585 1171.3 845.865C1170.14 845.145 1169.22 844.135 1168.54 842.835C1167.88 841.515 1167.55 840.005 1167.55 838.305ZM1180.63 838.365C1180.63 837.345 1180.43 836.475 1180.03 835.755C1179.63 835.015 1179.09 834.455 1178.41 834.075C1177.73 833.675 1177 833.475 1176.22 833.475C1175.44 833.475 1174.72 833.665 1174.06 834.045C1173.4 834.425 1172.86 834.985 1172.44 835.725C1172.04 836.445 1171.84 837.305 1171.84 838.305C1171.84 839.305 1172.04 840.185 1172.44 840.945C1172.86 841.685 1173.4 842.255 1174.06 842.655C1174.74 843.055 1175.46 843.255 1176.22 843.255C1177 843.255 1177.73 843.065 1178.41 842.685C1179.09 842.285 1179.63 841.725 1180.03 841.005C1180.43 840.265 1180.63 839.385 1180.63 838.365ZM1204.65 830.055V846.675H1200.42V844.575C1199.88 845.295 1199.17 845.865 1198.29 846.285C1197.43 846.685 1196.49 846.885 1195.47 846.885C1194.17 846.885 1193.02 846.615 1192.02 846.075C1191.02 845.515 1190.23 844.705 1189.65 843.645C1189.09 842.565 1188.81 841.285 1188.81 839.805V830.055H1193.01V839.205C1193.01 840.525 1193.34 841.545 1194 842.265C1194.66 842.965 1195.56 843.315 1196.7 843.315C1197.86 843.315 1198.77 842.965 1199.43 842.265C1200.09 841.545 1200.42 840.525 1200.42 839.205V830.055H1204.65ZM1200.09 825.735L1193.19 828.885V825.885L1200.09 822.315V825.735ZM1215.16 846.945C1213.8 846.945 1212.58 846.705 1211.5 846.225C1210.42 845.725 1209.56 845.055 1208.92 844.215C1208.3 843.375 1207.96 842.445 1207.9 841.425H1212.13C1212.21 842.065 1212.52 842.595 1213.06 843.015C1213.62 843.435 1214.31 843.645 1215.13 843.645C1215.93 843.645 1216.55 843.485 1216.99 843.165C1217.45 842.845 1217.68 842.435 1217.68 841.935C1217.68 841.395 1217.4 840.995 1216.84 840.735C1216.3 840.455 1215.43 840.155 1214.23 839.835C1212.99 839.535 1211.97 839.225 1211.17 838.905C1210.39 838.585 1209.71 838.095 1209.13 837.435C1208.57 836.775 1208.29 835.885 1208.29 834.765C1208.29 833.845 1208.55 833.005 1209.07 832.245C1209.61 831.485 1210.37 830.885 1211.35 830.445C1212.35 830.005 1213.52 829.785 1214.86 829.785C1216.84 829.785 1218.42 830.285 1219.6 831.285C1220.78 832.265 1221.43 833.595 1221.55 835.275H1217.53C1217.47 834.615 1217.19 834.095 1216.69 833.715C1216.21 833.315 1215.56 833.115 1214.74 833.115C1213.98 833.115 1213.39 833.255 1212.97 833.535C1212.57 833.815 1212.37 834.205 1212.37 834.705C1212.37 835.265 1212.65 835.695 1213.21 835.995C1213.77 836.275 1214.64 836.565 1215.82 836.865C1217.02 837.165 1218.01 837.475 1218.79 837.795C1219.57 838.115 1220.24 838.615 1220.8 839.295C1221.38 839.955 1221.68 840.835 1221.7 841.935C1221.7 842.895 1221.43 843.755 1220.89 844.515C1220.37 845.275 1219.61 845.875 1218.61 846.315C1217.63 846.735 1216.48 846.945 1215.16 846.945ZM1230.04 833.505V841.545C1230.04 842.105 1230.17 842.515 1230.43 842.775C1230.71 843.015 1231.17 843.135 1231.81 843.135H1233.76V846.675H1231.12C1227.58 846.675 1225.81 844.955 1225.81 841.515V833.505H1223.83V830.055H1225.81V825.945H1230.04V830.055H1233.76V833.505H1230.04ZM1240.98 832.635C1241.52 831.755 1242.22 831.065 1243.08 830.565C1243.96 830.065 1244.96 829.815 1246.08 829.815V834.225H1244.97C1243.65 834.225 1242.65 834.535 1241.97 835.155C1241.31 835.775 1240.98 836.855 1240.98 838.395V846.675H1236.78V830.055H1240.98V832.635ZM1251.04 828.075C1250.3 828.075 1249.68 827.845 1249.18 827.385C1248.7 826.905 1248.46 826.315 1248.46 825.615C1248.46 824.915 1248.7 824.335 1249.18 823.875C1249.68 823.395 1250.3 823.155 1251.04 823.155C1251.78 823.155 1252.39 823.395 1252.87 823.875C1253.37 824.335 1253.62 824.915 1253.62 825.615C1253.62 826.315 1253.37 826.905 1252.87 827.385C1252.39 827.845 1251.78 828.075 1251.04 828.075ZM1253.11 830.055V846.675H1248.91V830.055H1253.11ZM1256.17 838.305C1256.17 836.625 1256.5 835.135 1257.16 833.835C1257.84 832.535 1258.75 831.535 1259.89 830.835C1261.05 830.135 1262.34 829.785 1263.76 829.785C1265 829.785 1266.08 830.035 1267 830.535C1267.94 831.035 1268.69 831.665 1269.25 832.425V830.055H1273.48V846.675H1269.25V844.245C1268.71 845.025 1267.96 845.675 1267 846.195C1266.06 846.695 1264.97 846.945 1263.73 846.945C1262.33 846.945 1261.05 846.585 1259.89 845.865C1258.75 845.145 1257.84 844.135 1257.16 842.835C1256.5 841.515 1256.17 840.005 1256.17 838.305ZM1269.25 838.365C1269.25 837.345 1269.05 836.475 1268.65 835.755C1268.25 835.015 1267.71 834.455 1267.03 834.075C1266.35 833.675 1265.62 833.475 1264.84 833.475C1264.06 833.475 1263.34 833.665 1262.68 834.045C1262.02 834.425 1261.48 834.985 1261.06 835.725C1260.66 836.445 1260.46 837.305 1260.46 838.305C1260.46 839.305 1260.66 840.185 1261.06 840.945C1261.48 841.685 1262.02 842.255 1262.68 842.655C1263.36 843.055 1264.08 843.255 1264.84 843.255C1265.62 843.255 1266.35 843.065 1267.03 842.685C1267.71 842.285 1268.25 841.725 1268.65 841.005C1269.05 840.265 1269.25 839.385 1269.25 838.365ZM1283.95 846.945C1282.59 846.945 1281.37 846.705 1280.29 846.225C1279.21 845.725 1278.35 845.055 1277.71 844.215C1277.09 843.375 1276.75 842.445 1276.69 841.425H1280.92C1281 842.065 1281.31 842.595 1281.85 843.015C1282.41 843.435 1283.1 843.645 1283.92 843.645C1284.72 843.645 1285.34 843.485 1285.78 843.165C1286.24 842.845 1286.47 842.435 1286.47 841.935C1286.47 841.395 1286.19 840.995 1285.63 840.735C1285.09 840.455 1284.22 840.155 1283.02 839.835C1281.78 839.535 1280.76 839.225 1279.96 838.905C1279.18 838.585 1278.5 838.095 1277.92 837.435C1277.36 836.775 1277.08 835.885 1277.08 834.765C1277.08 833.845 1277.34 833.005 1277.86 832.245C1278.4 831.485 1279.16 830.885 1280.14 830.445C1281.14 830.005 1282.31 829.785 1283.65 829.785C1285.63 829.785 1287.21 830.285 1288.39 831.285C1289.57 832.265 1290.22 833.595 1290.34 835.275H1286.32C1286.26 834.615 1285.98 834.095 1285.48 833.715C1285 833.315 1284.35 833.115 1283.53 833.115C1282.77 833.115 1282.18 833.255 1281.76 833.535C1281.36 833.815 1281.16 834.205 1281.16 834.705C1281.16 835.265 1281.44 835.695 1282 835.995C1282.56 836.275 1283.43 836.565 1284.61 836.865C1285.81 837.165 1286.8 837.475 1287.58 837.795C1288.36 838.115 1289.03 838.615 1289.59 839.295C1290.17 839.955 1290.47 840.835 1290.49 841.935C1290.49 842.895 1290.22 843.755 1289.68 844.515C1289.16 845.275 1288.4 845.875 1287.4 846.315C1286.42 846.735 1285.27 846.945 1283.95 846.945Z" fill="white"/>
<rect x="790.5" y="958.5" width="267.968" height="131.484" rx="65.742" fill="#3423A6" stroke="black" stroke-width="5"/>
<path d="M832.39 1028.68H824.05L822.67 1032.67H818.26L825.79 1011.7H830.68L838.21 1032.67H833.77L832.39 1028.68ZM831.25 1025.32L828.22 1016.56L825.19 1025.32H831.25ZM845.225 1018.45C845.765 1017.69 846.505 1017.06 847.445 1016.56C848.405 1016.04 849.495 1015.78 850.715 1015.78C852.135 1015.78 853.415 1016.13 854.555 1016.83C855.715 1017.53 856.625 1018.53 857.285 1019.83C857.965 1021.11 858.305 1022.6 858.305 1024.3C858.305 1026 857.965 1027.51 857.285 1028.83C856.625 1030.13 855.715 1031.14 854.555 1031.86C853.415 1032.58 852.135 1032.94 850.715 1032.94C849.495 1032.94 848.415 1032.69 847.475 1032.19C846.555 1031.69 845.805 1031.06 845.225 1030.3V1040.59H841.025V1016.05H845.225V1018.45ZM854.015 1024.3C854.015 1023.3 853.805 1022.44 853.385 1021.72C852.985 1020.98 852.445 1020.42 851.765 1020.04C851.105 1019.66 850.385 1019.47 849.605 1019.47C848.845 1019.47 848.125 1019.67 847.445 1020.07C846.785 1020.45 846.245 1021.01 845.825 1021.75C845.425 1022.49 845.225 1023.36 845.225 1024.36C845.225 1025.36 845.425 1026.23 845.825 1026.97C846.245 1027.71 846.785 1028.28 847.445 1028.68C848.125 1029.06 848.845 1029.25 849.605 1029.25C850.385 1029.25 851.105 1029.05 851.765 1028.65C852.445 1028.25 852.985 1027.68 853.385 1026.94C853.805 1026.2 854.015 1025.32 854.015 1024.3ZM865.557 1018.63C866.097 1017.75 866.797 1017.06 867.657 1016.56C868.537 1016.06 869.537 1015.81 870.657 1015.81V1020.22H869.547C868.227 1020.22 867.227 1020.53 866.547 1021.15C865.887 1021.77 865.557 1022.85 865.557 1024.39V1032.67H861.357V1016.05H865.557V1018.63ZM888.936 1024C888.936 1024.6 888.896 1025.14 888.816 1025.62H876.666C876.766 1026.82 877.186 1027.76 877.926 1028.44C878.666 1029.12 879.576 1029.46 880.656 1029.46C882.216 1029.46 883.326 1028.79 883.986 1027.45H888.516C888.036 1029.05 887.116 1030.37 885.756 1031.41C884.396 1032.43 882.726 1032.94 880.746 1032.94C879.146 1032.94 877.706 1032.59 876.426 1031.89C875.166 1031.17 874.176 1030.16 873.456 1028.86C872.756 1027.56 872.406 1026.06 872.406 1024.36C872.406 1022.64 872.756 1021.13 873.456 1019.83C874.156 1018.53 875.136 1017.53 876.396 1016.83C877.656 1016.13 879.106 1015.78 880.746 1015.78C882.326 1015.78 883.736 1016.12 884.976 1016.8C886.236 1017.48 887.206 1018.45 887.886 1019.71C888.586 1020.95 888.936 1022.38 888.936 1024ZM884.586 1022.8C884.566 1021.72 884.176 1020.86 883.416 1020.22C882.656 1019.56 881.726 1019.23 880.626 1019.23C879.586 1019.23 878.706 1019.55 877.986 1020.19C877.286 1020.81 876.856 1021.68 876.696 1022.8H884.586ZM901.212 1015.81C903.192 1015.81 904.792 1016.44 906.012 1017.7C907.232 1018.94 907.842 1020.68 907.842 1022.92V1032.67H903.642V1023.49C903.642 1022.17 903.312 1021.16 902.652 1020.46C901.992 1019.74 901.092 1019.38 899.952 1019.38C898.792 1019.38 897.872 1019.74 897.192 1020.46C896.532 1021.16 896.202 1022.17 896.202 1023.49V1032.67H892.002V1016.05H896.202V1018.12C896.762 1017.4 897.472 1016.84 898.332 1016.44C899.212 1016.02 900.172 1015.81 901.212 1015.81ZM910.756 1024.3C910.756 1022.62 911.086 1021.13 911.746 1019.83C912.426 1018.53 913.346 1017.53 914.506 1016.83C915.666 1016.13 916.956 1015.78 918.376 1015.78C919.456 1015.78 920.486 1016.02 921.466 1016.5C922.446 1016.96 923.226 1017.58 923.806 1018.36V1010.47H928.066V1032.67H923.806V1030.21C923.286 1031.03 922.556 1031.69 921.616 1032.19C920.676 1032.69 919.586 1032.94 918.346 1032.94C916.946 1032.94 915.666 1032.58 914.506 1031.86C913.346 1031.14 912.426 1030.13 911.746 1028.83C911.086 1027.51 910.756 1026 910.756 1024.3ZM923.836 1024.36C923.836 1023.34 923.636 1022.47 923.236 1021.75C922.836 1021.01 922.296 1020.45 921.616 1020.07C920.936 1019.67 920.206 1019.47 919.426 1019.47C918.646 1019.47 917.926 1019.66 917.266 1020.04C916.606 1020.42 916.066 1020.98 915.646 1021.72C915.246 1022.44 915.046 1023.3 915.046 1024.3C915.046 1025.3 915.246 1026.18 915.646 1026.94C916.066 1027.68 916.606 1028.25 917.266 1028.65C917.946 1029.05 918.666 1029.25 919.426 1029.25C920.206 1029.25 920.936 1029.06 921.616 1028.68C922.296 1028.28 922.836 1027.72 923.236 1027C923.636 1026.26 923.836 1025.38 923.836 1024.36ZM934.298 1014.07C933.558 1014.07 932.938 1013.84 932.438 1013.38C931.958 1012.9 931.718 1012.31 931.718 1011.61C931.718 1010.91 931.958 1010.33 932.438 1009.87C932.938 1009.39 933.558 1009.15 934.298 1009.15C935.038 1009.15 935.648 1009.39 936.128 1009.87C936.628 1010.33 936.878 1010.91 936.878 1011.61C936.878 1012.31 936.628 1012.9 936.128 1013.38C935.648 1013.84 935.038 1014.07 934.298 1014.07ZM936.368 1016.05V1032.67H932.168V1016.05H936.368ZM944.357 1029.22H951.767V1032.67H939.587V1029.28L946.847 1019.5H939.617V1016.05H951.677V1019.44L944.357 1029.22ZM953.939 1024.3C953.939 1022.62 954.269 1021.13 954.929 1019.83C955.609 1018.53 956.519 1017.53 957.659 1016.83C958.819 1016.13 960.109 1015.78 961.529 1015.78C962.769 1015.78 963.849 1016.03 964.769 1016.53C965.709 1017.03 966.459 1017.66 967.019 1018.42V1016.05H971.249V1032.67H967.019V1030.24C966.479 1031.02 965.729 1031.67 964.769 1032.19C963.829 1032.69 962.739 1032.94 961.499 1032.94C960.099 1032.94 958.819 1032.58 957.659 1031.86C956.519 1031.14 955.609 1030.13 954.929 1028.83C954.269 1027.51 953.939 1026 953.939 1024.3ZM967.019 1024.36C967.019 1023.34 966.819 1022.47 966.419 1021.75C966.019 1021.01 965.479 1020.45 964.799 1020.07C964.119 1019.67 963.389 1019.47 962.609 1019.47C961.829 1019.47 961.109 1019.66 960.449 1020.04C959.789 1020.42 959.249 1020.98 958.829 1021.72C958.429 1022.44 958.229 1023.3 958.229 1024.3C958.229 1025.3 958.429 1026.18 958.829 1026.94C959.249 1027.68 959.789 1028.25 960.449 1028.65C961.129 1029.05 961.849 1029.25 962.609 1029.25C963.389 1029.25 964.119 1029.06 964.799 1028.68C965.479 1028.28 966.019 1027.72 966.419 1027C966.819 1026.26 967.019 1025.38 967.019 1024.36ZM974.271 1024.3C974.271 1022.62 974.601 1021.13 975.261 1019.83C975.941 1018.53 976.861 1017.53 978.021 1016.83C979.181 1016.13 980.471 1015.78 981.891 1015.78C982.971 1015.78 984.001 1016.02 984.981 1016.5C985.961 1016.96 986.741 1017.58 987.321 1018.36V1010.47H991.581V1032.67H987.321V1030.21C986.801 1031.03 986.071 1031.69 985.131 1032.19C984.191 1032.69 983.101 1032.94 981.861 1032.94C980.461 1032.94 979.181 1032.58 978.021 1031.86C976.861 1031.14 975.941 1030.13 975.261 1028.83C974.601 1027.51 974.271 1026 974.271 1024.3ZM987.351 1024.36C987.351 1023.34 987.151 1022.47 986.751 1021.75C986.351 1021.01 985.811 1020.45 985.131 1020.07C984.451 1019.67 983.721 1019.47 982.941 1019.47C982.161 1019.47 981.441 1019.66 980.781 1020.04C980.121 1020.42 979.581 1020.98 979.161 1021.72C978.761 1022.44 978.561 1023.3 978.561 1024.3C978.561 1025.3 978.761 1026.18 979.161 1026.94C979.581 1027.68 980.121 1028.25 980.781 1028.65C981.461 1029.05 982.181 1029.25 982.941 1029.25C983.721 1029.25 984.451 1029.06 985.131 1028.68C985.811 1028.28 986.351 1027.72 986.751 1027C987.151 1026.26 987.351 1025.38 987.351 1024.36ZM1003.06 1032.94C1001.46 1032.94 1000.02 1032.59 998.743 1031.89C997.463 1031.17 996.453 1030.16 995.713 1028.86C994.993 1027.56 994.633 1026.06 994.633 1024.36C994.633 1022.66 995.003 1021.16 995.743 1019.86C996.503 1018.56 997.533 1017.56 998.833 1016.86C1000.13 1016.14 1001.58 1015.78 1003.18 1015.78C1004.78 1015.78 1006.23 1016.14 1007.53 1016.86C1008.83 1017.56 1009.85 1018.56 1010.59 1019.86C1011.35 1021.16 1011.73 1022.66 1011.73 1024.36C1011.73 1026.06 1011.34 1027.56 1010.56 1028.86C1009.8 1030.16 1008.76 1031.17 1007.44 1031.89C1006.14 1032.59 1004.68 1032.94 1003.06 1032.94ZM1003.06 1029.28C1003.82 1029.28 1004.53 1029.1 1005.19 1028.74C1005.87 1028.36 1006.41 1027.8 1006.81 1027.06C1007.21 1026.32 1007.41 1025.42 1007.41 1024.36C1007.41 1022.78 1006.99 1021.57 1006.15 1020.73C1005.33 1019.87 1004.32 1019.44 1003.12 1019.44C1001.92 1019.44 1000.91 1019.87 1000.09 1020.73C999.293 1021.57 998.893 1022.78 998.893 1024.36C998.893 1025.94 999.283 1027.16 1000.06 1028.02C1000.86 1028.86 1001.86 1029.28 1003.06 1029.28Z" fill="white"/>
<rect x="790.5" y="1145.47" width="267.968" height="131.484" rx="65.742" fill="#3423A6" stroke="black" stroke-width="5"/>
<path d="M868.272 1219.85C866.812 1219.85 865.492 1219.6 864.312 1219.1C863.152 1218.6 862.232 1217.88 861.552 1216.94C860.872 1216 860.522 1214.89 860.502 1213.61H865.002C865.062 1214.47 865.362 1215.15 865.902 1215.65C866.462 1216.15 867.222 1216.4 868.182 1216.4C869.162 1216.4 869.932 1216.17 870.492 1215.71C871.052 1215.23 871.332 1214.61 871.332 1213.85C871.332 1213.23 871.142 1212.72 870.762 1212.32C870.382 1211.92 869.902 1211.61 869.322 1211.39C868.762 1211.15 867.982 1210.89 866.982 1210.61C865.622 1210.21 864.512 1209.82 863.652 1209.44C862.812 1209.04 862.082 1208.45 861.462 1207.67C860.862 1206.87 860.562 1205.81 860.562 1204.49C860.562 1203.25 860.872 1202.17 861.492 1201.25C862.112 1200.33 862.982 1199.63 864.102 1199.15C865.222 1198.65 866.502 1198.4 867.942 1198.4C870.102 1198.4 871.852 1198.93 873.192 1199.99C874.552 1201.03 875.302 1202.49 875.442 1204.37H870.822C870.782 1203.65 870.472 1203.06 869.892 1202.6C869.332 1202.12 868.582 1201.88 867.642 1201.88C866.822 1201.88 866.162 1202.09 865.662 1202.51C865.182 1202.93 864.942 1203.54 864.942 1204.34C864.942 1204.9 865.122 1205.37 865.482 1205.75C865.862 1206.11 866.322 1206.41 866.862 1206.65C867.422 1206.87 868.202 1207.13 869.202 1207.43C870.562 1207.83 871.672 1208.23 872.532 1208.63C873.392 1209.03 874.132 1209.63 874.752 1210.43C875.372 1211.23 875.682 1212.28 875.682 1213.58C875.682 1214.7 875.392 1215.74 874.812 1216.7C874.232 1217.66 873.382 1218.43 872.262 1219.01C871.142 1219.57 869.812 1219.85 868.272 1219.85ZM895.013 1203.02V1219.64H890.783V1217.54C890.243 1218.26 889.533 1218.83 888.653 1219.25C887.793 1219.65 886.853 1219.85 885.833 1219.85C884.533 1219.85 883.383 1219.58 882.383 1219.04C881.383 1218.48 880.593 1217.67 880.013 1216.61C879.453 1215.53 879.173 1214.25 879.173 1212.77V1203.02H883.373V1212.17C883.373 1213.49 883.703 1214.51 884.363 1215.23C885.023 1215.93 885.923 1216.28 887.063 1216.28C888.223 1216.28 889.133 1215.93 889.793 1215.23C890.453 1214.51 890.783 1213.49 890.783 1212.17V1203.02H895.013ZM903.357 1205.42C903.897 1204.66 904.637 1204.03 905.577 1203.53C906.537 1203.01 907.627 1202.75 908.847 1202.75C910.267 1202.75 911.547 1203.1 912.687 1203.8C913.847 1204.5 914.757 1205.5 915.417 1206.8C916.097 1208.08 916.437 1209.57 916.437 1211.27C916.437 1212.97 916.097 1214.48 915.417 1215.8C914.757 1217.1 913.847 1218.11 912.687 1218.83C911.547 1219.55 910.267 1219.91 908.847 1219.91C907.627 1219.91 906.547 1219.66 905.607 1219.16C904.687 1218.66 903.937 1218.03 903.357 1217.27V1227.56H899.157V1203.02H903.357V1205.42ZM912.147 1211.27C912.147 1210.27 911.937 1209.41 911.517 1208.69C911.117 1207.95 910.577 1207.39 909.897 1207.01C909.237 1206.63 908.517 1206.44 907.737 1206.44C906.977 1206.44 906.257 1206.64 905.577 1207.04C904.917 1207.42 904.377 1207.98 903.957 1208.72C903.557 1209.46 903.357 1210.33 903.357 1211.33C903.357 1212.33 903.557 1213.2 903.957 1213.94C904.377 1214.68 904.917 1215.25 905.577 1215.65C906.257 1216.03 906.977 1216.22 907.737 1216.22C908.517 1216.22 909.237 1216.02 909.897 1215.62C910.577 1215.22 911.117 1214.65 911.517 1213.91C911.937 1213.17 912.147 1212.29 912.147 1211.27ZM926.869 1219.91C925.269 1219.91 923.829 1219.56 922.549 1218.86C921.269 1218.14 920.259 1217.13 919.519 1215.83C918.799 1214.53 918.439 1213.03 918.439 1211.33C918.439 1209.63 918.809 1208.13 919.549 1206.83C920.309 1205.53 921.339 1204.53 922.639 1203.83C923.939 1203.11 925.389 1202.75 926.989 1202.75C928.589 1202.75 930.039 1203.11 931.339 1203.83C932.639 1204.53 933.659 1205.53 934.399 1206.83C935.159 1208.13 935.539 1209.63 935.539 1211.33C935.539 1213.03 935.149 1214.53 934.369 1215.83C933.609 1217.13 932.569 1218.14 931.249 1218.86C929.949 1219.56 928.489 1219.91 926.869 1219.91ZM926.869 1216.25C927.629 1216.25 928.339 1216.07 928.999 1215.71C929.679 1215.33 930.219 1214.77 930.619 1214.03C931.019 1213.29 931.219 1212.39 931.219 1211.33C931.219 1209.75 930.799 1208.54 929.959 1207.7C929.139 1206.84 928.129 1206.41 926.929 1206.41C925.729 1206.41 924.719 1206.84 923.899 1207.7C923.099 1208.54 922.699 1209.75 922.699 1211.33C922.699 1212.91 923.089 1214.13 923.869 1214.99C924.669 1215.83 925.669 1216.25 926.869 1216.25ZM942.82 1205.6C943.36 1204.72 944.06 1204.03 944.92 1203.53C945.8 1203.03 946.8 1202.78 947.92 1202.78V1207.19H946.81C945.49 1207.19 944.49 1207.5 943.81 1208.12C943.15 1208.74 942.82 1209.82 942.82 1211.36V1219.64H938.62V1203.02H942.82V1205.6ZM955.639 1206.47V1214.51C955.639 1215.07 955.769 1215.48 956.029 1215.74C956.309 1215.98 956.769 1216.1 957.409 1216.1H959.359V1219.64H956.719C953.179 1219.64 951.409 1217.92 951.409 1214.48V1206.47H949.429V1203.02H951.409V1198.91H955.639V1203.02H959.359V1206.47H955.639ZM977.83 1210.97C977.83 1211.57 977.79 1212.11 977.71 1212.59H965.56C965.66 1213.79 966.08 1214.73 966.82 1215.41C967.56 1216.09 968.47 1216.43 969.55 1216.43C971.11 1216.43 972.22 1215.76 972.88 1214.42H977.41C976.93 1216.02 976.01 1217.34 974.65 1218.38C973.29 1219.4 971.62 1219.91 969.64 1219.91C968.04 1219.91 966.6 1219.56 965.32 1218.86C964.06 1218.14 963.07 1217.13 962.35 1215.83C961.65 1214.53 961.3 1213.03 961.3 1211.33C961.3 1209.61 961.65 1208.1 962.35 1206.8C963.05 1205.5 964.03 1204.5 965.29 1203.8C966.55 1203.1 968 1202.75 969.64 1202.75C971.22 1202.75 972.63 1203.09 973.87 1203.77C975.13 1204.45 976.1 1205.42 976.78 1206.68C977.48 1207.92 977.83 1209.35 977.83 1210.97ZM973.48 1209.77C973.46 1208.69 973.07 1207.83 972.31 1207.19C971.55 1206.53 970.62 1206.2 969.52 1206.2C968.48 1206.2 967.6 1206.52 966.88 1207.16C966.18 1207.78 965.75 1208.65 965.59 1209.77H973.48Z" fill="white"/>
<rect x="1088.47" y="1145.47" width="267.968" height="131.484" rx="65.742" fill="#3423A6" stroke="black" stroke-width="5"/>
<path d="M1154.47 1202.09V1207.34H1161.52V1210.67H1154.47V1216.22H1162.42V1219.64H1150.27V1198.67H1162.42V1202.09H1154.47ZM1186.88 1202.78C1188.92 1202.78 1190.56 1203.41 1191.8 1204.67C1193.06 1205.91 1193.69 1207.65 1193.69 1209.89V1219.64H1189.49V1210.46C1189.49 1209.16 1189.16 1208.17 1188.5 1207.49C1187.84 1206.79 1186.94 1206.44 1185.8 1206.44C1184.66 1206.44 1183.75 1206.79 1183.07 1207.49C1182.41 1208.17 1182.08 1209.16 1182.08 1210.46V1219.64H1177.88V1210.46C1177.88 1209.16 1177.55 1208.17 1176.89 1207.49C1176.23 1206.79 1175.33 1206.44 1174.19 1206.44C1173.03 1206.44 1172.11 1206.79 1171.43 1207.49C1170.77 1208.17 1170.44 1209.16 1170.44 1210.46V1219.64H1166.24V1203.02H1170.44V1205.03C1170.98 1204.33 1171.67 1203.78 1172.51 1203.38C1173.37 1202.98 1174.31 1202.78 1175.33 1202.78C1176.63 1202.78 1177.79 1203.06 1178.81 1203.62C1179.83 1204.16 1180.62 1204.94 1181.18 1205.96C1181.72 1205 1182.5 1204.23 1183.52 1203.65C1184.56 1203.07 1185.68 1202.78 1186.88 1202.78ZM1201.88 1205.42C1202.42 1204.66 1203.16 1204.03 1204.1 1203.53C1205.06 1203.01 1206.15 1202.75 1207.37 1202.75C1208.79 1202.75 1210.07 1203.1 1211.21 1203.8C1212.37 1204.5 1213.28 1205.5 1213.94 1206.8C1214.62 1208.08 1214.96 1209.57 1214.96 1211.27C1214.96 1212.97 1214.62 1214.48 1213.94 1215.8C1213.28 1217.1 1212.37 1218.11 1211.21 1218.83C1210.07 1219.55 1208.79 1219.91 1207.37 1219.91C1206.15 1219.91 1205.07 1219.66 1204.13 1219.16C1203.21 1218.66 1202.46 1218.03 1201.88 1217.27V1227.56H1197.68V1203.02H1201.88V1205.42ZM1210.67 1211.27C1210.67 1210.27 1210.46 1209.41 1210.04 1208.69C1209.64 1207.95 1209.1 1207.39 1208.42 1207.01C1207.76 1206.63 1207.04 1206.44 1206.26 1206.44C1205.5 1206.44 1204.78 1206.64 1204.1 1207.04C1203.44 1207.42 1202.9 1207.98 1202.48 1208.72C1202.08 1209.46 1201.88 1210.33 1201.88 1211.33C1201.88 1212.33 1202.08 1213.2 1202.48 1213.94C1202.9 1214.68 1203.44 1215.25 1204.1 1215.65C1204.78 1216.03 1205.5 1216.22 1206.26 1216.22C1207.04 1216.22 1207.76 1216.02 1208.42 1215.62C1209.1 1215.22 1209.64 1214.65 1210.04 1213.91C1210.46 1213.17 1210.67 1212.29 1210.67 1211.27ZM1222.21 1205.6C1222.75 1204.72 1223.45 1204.03 1224.31 1203.53C1225.19 1203.03 1226.19 1202.78 1227.31 1202.78V1207.19H1226.2C1224.88 1207.19 1223.88 1207.5 1223.2 1208.12C1222.54 1208.74 1222.21 1209.82 1222.21 1211.36V1219.64H1218.01V1203.02H1222.21V1205.6ZM1245.59 1210.97C1245.59 1211.57 1245.55 1212.11 1245.47 1212.59H1233.32C1233.42 1213.79 1233.84 1214.73 1234.58 1215.41C1235.32 1216.09 1236.23 1216.43 1237.31 1216.43C1238.87 1216.43 1239.98 1215.76 1240.64 1214.42H1245.17C1244.69 1216.02 1243.77 1217.34 1242.41 1218.38C1241.05 1219.4 1239.38 1219.91 1237.4 1219.91C1235.8 1219.91 1234.36 1219.56 1233.08 1218.86C1231.82 1218.14 1230.83 1217.13 1230.11 1215.83C1229.41 1214.53 1229.06 1213.03 1229.06 1211.33C1229.06 1209.61 1229.41 1208.1 1230.11 1206.8C1230.81 1205.5 1231.79 1204.5 1233.05 1203.8C1234.31 1203.1 1235.76 1202.75 1237.4 1202.75C1238.98 1202.75 1240.39 1203.09 1241.63 1203.77C1242.89 1204.45 1243.86 1205.42 1244.54 1206.68C1245.24 1207.92 1245.59 1209.35 1245.59 1210.97ZM1241.24 1209.77C1241.22 1208.69 1240.83 1207.83 1240.07 1207.19C1239.31 1206.53 1238.38 1206.2 1237.28 1206.2C1236.24 1206.2 1235.36 1206.52 1234.64 1207.16C1233.94 1207.78 1233.51 1208.65 1233.35 1209.77H1241.24ZM1255.01 1219.91C1253.65 1219.91 1252.43 1219.67 1251.35 1219.19C1250.27 1218.69 1249.41 1218.02 1248.77 1217.18C1248.15 1216.34 1247.81 1215.41 1247.75 1214.39H1251.98C1252.06 1215.03 1252.37 1215.56 1252.91 1215.98C1253.47 1216.4 1254.16 1216.61 1254.98 1216.61C1255.78 1216.61 1256.4 1216.45 1256.84 1216.13C1257.3 1215.81 1257.53 1215.4 1257.53 1214.9C1257.53 1214.36 1257.25 1213.96 1256.69 1213.7C1256.15 1213.42 1255.28 1213.12 1254.08 1212.8C1252.84 1212.5 1251.82 1212.19 1251.02 1211.87C1250.24 1211.55 1249.56 1211.06 1248.98 1210.4C1248.42 1209.74 1248.14 1208.85 1248.14 1207.73C1248.14 1206.81 1248.4 1205.97 1248.92 1205.21C1249.46 1204.45 1250.22 1203.85 1251.2 1203.41C1252.2 1202.97 1253.37 1202.75 1254.71 1202.75C1256.69 1202.75 1258.27 1203.25 1259.45 1204.25C1260.63 1205.23 1261.28 1206.56 1261.4 1208.24H1257.38C1257.32 1207.58 1257.04 1207.06 1256.54 1206.68C1256.06 1206.28 1255.41 1206.08 1254.59 1206.08C1253.83 1206.08 1253.24 1206.22 1252.82 1206.5C1252.42 1206.78 1252.22 1207.17 1252.22 1207.67C1252.22 1208.23 1252.5 1208.66 1253.06 1208.96C1253.62 1209.24 1254.49 1209.53 1255.67 1209.83C1256.87 1210.13 1257.86 1210.44 1258.64 1210.76C1259.42 1211.08 1260.09 1211.58 1260.65 1212.26C1261.23 1212.92 1261.53 1213.8 1261.55 1214.9C1261.55 1215.86 1261.28 1216.72 1260.74 1217.48C1260.22 1218.24 1259.46 1218.84 1258.46 1219.28C1257.48 1219.7 1256.33 1219.91 1255.01 1219.91ZM1263.92 1211.27C1263.92 1209.59 1264.25 1208.1 1264.91 1206.8C1265.59 1205.5 1266.5 1204.5 1267.64 1203.8C1268.8 1203.1 1270.09 1202.75 1271.51 1202.75C1272.75 1202.75 1273.83 1203 1274.75 1203.5C1275.69 1204 1276.44 1204.63 1277 1205.39V1203.02H1281.23V1219.64H1277V1217.21C1276.46 1217.99 1275.71 1218.64 1274.75 1219.16C1273.81 1219.66 1272.72 1219.91 1271.48 1219.91C1270.08 1219.91 1268.8 1219.55 1267.64 1218.83C1266.5 1218.11 1265.59 1217.1 1264.91 1215.8C1264.25 1214.48 1263.92 1212.97 1263.92 1211.27ZM1277 1211.33C1277 1210.31 1276.8 1209.44 1276.4 1208.72C1276 1207.98 1275.46 1207.42 1274.78 1207.04C1274.1 1206.64 1273.37 1206.44 1272.59 1206.44C1271.81 1206.44 1271.09 1206.63 1270.43 1207.01C1269.77 1207.39 1269.23 1207.95 1268.81 1208.69C1268.41 1209.41 1268.21 1210.27 1268.21 1211.27C1268.21 1212.27 1268.41 1213.15 1268.81 1213.91C1269.23 1214.65 1269.77 1215.22 1270.43 1215.62C1271.11 1216.02 1271.83 1216.22 1272.59 1216.22C1273.37 1216.22 1274.1 1216.03 1274.78 1215.65C1275.46 1215.25 1276 1214.69 1276.4 1213.97C1276.8 1213.23 1277 1212.35 1277 1211.33Z" fill="white"/>
<rect x="1088.47" y="958.984" width="267.968" height="131.484" rx="65.742" fill="#B6174B" stroke="black" stroke-width="5"/>
<path d="M1183.96 1029.83H1190.86V1033.16H1179.76V1012.22H1183.96V1029.83ZM1200.91 1033.43C1199.31 1033.43 1197.87 1033.08 1196.59 1032.38C1195.31 1031.66 1194.3 1030.65 1193.56 1029.35C1192.84 1028.05 1192.48 1026.55 1192.48 1024.85C1192.48 1023.15 1192.85 1021.65 1193.59 1020.35C1194.35 1019.05 1195.38 1018.05 1196.68 1017.35C1197.98 1016.63 1199.43 1016.27 1201.03 1016.27C1202.63 1016.27 1204.08 1016.63 1205.38 1017.35C1206.68 1018.05 1207.7 1019.05 1208.44 1020.35C1209.2 1021.65 1209.58 1023.15 1209.58 1024.85C1209.58 1026.55 1209.19 1028.05 1208.41 1029.35C1207.65 1030.65 1206.61 1031.66 1205.29 1032.38C1203.99 1033.08 1202.53 1033.43 1200.91 1033.43ZM1200.91 1029.77C1201.67 1029.77 1202.38 1029.59 1203.04 1029.23C1203.72 1028.85 1204.26 1028.29 1204.66 1027.55C1205.06 1026.81 1205.26 1025.91 1205.26 1024.85C1205.26 1023.27 1204.84 1022.06 1204 1021.22C1203.18 1020.36 1202.17 1019.93 1200.97 1019.93C1199.77 1019.93 1198.76 1020.36 1197.94 1021.22C1197.14 1022.06 1196.74 1023.27 1196.74 1024.85C1196.74 1026.43 1197.13 1027.65 1197.91 1028.51C1198.71 1029.35 1199.71 1029.77 1200.91 1029.77ZM1219.17 1016.27C1220.41 1016.27 1221.5 1016.52 1222.44 1017.02C1223.38 1017.5 1224.12 1018.13 1224.66 1018.91V1016.54H1228.89V1033.28C1228.89 1034.82 1228.58 1036.19 1227.96 1037.39C1227.34 1038.61 1226.41 1039.57 1225.17 1040.27C1223.93 1040.99 1222.43 1041.35 1220.67 1041.35C1218.31 1041.35 1216.37 1040.8 1214.85 1039.7C1213.35 1038.6 1212.5 1037.1 1212.3 1035.2H1216.47C1216.69 1035.96 1217.16 1036.56 1217.88 1037C1218.62 1037.46 1219.51 1037.69 1220.55 1037.69C1221.77 1037.69 1222.76 1037.32 1223.52 1036.58C1224.28 1035.86 1224.66 1034.76 1224.66 1033.28V1030.7C1224.12 1031.48 1223.37 1032.13 1222.41 1032.65C1221.47 1033.17 1220.39 1033.43 1219.17 1033.43C1217.77 1033.43 1216.49 1033.07 1215.33 1032.35C1214.17 1031.63 1213.25 1030.62 1212.57 1029.32C1211.91 1028 1211.58 1026.49 1211.58 1024.79C1211.58 1023.11 1211.91 1021.62 1212.57 1020.32C1213.25 1019.02 1214.16 1018.02 1215.3 1017.32C1216.46 1016.62 1217.75 1016.27 1219.17 1016.27ZM1224.66 1024.85C1224.66 1023.83 1224.46 1022.96 1224.06 1022.24C1223.66 1021.5 1223.12 1020.94 1222.44 1020.56C1221.76 1020.16 1221.03 1019.96 1220.25 1019.96C1219.47 1019.96 1218.75 1020.15 1218.09 1020.53C1217.43 1020.91 1216.89 1021.47 1216.47 1022.21C1216.07 1022.93 1215.87 1023.79 1215.87 1024.79C1215.87 1025.79 1216.07 1026.67 1216.47 1027.43C1216.89 1028.17 1217.43 1028.74 1218.09 1029.14C1218.77 1029.54 1219.49 1029.74 1220.25 1029.74C1221.03 1029.74 1221.76 1029.55 1222.44 1029.17C1223.12 1028.77 1223.66 1028.21 1224.06 1027.49C1224.46 1026.75 1224.66 1025.87 1224.66 1024.85ZM1235.12 1014.56C1234.38 1014.56 1233.76 1014.33 1233.26 1013.87C1232.78 1013.39 1232.54 1012.8 1232.54 1012.1C1232.54 1011.4 1232.78 1010.82 1233.26 1010.36C1233.76 1009.88 1234.38 1009.64 1235.12 1009.64C1235.86 1009.64 1236.47 1009.88 1236.95 1010.36C1237.45 1010.82 1237.7 1011.4 1237.7 1012.1C1237.7 1012.8 1237.45 1013.39 1236.95 1013.87C1236.47 1014.33 1235.86 1014.56 1235.12 1014.56ZM1237.19 1016.54V1033.16H1232.99V1016.54H1237.19ZM1250.55 1016.3C1252.53 1016.3 1254.13 1016.93 1255.35 1018.19C1256.57 1019.43 1257.18 1021.17 1257.18 1023.41V1033.16H1252.98V1023.98C1252.98 1022.66 1252.65 1021.65 1251.99 1020.95C1251.33 1020.23 1250.43 1019.87 1249.29 1019.87C1248.13 1019.87 1247.21 1020.23 1246.53 1020.95C1245.87 1021.65 1245.54 1022.66 1245.54 1023.98V1033.16H1241.34V1016.54H1245.54V1018.61C1246.1 1017.89 1246.81 1017.33 1247.67 1016.93C1248.55 1016.51 1249.51 1016.3 1250.55 1016.3Z" fill="white"/>
</svg>
