<svg width="500" height="500" viewBox="0 0 500 500" fill="none" xmlns="http://www.w3.org/2000/svg">
<path d="M40.0103 333.84L24.7494 341.919V391.48H5V266.699H24.7494V319.851L40.0103 311.772V266.699H59.7598V391.48H40.0103V333.84Z" fill="white"/>
<path d="M69.6235 275.677L89.373 265.802V283.756L69.6235 293.631V275.677ZM69.6235 391.48V302.608L89.373 292.733V391.48H69.6235Z" fill="white"/>
<path d="M118.992 352.879L133.355 345.698V310.687H118.992V352.879ZM153.104 399.56C153.104 404.347 151.515 408.387 148.354 411.679C145.184 414.97 141.378 416.616 136.946 416.616H115.401C110.959 416.616 107.153 414.933 103.993 411.566C100.823 408.219 99.2424 404.216 99.2424 399.56V393.276L118.992 383.401V397.764H133.355V364.549L99.2424 381.606V308.892C99.2424 304.235 100.823 300.233 103.993 296.885C107.153 293.519 110.959 291.835 115.401 291.835H118.992C123.424 291.835 127.258 293.463 130.475 296.698C131.672 297.998 132.626 299.429 133.355 300.999V291.835H153.104V399.56Z" fill="white"/>
<path d="M182.718 391.48H162.969V275.677L182.718 265.802V300.999C183.438 299.428 184.401 297.998 185.598 296.698C188.815 293.462 192.639 291.835 197.081 291.835H200.672C205.104 291.835 208.91 293.481 212.08 296.773C215.241 300.064 216.831 304.104 216.831 308.892V391.48H197.081V310.687H182.718V391.48Z" fill="white"/>
<path d="M271.575 391.48V285.551H251.825V266.699H311.074V285.551H291.324V391.48H271.575Z" fill="white"/>
<path d="M316.449 308.892C316.449 303.982 318.03 299.915 321.2 296.698C324.36 293.463 328.166 291.835 332.608 291.835H354.153C358.585 291.835 362.391 293.481 365.561 296.773C368.722 300.064 370.312 304.104 370.312 308.892V333.13L336.199 350.186V372.629H350.562V354.675L370.312 344.8V374.424C370.312 379.09 368.722 383.102 365.561 386.468C362.391 389.816 358.585 391.48 354.153 391.48H332.608C328.166 391.48 324.36 389.834 321.2 386.543C318.03 383.251 316.449 379.212 316.449 374.424V308.892ZM350.562 325.05V310.687H336.199V332.232L350.562 325.05Z" fill="white"/>
<path d="M414.289 358.265L434.038 348.391V374.424C434.038 379.212 432.448 383.251 429.288 386.543C426.118 389.834 422.312 391.48 417.879 391.48H396.335C391.893 391.48 388.087 389.816 384.926 386.468C381.756 383.102 380.176 379.09 380.176 374.424V308.892C380.176 304.104 381.756 300.064 384.926 296.773C388.087 293.481 391.893 291.835 396.335 291.835H417.879C422.312 291.835 426.118 293.481 429.288 296.773C432.448 300.064 434.038 304.104 434.038 308.892V319.664L414.289 329.539V310.687H399.925V372.629H414.289V358.265Z" fill="white"/>
<path d="M461.856 391.48H442.107V275.677L461.856 265.802V300.999C462.576 299.428 463.54 297.998 464.736 296.698C467.953 293.462 471.778 291.835 476.22 291.835H479.81C484.243 291.835 488.049 293.481 491.219 296.773C494.379 300.064 495.969 304.104 495.969 308.892V391.48H476.22V310.687H461.856V391.48Z" fill="white"/>
<mask id="mask0_292_970" style="mask-type:luminance" maskUnits="userSpaceOnUse" x="271" y="215" width="78" height="42">
<path d="M271.814 215.663H348.418V256.358H271.814V215.663Z" fill="white"/>
</mask>
<g mask="url(#mask0_292_970)">
<mask id="mask1_292_970" style="mask-type:luminance" maskUnits="userSpaceOnUse" x="101" y="45" width="310" height="330">
<path d="M233.157 45.0344L410.107 147.887L278.378 374.51L101.428 271.657L233.157 45.0344Z" fill="white"/>
</mask>
<g mask="url(#mask1_292_970)">
<mask id="mask2_292_970" style="mask-type:luminance" maskUnits="userSpaceOnUse" x="101" y="45" width="310" height="330">
<path d="M233.157 45.0344L410.107 147.887L278.378 374.51L101.428 271.657L233.157 45.0344Z" fill="white"/>
</mask>
<g mask="url(#mask2_292_970)">
<path d="M342.788 250.86C341.189 252.225 339.16 253.263 336.841 253.834C329.341 255.695 292.666 242.444 278.958 237.329C275.732 236.123 273.777 235.365 273.777 235.365L272.178 216.476C272.178 216.476 333.231 224.369 341.965 233.149C348.502 239.732 347.566 246.774 342.788 250.86Z" fill="#38B6FF"/>
</g>
</g>
</g>
<mask id="mask3_292_970" style="mask-type:luminance" maskUnits="userSpaceOnUse" x="276" y="227" width="68" height="30">
<path d="M276.601 227.632H343.63V256.359H276.601V227.632Z" fill="white"/>
</mask>
<g mask="url(#mask3_292_970)">
<mask id="mask4_292_970" style="mask-type:luminance" maskUnits="userSpaceOnUse" x="101" y="45" width="310" height="330">
<path d="M233.157 45.0347L410.107 147.887L278.378 374.51L101.428 271.657L233.157 45.0347Z" fill="white"/>
</mask>
<g mask="url(#mask4_292_970)">
<mask id="mask5_292_970" style="mask-type:luminance" maskUnits="userSpaceOnUse" x="101" y="45" width="310" height="330">
<path d="M233.157 45.0347L410.107 147.887L278.378 374.51L101.428 271.657L233.157 45.0347Z" fill="white"/>
</mask>
<g mask="url(#mask5_292_970)">
<path d="M342.788 250.861C341.189 252.226 339.16 253.264 336.841 253.834C329.341 255.695 292.666 242.445 278.958 237.33C280.734 233.786 282.726 229.643 282.726 229.643C282.726 229.643 325.741 247.971 337.243 248.757C339.16 248.888 341.049 249.664 342.788 250.861Z" fill="#38B6FF"/>
</g>
</g>
</g>
<mask id="mask6_292_970" style="mask-type:luminance" maskUnits="userSpaceOnUse" x="269" y="215" width="80" height="42">
<path d="M269.42 215.663H348.418V256.358H269.42V215.663Z" fill="white"/>
</mask>
<g mask="url(#mask6_292_970)">
<mask id="mask7_292_970" style="mask-type:luminance" maskUnits="userSpaceOnUse" x="101" y="45" width="310" height="330">
<path d="M233.157 45.0344L410.107 147.887L278.379 374.51L101.429 271.657L233.157 45.0344Z" fill="white"/>
</mask>
<g mask="url(#mask7_292_970)">
<mask id="mask8_292_970" style="mask-type:luminance" maskUnits="userSpaceOnUse" x="101" y="45" width="310" height="330">
<path d="M233.157 45.0344L410.107 147.887L278.379 374.51L101.429 271.657L233.157 45.0344Z" fill="white"/>
</mask>
<g mask="url(#mask8_292_970)">
<path d="M272.674 217.01C273.357 223.181 273.993 229.194 274.498 235.3L274.039 234.693C280.697 236.488 287.159 238.816 293.621 241.117C300.091 243.408 306.581 245.615 313.127 247.634C316.4 248.644 319.682 249.608 322.983 250.468C326.274 251.319 329.603 252.114 332.886 252.506C333.297 252.572 333.699 252.581 334.101 252.619C334.298 252.628 334.503 252.647 334.7 252.656L335.27 252.637C335.457 252.637 335.672 252.647 335.831 252.619L336.327 252.544C336.486 252.544 336.682 252.478 336.869 252.432C337.056 252.375 337.253 252.329 337.44 252.263C338.945 251.786 340.366 251.076 341.582 250.112C342.798 249.168 343.789 247.962 344.443 246.606C345.107 245.259 345.369 243.744 345.285 242.248C345.173 240.743 344.687 239.247 343.948 237.863C343.19 236.488 342.199 235.207 341.068 234.047C340.582 233.552 339.946 233.094 339.254 232.691C338.571 232.28 337.842 231.897 337.094 231.551C335.597 230.84 334.008 230.241 332.418 229.68C329.22 228.558 325.938 227.633 322.627 226.763C319.317 225.912 315.988 225.136 312.631 224.406C305.936 222.948 299.194 221.648 292.424 220.47C289.038 219.871 285.653 219.31 282.259 218.768L277.172 217.964L274.619 217.58L273.347 217.384L272.712 217.3L272.394 217.253L272.235 217.225L272.15 217.215C272.16 217.215 272.066 217.206 272.169 217.215C272.347 217.225 272.571 217.131 272.674 217.01ZM271.674 215.962C271.804 215.841 272.057 215.747 272.253 215.766L272.347 215.775L272.431 215.785L272.908 215.841L273.553 215.916L274.834 216.084L277.396 216.411L282.521 217.103C285.925 217.58 289.338 218.094 292.742 218.627C299.54 219.703 306.338 220.872 313.099 222.256C316.474 222.957 319.85 223.696 323.207 224.528C326.564 225.37 329.912 226.277 333.213 227.399C334.868 227.96 336.514 228.558 338.132 229.306C338.945 229.671 339.749 230.083 340.544 230.541C341.339 231.008 342.115 231.532 342.854 232.252C344.135 233.542 345.294 234.982 346.211 236.619C347.109 238.255 347.744 240.098 347.903 242.043C348.044 243.978 347.698 245.989 346.847 247.747C345.996 249.514 344.733 251.048 343.228 252.226C341.732 253.413 340.02 254.264 338.244 254.844C338.019 254.919 337.795 254.975 337.57 255.04C337.346 255.106 337.131 255.171 336.85 255.199L336.074 255.321C335.812 255.358 335.588 255.34 335.345 255.358L334.625 255.368C334.391 255.358 334.167 255.34 333.933 255.33C333.484 255.293 333.017 255.284 332.577 255.218C329.024 254.797 325.648 253.993 322.281 253.142C318.924 252.273 315.605 251.309 312.295 250.309C305.693 248.289 299.166 246.092 292.657 243.829C286.149 241.556 279.697 239.162 273.506 236.048L273.095 235.89L273.048 235.431C272.496 228.951 272.066 222.377 271.674 215.962Z" fill="#2B2B2B"/>
</g>
</g>
</g>
<mask id="mask9_292_970" style="mask-type:luminance" maskUnits="userSpaceOnUse" x="319" y="222" width="32" height="35">
<path d="M319.691 222.844H350.811V256.358H319.691V222.844Z" fill="white"/>
</mask>
<g mask="url(#mask9_292_970)">
<mask id="mask10_292_970" style="mask-type:luminance" maskUnits="userSpaceOnUse" x="101" y="45" width="310" height="330">
<path d="M233.157 45.0339L410.107 147.886L278.378 374.509L101.428 271.657L233.157 45.0339Z" fill="white"/>
</mask>
<g mask="url(#mask10_292_970)">
<mask id="mask11_292_970" style="mask-type:luminance" maskUnits="userSpaceOnUse" x="101" y="45" width="310" height="330">
<path d="M233.157 45.0339L410.107 147.886L278.378 374.509L101.428 271.657L233.157 45.0339Z" fill="white"/>
</mask>
<g mask="url(#mask11_292_970)">
<path d="M339.44 255.245C327.817 258.649 321.72 249.373 321.72 249.373L321.318 248.157C320.982 247.101 320.701 246.044 320.477 244.987C319.018 238.105 319.962 231.148 323.216 225.275C323.216 225.275 335.672 222.863 344.771 229.296C346.098 230.222 347.174 231.363 347.997 232.644C352.878 240.134 349.381 252.337 339.44 255.245Z" fill="#38B6FF"/>
</g>
</g>
</g>
<mask id="mask12_292_970" style="mask-type:luminance" maskUnits="userSpaceOnUse" x="319" y="232" width="32" height="25">
<path d="M319.691 232.42H350.811V256.359H319.691V232.42Z" fill="white"/>
</mask>
<g mask="url(#mask12_292_970)">
<mask id="mask13_292_970" style="mask-type:luminance" maskUnits="userSpaceOnUse" x="101" y="45" width="310" height="330">
<path d="M233.157 45.0337L410.107 147.886L278.378 374.509L101.428 271.657L233.157 45.0337Z" fill="white"/>
</mask>
<g mask="url(#mask13_292_970)">
<mask id="mask14_292_970" style="mask-type:luminance" maskUnits="userSpaceOnUse" x="101" y="45" width="310" height="330">
<path d="M233.157 45.0337L410.107 147.886L278.378 374.509L101.428 271.657L233.157 45.0337Z" fill="white"/>
</mask>
<g mask="url(#mask14_292_970)">
<path d="M339.44 255.246C327.817 258.649 321.72 249.373 321.72 249.373L321.318 248.157C320.981 247.101 320.701 246.044 320.476 244.987L321.131 244.529C321.131 244.529 326.592 249.541 335.148 249.598C342.18 249.654 346.996 239.779 347.996 232.644C352.878 240.134 349.38 252.337 339.44 255.246Z" fill="#38B6FF"/>
</g>
</g>
</g>
<mask id="mask15_292_970" style="mask-type:luminance" maskUnits="userSpaceOnUse" x="317" y="222" width="37" height="37">
<path d="M317.297 222.844H353.205V258.752H317.297V222.844Z" fill="white"/>
</mask>
<g mask="url(#mask15_292_970)">
<mask id="mask16_292_970" style="mask-type:luminance" maskUnits="userSpaceOnUse" x="101" y="45" width="310" height="330">
<path d="M233.157 45.0339L410.107 147.886L278.378 374.509L101.428 271.657L233.157 45.0339Z" fill="white"/>
</mask>
<g mask="url(#mask16_292_970)">
<mask id="mask17_292_970" style="mask-type:luminance" maskUnits="userSpaceOnUse" x="101" y="45" width="310" height="330">
<path d="M233.157 45.0339L410.107 147.886L278.378 374.509L101.428 271.657L233.157 45.0339Z" fill="white"/>
</mask>
<g mask="url(#mask17_292_970)">
<path d="M323.347 225.986C324.348 225.266 323.628 225.789 323.843 225.631V225.64L323.834 225.649L323.806 225.705L323.759 225.789L323.675 225.958L323.497 226.294C323.385 226.519 323.263 226.743 323.16 226.977C322.955 227.435 322.73 227.884 322.543 228.361C322.169 229.296 321.823 230.25 321.561 231.222C321.01 233.167 320.692 235.178 320.579 237.188C320.477 239.208 320.589 241.247 320.897 243.239C321.056 244.239 321.262 245.23 321.515 246.212C321.776 247.185 322.076 248.148 322.403 249.139L322.319 248.971C322.777 249.476 323.329 250.027 323.88 250.504C324.432 250.991 325.021 251.439 325.62 251.86C326.826 252.692 328.116 253.356 329.463 253.852C330.8 254.366 332.222 254.581 333.643 254.712H334.728L335.261 254.722L335.803 254.656L336.878 254.535C337.056 254.525 337.234 254.488 337.411 254.441L337.944 254.32C340.824 253.787 343.377 252.29 345.294 250.14C347.221 248.008 348.436 245.23 348.857 242.36C349.24 239.498 348.876 236.487 347.492 233.972C346.819 232.728 345.93 231.587 344.827 230.68C344.537 230.465 344.294 230.231 343.966 230.035L343.041 229.427L342.573 229.128C342.414 229.034 342.246 228.95 342.078 228.866L341.096 228.352C335.719 225.78 329.332 225.219 323.347 225.986ZM323.086 224.564C326.274 223.975 329.444 223.873 332.642 224.134C333.437 224.219 334.232 224.293 335.027 224.443C335.822 224.546 336.607 224.733 337.383 224.91C337.785 224.995 338.169 225.116 338.552 225.228L339.712 225.584L340.843 226.023C341.217 226.182 341.61 226.304 341.965 226.491L343.059 227.043C343.246 227.136 343.433 227.211 343.602 227.314L344.125 227.641L345.163 228.286C345.519 228.492 345.846 228.782 346.183 229.025C347.51 230.082 348.605 231.419 349.437 232.887C350.278 234.364 350.83 235.991 351.111 237.647C351.401 239.311 351.429 241.004 351.204 242.668C350.737 245.988 349.362 249.214 347.108 251.757C345.986 253.02 344.658 254.123 343.19 254.974C341.732 255.825 340.095 256.442 338.477 256.751L337.87 256.891C337.664 256.947 337.467 256.994 337.252 257.003L336.009 257.153L335.382 257.228H333.493C333.072 257.2 332.652 257.134 332.24 257.087L331.614 257.003C331.399 256.975 331.202 256.91 330.997 256.863C330.585 256.77 330.174 256.676 329.762 256.564L328.584 256.124C327.032 255.479 325.582 254.609 324.32 253.534C323.693 252.992 323.104 252.421 322.571 251.795C322.02 251.168 321.552 250.523 321.112 249.766L321.056 249.663L321.028 249.588C320.71 248.615 320.392 247.605 320.121 246.577C319.85 245.558 319.635 244.52 319.467 243.472C319.139 241.378 319.027 239.246 319.139 237.123C319.252 235 319.588 232.887 320.168 230.83C320.449 229.801 320.804 228.801 321.206 227.809C321.402 227.314 321.636 226.837 321.851 226.351C321.963 226.107 322.094 225.874 322.216 225.631L322.496 225.098L322.543 225.013L322.562 224.967L322.571 224.948L322.581 224.939V224.929C322.805 224.77 322.085 225.294 323.086 224.564Z" fill="#2B2B2B"/>
</g>
</g>
</g>
<mask id="mask18_292_970" style="mask-type:luminance" maskUnits="userSpaceOnUse" x="199" y="117" width="49" height="75">
<path d="M199.998 117.514H247.875V191.724H199.998V117.514Z" fill="white"/>
</mask>
<g mask="url(#mask18_292_970)">
<mask id="mask19_292_970" style="mask-type:luminance" maskUnits="userSpaceOnUse" x="101" y="45" width="310" height="330">
<path d="M233.157 45.0339L410.107 147.886L278.378 374.509L101.428 271.657L233.157 45.0339Z" fill="white"/>
</mask>
<g mask="url(#mask19_292_970)">
<mask id="mask20_292_970" style="mask-type:luminance" maskUnits="userSpaceOnUse" x="101" y="45" width="310" height="330">
<path d="M233.157 45.0339L410.107 147.886L278.378 374.509L101.428 271.657L233.157 45.0339Z" fill="white"/>
</mask>
<g mask="url(#mask20_292_970)">
<path d="M246.313 189.255L232.997 189.62L227.405 189.769C227.405 189.769 211.882 159.837 205.112 141.49C203.018 135.823 201.765 131.26 202.054 129.016C203.298 119.534 212.312 113.886 221.991 121.6C231.669 129.315 246.313 189.255 246.313 189.255Z" fill="#38B6FF"/>
</g>
</g>
</g>
<mask id="mask21_292_970" style="mask-type:luminance" maskUnits="userSpaceOnUse" x="204" y="141" width="30" height="51">
<path d="M204.785 141.453H233.512V191.724H204.785V141.453Z" fill="white"/>
</mask>
<g mask="url(#mask21_292_970)">
<mask id="mask22_292_970" style="mask-type:luminance" maskUnits="userSpaceOnUse" x="101" y="45" width="310" height="330">
<path d="M233.157 45.0344L410.107 147.887L278.378 374.51L101.428 271.657L233.157 45.0344Z" fill="white"/>
</mask>
<g mask="url(#mask22_292_970)">
<mask id="mask23_292_970" style="mask-type:luminance" maskUnits="userSpaceOnUse" x="101" y="45" width="310" height="330">
<path d="M233.157 45.0344L410.107 147.887L278.378 374.51L101.428 271.657L233.157 45.0344Z" fill="white"/>
</mask>
<g mask="url(#mask23_292_970)">
<path d="M232.997 189.62L227.405 189.77C227.405 189.77 211.882 159.837 205.112 141.49L213.182 144.371C213.182 144.371 225.965 175.51 232.997 189.62Z" fill="#38B6FF"/>
</g>
</g>
</g>
<mask id="mask24_292_970" style="mask-type:luminance" maskUnits="userSpaceOnUse" x="199" y="115" width="49" height="77">
<path d="M199.998 115.12H247.875V191.724H199.998V115.12Z" fill="white"/>
</mask>
<g mask="url(#mask24_292_970)">
<mask id="mask25_292_970" style="mask-type:luminance" maskUnits="userSpaceOnUse" x="101" y="45" width="310" height="330">
<path d="M233.157 45.0344L410.107 147.887L278.378 374.51L101.428 271.657L233.157 45.0344Z" fill="white"/>
</mask>
<g mask="url(#mask25_292_970)">
<mask id="mask26_292_970" style="mask-type:luminance" maskUnits="userSpaceOnUse" x="101" y="45" width="310" height="330">
<path d="M233.157 45.0344L410.107 147.887L278.378 374.51L101.428 271.657L233.157 45.0344Z" fill="white"/>
</mask>
<g mask="url(#mask26_292_970)">
<path d="M246.884 189.695C240.478 190.022 233.914 190.33 227.424 190.499L226.975 190.508L226.77 190.106C223.534 184.009 220.43 177.865 217.391 171.675C214.342 165.485 211.396 159.248 208.619 152.917C207.235 149.756 205.898 146.567 204.645 143.332C203.401 140.097 202.204 136.833 201.382 133.364C201.26 132.934 201.194 132.485 201.11 132.036C201.073 131.812 201.017 131.596 200.989 131.363L200.914 130.661C200.905 130.418 200.858 130.203 200.867 129.941L200.886 129.165C200.895 128.903 200.933 128.679 200.97 128.454C201.007 128.221 201.036 127.996 201.092 127.763C201.447 125.948 202.092 124.162 203.093 122.554C204.065 120.946 205.431 119.524 207.058 118.496C208.685 117.458 210.611 116.887 212.519 116.803C214.445 116.738 216.334 117.14 218.045 117.841C219.766 118.561 221.327 119.534 222.749 120.656C223.544 121.301 224.161 122.012 224.712 122.75C225.264 123.48 225.769 124.228 226.218 124.995C227.144 126.519 227.938 128.09 228.696 129.67C231.67 135.991 233.979 142.528 236.13 149.102C238.271 155.675 240.244 162.296 242.031 168.973C242.919 172.311 243.817 175.64 244.639 178.997L245.855 184.028L246.454 186.553L246.734 187.815L246.874 188.451L246.949 188.769L246.977 188.928L246.996 189.003L247.015 189.096C247.061 189.292 246.987 189.554 246.884 189.695ZM245.734 188.816C245.621 188.937 245.556 189.171 245.584 189.339C245.603 189.442 245.584 189.349 245.584 189.358L245.565 189.283L245.528 189.124L245.434 188.816L245.266 188.189L244.228 184.458L242.825 179.493C241.872 176.182 240.946 172.863 239.964 169.571C237.991 162.969 236.008 156.386 233.83 149.878C232.745 146.614 231.595 143.379 230.398 140.171C229.201 136.973 227.929 133.794 226.48 130.727C225.76 129.193 224.993 127.678 224.142 126.257C223.721 125.546 223.263 124.864 222.786 124.218C222.309 123.583 221.786 122.984 221.243 122.545C219.971 121.535 218.587 120.674 217.129 120.057C215.67 119.459 214.127 119.131 212.603 119.178C211.079 119.253 209.582 119.683 208.292 120.497C207.001 121.31 205.889 122.442 205.075 123.788C204.243 125.116 203.682 126.631 203.364 128.202C203.317 128.398 203.298 128.595 203.261 128.791C203.233 128.997 203.196 129.203 203.205 129.362L203.177 129.885C203.168 130.054 203.205 130.269 203.224 130.456L203.27 131.035C203.298 131.241 203.336 131.437 203.373 131.643C203.448 132.045 203.495 132.447 203.607 132.849C204.346 136.104 205.487 139.339 206.684 142.547C207.88 145.745 209.19 148.924 210.527 152.085C215.969 164.699 221.916 177.127 228.051 189.433H228.06L227.396 189.049C233.502 188.872 239.543 188.834 245.734 188.816Z" fill="#2B2B2B"/>
</g>
</g>
</g>
<mask id="mask27_292_970" style="mask-type:luminance" maskUnits="userSpaceOnUse" x="199" y="112" width="35" height="35">
<path d="M199.998 112.727H233.512V146.241H199.998V112.727Z" fill="white"/>
</mask>
<g mask="url(#mask27_292_970)">
<mask id="mask28_292_970" style="mask-type:luminance" maskUnits="userSpaceOnUse" x="101" y="45" width="310" height="330">
<path d="M233.157 45.0344L410.107 147.887L278.378 374.51L101.428 271.657L233.157 45.0344Z" fill="white"/>
</mask>
<g mask="url(#mask28_292_970)">
<mask id="mask29_292_970" style="mask-type:luminance" maskUnits="userSpaceOnUse" x="101" y="45" width="310" height="330">
<path d="M233.157 45.0344L410.107 147.887L278.378 374.51L101.428 271.657L233.157 45.0344Z" fill="white"/>
</mask>
<g mask="url(#mask29_292_970)">
<path d="M231.893 139.396C226.582 143.192 219.98 144.931 213.182 144.38C211.938 144.277 210.685 144.099 209.423 143.837L208.179 143.585C208.179 143.585 198.286 138.545 200.371 126.575C201.437 120.441 206.075 116.252 211.34 114.737C216.343 113.306 221.906 114.297 225.507 118.365C232.885 126.716 231.893 139.396 231.893 139.396Z" fill="#38B6FF"/>
</g>
</g>
</g>
<mask id="mask30_292_970" style="mask-type:luminance" maskUnits="userSpaceOnUse" x="199" y="112" width="18" height="35">
<path d="M199.998 112.727H216.755V146.241H199.998V112.727Z" fill="white"/>
</mask>
<g mask="url(#mask30_292_970)">
<mask id="mask31_292_970" style="mask-type:luminance" maskUnits="userSpaceOnUse" x="101" y="45" width="310" height="330">
<path d="M233.157 45.0344L410.107 147.887L278.378 374.51L101.428 271.657L233.157 45.0344Z" fill="white"/>
</mask>
<g mask="url(#mask31_292_970)">
<mask id="mask32_292_970" style="mask-type:luminance" maskUnits="userSpaceOnUse" x="101" y="45" width="310" height="330">
<path d="M233.157 45.0344L410.107 147.887L278.378 374.51L101.428 271.657L233.157 45.0344Z" fill="white"/>
</mask>
<g mask="url(#mask32_292_970)">
<path d="M215.249 144.155L213.182 144.371C211.938 144.277 210.685 144.09 209.423 143.838L208.179 143.576C208.179 143.576 198.286 138.545 200.371 126.575C201.437 120.441 206.075 116.243 211.34 114.737C208.058 118.627 197.341 133.514 215.249 144.155Z" fill="#38B6FF"/>
</g>
</g>
</g>
<mask id="mask33_292_970" style="mask-type:luminance" maskUnits="userSpaceOnUse" x="197" y="112" width="37" height="35">
<path d="M197.604 112.727H233.512V146.241H197.604V112.727Z" fill="white"/>
</mask>
<g mask="url(#mask33_292_970)">
<mask id="mask34_292_970" style="mask-type:luminance" maskUnits="userSpaceOnUse" x="101" y="45" width="310" height="330">
<path d="M233.157 45.0344L410.107 147.887L278.378 374.51L101.428 271.657L233.157 45.0344Z" fill="white"/>
</mask>
<g mask="url(#mask34_292_970)">
<mask id="mask35_292_970" style="mask-type:luminance" maskUnits="userSpaceOnUse" x="101" y="45" width="310" height="330">
<path d="M233.157 45.0344L410.107 147.887L278.378 374.51L101.428 271.657L233.157 45.0344Z" fill="white"/>
</mask>
<g mask="url(#mask35_292_970)">
<path d="M222.122 116.523C219.111 114.774 215.305 114.344 211.499 115.448C206.001 117.028 202.008 121.339 201.082 126.697C199.193 137.535 207.441 142.36 208.422 142.893L209.573 143.127C217.287 144.707 225.142 143.201 231.192 139.003C231.276 136.964 231.398 126.126 224.965 118.851C224.142 117.916 223.178 117.14 222.122 116.523ZM207.618 144.109C206.131 143.239 197.687 137.778 199.651 126.454C200.68 120.544 205.075 115.794 211.116 114.054C216.782 112.418 222.515 113.886 226.049 117.888C233.549 126.37 232.66 138.919 232.614 139.452L232.586 139.788L232.314 139.985C225.9 144.567 217.502 146.231 209.273 144.548L207.936 144.277L207.843 144.23C207.833 144.221 207.759 144.183 207.618 144.109Z" fill="#2B2B2B"/>
</g>
</g>
</g>
<mask id="mask36_292_970" style="mask-type:luminance" maskUnits="userSpaceOnUse" x="195" y="225" width="53" height="111">
<path d="M195.21 225.238H247.875V335.356H195.21V225.238Z" fill="white"/>
</mask>
<g mask="url(#mask36_292_970)">
<mask id="mask37_292_970" style="mask-type:luminance" maskUnits="userSpaceOnUse" x="101" y="45" width="310" height="330">
<path d="M233.157 45.0337L410.107 147.886L278.379 374.509L101.429 271.657L233.157 45.0337Z" fill="white"/>
</mask>
<g mask="url(#mask37_292_970)">
<mask id="mask38_292_970" style="mask-type:luminance" maskUnits="userSpaceOnUse" x="101" y="45" width="310" height="330">
<path d="M233.157 45.0337L410.107 147.886L278.379 374.509L101.429 271.657L233.157 45.0337Z" fill="white"/>
</mask>
<g mask="url(#mask38_292_970)">
<path d="M220.018 333.748L203.869 327.969C202.289 327.408 200.942 326.491 199.895 325.341C197.744 323.013 196.8 319.74 197.604 316.542C197.632 316.429 197.66 316.317 197.697 316.205L208.919 277.585C210.144 273.377 203.972 253.385 207.133 247.606L208.03 247.924L216.643 251.009L221.589 234.009C223.17 228.595 229.164 225.743 234.541 227.837L241.32 230.493C245.659 232.195 248.221 236.627 247.454 241.116L233.549 322.807L232.932 326.444C231.941 332.317 225.769 335.805 220.018 333.748Z" fill="#38B6FF"/>
</g>
</g>
</g>
<mask id="mask39_292_970" style="mask-type:luminance" maskUnits="userSpaceOnUse" x="195" y="246" width="27" height="80">
<path d="M195.21 246.783H221.543V325.78H195.21V246.783Z" fill="white"/>
</mask>
<g mask="url(#mask39_292_970)">
<mask id="mask40_292_970" style="mask-type:luminance" maskUnits="userSpaceOnUse" x="101" y="45" width="310" height="330">
<path d="M233.157 45.0337L410.107 147.886L278.379 374.509L101.429 271.657L233.157 45.0337Z" fill="white"/>
</mask>
<g mask="url(#mask40_292_970)">
<mask id="mask41_292_970" style="mask-type:luminance" maskUnits="userSpaceOnUse" x="101" y="45" width="310" height="330">
<path d="M233.157 45.0337L410.107 147.886L278.379 374.509L101.429 271.657L233.157 45.0337Z" fill="white"/>
</mask>
<g mask="url(#mask41_292_970)">
<path d="M211.677 312.409L199.895 325.341C197.744 323.013 196.8 319.74 197.604 316.542C197.632 316.43 197.66 316.318 197.697 316.205L208.919 277.585C210.144 273.377 203.972 253.385 207.133 247.606L208.03 247.924L219.579 265.99L211.677 312.409Z" fill="#38B6FF"/>
</g>
</g>
</g>
<mask id="mask42_292_970" style="mask-type:luminance" maskUnits="userSpaceOnUse" x="195" y="225" width="56" height="113">
<path d="M195.21 225.238H250.269V337.75H195.21V225.238Z" fill="white"/>
</mask>
<g mask="url(#mask42_292_970)">
<mask id="mask43_292_970" style="mask-type:luminance" maskUnits="userSpaceOnUse" x="101" y="45" width="310" height="330">
<path d="M233.157 45.0337L410.107 147.886L278.379 374.509L101.429 271.657L233.157 45.0337Z" fill="white"/>
</mask>
<g mask="url(#mask43_292_970)">
<mask id="mask44_292_970" style="mask-type:luminance" maskUnits="userSpaceOnUse" x="101" y="45" width="310" height="330">
<path d="M233.157 45.0337L410.107 147.886L278.379 374.509L101.429 271.657L233.157 45.0337Z" fill="white"/>
</mask>
<g mask="url(#mask44_292_970)">
<path d="M234.41 326.687C234.157 328.109 233.643 329.483 232.867 330.717C232.1 331.942 231.081 333.008 229.903 333.841C227.546 335.524 224.554 336.197 221.72 335.795C221.365 335.73 221.01 335.674 220.654 335.599L219.635 335.299C218.999 335.094 218.447 334.888 217.858 334.682L214.352 333.448L207.348 330.989L203.85 329.764C203.551 329.651 203.28 329.567 202.925 329.418C202.588 329.277 202.251 329.156 201.934 328.978C201.616 328.81 201.288 328.651 200.989 328.445C200.68 328.258 200.372 328.062 200.091 327.828C197.782 326.089 196.155 323.424 195.715 320.506C195.65 320.141 195.631 319.777 195.594 319.412C195.575 319.038 195.594 318.673 195.594 318.299C195.612 317.935 195.659 317.57 195.696 317.196L195.902 316.139C196.014 315.7 196.098 315.438 196.183 315.139L196.444 314.241L196.959 312.446L199.025 305.273L203.243 290.957L207.423 276.874C207.488 276.463 207.488 275.874 207.479 275.322C207.451 274.751 207.413 274.162 207.357 273.564C207.236 272.367 207.077 271.151 206.908 269.936C206.562 267.486 206.198 265.026 205.88 262.548C205.58 260.061 205.291 257.555 205.244 255.011C205.216 253.73 205.234 252.449 205.375 251.149C205.524 249.859 205.786 248.522 206.506 247.259L206.768 246.698L207.385 246.923L216.895 250.326L215.951 250.813L220.767 233.841C221.187 232.307 221.992 230.858 223.076 229.679C224.161 228.492 225.517 227.566 227.004 226.977C228.491 226.388 230.118 226.135 231.707 226.257C232.502 226.313 233.297 226.453 234.064 226.687C234.849 226.921 235.504 227.192 236.196 227.454L240.282 229.025C240.974 229.296 241.619 229.52 242.377 229.866C242.742 230.035 243.097 230.24 243.443 230.437C243.779 230.661 244.125 230.858 244.434 231.119C247.006 233.055 248.614 236.234 248.633 239.507C248.614 239.919 248.623 240.321 248.558 240.732L248.483 241.331L248.399 241.873L248.044 244.052L245.883 257.097L234.41 326.687ZM231.464 326.201L243.658 256.732L245.182 248.045L245.94 243.706L246.323 241.536L246.416 240.994L246.482 240.498C246.538 240.181 246.529 239.853 246.547 239.526C246.557 236.917 245.304 234.317 243.209 232.709C242.957 232.494 242.667 232.335 242.405 232.139C242.115 231.98 241.834 231.802 241.535 231.671C240.965 231.4 240.235 231.129 239.572 230.858L235.494 229.24C234.821 228.969 234.12 228.679 233.512 228.492C232.876 228.286 232.222 228.164 231.558 228.108C230.239 227.987 228.883 228.174 227.649 228.66C225.143 229.595 223.114 231.699 222.375 234.308L217.344 251.215L217.12 251.963L216.4 251.692L206.89 248.288L207.769 247.951V247.961C207.348 248.924 207.226 250.102 207.179 251.28C207.151 252.458 207.226 253.665 207.357 254.871C207.619 257.284 208.012 259.706 208.47 262.127L209.845 269.449C210.06 270.684 210.275 271.918 210.443 273.199C210.527 273.826 210.593 274.48 210.639 275.144C210.677 275.827 210.724 276.491 210.621 277.314C210.593 277.529 210.537 277.762 210.48 277.987L210.359 278.445L210.106 279.352L209.601 281.148L208.601 284.738L202.429 306.283L200.325 313.446L199.306 316.934C199.044 317.972 199.007 318.954 199.156 319.964C199.456 321.974 200.568 323.854 202.186 325.107C202.382 325.275 202.597 325.406 202.813 325.556C203.018 325.705 203.252 325.808 203.476 325.939C203.701 326.07 203.944 326.154 204.178 326.257C204.393 326.36 204.701 326.463 204.991 326.575L208.479 327.847L215.465 330.381L218.952 331.653C219.523 331.868 220.131 332.092 220.673 332.279L221.43 332.504C221.683 332.569 221.935 332.606 222.197 332.662C224.245 332.971 226.433 332.513 228.154 331.316C229.884 330.128 231.081 328.258 231.464 326.201Z" fill="#2B2B2B"/>
</g>
</g>
</g>
<mask id="mask45_292_970" style="mask-type:luminance" maskUnits="userSpaceOnUse" x="123" y="218" width="109" height="51">
<path d="M123.394 218.056H231.118V268.327H123.394V218.056Z" fill="white"/>
</mask>
<g mask="url(#mask45_292_970)">
<mask id="mask46_292_970" style="mask-type:luminance" maskUnits="userSpaceOnUse" x="101" y="45" width="310" height="330">
<path d="M233.157 45.0337L410.107 147.886L278.378 374.509L101.428 271.657L233.157 45.0337Z" fill="white"/>
</mask>
<g mask="url(#mask46_292_970)">
<mask id="mask47_292_970" style="mask-type:luminance" maskUnits="userSpaceOnUse" x="101" y="45" width="310" height="330">
<path d="M233.157 45.0337L410.107 147.886L278.378 374.509L101.428 271.657L233.157 45.0337Z" fill="white"/>
</mask>
<g mask="url(#mask47_292_970)">
<path d="M223.702 246.399L212.135 255.863C210.19 256.152 206.898 256.283 203.121 256.358C194.246 256.526 182.698 256.367 179.724 257.097L142.432 266.167L140.749 266.569C139.992 266.757 139.234 266.841 138.486 266.841C134.381 266.813 130.603 264.054 129.322 259.846L124.31 243.388C122.524 237.534 126.283 231.522 132.183 230.783L134.381 230.512L217.811 220.151C222.318 219.59 226.62 222.367 228.107 226.79L230.435 233.71C232.277 239.19 229.163 245.071 223.702 246.399Z" fill="#38B6FF"/>
</g>
</g>
</g>
<mask id="mask48_292_970" style="mask-type:luminance" maskUnits="userSpaceOnUse" x="135" y="222" width="46" height="13">
<path d="M135.363 222.844H180.847V234.813H135.363V222.844Z" fill="white"/>
</mask>
<g mask="url(#mask48_292_970)">
<mask id="mask49_292_970" style="mask-type:luminance" maskUnits="userSpaceOnUse" x="101" y="45" width="310" height="330">
<path d="M233.157 45.0339L410.107 147.886L278.378 374.509L101.428 271.657L233.157 45.0339Z" fill="white"/>
</mask>
<g mask="url(#mask49_292_970)">
<mask id="mask50_292_970" style="mask-type:luminance" maskUnits="userSpaceOnUse" x="101" y="45" width="310" height="330">
<path d="M233.157 45.0339L410.107 147.886L278.378 374.509L101.428 271.657L233.157 45.0339Z" fill="white"/>
</mask>
<g mask="url(#mask50_292_970)">
<path d="M180.454 229.783L141.263 233.486L138.608 231.316L137.196 230.157L135.774 228.997L180.697 223.583L180.65 224.771L180.603 225.949L180.454 229.783Z" fill="#F6F4F1"/>
</g>
</g>
</g>
<mask id="mask51_292_970" style="mask-type:luminance" maskUnits="userSpaceOnUse" x="137" y="241" width="71" height="28">
<path d="M137.757 241.995H207.179V268.328H137.757V241.995Z" fill="white"/>
</mask>
<g mask="url(#mask51_292_970)">
<mask id="mask52_292_970" style="mask-type:luminance" maskUnits="userSpaceOnUse" x="101" y="45" width="310" height="330">
<path d="M233.157 45.0344L410.107 147.887L278.378 374.51L101.428 271.657L233.157 45.0344Z" fill="white"/>
</mask>
<g mask="url(#mask52_292_970)">
<mask id="mask53_292_970" style="mask-type:luminance" maskUnits="userSpaceOnUse" x="101" y="45" width="310" height="330">
<path d="M233.157 45.0344L410.107 147.887L278.378 374.51L101.428 271.657L233.157 45.0344Z" fill="white"/>
</mask>
<g mask="url(#mask53_292_970)">
<path d="M205.561 254.526C205.458 254.647 204.56 255.311 203.12 256.358C194.246 256.527 182.698 256.368 179.724 257.097L142.432 266.158L140.749 266.57C139.991 266.757 139.234 266.841 138.486 266.841L149.679 249.99L192.236 244.361C192.236 244.361 206.234 253.712 205.561 254.526Z" fill="#38B6FF"/>
</g>
</g>
</g>
<mask id="mask54_292_970" style="mask-type:luminance" maskUnits="userSpaceOnUse" x="121" y="218" width="113" height="51">
<path d="M121 218.056H233.512V268.327H121V218.056Z" fill="white"/>
</mask>
<g mask="url(#mask54_292_970)">
<mask id="mask55_292_970" style="mask-type:luminance" maskUnits="userSpaceOnUse" x="101" y="45" width="310" height="330">
<path d="M233.157 45.0337L410.107 147.886L278.378 374.509L101.428 271.657L233.157 45.0337Z" fill="white"/>
</mask>
<g mask="url(#mask55_292_970)">
<mask id="mask56_292_970" style="mask-type:luminance" maskUnits="userSpaceOnUse" x="101" y="45" width="310" height="330">
<path d="M233.157 45.0337L410.107 147.886L278.378 374.509L101.428 271.657L233.157 45.0337Z" fill="white"/>
</mask>
<g mask="url(#mask56_292_970)">
<path d="M223.356 245.754L223.244 245.838L211.845 255.199C211.574 255.199 211.303 255.208 211.041 255.217L210.648 255.245L210.171 255.255C209.554 255.283 208.928 255.311 208.292 255.32C207.039 255.348 205.776 255.339 204.514 255.339C204.514 255.339 204.505 255.348 204.505 255.339L196.893 255.264C194.349 255.227 191.806 255.217 189.253 255.217C187.981 255.208 186.7 255.236 185.419 255.264C184.138 255.301 182.857 255.339 181.529 255.451L180.529 255.545L179.444 255.722L177.583 256.162L173.871 257.05L166.446 258.845L151.606 262.474L144.19 264.288L140.478 265.195C140.141 265.279 139.795 265.335 139.459 265.382C138.72 265.466 137.981 265.447 137.252 265.316C135.11 264.97 133.147 263.708 131.875 261.913C131.707 261.698 131.576 261.464 131.435 261.23C131.286 260.996 131.174 260.744 131.061 260.501C130.931 260.258 130.846 259.996 130.753 259.734C130.659 259.491 130.566 259.182 130.472 258.874L129.36 255.227L127.125 247.923L126.003 244.267C125.6 242.986 125.301 241.995 125.245 240.882C125.086 238.675 125.881 236.431 127.33 234.795C128.05 233.972 128.929 233.298 129.921 232.831C130.173 232.728 130.407 232.588 130.669 232.513C130.931 232.447 131.183 232.354 131.445 232.279L132.249 232.13C132.539 232.092 132.876 232.055 133.184 232.008L138.608 231.325L180.603 225.948L193.751 224.265L208.89 222.311L216.455 221.329L217.4 221.198L217.877 221.142L218.307 221.105C218.587 221.067 218.877 221.067 219.158 221.067C219.448 221.058 219.728 221.105 220.009 221.123C221.149 221.245 222.244 221.638 223.235 222.199C224.226 222.778 225.124 223.536 225.825 224.452C226.171 224.911 226.489 225.387 226.741 225.911C226.882 226.164 227.003 226.435 227.106 226.706L227.265 227.108L227.415 227.566L228.658 231.176L229.276 232.98L229.593 233.878C229.687 234.168 229.752 234.449 229.837 234.729C230.416 236.992 230.117 239.47 228.948 241.518L228.873 241.649C227.723 243.641 225.769 245.137 223.534 245.698L223.356 245.754ZM231.482 234.308C231.398 233.981 231.314 233.626 231.211 233.317L229.117 226.968L228.967 226.519L228.78 226.033C228.677 225.705 228.527 225.397 228.369 225.079C228.069 224.452 227.695 223.873 227.284 223.311C226.452 222.208 225.386 221.273 224.189 220.562C222.992 219.852 221.654 219.365 220.261 219.197C219.915 219.16 219.569 219.104 219.214 219.113C218.858 219.094 218.512 219.094 218.157 219.132L217.643 219.169L217.166 219.234L216.221 219.337L208.638 220.235L193.48 222.04L180.697 223.583L135.774 228.997L132.876 229.352C132.548 229.39 132.258 229.418 131.912 229.474L130.837 229.67C130.491 229.764 130.145 229.876 129.799 229.979C129.444 230.091 129.126 230.259 128.789 230.4C127.461 231.026 126.274 231.924 125.32 233.018C123.384 235.197 122.346 238.142 122.533 241.041C122.533 241.406 122.608 241.761 122.645 242.116C122.683 242.481 122.767 242.836 122.861 243.182L122.982 243.706C123.029 243.874 123.076 244.015 123.122 244.174L123.403 245.09L124.506 248.737L126.723 256.04L127.835 259.696C127.929 259.996 128.013 260.295 128.144 260.65C128.265 260.987 128.378 261.333 128.546 261.66C128.696 261.987 128.845 262.315 129.032 262.623C129.219 262.932 129.397 263.25 129.621 263.54C131.286 265.906 133.895 267.598 136.775 268.084C138.215 268.337 139.721 268.271 141.123 267.925L144.836 267.028L152.251 265.232L167.1 261.641L174.516 259.818L178.228 258.911L180.08 258.453L180.875 258.303L181.772 258.2C184.203 257.957 186.766 257.91 189.281 257.817L196.902 257.602C199.446 257.527 201.989 257.443 204.542 257.293C205.814 257.228 207.095 257.153 208.376 257.041C209.012 257.003 209.657 256.929 210.302 256.854L210.779 256.798L211.331 256.713C211.696 256.657 212.06 256.592 212.425 256.517L224.03 247.063C226.639 246.409 228.967 244.641 230.314 242.294C231.716 239.919 232.146 236.983 231.482 234.308Z" fill="#2B2B2B"/>
</g>
</g>
</g>
<mask id="mask57_292_970" style="mask-type:luminance" maskUnits="userSpaceOnUse" x="173" y="213" width="80" height="73">
<path d="M173.665 213.269H252.663V285.085H173.665V213.269Z" fill="white"/>
</mask>
<g mask="url(#mask57_292_970)">
<mask id="mask58_292_970" style="mask-type:luminance" maskUnits="userSpaceOnUse" x="101" y="45" width="310" height="330">
<path d="M233.157 45.0344L410.107 147.887L278.378 374.51L101.428 271.657L233.157 45.0344Z" fill="white"/>
</mask>
<g mask="url(#mask58_292_970)">
<mask id="mask59_292_970" style="mask-type:luminance" maskUnits="userSpaceOnUse" x="101" y="45" width="310" height="330">
<path d="M233.157 45.0344L410.107 147.887L278.378 374.51L101.428 271.657L233.157 45.0344Z" fill="white"/>
</mask>
<g mask="url(#mask59_292_970)">
<path d="M178.705 216.56L175.432 220.114C174.011 221.657 173.964 224.013 175.32 225.594C180.491 231.606 193.209 246.1 204.261 256.34C215.333 266.607 231.146 279.035 237.654 284.075C239.337 285.375 241.731 285.169 243.171 283.598L249.268 276.987C250.848 275.266 250.689 272.573 248.922 271.068L184.372 216.196C182.698 214.774 180.201 214.933 178.705 216.56Z" fill="#38B6FF"/>
<path d="M180.015 214.746L176.732 218.309C175.32 219.843 175.264 222.199 176.63 223.779C181.801 229.792 194.518 244.296 205.562 254.526C216.643 264.793 232.455 277.23 238.964 282.261C240.638 283.561 243.031 283.355 244.481 281.784L250.568 275.173C252.158 273.452 251.999 270.759 250.232 269.254L185.681 214.391C184.008 212.97 181.511 213.129 180.015 214.746Z" fill="#38B6FF"/>
</g>
</g>
</g>
<mask id="mask60_292_970" style="mask-type:luminance" maskUnits="userSpaceOnUse" x="171" y="213" width="82" height="75">
<path d="M171.271 213.269H252.663V287.479H171.271V213.269Z" fill="white"/>
</mask>
<g mask="url(#mask60_292_970)">
<mask id="mask61_292_970" style="mask-type:luminance" maskUnits="userSpaceOnUse" x="101" y="45" width="310" height="330">
<path d="M233.157 45.0344L410.107 147.887L278.378 374.51L101.428 271.657L233.157 45.0344Z" fill="white"/>
</mask>
<g mask="url(#mask61_292_970)">
<mask id="mask62_292_970" style="mask-type:luminance" maskUnits="userSpaceOnUse" x="101" y="45" width="310" height="330">
<path d="M233.157 45.0344L410.107 147.887L278.378 374.51L101.428 271.657L233.157 45.0344Z" fill="white"/>
</mask>
<g mask="url(#mask62_292_970)">
<path d="M183.409 216.402C182.072 215.625 180.333 215.859 179.238 217.047L175.956 220.61C174.787 221.881 174.75 223.817 175.872 225.117C180.866 230.924 193.686 245.549 204.748 255.807C215.848 266.093 231.773 278.595 238.103 283.495C239.487 284.571 241.442 284.402 242.648 283.103L248.735 276.501C249.371 275.809 249.689 274.92 249.633 273.995C249.577 273.06 249.156 272.218 248.455 271.62L183.895 216.757C183.746 216.617 183.587 216.504 183.409 216.402ZM237.757 285.01C237.57 284.907 237.383 284.786 237.215 284.646C230.866 279.736 214.913 267.197 203.766 256.873C192.648 246.568 179.781 231.896 174.769 226.061C173.179 224.21 173.226 221.442 174.9 219.628L178.182 216.065C179.949 214.148 182.867 213.961 184.84 215.644L249.39 270.507C250.4 271.358 250.998 272.564 251.083 273.892C251.157 275.229 250.699 276.491 249.802 277.473L243.705 284.085C242.143 285.786 239.684 286.132 237.757 285.01Z" fill="#2B2B2B"/>
</g>
</g>
</g>
<mask id="mask63_292_970" style="mask-type:luminance" maskUnits="userSpaceOnUse" x="178" y="162" width="118" height="119">
<path d="M178.453 162.998H295.752V280.297H178.453V162.998Z" fill="white"/>
</mask>
<g mask="url(#mask63_292_970)">
<mask id="mask64_292_970" style="mask-type:luminance" maskUnits="userSpaceOnUse" x="101" y="45" width="310" height="330">
<path d="M233.157 45.0344L410.107 147.887L278.378 374.51L101.428 271.657L233.157 45.0344Z" fill="white"/>
</mask>
<g mask="url(#mask64_292_970)">
<mask id="mask65_292_970" style="mask-type:luminance" maskUnits="userSpaceOnUse" x="101" y="45" width="310" height="330">
<path d="M233.157 45.0344L410.107 147.887L278.378 374.51L101.428 271.657L233.157 45.0344Z" fill="white"/>
</mask>
<g mask="url(#mask65_292_970)">
<path d="M258.124 276.379C252.625 282.168 243.499 279.802 234.578 274.892C221.365 267.627 208.591 254.834 208.591 254.834C208.591 254.834 194.854 243.071 186.597 230.447C183.325 225.435 180.903 220.282 180.547 215.672C180.304 212.446 181.071 209.482 183.268 207.032C193.386 195.717 231.37 176.716 248.66 168.421C253.962 165.869 257.319 164.335 257.319 164.335L274.937 182.859L294.752 199.009C294.752 199.009 271.776 262.007 258.124 276.379Z" fill="#38B6FF"/>
</g>
</g>
</g>
<mask id="mask66_292_970" style="mask-type:luminance" maskUnits="userSpaceOnUse" x="178" y="167" width="75" height="52">
<path d="M178.453 167.785H252.663V218.056H178.453V167.785Z" fill="white"/>
</mask>
<g mask="url(#mask66_292_970)">
<mask id="mask67_292_970" style="mask-type:luminance" maskUnits="userSpaceOnUse" x="101" y="45" width="310" height="330">
<path d="M233.157 45.0337L410.107 147.886L278.378 374.509L101.428 271.657L233.157 45.0337Z" fill="white"/>
</mask>
<g mask="url(#mask67_292_970)">
<mask id="mask68_292_970" style="mask-type:luminance" maskUnits="userSpaceOnUse" x="101" y="45" width="310" height="330">
<path d="M233.157 45.0337L410.107 147.886L278.378 374.509L101.428 271.657L233.157 45.0337Z" fill="white"/>
</mask>
<g mask="url(#mask68_292_970)">
<path d="M252.391 186.141C252.391 186.141 247.361 187.001 241.6 190.134C235.849 193.267 217.054 197.194 211.097 196.558C205.141 195.932 183.175 209.762 181.595 214.503C181.37 215.176 181.006 215.541 180.547 215.672C180.304 212.446 181.071 209.481 183.268 207.022C193.386 195.717 231.37 176.715 248.66 168.421L252.391 186.141Z" fill="#38B6FF"/>
</g>
</g>
</g>
<mask id="mask69_292_970" style="mask-type:luminance" maskUnits="userSpaceOnUse" x="178" y="162" width="118" height="121">
<path d="M178.453 162.998H295.752V282.691H178.453V162.998Z" fill="white"/>
</mask>
<g mask="url(#mask69_292_970)">
<mask id="mask70_292_970" style="mask-type:luminance" maskUnits="userSpaceOnUse" x="101" y="45" width="310" height="330">
<path d="M233.157 45.0344L410.107 147.887L278.378 374.51L101.428 271.657L233.157 45.0344Z" fill="white"/>
</mask>
<g mask="url(#mask70_292_970)">
<mask id="mask71_292_970" style="mask-type:luminance" maskUnits="userSpaceOnUse" x="101" y="45" width="310" height="330">
<path d="M233.157 45.0344L410.107 147.887L278.378 374.51L101.428 271.657L233.157 45.0344Z" fill="white"/>
</mask>
<g mask="url(#mask71_292_970)">
<path d="M256.955 275.266C259.19 272.779 261.153 269.833 263.024 266.85C264.884 263.858 266.614 260.754 268.279 257.612C271.599 251.318 274.666 244.866 277.621 238.367C280.557 231.859 283.39 225.285 286.121 218.683C288.861 212.081 291.516 205.433 294.069 198.765L294.294 199.57L274.479 183.43L274.413 183.364L256.796 164.84L257.619 164.989C246.753 170.095 235.999 175.453 225.386 181.064C220.084 183.879 214.81 186.759 209.62 189.76C204.449 192.781 199.306 195.876 194.396 199.28C191.946 200.982 189.534 202.74 187.299 204.666C186.738 205.133 186.214 205.648 185.672 206.143C185.129 206.639 184.662 207.181 184.157 207.696C183.259 208.734 182.567 209.893 182.137 211.174C181.323 213.746 181.623 216.645 182.446 219.366C183.268 222.115 184.559 224.752 186.055 227.267C187.551 229.792 189.263 232.205 191.058 234.552C192.863 236.89 194.789 239.143 196.781 241.35C198.763 243.557 200.839 245.689 202.952 247.765C205.075 249.841 207.263 251.889 209.47 253.806L209.508 253.834L209.554 253.871C211.247 255.526 213.042 257.163 214.847 258.752C216.661 260.342 218.503 261.894 220.383 263.391C224.133 266.392 228.032 269.216 232.109 271.713C234.138 272.947 236.214 274.126 238.356 275.117C240.488 276.117 242.676 276.978 244.901 277.548C247.127 278.109 249.39 278.362 251.512 278.053C253.635 277.772 255.496 276.763 256.955 275.266ZM259.283 277.492C257.357 279.493 254.654 280.868 251.943 281.186C249.231 281.55 246.584 281.195 244.116 280.55C241.638 279.886 239.291 278.941 237.046 277.866C234.783 276.791 232.642 275.547 230.538 274.247C226.349 271.629 222.393 268.711 218.597 265.607C216.689 264.064 214.828 262.474 213.005 260.838C211.172 259.201 209.395 257.555 207.628 255.797L207.703 255.872C205.412 253.852 203.242 251.786 201.101 249.644C198.969 247.512 196.884 245.334 194.873 243.071C192.872 240.808 190.927 238.489 189.085 236.067C187.271 233.635 185.522 231.139 183.989 228.492C182.446 225.846 181.099 223.05 180.22 220.03C179.799 218.524 179.453 216.963 179.407 215.335C179.35 213.727 179.472 212.063 180.014 210.482C180.547 208.902 181.436 207.443 182.53 206.218C183.072 205.666 183.605 205.077 184.176 204.554C184.755 204.049 185.307 203.506 185.905 203.02C188.243 201.028 190.721 199.261 193.227 197.559C198.24 194.146 203.439 191.079 208.675 188.086C213.921 185.113 219.233 182.27 224.572 179.493C235.27 173.966 246.08 168.702 257.02 163.671L257.497 163.456L257.843 163.83L275.461 182.354L275.395 182.298L295.21 198.438L295.603 198.765L295.425 199.252C293.022 206.003 290.516 212.717 287.916 219.394C285.326 226.08 282.642 232.728 279.837 239.33C277.022 245.932 274.086 252.487 270.869 258.939C269.251 262.156 267.568 265.354 265.726 268.487C263.875 271.61 261.892 274.696 259.283 277.492Z" fill="#2B2B2B"/>
</g>
</g>
</g>
<mask id="mask72_292_970" style="mask-type:luminance" maskUnits="userSpaceOnUse" x="267" y="208" width="24" height="46">
<path d="M267.026 208.481H290.965V253.964H267.026V208.481Z" fill="white"/>
</mask>
<g mask="url(#mask72_292_970)">
<mask id="mask73_292_970" style="mask-type:luminance" maskUnits="userSpaceOnUse" x="101" y="45" width="310" height="330">
<path d="M233.157 45.0344L410.107 147.887L278.378 374.51L101.428 271.657L233.157 45.0344Z" fill="white"/>
</mask>
<g mask="url(#mask73_292_970)">
<mask id="mask74_292_970" style="mask-type:luminance" maskUnits="userSpaceOnUse" x="101" y="45" width="310" height="330">
<path d="M233.157 45.0344L410.107 147.887L278.378 374.51L101.428 271.657L233.157 45.0344Z" fill="white"/>
</mask>
<g mask="url(#mask74_292_970)">
<path d="M275.75 210.296C275.75 210.296 260.91 237.863 271.636 252.955C278.387 238.788 284.952 222.48 289.02 211.988C284.279 211.165 275.75 210.296 275.75 210.296Z" fill="#38B6FF"/>
</g>
</g>
</g>
<mask id="mask75_292_970" style="mask-type:luminance" maskUnits="userSpaceOnUse" x="264" y="208" width="27" height="49">
<path d="M264.632 208.481H290.965V256.358H264.632V208.481Z" fill="white"/>
</mask>
<g mask="url(#mask75_292_970)">
<mask id="mask76_292_970" style="mask-type:luminance" maskUnits="userSpaceOnUse" x="101" y="45" width="310" height="330">
<path d="M233.156 45.0344L410.106 147.887L278.378 374.51L101.428 271.657L233.156 45.0344Z" fill="white"/>
</mask>
<g mask="url(#mask76_292_970)">
<mask id="mask77_292_970" style="mask-type:luminance" maskUnits="userSpaceOnUse" x="101" y="45" width="310" height="330">
<path d="M233.156 45.0344L410.106 147.887L278.378 374.51L101.428 271.657L233.156 45.0344Z" fill="white"/>
</mask>
<g mask="url(#mask77_292_970)">
<path d="M276.161 211.071C274.413 214.513 263.182 237.769 271.533 251.487C277.854 238.105 283.904 223.144 288.019 212.558C283.96 211.904 277.91 211.249 276.161 211.071ZM271.851 254.18L271.037 253.376C260.18 238.096 274.497 211.1 275.114 209.949L275.338 209.529L275.825 209.575C275.909 209.585 284.428 210.454 289.141 211.268L290.01 211.417L289.692 212.24C285.447 223.2 278.995 239.199 272.29 253.263L271.851 254.18Z" fill="#2B2B2B"/>
</g>
</g>
</g>
<mask id="mask78_292_970" style="mask-type:luminance" maskUnits="userSpaceOnUse" x="207" y="167" width="44" height="28">
<path d="M207.179 167.785H250.269V194.118H207.179V167.785Z" fill="white"/>
</mask>
<g mask="url(#mask78_292_970)">
<mask id="mask79_292_970" style="mask-type:luminance" maskUnits="userSpaceOnUse" x="101" y="45" width="310" height="330">
<path d="M233.157 45.0337L410.107 147.886L278.378 374.509L101.428 271.657L233.157 45.0337Z" fill="white"/>
</mask>
<g mask="url(#mask79_292_970)">
<mask id="mask80_292_970" style="mask-type:luminance" maskUnits="userSpaceOnUse" x="101" y="45" width="310" height="330">
<path d="M233.157 45.0337L410.107 147.886L278.378 374.509L101.428 271.657L233.157 45.0337Z" fill="white"/>
</mask>
<g mask="url(#mask80_292_970)">
<path d="M249.511 182.775C249.511 182.775 223.272 199.775 207.422 190.246C220.981 182.382 236.672 174.537 246.79 169.646C247.978 174.322 249.511 182.775 249.511 182.775Z" fill="#38B6FF"/>
</g>
</g>
</g>
<mask id="mask81_292_970" style="mask-type:luminance" maskUnits="userSpaceOnUse" x="204" y="167" width="49" height="28">
<path d="M204.785 167.785H252.663V194.118H204.785V167.785Z" fill="white"/>
</mask>
<g mask="url(#mask81_292_970)">
<mask id="mask82_292_970" style="mask-type:luminance" maskUnits="userSpaceOnUse" x="101" y="45" width="310" height="330">
<path d="M233.157 45.0337L410.107 147.886L278.378 374.509L101.428 271.657L233.157 45.0337Z" fill="white"/>
</mask>
<g mask="url(#mask82_292_970)">
<mask id="mask83_292_970" style="mask-type:luminance" maskUnits="userSpaceOnUse" x="101" y="45" width="310" height="330">
<path d="M233.157 45.0337L410.107 147.886L278.378 374.509L101.428 271.657L233.157 45.0337Z" fill="white"/>
</mask>
<g mask="url(#mask83_292_970)">
<path d="M246.304 170.683C236.092 175.63 221.692 182.858 208.89 190.227C223.179 197.493 245.425 184.448 248.716 182.419C248.389 180.689 247.267 174.695 246.304 170.683ZM207.3 191.013C207.216 190.966 207.132 190.919 207.048 190.872L206.945 190.788L206.197 190.124L207.057 189.619C220.513 181.811 235.915 174.096 246.472 168.991L247.267 168.607L247.491 169.468C248.67 174.106 250.212 182.559 250.222 182.643L250.315 183.12L249.904 183.382C248.819 184.083 223.366 200.354 207.3 191.013Z" fill="#2B2B2B"/>
</g>
</g>
</g>
<mask id="mask84_292_970" style="mask-type:luminance" maskUnits="userSpaceOnUse" x="185" y="198" width="78" height="78">
<path d="M185.635 198.906H262.238V275.51H185.635V198.906Z" fill="white"/>
</mask>
<g mask="url(#mask84_292_970)">
<mask id="mask85_292_970" style="mask-type:luminance" maskUnits="userSpaceOnUse" x="101" y="45" width="310" height="330">
<path d="M233.157 45.0344L410.107 147.887L278.378 374.51L101.428 271.657L233.157 45.0344Z" fill="white"/>
</mask>
<g mask="url(#mask85_292_970)">
<mask id="mask86_292_970" style="mask-type:luminance" maskUnits="userSpaceOnUse" x="101" y="45" width="310" height="330">
<path d="M233.157 45.0344L410.107 147.887L278.378 374.51L101.428 271.657L233.157 45.0344Z" fill="white"/>
</mask>
<g mask="url(#mask86_292_970)">
<path d="M260.003 247.307L234.577 274.892C221.373 267.627 208.591 254.834 208.591 254.834C208.591 254.834 197.313 245.175 189.056 233.972C188.205 232.813 187.382 231.625 186.606 230.447L212.032 202.852C214.407 200.271 218.409 200.112 220.962 202.478L226.46 207.574L259.675 238.339C262.238 240.714 262.378 244.726 260.003 247.307Z" fill="#38B6FF"/>
</g>
</g>
</g>
<mask id="mask87_292_970" style="mask-type:luminance" maskUnits="userSpaceOnUse" x="185" y="198" width="44" height="37">
<path d="M185.635 198.906H228.724V234.814H185.635V198.906Z" fill="white"/>
</mask>
<g mask="url(#mask87_292_970)">
<mask id="mask88_292_970" style="mask-type:luminance" maskUnits="userSpaceOnUse" x="101" y="45" width="310" height="330">
<path d="M233.157 45.0344L410.107 147.887L278.378 374.51L101.428 271.657L233.157 45.0344Z" fill="white"/>
</mask>
<g mask="url(#mask88_292_970)">
<mask id="mask89_292_970" style="mask-type:luminance" maskUnits="userSpaceOnUse" x="101" y="45" width="310" height="330">
<path d="M233.157 45.0344L410.107 147.887L278.378 374.51L101.428 271.657L233.157 45.0344Z" fill="white"/>
</mask>
<g mask="url(#mask89_292_970)">
<path d="M228.116 210.342C228.116 210.342 218.961 202.347 214.894 205.386C211.481 207.92 194.49 227.632 189.057 233.972C188.196 232.803 187.374 231.625 186.597 230.447L212.032 202.852C214.407 200.271 218.41 200.112 220.963 202.478L226.461 207.574L228.116 210.342Z" fill="#38B6FF"/>
</g>
</g>
</g>
<mask id="mask90_292_970" style="mask-type:luminance" maskUnits="userSpaceOnUse" x="185" y="198" width="80" height="80">
<path d="M185.635 198.906H264.632V277.903H185.635V198.906Z" fill="white"/>
</mask>
<g mask="url(#mask90_292_970)">
<mask id="mask91_292_970" style="mask-type:luminance" maskUnits="userSpaceOnUse" x="101" y="45" width="310" height="330">
<path d="M233.157 45.0344L410.107 147.887L278.378 374.51L101.428 271.657L233.157 45.0344Z" fill="white"/>
</mask>
<g mask="url(#mask91_292_970)">
<mask id="mask92_292_970" style="mask-type:luminance" maskUnits="userSpaceOnUse" x="101" y="45" width="310" height="330">
<path d="M233.157 45.0344L410.107 147.887L278.378 374.51L101.428 271.657L233.157 45.0344Z" fill="white"/>
</mask>
<g mask="url(#mask92_292_970)">
<path d="M259.339 246.69C259.994 245.951 260.48 245.063 260.667 244.09C260.882 243.127 260.789 242.108 260.48 241.182C260.312 240.714 260.078 240.275 259.807 239.873C259.657 239.686 259.517 239.48 259.339 239.302L259.087 239.041L258.769 238.751L256.253 236.413L246.173 227.081L226.012 208.407L220.981 203.731L220.345 203.151C220.149 203.002 219.981 202.815 219.775 202.693C219.382 202.394 218.924 202.197 218.466 202.02C218.008 201.861 217.521 201.767 217.035 201.73C216.539 201.72 216.044 201.73 215.567 201.842C215.09 201.945 214.613 202.104 214.183 202.338C213.744 202.562 213.341 202.852 212.986 203.189L212.715 203.45L212.425 203.759L211.836 204.395L210.667 205.667L205.982 210.744L196.575 220.853L191.862 225.912L187.13 230.933L187.205 230.045C188.711 232.308 190.319 234.505 192.021 236.637C193.742 238.751 195.509 240.827 197.36 242.828C199.212 244.838 201.11 246.802 203.065 248.719C205.01 250.627 207.011 252.506 209.059 254.292L209.077 254.301L209.096 254.33C211.032 256.228 213.052 258.079 215.109 259.875C217.157 261.67 219.261 263.419 221.411 265.111C223.543 266.804 225.75 268.403 227.995 269.955C230.239 271.498 232.558 272.929 234.924 274.257L234.045 274.397L240.347 267.458L246.669 260.529L259.339 246.69ZM260.667 247.924L247.903 261.661L241.516 268.534L235.101 275.379L234.709 275.809L234.222 275.528C231.81 274.163 229.453 272.714 227.181 271.152C224.909 269.581 222.674 267.963 220.514 266.243C218.354 264.541 216.231 262.774 214.155 260.969C212.079 259.145 210.059 257.294 208.077 255.349L208.114 255.386C206.029 253.563 204.028 251.683 202.055 249.757C200.091 247.821 198.174 245.848 196.304 243.819C194.434 241.79 192.638 239.686 190.899 237.544C189.169 235.384 187.542 233.149 185.999 230.84L185.672 230.391L186.074 229.951L190.693 224.818L195.35 219.712L204.664 209.51L209.339 204.432L210.508 203.161L211.097 202.525L211.396 202.207L211.742 201.861C212.229 201.412 212.762 201.019 213.351 200.72C213.931 200.402 214.557 200.196 215.202 200.056C215.838 199.906 216.502 199.888 217.147 199.916C217.802 199.953 218.447 200.084 219.074 200.299C219.681 200.533 220.289 200.804 220.813 201.197C221.093 201.365 221.327 201.599 221.58 201.805L222.206 202.394L227.246 207.06L247.407 225.734L257.488 235.076L260.003 237.404L260.321 237.703L260.667 238.059C260.901 238.283 261.088 238.554 261.284 238.816C261.658 239.358 261.967 239.938 262.182 240.565C262.612 241.799 262.724 243.155 262.444 244.445C262.201 245.745 261.546 246.942 260.667 247.924Z" fill="#2B2B2B"/>
</g>
</g>
</g>
<mask id="mask93_292_970" style="mask-type:luminance" maskUnits="userSpaceOnUse" x="154" y="225" width="15" height="37">
<path d="M154.514 225.238H168.877V261.146H154.514V225.238Z" fill="white"/>
</mask>
<g mask="url(#mask93_292_970)">
<mask id="mask94_292_970" style="mask-type:luminance" maskUnits="userSpaceOnUse" x="101" y="45" width="310" height="330">
<path d="M233.157 45.0337L410.107 147.886L278.379 374.509L101.429 271.657L233.157 45.0337Z" fill="white"/>
</mask>
<g mask="url(#mask94_292_970)">
<mask id="mask95_292_970" style="mask-type:luminance" maskUnits="userSpaceOnUse" x="101" y="45" width="310" height="330">
<path d="M233.157 45.0337L410.107 147.886L278.379 374.509L101.429 271.657L233.157 45.0337Z" fill="white"/>
</mask>
<g mask="url(#mask95_292_970)">
<path d="M164.361 260.211C168.626 239.096 156.535 229.259 156.011 228.847L157.788 226.575C158.367 227.024 171.805 237.834 167.176 260.772L164.361 260.211Z" fill="#2B2B2B"/>
</g>
</g>
</g>
<mask id="mask96_292_970" style="mask-type:luminance" maskUnits="userSpaceOnUse" x="204" y="287" width="35" height="18">
<path d="M204.785 287.479H238.299V304.236H204.785V287.479Z" fill="white"/>
</mask>
<g mask="url(#mask96_292_970)">
<mask id="mask97_292_970" style="mask-type:luminance" maskUnits="userSpaceOnUse" x="101" y="45" width="310" height="330">
<path d="M233.157 45.0344L410.107 147.887L278.378 374.51L101.428 271.657L233.157 45.0344Z" fill="white"/>
</mask>
<g mask="url(#mask97_292_970)">
<mask id="mask98_292_970" style="mask-type:luminance" maskUnits="userSpaceOnUse" x="101" y="45" width="310" height="330">
<path d="M233.157 45.0344L410.107 147.887L278.378 374.51L101.428 271.657L233.157 45.0344Z" fill="white"/>
</mask>
<g mask="url(#mask98_292_970)">
<path d="M205.776 291.846L205.037 289.069C205.739 288.872 222.486 284.524 237.981 301.908L235.83 303.834C221.57 287.834 206.412 291.677 205.776 291.846Z" fill="#2B2B2B"/>
</g>
</g>
</g>
<mask id="mask99_292_970" style="mask-type:luminance" maskUnits="userSpaceOnUse" x="121" y="227" width="29" height="44">
<path d="M121 227.632H149.726V270.722H121V227.632Z" fill="white"/>
</mask>
<g mask="url(#mask99_292_970)">
<mask id="mask100_292_970" style="mask-type:luminance" maskUnits="userSpaceOnUse" x="101" y="45" width="310" height="330">
<path d="M233.157 45.0347L410.107 147.887L278.378 374.51L101.428 271.657L233.157 45.0347Z" fill="white"/>
</mask>
<g mask="url(#mask100_292_970)">
<mask id="mask101_292_970" style="mask-type:luminance" maskUnits="userSpaceOnUse" x="101" y="45" width="310" height="330">
<path d="M233.157 45.0347L410.107 147.887L278.378 374.51L101.428 271.657L233.157 45.0347Z" fill="white"/>
</mask>
<g mask="url(#mask101_292_970)">
<path d="M140.693 268.3C133.615 270.497 128.116 264.026 124.899 253.488C124.488 252.132 124.123 250.776 123.843 249.439C122.524 243.351 122.543 237.6 124.553 233.897C125.545 232.074 127.013 230.746 129.051 230.11C132.923 228.904 137.177 230.381 140.759 233.692C143.732 236.441 146.229 240.434 147.688 245.212C148.109 246.605 148.427 247.999 148.632 249.383C149.998 258.36 146.828 266.392 140.693 268.3Z" fill="#38B6FF"/>
</g>
</g>
</g>
<mask id="mask102_292_970" style="mask-type:luminance" maskUnits="userSpaceOnUse" x="123" y="227" width="20" height="8">
<path d="M123.394 227.632H142.545V234.814H123.394V227.632Z" fill="white"/>
</mask>
<g mask="url(#mask102_292_970)">
<mask id="mask103_292_970" style="mask-type:luminance" maskUnits="userSpaceOnUse" x="101" y="45" width="310" height="330">
<path d="M233.157 45.0347L410.107 147.887L278.378 374.51L101.428 271.657L233.157 45.0347Z" fill="white"/>
</mask>
<g mask="url(#mask103_292_970)">
<mask id="mask104_292_970" style="mask-type:luminance" maskUnits="userSpaceOnUse" x="101" y="45" width="310" height="330">
<path d="M233.157 45.0347L410.107 147.887L278.378 374.51L101.428 271.657L233.157 45.0347Z" fill="white"/>
</mask>
<g mask="url(#mask104_292_970)">
<path d="M140.758 233.692C140.225 233.533 130.173 230.466 124.553 233.897C125.544 232.074 127.012 230.746 129.051 230.11C132.922 228.904 137.177 230.381 140.758 233.692Z" fill="#F6F4F1"/>
</g>
</g>
</g>
<mask id="mask105_292_970" style="mask-type:luminance" maskUnits="userSpaceOnUse" x="123" y="249" width="27" height="22">
<path d="M123.394 249.177H149.726V270.722H123.394V249.177Z" fill="white"/>
</mask>
<g mask="url(#mask105_292_970)">
<mask id="mask106_292_970" style="mask-type:luminance" maskUnits="userSpaceOnUse" x="101" y="45" width="310" height="330">
<path d="M233.157 45.0344L410.107 147.887L278.378 374.51L101.428 271.657L233.157 45.0344Z" fill="white"/>
</mask>
<g mask="url(#mask106_292_970)">
<mask id="mask107_292_970" style="mask-type:luminance" maskUnits="userSpaceOnUse" x="101" y="45" width="310" height="330">
<path d="M233.157 45.0344L410.107 147.887L278.378 374.51L101.428 271.657L233.157 45.0344Z" fill="white"/>
</mask>
<g mask="url(#mask107_292_970)">
<path d="M140.693 268.3C133.614 270.497 128.116 264.027 124.899 253.488C124.488 252.132 124.123 250.776 123.842 249.439C126.292 253.722 130.173 256.536 132.137 258.64C137.99 264.896 148.632 249.383 148.632 249.383C149.997 258.36 146.827 266.392 140.693 268.3Z" fill="#38B6FF"/>
</g>
</g>
</g>
<mask id="mask108_292_970" style="mask-type:luminance" maskUnits="userSpaceOnUse" x="121" y="227" width="32" height="44">
<path d="M121 227.632H152.12V270.722H121V227.632Z" fill="white"/>
</mask>
<g mask="url(#mask108_292_970)">
<mask id="mask109_292_970" style="mask-type:luminance" maskUnits="userSpaceOnUse" x="101" y="45" width="310" height="330">
<path d="M233.157 45.0347L410.107 147.887L278.378 374.51L101.428 271.657L233.157 45.0347Z" fill="white"/>
</mask>
<g mask="url(#mask109_292_970)">
<mask id="mask110_292_970" style="mask-type:luminance" maskUnits="userSpaceOnUse" x="101" y="45" width="310" height="330">
<path d="M233.157 45.0347L410.107 147.887L278.378 374.51L101.428 271.657L233.157 45.0347Z" fill="white"/>
</mask>
<g mask="url(#mask110_292_970)">
<path d="M140.282 266.954C142.03 266.439 143.592 265.308 144.761 263.755C145.939 262.222 146.734 260.342 147.248 258.379C148.258 254.432 148.08 250.131 147.024 246.11C145.976 242.07 144.05 238.208 141.207 235.179C139.795 233.673 138.15 232.373 136.307 231.513C134.475 230.643 132.427 230.251 130.482 230.569C129.509 230.737 128.574 231.064 127.761 231.569C126.947 232.065 126.274 232.785 125.741 233.58C124.675 235.216 124.188 237.255 124.011 239.284C123.833 241.332 123.964 243.426 124.263 245.493C124.562 247.559 125.03 249.617 125.629 251.627C126.218 253.638 126.928 255.62 127.77 257.518C128.612 259.407 129.593 261.231 130.8 262.82C132.006 264.401 133.446 265.747 135.054 266.551C136.681 267.328 138.477 267.459 140.282 266.954ZM141.095 269.647L140.207 269.871C139.908 269.946 139.608 270.039 139.29 270.058C138.673 270.124 138.047 270.208 137.42 270.142C137.102 270.114 136.784 270.142 136.476 270.067L135.541 269.88C135.223 269.834 134.942 269.693 134.643 269.591C134.353 269.478 134.044 269.385 133.773 269.245C131.52 268.141 129.836 266.383 128.509 264.522C127.181 262.643 126.18 260.632 125.339 258.575C124.506 256.508 123.814 254.423 123.291 252.282C122.234 248.018 121.608 243.585 122.103 239.097C122.374 236.871 122.973 234.58 124.338 232.626C125.021 231.663 125.9 230.802 126.928 230.195C127.966 229.587 129.107 229.222 130.248 229.044C132.567 228.717 134.914 229.203 136.934 230.185C138.972 231.167 140.74 232.57 142.273 234.169C145.312 237.404 147.435 241.397 148.716 245.624C149.361 247.746 149.754 249.935 149.923 252.17C150.082 254.395 149.96 256.667 149.502 258.893C149.034 261.128 148.193 263.325 146.827 265.28C145.481 267.225 143.47 268.861 141.095 269.647Z" fill="#2B2B2B"/>
</g>
</g>
</g>
<mask id="mask111_292_970" style="mask-type:luminance" maskUnits="userSpaceOnUse" x="195" y="309" width="41" height="29">
<path d="M195.21 309.023H235.906V337.75H195.21V309.023Z" fill="white"/>
</mask>
<g mask="url(#mask111_292_970)">
<mask id="mask112_292_970" style="mask-type:luminance" maskUnits="userSpaceOnUse" x="101" y="45" width="310" height="330">
<path d="M233.157 45.0344L410.107 147.887L278.379 374.51L101.429 271.657L233.157 45.0344Z" fill="white"/>
</mask>
<g mask="url(#mask112_292_970)">
<mask id="mask113_292_970" style="mask-type:luminance" maskUnits="userSpaceOnUse" x="101" y="45" width="310" height="330">
<path d="M233.157 45.0344L410.107 147.887L278.379 374.51L101.429 271.657L233.157 45.0344Z" fill="white"/>
</mask>
<g mask="url(#mask113_292_970)">
<path d="M231.277 334.898C227.265 337.151 220.991 336.628 213.809 334.056C203.458 330.353 195.154 323.789 197.669 316.803C199.418 311.95 204.972 309.182 211.668 309.182C211.677 309.182 211.677 309.182 211.677 309.182C214.632 309.182 217.811 309.715 220.981 310.847C231.333 314.559 237.682 323.228 235.158 330.213C234.391 332.354 233.054 333.907 231.277 334.898Z" fill="#38B6FF"/>
</g>
</g>
</g>
<mask id="mask114_292_970" style="mask-type:luminance" maskUnits="userSpaceOnUse" x="195" y="309" width="39" height="29">
<path d="M195.21 309.023H233.512V337.75H195.21V309.023Z" fill="white"/>
</mask>
<g mask="url(#mask114_292_970)">
<mask id="mask115_292_970" style="mask-type:luminance" maskUnits="userSpaceOnUse" x="101" y="45" width="310" height="330">
<path d="M233.157 45.0344L410.107 147.887L278.379 374.51L101.429 271.657L233.157 45.0344Z" fill="white"/>
</mask>
<g mask="url(#mask115_292_970)">
<mask id="mask116_292_970" style="mask-type:luminance" maskUnits="userSpaceOnUse" x="101" y="45" width="310" height="330">
<path d="M233.157 45.0344L410.107 147.887L278.379 374.51L101.429 271.657L233.157 45.0344Z" fill="white"/>
</mask>
<g mask="url(#mask116_292_970)">
<path d="M231.277 334.898C227.265 337.151 220.991 336.628 213.809 334.056C203.458 330.353 195.154 323.789 197.669 316.803C199.418 311.95 204.972 309.182 211.668 309.182C211.434 309.388 201.4 318.159 213.155 327.127C220.065 332.401 226.826 334.262 231.277 334.898Z" fill="#38B6FF"/>
</g>
</g>
</g>
<mask id="mask117_292_970" style="mask-type:luminance" maskUnits="userSpaceOnUse" x="195" y="306" width="44" height="32">
<path d="M195.21 306.63H238.3V337.75H195.21V306.63Z" fill="white"/>
</mask>
<g mask="url(#mask117_292_970)">
<mask id="mask118_292_970" style="mask-type:luminance" maskUnits="userSpaceOnUse" x="101" y="45" width="310" height="330">
<path d="M233.157 45.0344L410.107 147.887L278.379 374.51L101.429 271.657L233.157 45.0344Z" fill="white"/>
</mask>
<g mask="url(#mask118_292_970)">
<mask id="mask119_292_970" style="mask-type:luminance" maskUnits="userSpaceOnUse" x="101" y="45" width="310" height="330">
<path d="M233.157 45.0344L410.107 147.887L278.379 374.51L101.429 271.657L233.157 45.0344Z" fill="white"/>
</mask>
<g mask="url(#mask119_292_970)">
<path d="M234.26 329.895C234.943 328.091 234.971 326.043 234.419 324.116C233.877 322.19 232.839 320.367 231.52 318.777C228.893 315.579 225.236 313.25 221.328 311.81C217.419 310.37 213.173 309.706 209.087 310.277C207.058 310.557 205.066 311.137 203.327 312.1C201.578 313.054 200.119 314.429 199.25 316.112C198.829 316.953 198.548 317.851 198.474 318.739C198.389 319.628 198.539 320.526 198.838 321.386C199.455 323.116 200.727 324.687 202.205 326.024C203.691 327.37 205.403 328.53 207.198 329.54C209.003 330.55 210.892 331.438 212.827 332.205C216.708 333.711 220.757 334.964 224.816 335.104C226.835 335.169 228.846 334.898 230.557 334.056C232.268 333.215 233.549 331.719 234.26 329.895ZM236.065 330.54L235.719 331.363C235.607 331.635 235.504 331.915 235.335 332.168C235.036 332.682 234.737 333.206 234.326 333.664C233.577 334.627 232.577 335.356 231.548 335.964C229.407 337.086 227.05 337.479 224.787 337.507C222.515 337.544 220.29 337.208 218.13 336.731C215.969 336.235 213.856 335.59 211.808 334.795C207.722 333.187 203.738 331.111 200.381 328.016C199.549 327.23 198.763 326.37 198.081 325.416C197.408 324.453 196.8 323.396 196.426 322.218C196.061 321.049 195.883 319.759 196.042 318.506C196.192 317.253 196.622 316.065 197.202 315.008C198.389 312.876 200.288 311.259 202.345 310.23C204.412 309.183 206.646 308.631 208.872 308.397C213.342 307.976 217.802 308.753 221.889 310.361C225.966 311.988 229.753 314.447 232.68 317.804C234.12 319.497 235.345 321.433 236.046 323.621C236.757 325.8 236.841 328.278 236.065 330.54Z" fill="#2B2B2B"/>
</g>
</g>
</g>
<mask id="mask120_292_970" style="mask-type:luminance" maskUnits="userSpaceOnUse" x="298" y="220" width="13" height="27">
<path d="M298.146 220.451H310.115V246.783H298.146V220.451Z" fill="white"/>
</mask>
<g mask="url(#mask120_292_970)">
<mask id="mask121_292_970" style="mask-type:luminance" maskUnits="userSpaceOnUse" x="101" y="45" width="310" height="330">
<path d="M233.157 45.0344L410.107 147.887L278.378 374.51L101.428 271.657L233.157 45.0344Z" fill="white"/>
</mask>
<g mask="url(#mask121_292_970)">
<mask id="mask122_292_970" style="mask-type:luminance" maskUnits="userSpaceOnUse" x="101" y="45" width="310" height="330">
<path d="M233.157 45.0344L410.107 147.887L278.378 374.51L101.428 271.657L233.157 45.0344Z" fill="white"/>
</mask>
<g mask="url(#mask122_292_970)">
<path d="M301.391 246.072C294.097 233.458 306.637 221.638 306.768 221.516L308.058 222.919C307.582 223.359 296.519 233.832 303.046 245.109L301.391 246.072Z" fill="#2B2B2B"/>
</g>
</g>
</g>
<mask id="mask123_292_970" style="mask-type:luminance" maskUnits="userSpaceOnUse" x="211" y="153" width="28" height="13">
<path d="M211.967 153.422H238.299V165.391H211.967V153.422Z" fill="white"/>
</mask>
<g mask="url(#mask123_292_970)">
<mask id="mask124_292_970" style="mask-type:luminance" maskUnits="userSpaceOnUse" x="101" y="45" width="310" height="330">
<path d="M233.157 45.0337L410.107 147.886L278.378 374.509L101.428 271.657L233.157 45.0337Z" fill="white"/>
</mask>
<g mask="url(#mask124_292_970)">
<mask id="mask125_292_970" style="mask-type:luminance" maskUnits="userSpaceOnUse" x="101" y="45" width="310" height="330">
<path d="M233.157 45.0337L410.107 147.886L278.378 374.509L101.428 271.657L233.157 45.0337Z" fill="white"/>
</mask>
<g mask="url(#mask125_292_970)">
<path d="M213.248 162.436L213.996 160.669C224.236 165.026 236.214 154.993 236.326 154.89L237.561 156.349C237.037 156.798 224.572 167.252 213.248 162.436Z" fill="#2B2B2B"/>
</g>
</g>
</g>
<mask id="mask126_292_970" style="mask-type:luminance" maskUnits="userSpaceOnUse" x="207" y="208" width="17" height="18">
<path d="M207.179 208.481H223.936V225.238H207.179V208.481Z" fill="white"/>
</mask>
<g mask="url(#mask126_292_970)">
<mask id="mask127_292_970" style="mask-type:luminance" maskUnits="userSpaceOnUse" x="101" y="45" width="310" height="330">
<path d="M233.157 45.0344L410.107 147.887L278.378 374.51L101.428 271.657L233.157 45.0344Z" fill="white"/>
</mask>
<g mask="url(#mask127_292_970)">
<mask id="mask128_292_970" style="mask-type:luminance" maskUnits="userSpaceOnUse" x="101" y="45" width="310" height="330">
<path d="M233.157 45.0344L410.107 147.887L278.378 374.51L101.428 271.657L233.157 45.0344Z" fill="white"/>
</mask>
<g mask="url(#mask128_292_970)">
<path d="M222.104 220.675C220.158 224.023 215.894 225.173 212.565 223.238C211.967 222.892 211.434 222.461 210.985 221.975C208.937 219.787 208.479 216.421 210.069 213.681C211.836 210.642 215.53 209.426 218.681 210.679C218.999 210.801 219.308 210.96 219.607 211.128C222.926 213.064 224.049 217.337 222.104 220.675Z" fill="#38B6FF"/>
</g>
</g>
</g>
<mask id="mask129_292_970" style="mask-type:luminance" maskUnits="userSpaceOnUse" x="209" y="208" width="15" height="18">
<path d="M209.573 208.481H223.936V225.238H209.573V208.481Z" fill="white"/>
</mask>
<g mask="url(#mask129_292_970)">
<mask id="mask130_292_970" style="mask-type:luminance" maskUnits="userSpaceOnUse" x="101" y="45" width="310" height="330">
<path d="M233.157 45.0344L410.107 147.887L278.378 374.51L101.428 271.657L233.157 45.0344Z" fill="white"/>
</mask>
<g mask="url(#mask130_292_970)">
<mask id="mask131_292_970" style="mask-type:luminance" maskUnits="userSpaceOnUse" x="101" y="45" width="310" height="330">
<path d="M233.157 45.0344L410.107 147.887L278.378 374.51L101.428 271.657L233.157 45.0344Z" fill="white"/>
</mask>
<g mask="url(#mask131_292_970)">
<path d="M222.103 220.675C220.158 224.023 215.894 225.173 212.565 223.237C211.967 222.891 211.434 222.461 210.985 221.975C217.989 220.357 218.709 213.587 218.681 210.679C218.999 210.801 219.307 210.959 219.607 211.128C222.926 213.063 224.048 217.337 222.103 220.675Z" fill="#38B6FF"/>
</g>
</g>
</g>
<mask id="mask132_292_970" style="mask-type:luminance" maskUnits="userSpaceOnUse" x="207" y="208" width="17" height="18">
<path d="M207.179 208.481H223.936V225.238H207.179V208.481Z" fill="white"/>
</mask>
<g mask="url(#mask132_292_970)">
<mask id="mask133_292_970" style="mask-type:luminance" maskUnits="userSpaceOnUse" x="101" y="45" width="310" height="330">
<path d="M233.157 45.0344L410.107 147.887L278.378 374.51L101.428 271.657L233.157 45.0344Z" fill="white"/>
</mask>
<g mask="url(#mask133_292_970)">
<mask id="mask134_292_970" style="mask-type:luminance" maskUnits="userSpaceOnUse" x="101" y="45" width="310" height="330">
<path d="M233.157 45.0344L410.107 147.887L278.378 374.51L101.428 271.657L233.157 45.0344Z" fill="white"/>
</mask>
<g mask="url(#mask134_292_970)">
<path d="M219.242 211.754C216.269 210.024 212.435 211.053 210.695 214.045C208.956 217.037 209.957 220.881 212.93 222.611C215.913 224.341 219.738 223.312 221.477 220.32C223.216 217.327 222.216 213.484 219.242 211.754ZM212.201 223.864C208.545 221.732 207.301 217.009 209.442 213.325C211.584 209.631 216.306 208.369 219.972 210.501C223.637 212.633 224.872 217.355 222.73 221.04C220.589 224.724 215.867 225.996 212.201 223.864Z" fill="#2B2B2B"/>
</g>
</g>
</g>
<mask id="mask135_292_970" style="mask-type:luminance" maskUnits="userSpaceOnUse" x="252" y="84" width="27" height="27">
<path d="M252.663 84H278.995V110.333H252.663V84Z" fill="white"/>
</mask>
<g mask="url(#mask135_292_970)">
<mask id="mask136_292_970" style="mask-type:luminance" maskUnits="userSpaceOnUse" x="101" y="45" width="310" height="330">
<path d="M233.157 45.0344L410.107 147.887L278.378 374.51L101.428 271.657L233.157 45.0344Z" fill="white"/>
</mask>
<g mask="url(#mask136_292_970)">
<mask id="mask137_292_970" style="mask-type:luminance" maskUnits="userSpaceOnUse" x="101" y="45" width="310" height="330">
<path d="M233.157 45.0344L410.107 147.887L278.378 374.51L101.428 271.657L233.157 45.0344Z" fill="white"/>
</mask>
<g mask="url(#mask137_292_970)">
<path d="M254.953 107.509L274.478 85.8613L277.069 87.9747L261.004 108.126L254.953 107.509Z" fill="#38B6FF"/>
<path d="M274.553 86.8615L256.45 106.938L260.686 107.368L276.059 88.0865L274.553 86.8615ZM253.458 108.088L274.413 84.8604L278.088 87.862L261.322 108.883L253.458 108.088Z" fill="#2B2B2B"/>
</g>
</g>
</g>
<mask id="mask138_292_970" style="mask-type:luminance" maskUnits="userSpaceOnUse" x="231" y="105" width="37" height="44">
<path d="M231.118 105.545H267.026V148.635H231.118V105.545Z" fill="white"/>
</mask>
<g mask="url(#mask138_292_970)">
<mask id="mask139_292_970" style="mask-type:luminance" maskUnits="userSpaceOnUse" x="101" y="45" width="310" height="330">
<path d="M233.157 45.0344L410.107 147.887L278.378 374.51L101.428 271.657L233.157 45.0344Z" fill="white"/>
</mask>
<g mask="url(#mask139_292_970)">
<mask id="mask140_292_970" style="mask-type:luminance" maskUnits="userSpaceOnUse" x="101" y="45" width="310" height="330">
<path d="M233.157 45.0344L410.107 147.887L278.378 374.51L101.428 271.657L233.157 45.0344Z" fill="white"/>
</mask>
<g mask="url(#mask140_292_970)">
<path d="M237.411 148.354C237.411 148.354 236.887 147.709 236.13 146.68C234.596 144.576 232.146 140.91 231.454 138.03C230.435 133.738 244.658 112.436 248.09 109.248C250.081 107.387 255.711 107.331 260.05 107.602C263.145 107.798 265.585 108.163 265.585 108.163L237.411 148.354Z" fill="#38B6FF"/>
</g>
</g>
</g>
<mask id="mask141_292_970" style="mask-type:luminance" maskUnits="userSpaceOnUse" x="233" y="105" width="35" height="44">
<path d="M233.512 105.545H267.026V148.635H233.512V105.545Z" fill="white"/>
</mask>
<g mask="url(#mask141_292_970)">
<mask id="mask142_292_970" style="mask-type:luminance" maskUnits="userSpaceOnUse" x="101" y="45" width="310" height="330">
<path d="M233.157 45.0344L410.107 147.887L278.378 374.51L101.428 271.657L233.157 45.0344Z" fill="white"/>
</mask>
<g mask="url(#mask142_292_970)">
<mask id="mask143_292_970" style="mask-type:luminance" maskUnits="userSpaceOnUse" x="101" y="45" width="310" height="330">
<path d="M233.157 45.0344L410.107 147.887L278.378 374.51L101.428 271.657L233.157 45.0344Z" fill="white"/>
</mask>
<g mask="url(#mask143_292_970)">
<path d="M237.411 148.354C237.411 148.354 236.888 147.709 236.13 146.68C233.222 130.175 257.684 108.397 257.684 108.397L260.05 107.602C263.146 107.798 265.586 108.163 265.586 108.163L237.411 148.354Z" fill="#38B6FF"/>
</g>
</g>
</g>
<mask id="mask144_292_970" style="mask-type:luminance" maskUnits="userSpaceOnUse" x="228" y="105" width="40" height="47">
<path d="M228.724 105.545H267.026V151.028H228.724V105.545Z" fill="white"/>
</mask>
<g mask="url(#mask144_292_970)">
<mask id="mask145_292_970" style="mask-type:luminance" maskUnits="userSpaceOnUse" x="101" y="45" width="310" height="330">
<path d="M233.157 45.0344L410.107 147.887L278.378 374.51L101.428 271.657L233.157 45.0344Z" fill="white"/>
</mask>
<g mask="url(#mask145_292_970)">
<mask id="mask146_292_970" style="mask-type:luminance" maskUnits="userSpaceOnUse" x="101" y="45" width="310" height="330">
<path d="M233.157 45.0344L410.107 147.887L278.378 374.51L101.428 271.657L233.157 45.0344Z" fill="white"/>
</mask>
<g mask="url(#mask146_292_970)">
<path d="M265.483 108.883C262.902 108.602 260.275 108.415 257.684 108.397C256.385 108.387 255.094 108.443 253.822 108.546C252.56 108.658 251.298 108.845 250.185 109.238C249.643 109.425 249.147 109.687 248.82 109.986C248.427 110.351 248.006 110.865 247.604 111.352C246.8 112.352 246.024 113.409 245.266 114.484C243.742 116.616 242.274 118.804 240.862 121.021C239.441 123.237 238.066 125.481 236.775 127.763C235.504 130.044 234.251 132.363 233.297 134.711C233.185 135 233.054 135.3 232.97 135.59L232.82 136.02L232.698 136.45C232.652 136.599 232.624 136.73 232.605 136.861C232.586 136.992 232.539 137.151 232.539 137.254C232.539 137.366 232.511 137.506 232.521 137.591C232.53 137.628 232.53 137.665 232.53 137.703V137.759L232.558 137.871C232.82 139.012 233.334 140.172 233.905 141.303C235.055 143.575 236.476 145.792 237.972 147.886L236.85 148.812C235.943 147.802 235.13 146.755 234.335 145.67C233.531 144.595 232.792 143.463 232.109 142.276C231.436 141.088 230.828 139.844 230.426 138.414L230.389 138.283L230.361 138.096L230.314 137.722C230.286 137.469 230.323 137.282 230.323 137.067C230.333 136.843 230.379 136.674 230.407 136.478C230.435 136.281 230.473 136.094 230.52 135.917L230.651 135.384L230.81 134.879C230.912 134.533 231.043 134.215 231.155 133.888C231.642 132.588 232.231 131.363 232.829 130.157C233.437 128.95 234.073 127.763 234.746 126.603C236.074 124.275 237.467 122.002 238.926 119.768C240.385 117.533 241.9 115.335 243.49 113.175C244.284 112.1 245.107 111.043 245.986 109.996C246.435 109.472 246.865 108.967 247.445 108.434C248.118 107.854 248.848 107.546 249.549 107.312C250.952 106.863 252.326 106.704 253.692 106.611C255.057 106.526 256.403 106.536 257.741 106.601C260.424 106.723 263.061 106.994 265.708 107.443L265.483 108.883Z" fill="#2B2B2B"/>
</g>
</g>
</g>
<mask id="mask147_292_970" style="mask-type:luminance" maskUnits="userSpaceOnUse" x="355" y="170" width="23" height="27">
<path d="M355.599 170.179H377.144V196.512H355.599V170.179Z" fill="white"/>
</mask>
<g mask="url(#mask147_292_970)">
<mask id="mask148_292_970" style="mask-type:luminance" maskUnits="userSpaceOnUse" x="101" y="45" width="310" height="330">
<path d="M233.157 45.0344L410.107 147.887L278.378 374.51L101.428 271.657L233.157 45.0344Z" fill="white"/>
</mask>
<g mask="url(#mask148_292_970)">
<mask id="mask149_292_970" style="mask-type:luminance" maskUnits="userSpaceOnUse" x="101" y="45" width="310" height="330">
<path d="M233.157 45.0344L410.107 147.887L278.378 374.51L101.428 271.657L233.157 45.0344Z" fill="white"/>
</mask>
<g mask="url(#mask149_292_970)">
<path d="M358.302 195.932L376.574 173.209L374.095 170.984L356.749 190.041L358.302 195.932Z" fill="#38B6FF"/>
</g>
</g>
</g>
<mask id="mask150_292_970" style="mask-type:luminance" maskUnits="userSpaceOnUse" x="355" y="167" width="25" height="32">
<path d="M355.599 167.785H379.538V198.905H355.599V167.785Z" fill="white"/>
</mask>
<g mask="url(#mask150_292_970)">
<mask id="mask151_292_970" style="mask-type:luminance" maskUnits="userSpaceOnUse" x="101" y="45" width="310" height="330">
<path d="M233.157 45.0337L410.107 147.886L278.378 374.509L101.428 271.657L233.157 45.0337Z" fill="white"/>
</mask>
<g mask="url(#mask151_292_970)">
<mask id="mask152_292_970" style="mask-type:luminance" maskUnits="userSpaceOnUse" x="101" y="45" width="310" height="330">
<path d="M233.157 45.0337L410.107 147.886L278.378 374.509L101.428 271.657L233.157 45.0337Z" fill="white"/>
</mask>
<g mask="url(#mask152_292_970)">
<path d="M357.554 190.237L358.638 194.37L375.582 173.293L374.142 172.002L357.554 190.237ZM357.965 197.503L355.955 189.854L374.049 169.964L377.574 173.125L357.965 197.503Z" fill="#2B2B2B"/>
</g>
</g>
</g>
<mask id="mask153_292_970" style="mask-type:luminance" maskUnits="userSpaceOnUse" x="319" y="184" width="42" height="42">
<path d="M319.691 184.543H360.387V225.239H319.691V184.543Z" fill="white"/>
</mask>
<g mask="url(#mask153_292_970)">
<mask id="mask154_292_970" style="mask-type:luminance" maskUnits="userSpaceOnUse" x="101" y="45" width="310" height="330">
<path d="M233.157 45.0344L410.107 147.887L278.378 374.51L101.428 271.657L233.157 45.0344Z" fill="white"/>
</mask>
<g mask="url(#mask154_292_970)">
<mask id="mask155_292_970" style="mask-type:luminance" maskUnits="userSpaceOnUse" x="101" y="45" width="310" height="330">
<path d="M233.157 45.0344L410.107 147.887L278.378 374.51L101.428 271.657L233.157 45.0344Z" fill="white"/>
</mask>
<g mask="url(#mask155_292_970)">
<path d="M331.913 223.976C330.08 223.836 327.836 223.069 325.854 222.218C323.076 221.031 320.804 219.703 320.804 219.703L355.992 185.515C355.992 185.515 356.918 188.452 357.647 191.996C358.479 196.063 359.059 200.917 357.666 203.002C355.066 206.892 336.308 224.313 331.913 223.976Z" fill="#38B6FF"/>
</g>
</g>
</g>
<mask id="mask156_292_970" style="mask-type:luminance" maskUnits="userSpaceOnUse" x="319" y="184" width="39" height="39">
<path d="M319.691 184.543H357.993V222.845H319.691V184.543Z" fill="white"/>
</mask>
<g mask="url(#mask156_292_970)">
<mask id="mask157_292_970" style="mask-type:luminance" maskUnits="userSpaceOnUse" x="101" y="45" width="310" height="330">
<path d="M233.157 45.0344L410.107 147.887L278.378 374.51L101.428 271.657L233.157 45.0344Z" fill="white"/>
</mask>
<g mask="url(#mask157_292_970)">
<mask id="mask158_292_970" style="mask-type:luminance" maskUnits="userSpaceOnUse" x="101" y="45" width="310" height="330">
<path d="M233.157 45.0344L410.107 147.887L278.378 374.51L101.428 271.657L233.157 45.0344Z" fill="white"/>
</mask>
<g mask="url(#mask158_292_970)">
<path d="M325.854 222.218C323.076 221.031 320.804 219.703 320.804 219.703L355.992 185.515C355.992 185.515 356.918 188.452 357.647 191.996C354.879 196.353 342.302 215.083 325.854 222.218Z" fill="#38B6FF"/>
</g>
</g>
</g>
<mask id="mask159_292_970" style="mask-type:luminance" maskUnits="userSpaceOnUse" x="319" y="184" width="42" height="42">
<path d="M319.691 184.543H360.387V225.239H319.691V184.543Z" fill="white"/>
</mask>
<g mask="url(#mask159_292_970)">
<mask id="mask160_292_970" style="mask-type:luminance" maskUnits="userSpaceOnUse" x="101" y="45" width="310" height="330">
<path d="M233.157 45.0344L410.107 147.887L278.378 374.51L101.428 271.657L233.157 45.0344Z" fill="white"/>
</mask>
<g mask="url(#mask160_292_970)">
<mask id="mask161_292_970" style="mask-type:luminance" maskUnits="userSpaceOnUse" x="101" y="45" width="310" height="330">
<path d="M233.157 45.0344L410.107 147.887L278.378 374.51L101.428 271.657L233.157 45.0344Z" fill="white"/>
</mask>
<g mask="url(#mask161_292_970)">
<path d="M320.439 220.329L321.169 219.076C321.234 219.114 327.798 222.929 331.969 223.256C335.709 223.546 354.159 206.948 357.067 202.6C359.04 199.654 356.469 189.424 355.309 185.731L356.684 185.291C357.133 186.712 360.985 199.336 358.264 203.404C355.749 207.163 336.747 225.08 331.857 224.696C327.35 224.35 320.72 220.498 320.439 220.329Z" fill="#2B2B2B"/>
</g>
</g>
</g>
<mask id="mask162_292_970" style="mask-type:luminance" maskUnits="userSpaceOnUse" x="235" y="93" width="133" height="130">
<path d="M235.906 93.5752H367.569V222.844H235.906V93.5752Z" fill="white"/>
</mask>
<g mask="url(#mask162_292_970)">
<mask id="mask163_292_970" style="mask-type:luminance" maskUnits="userSpaceOnUse" x="101" y="45" width="310" height="330">
<path d="M233.157 45.0344L410.107 147.887L278.378 374.51L101.428 271.657L233.157 45.0344Z" fill="white"/>
</mask>
<g mask="url(#mask163_292_970)">
<mask id="mask164_292_970" style="mask-type:luminance" maskUnits="userSpaceOnUse" x="101" y="45" width="310" height="330">
<path d="M233.157 45.0344L410.107 147.887L278.378 374.51L101.428 271.657L233.157 45.0344Z" fill="white"/>
</mask>
<g mask="url(#mask164_292_970)">
<path d="M320.841 219.665C320.055 219.936 319.27 220.188 318.466 220.413C316.689 220.927 314.875 221.32 313.033 221.619C309.115 222.236 305.066 222.377 300.914 222.012C288.505 220.918 275.17 215.307 261.593 204.582C248.894 192.827 241.273 180.503 238.252 168.402C237.243 164.344 236.738 160.314 236.738 156.339C236.738 156.078 236.738 155.816 236.747 155.554C237.084 134.888 251.269 115.943 274.965 100.963C281.941 96.5582 289.234 94.3794 296.547 93.9586C312.472 93.0422 328.443 100.448 341.142 111.211C351.559 120.216 360.078 131.802 363.603 144.557C366.296 154.273 366.091 164.671 361.621 175.107C359.947 179.025 358.133 182.738 356.207 186.235C346.977 203.057 334.98 214.793 320.841 219.665Z" fill="#38B6FF"/>
</g>
</g>
</g>
<mask id="mask165_292_970" style="mask-type:luminance" maskUnits="userSpaceOnUse" x="295" y="93" width="71" height="54">
<path d="M295.752 93.5752H365.175V146.24H295.752V93.5752Z" fill="white"/>
</mask>
<g mask="url(#mask165_292_970)">
<mask id="mask166_292_970" style="mask-type:luminance" maskUnits="userSpaceOnUse" x="101" y="45" width="310" height="330">
<path d="M233.157 45.0344L410.107 147.887L278.378 374.51L101.428 271.657L233.157 45.0344Z" fill="white"/>
</mask>
<g mask="url(#mask166_292_970)">
<mask id="mask167_292_970" style="mask-type:luminance" maskUnits="userSpaceOnUse" x="101" y="45" width="310" height="330">
<path d="M233.157 45.0344L410.107 147.887L278.378 374.51L101.428 271.657L233.157 45.0344Z" fill="white"/>
</mask>
<g mask="url(#mask167_292_970)">
<path d="M363.604 144.557C359.62 137.002 352.102 126.154 337.355 113.699C323.282 101.795 307.787 96.3992 296.547 93.9586C312.472 93.0422 328.444 100.448 341.142 111.211C351.559 120.216 360.078 131.802 363.604 144.557Z" fill="#F6F4F1"/>
</g>
</g>
</g>
<mask id="mask168_292_970" style="mask-type:luminance" maskUnits="userSpaceOnUse" x="235" y="105" width="119" height="118">
<path d="M235.906 105.545H353.205V222.845H235.906V105.545Z" fill="white"/>
</mask>
<g mask="url(#mask168_292_970)">
<mask id="mask169_292_970" style="mask-type:luminance" maskUnits="userSpaceOnUse" x="101" y="45" width="310" height="330">
<path d="M233.157 45.0344L410.107 147.887L278.378 374.51L101.428 271.657L233.157 45.0344Z" fill="white"/>
</mask>
<g mask="url(#mask169_292_970)">
<mask id="mask170_292_970" style="mask-type:luminance" maskUnits="userSpaceOnUse" x="101" y="45" width="310" height="330">
<path d="M233.157 45.0344L410.107 147.887L278.378 374.51L101.428 271.657L233.157 45.0344Z" fill="white"/>
</mask>
<g mask="url(#mask170_292_970)">
<path d="M318.466 220.413C316.689 220.927 314.875 221.32 313.033 221.619C309.115 222.237 305.066 222.377 300.914 222.012C288.505 220.918 275.17 215.307 261.593 204.582C248.894 192.827 241.273 180.503 238.252 168.402C237.243 164.344 236.738 160.314 236.738 156.34C236.738 156.078 236.738 155.816 236.747 155.554C239.599 146.156 247.641 130.11 264.716 119.253C293.096 101.215 308.825 104.572 330.819 123.396C350.83 140.508 361.35 168.028 336.644 201.103C330.519 209.313 324.329 215.597 318.466 220.413Z" fill="#38B6FF"/>
</g>
</g>
</g>
<mask id="mask171_292_970" style="mask-type:luminance" maskUnits="userSpaceOnUse" x="235" y="91" width="133" height="135">
<path d="M235.906 91.1816H367.569V225.238H235.906V91.1816Z" fill="white"/>
</mask>
<g mask="url(#mask171_292_970)">
<mask id="mask172_292_970" style="mask-type:luminance" maskUnits="userSpaceOnUse" x="101" y="45" width="310" height="330">
<path d="M233.157 45.0344L410.107 147.887L278.378 374.51L101.428 271.657L233.157 45.0344Z" fill="white"/>
</mask>
<g mask="url(#mask172_292_970)">
<mask id="mask173_292_970" style="mask-type:luminance" maskUnits="userSpaceOnUse" x="101" y="45" width="310" height="330">
<path d="M233.157 45.0344L410.107 147.887L278.378 374.51L101.428 271.657L233.157 45.0344Z" fill="white"/>
</mask>
<g mask="url(#mask173_292_970)">
<path d="M320.505 218.655C326.901 216.43 332.736 212.745 337.832 208.229C340.385 205.985 342.732 203.488 344.92 200.87C347.109 198.242 349.156 195.493 351.017 192.613C354.758 186.871 357.918 180.737 360.593 174.415C363.22 168.178 364.455 161.389 364.053 154.657C363.856 151.3 363.277 147.952 362.379 144.698C361.462 141.453 360.219 138.292 358.723 135.253C355.73 129.175 351.691 123.621 347.09 118.627C344.78 116.13 342.312 113.774 339.712 111.595C337.103 109.426 334.363 107.396 331.511 105.554C325.798 101.879 319.607 98.9151 313.099 97.0636C309.845 96.1472 306.516 95.5207 303.159 95.2214C299.792 94.9222 296.407 95.0157 293.078 95.4645C289.74 95.9134 286.448 96.755 283.316 97.9893C280.155 99.2237 277.191 100.804 274.329 102.712C268.56 106.433 263.061 110.595 258.077 115.298L256.216 117.075L254.449 118.936L253.561 119.861L253.121 120.329L252.7 120.815L251.036 122.77C250.765 123.097 250.484 123.424 250.213 123.751L249.446 124.78L247.903 126.828C247.398 127.511 246.959 128.24 246.482 128.951L245.771 130.017L245.425 130.55L245.107 131.111C244.284 132.598 243.377 134.047 242.695 135.609C242.339 136.385 241.937 137.133 241.61 137.918C241.301 138.713 240.983 139.499 240.656 140.284C240.507 140.686 240.329 141.07 240.189 141.472L239.796 142.687C239.543 143.501 239.263 144.305 239.02 145.119L238.431 147.606C238.337 148.017 238.225 148.429 238.15 148.85L237.963 150.112C237.851 150.963 237.711 151.805 237.626 152.646L237.514 155.208C237.496 155.629 237.477 156.059 237.467 156.48C237.467 156.91 237.477 157.34 237.496 157.761C237.524 158.612 237.57 159.463 237.645 160.314C237.935 163.709 238.59 167.075 239.562 170.348C241.507 176.894 244.686 183.028 248.586 188.629C252.495 194.249 257.151 199.317 262.164 203.974L262.108 203.937C266.269 207.172 270.636 210.165 275.246 212.699C277.537 213.989 279.912 215.121 282.315 216.177C284.728 217.215 287.196 218.104 289.702 218.861C292.209 219.618 294.771 220.17 297.352 220.582C299.933 220.984 302.541 221.208 305.15 221.208C310.368 221.218 315.586 220.385 320.505 218.655ZM321.178 220.675C316.016 222.452 310.555 223.275 305.132 223.219C302.42 223.209 299.708 222.947 297.043 222.517C294.369 222.068 291.732 221.47 289.151 220.675C286.579 219.88 284.045 218.945 281.576 217.87C279.126 216.766 276.705 215.598 274.367 214.26C269.682 211.633 265.278 208.556 261.07 205.255L261.041 205.237L261.023 205.209C255.955 200.458 251.242 195.287 247.277 189.546C243.321 183.813 240.086 177.511 238.113 170.778C237.131 167.412 236.467 163.942 236.186 160.436C236.112 159.566 236.065 158.687 236.037 157.808C236.027 157.369 236.018 156.929 236.018 156.49C236.018 156.05 236.055 155.611 236.065 155.171L236.168 152.534C236.252 151.655 236.364 150.785 236.458 149.906L236.607 148.597C236.663 148.158 236.757 147.728 236.832 147.297L237.327 144.698C237.533 143.838 237.785 142.987 238.01 142.136L238.356 140.855C238.477 140.424 238.655 140.022 238.795 139.602C239.104 138.779 239.412 137.946 239.721 137.123C240.058 136.301 240.46 135.515 240.834 134.711C241.535 133.084 242.47 131.588 243.321 130.035L243.639 129.465L244.004 128.913L244.733 127.8C245.22 127.071 245.678 126.314 246.192 125.603L247.772 123.49L248.567 122.433C248.838 122.087 249.128 121.76 249.409 121.423L251.111 119.403L251.541 118.908L251.99 118.431L252.897 117.468L254.711 115.551L256.609 113.737C261.696 108.902 267.288 104.647 273.142 100.841C278.967 96.9046 285.747 94.1273 292.77 93.1922C296.286 92.7153 299.848 92.6031 303.364 92.9024C306.88 93.2016 310.359 93.8562 313.753 94.8006C320.524 96.7176 326.91 99.7754 332.801 103.544C335.738 105.442 338.562 107.518 341.255 109.753C343.939 112.007 346.473 114.419 348.857 116.981C353.598 122.124 357.778 127.838 360.901 134.169C362.454 137.329 363.763 140.621 364.726 144.025C365.68 147.438 366.297 150.954 366.503 154.507C366.952 161.614 365.605 168.814 362.828 175.351C360.097 181.803 356.834 188.031 352.962 193.894C351.055 196.839 348.941 199.654 346.669 202.347C344.397 205.031 341.966 207.593 339.3 209.912C334.008 214.56 327.892 218.375 321.178 220.675Z" fill="#2B2B2B"/>
</g>
</g>
</g>
<mask id="mask174_292_970" style="mask-type:luminance" maskUnits="userSpaceOnUse" x="235" y="115" width="112" height="108">
<path d="M235.906 115.12H346.024V222.844H235.906V115.12Z" fill="white"/>
</mask>
<g mask="url(#mask174_292_970)">
<mask id="mask175_292_970" style="mask-type:luminance" maskUnits="userSpaceOnUse" x="101" y="45" width="310" height="330">
<path d="M233.157 45.0344L410.107 147.887L278.378 374.51L101.428 271.657L233.157 45.0344Z" fill="white"/>
</mask>
<g mask="url(#mask175_292_970)">
<mask id="mask176_292_970" style="mask-type:luminance" maskUnits="userSpaceOnUse" x="101" y="45" width="310" height="330">
<path d="M233.157 45.0344L410.107 147.887L278.378 374.51L101.428 271.657L233.157 45.0344Z" fill="white"/>
</mask>
<g mask="url(#mask176_292_970)">
<path d="M332.409 204.489C324.058 214.289 312.818 220.18 300.914 222.013C288.505 220.918 275.171 215.317 261.593 204.592C248.894 192.828 241.273 180.513 238.253 168.403C238.197 156.331 242.236 144.277 250.587 134.487C269.41 112.381 302.99 110.146 325.582 129.475C348.174 148.813 351.232 182.392 332.409 204.489Z" fill="#2B2B2B"/>
</g>
</g>
</g>
<mask id="mask177_292_970" style="mask-type:luminance" maskUnits="userSpaceOnUse" x="245" y="146" width="20" height="51">
<path d="M245.481 146.24H264.632V196.512H245.481V146.24Z" fill="white"/>
</mask>
<g mask="url(#mask177_292_970)">
<mask id="mask178_292_970" style="mask-type:luminance" maskUnits="userSpaceOnUse" x="101" y="45" width="310" height="330">
<path d="M233.156 45.0337L410.106 147.886L278.378 374.509L101.428 271.657L233.156 45.0337Z" fill="white"/>
</mask>
<g mask="url(#mask178_292_970)">
<mask id="mask179_292_970" style="mask-type:luminance" maskUnits="userSpaceOnUse" x="101" y="45" width="310" height="330">
<path d="M233.156 45.0337L410.106 147.886L278.378 374.509L101.428 271.657L233.156 45.0337Z" fill="white"/>
</mask>
<g mask="url(#mask179_292_970)">
<path d="M252.082 146.567C250.549 145.829 245.35 158.266 247.136 171.282C249.146 185.973 261.368 196.848 262.939 195.315C265.221 193.07 255.365 186.852 251.456 172.694C248.136 160.65 253.766 147.381 252.082 146.567Z" fill="#F6F4F1"/>
</g>
</g>
</g>
<mask id="mask180_292_970" style="mask-type:luminance" maskUnits="userSpaceOnUse" x="334" y="162" width="8" height="25">
<path d="M334.054 162.998H341.236V186.936H334.054V162.998Z" fill="white"/>
</mask>
<g mask="url(#mask180_292_970)">
<mask id="mask181_292_970" style="mask-type:luminance" maskUnits="userSpaceOnUse" x="101" y="45" width="310" height="330">
<path d="M233.157 45.0344L410.107 147.887L278.378 374.51L101.428 271.657L233.157 45.0344Z" fill="white"/>
</mask>
<g mask="url(#mask181_292_970)">
<mask id="mask182_292_970" style="mask-type:luminance" maskUnits="userSpaceOnUse" x="101" y="45" width="310" height="330">
<path d="M233.157 45.0344L410.107 147.887L278.378 374.51L101.428 271.657L233.157 45.0344Z" fill="white"/>
</mask>
<g mask="url(#mask182_292_970)">
<path d="M335.616 185.506C336.776 185.908 339.244 181.569 340.114 176.127C341.03 170.357 338.842 164.569 337.664 164.616C336.841 164.653 337.009 166.514 336.598 172.62C336.009 181.176 334.559 185.141 335.616 185.506Z" fill="#F6F4F1"/>
</g>
</g>
</g>
<mask id="mask183_292_970" style="mask-type:luminance" maskUnits="userSpaceOnUse" x="334" y="155" width="5" height="8">
<path d="M334.054 155.816H338.842V162.998H334.054V155.816Z" fill="white"/>
</mask>
<g mask="url(#mask183_292_970)">
<mask id="mask184_292_970" style="mask-type:luminance" maskUnits="userSpaceOnUse" x="101" y="45" width="310" height="330">
<path d="M233.157 45.0344L410.107 147.887L278.378 374.51L101.428 271.657L233.157 45.0344Z" fill="white"/>
</mask>
<g mask="url(#mask184_292_970)">
<mask id="mask185_292_970" style="mask-type:luminance" maskUnits="userSpaceOnUse" x="101" y="45" width="310" height="330">
<path d="M233.157 45.0344L410.107 147.887L278.378 374.51L101.428 271.657L233.157 45.0344Z" fill="white"/>
</mask>
<g mask="url(#mask185_292_970)">
<path d="M337.738 160.118C337.851 158.313 335.55 156.686 334.765 157.088C334.344 157.303 334.353 158.107 334.363 158.444C334.4 160.174 335.887 161.913 336.822 161.689C337.383 161.558 337.701 160.716 337.738 160.118Z" fill="#F6F4F1"/>
</g>
</g>
</g>
</svg>
